<svg id="svg" version="1.1" xmlns="http://www.w3.org/2000/svg" xmlns:xlink="http://www.w3.org/1999/xlink" width="400" height="752.7559055118111" viewBox="0, 0, 400,752.7559055118111"><g id="svgg"><path id="path0" d="M192.400 49.266 C 190.970 49.467,188.000 49.884,185.800 50.195 C 183.600 50.505,179.910 51.297,177.600 51.954 C 175.290 52.612,172.320 53.266,171.000 53.408 C 167.755 53.759,164.083 54.748,162.480 55.703 C 161.754 56.136,159.882 56.819,158.319 57.221 C 156.757 57.623,154.733 58.487,153.821 59.142 C 152.909 59.797,151.141 60.599,149.892 60.925 C 148.643 61.252,146.312 62.290,144.711 63.232 C 143.110 64.175,140.630 65.560,139.200 66.310 C 137.770 67.060,136.376 67.858,136.103 68.083 C 135.829 68.309,134.479 69.026,133.103 69.677 C 131.726 70.327,130.455 71.119,130.277 71.436 C 130.099 71.753,128.922 72.532,127.662 73.169 C 125.263 74.380,123.301 76.269,120.494 80.071 C 119.572 81.320,118.631 82.457,118.403 82.598 C 118.175 82.739,117.703 83.517,117.355 84.327 C 114.293 91.456,113.669 102.462,116.000 108.200 C 116.626 109.740,117.441 111.843,117.813 112.872 C 120.732 120.970,132.357 123.888,139.800 118.391 C 140.680 117.741,142.195 116.841,143.167 116.390 C 144.811 115.628,146.371 114.690,151.708 111.252 C 154.125 109.696,167.255 103.820,169.730 103.188 C 170.648 102.953,172.229 102.416,173.242 101.994 C 174.970 101.275,181.427 99.991,186.400 99.378 C 187.610 99.229,189.770 98.861,191.200 98.560 C 195.288 97.701,204.329 97.826,207.774 98.790 C 209.329 99.225,212.693 99.932,215.251 100.361 C 218.151 100.847,220.636 101.519,221.851 102.145 C 222.923 102.698,224.819 103.594,226.063 104.137 C 227.308 104.680,229.260 105.861,230.399 106.762 C 231.539 107.663,232.600 108.400,232.757 108.400 C 232.914 108.400,234.112 109.404,235.421 110.632 C 236.729 111.860,238.660 113.615,239.712 114.532 C 243.937 118.219,248.319 122.933,249.828 125.416 C 250.284 126.166,250.956 127.109,251.321 127.513 C 252.162 128.442,253.616 130.993,255.406 134.677 C 256.174 136.260,256.961 137.652,257.154 137.772 C 257.347 137.891,258.016 139.206,258.641 140.694 C 259.266 142.182,260.264 144.084,260.859 144.920 C 261.455 145.756,262.135 147.337,262.370 148.433 C 262.605 149.530,263.133 151.095,263.544 151.913 C 263.955 152.731,264.517 154.120,264.792 155.000 C 265.067 155.880,265.791 157.600,266.401 158.823 C 267.011 160.046,267.899 162.656,268.375 164.623 C 268.850 166.590,269.500 168.830,269.818 169.600 C 270.136 170.370,270.913 173.261,271.544 176.025 C 272.175 178.788,272.893 181.426,273.139 181.886 C 273.870 183.252,274.729 189.422,274.993 195.200 C 275.129 198.170,275.609 202.819,276.060 205.530 C 276.969 210.990,276.980 228.377,276.076 231.128 C 275.836 231.858,275.442 235.008,275.201 238.128 C 274.664 245.061,274.194 248.156,273.195 251.350 C 272.774 252.697,272.057 255.352,271.601 257.249 C 271.146 259.146,270.150 261.936,269.388 263.449 C 268.626 264.962,268.002 266.435,268.001 266.723 C 267.998 268.165,259.575 284.062,257.449 286.640 C 256.886 287.322,256.235 288.381,256.003 288.992 C 255.603 290.044,248.310 298.619,247.594 298.878 C 246.813 299.162,241.178 304.242,240.568 305.214 C 239.959 306.184,233.590 311.170,231.731 312.133 C 231.109 312.455,229.637 313.367,228.460 314.159 C 227.283 314.952,226.130 315.600,225.898 315.600 C 225.665 315.600,224.863 316.067,224.114 316.639 C 223.365 317.210,221.728 318.036,220.476 318.473 C 219.224 318.911,217.627 319.703,216.927 320.234 C 216.227 320.765,215.147 321.400,214.527 321.645 C 208.372 324.083,206.480 323.103,204.156 316.272 C 203.637 314.746,203.039 313.288,202.827 313.033 C 202.615 312.778,201.912 311.136,201.265 309.384 C 200.617 307.633,199.618 305.177,199.044 303.926 C 198.470 302.675,198.000 301.405,198.000 301.104 C 198.000 300.803,197.434 299.666,196.742 298.578 C 196.050 297.490,194.996 295.520,194.401 294.200 C 193.805 292.880,192.849 291.080,192.276 290.200 C 191.231 288.594,190.953 288.206,187.094 282.946 C 176.534 268.556,161.874 266.632,152.015 278.343 C 150.467 280.182,149.200 281.815,149.200 281.971 C 149.200 282.128,148.564 282.999,147.786 283.908 C 147.008 284.817,145.938 286.755,145.409 288.215 C 144.879 289.676,144.171 291.290,143.836 291.801 C 143.501 292.313,143.037 293.914,142.806 295.360 C 142.351 298.210,141.474 301.950,140.592 304.800 C 138.443 311.749,138.716 335.105,140.990 338.784 C 141.086 338.938,141.521 340.704,141.959 342.709 C 142.396 344.713,143.200 347.308,143.744 348.476 C 144.289 349.644,144.961 351.410,145.239 352.400 C 145.517 353.390,146.536 355.272,147.505 356.583 C 148.473 357.894,149.513 359.444,149.815 360.029 C 150.991 362.303,159.995 369.892,162.800 370.973 C 163.790 371.354,165.356 372.165,166.279 372.774 C 167.203 373.383,169.003 374.083,170.279 374.329 C 175.910 375.415,180.529 376.000,183.461 376.000 C 187.815 376.000,191.134 379.032,192.657 384.400 C 193.000 385.610,193.647 387.230,194.094 388.000 C 194.540 388.770,195.414 390.840,196.035 392.600 C 196.656 394.360,197.995 398.050,199.009 400.800 C 200.024 403.550,201.316 407.240,201.880 409.000 C 202.445 410.760,203.231 412.615,203.628 413.122 C 204.025 413.629,204.741 415.249,205.220 416.722 C 205.699 418.195,206.415 420.120,206.812 421.000 C 207.823 423.243,210.269 429.995,211.449 433.800 C 211.995 435.560,212.860 437.810,213.372 438.800 C 213.884 439.790,214.608 441.543,214.982 442.695 C 215.355 443.848,215.817 444.887,216.008 445.005 C 216.199 445.123,216.910 447.060,217.588 449.310 C 218.266 451.559,219.243 454.210,219.760 455.200 C 220.276 456.190,221.015 457.990,221.402 459.200 C 221.789 460.410,222.253 461.587,222.432 461.816 C 222.611 462.044,223.308 463.754,223.981 465.616 C 224.654 467.477,225.452 469.450,225.754 470.000 C 226.056 470.550,226.609 472.080,226.983 473.400 C 227.356 474.720,228.251 477.060,228.972 478.600 C 229.693 480.140,230.599 482.570,230.985 484.000 C 231.370 485.430,231.852 486.805,232.054 487.055 C 232.257 487.305,232.959 488.978,233.614 490.773 C 234.269 492.567,235.255 494.925,235.806 496.011 C 236.356 497.098,237.071 499.001,237.394 500.241 C 237.717 501.481,238.141 502.699,238.337 502.948 C 238.533 503.196,239.102 504.660,239.602 506.200 C 240.101 507.740,240.925 509.720,241.432 510.600 C 241.940 511.480,242.550 513.073,242.788 514.139 C 243.026 515.205,243.735 517.185,244.363 518.539 C 244.992 519.893,245.988 522.350,246.577 524.000 C 247.166 525.650,247.886 527.366,248.176 527.813 C 248.466 528.260,249.016 529.700,249.397 531.013 C 249.779 532.326,250.361 533.912,250.690 534.537 C 251.020 535.163,251.883 537.323,252.608 539.337 C 255.245 546.666,256.382 549.592,257.327 551.477 C 257.857 552.535,258.514 554.120,258.786 555.000 C 259.059 555.880,259.891 557.860,260.635 559.400 C 261.380 560.940,262.166 563.140,262.382 564.289 C 262.598 565.437,263.233 567.282,263.794 568.388 C 264.858 570.489,266.066 573.566,267.986 579.066 C 268.613 580.862,269.592 583.126,270.161 584.098 C 270.730 585.069,271.535 586.840,271.950 588.032 C 272.365 589.224,272.976 590.740,273.309 591.400 C 273.643 592.060,274.290 593.450,274.747 594.490 C 275.205 595.529,275.866 596.699,276.216 597.090 C 276.566 597.480,277.246 598.409,277.726 599.153 C 278.400 600.197,279.118 600.665,280.870 601.201 C 282.119 601.582,283.628 602.279,284.224 602.747 C 285.787 603.977,287.814 603.840,290.849 602.300 C 292.258 601.585,293.994 600.760,294.706 600.466 C 295.418 600.173,296.000 599.758,296.000 599.544 C 296.000 599.329,296.786 598.029,297.747 596.655 C 303.929 587.810,303.780 569.739,297.424 557.600 C 296.905 556.610,296.085 554.462,295.602 552.827 C 295.118 551.192,294.482 549.482,294.189 549.027 C 293.895 548.572,293.213 547.030,292.673 545.600 C 292.132 544.170,291.240 542.100,290.689 541.000 C 290.139 539.900,289.382 537.920,289.007 536.600 C 288.631 535.280,288.179 534.020,288.002 533.800 C 287.825 533.580,287.191 531.780,286.593 529.800 C 285.996 527.820,284.912 525.120,284.184 523.800 C 283.456 522.480,282.731 520.695,282.573 519.834 C 282.415 518.973,281.880 517.670,281.384 516.938 C 280.888 516.207,280.263 514.662,279.996 513.505 C 279.729 512.347,279.046 510.590,278.479 509.600 C 277.912 508.610,277.046 506.450,276.555 504.800 C 275.352 500.752,272.619 493.618,271.633 491.946 C 271.192 491.199,270.627 489.601,270.377 488.394 C 270.126 487.187,269.564 485.580,269.128 484.821 C 268.691 484.063,267.814 482.018,267.179 480.276 C 266.543 478.534,265.862 476.905,265.665 476.655 C 265.468 476.405,264.809 474.670,264.200 472.800 C 263.591 470.930,262.955 469.220,262.786 469.000 C 262.617 468.780,261.991 466.980,261.395 465.000 C 260.798 463.020,260.082 461.130,259.803 460.800 C 258.913 459.746,258.034 457.739,257.589 455.741 C 257.350 454.673,256.555 452.540,255.822 451.000 C 255.089 449.460,254.361 447.570,254.205 446.800 C 254.049 446.030,253.685 445.026,253.396 444.568 C 253.107 444.110,252.321 442.178,251.649 440.274 C 250.977 438.370,250.172 436.314,249.860 435.706 C 249.549 435.098,248.917 433.220,248.457 431.533 C 247.997 429.846,247.191 427.832,246.665 427.058 C 246.140 426.284,245.409 424.454,245.042 422.991 C 244.675 421.529,244.020 419.853,243.587 419.266 C 243.154 418.680,242.462 417.020,242.050 415.578 C 241.638 414.135,241.004 412.380,240.640 411.678 C 240.019 410.476,239.505 409.150,236.191 400.200 C 235.458 398.220,234.496 395.908,234.053 395.063 C 233.610 394.217,233.125 392.507,232.974 391.263 C 232.665 388.711,232.305 387.836,230.977 386.400 C 230.469 385.850,229.701 384.140,229.271 382.600 C 228.841 381.060,227.840 378.383,227.045 376.650 C 224.499 371.099,225.201 367.413,229.200 365.346 C 230.190 364.834,232.710 363.588,234.800 362.578 C 236.890 361.568,238.870 360.502,239.200 360.209 C 239.530 359.916,240.880 359.239,242.200 358.706 C 243.520 358.173,245.230 357.151,246.000 356.437 C 246.770 355.722,249.716 353.307,252.546 351.069 C 259.961 345.206,259.824 345.325,263.572 341.530 C 270.155 334.866,272.581 332.191,273.100 331.026 C 273.388 330.381,274.473 328.921,275.512 327.781 C 276.550 326.642,277.808 325.100,278.307 324.355 C 278.806 323.610,279.831 322.100,280.584 321.000 C 281.337 319.900,282.400 318.179,282.945 317.175 C 283.491 316.171,284.226 315.111,284.578 314.818 C 284.930 314.526,286.381 311.885,287.802 308.950 C 289.224 306.015,290.745 303.255,291.183 302.817 C 291.621 302.379,292.104 301.521,292.256 300.910 C 292.602 299.524,296.169 291.476,297.170 289.825 C 297.578 289.151,298.119 287.610,298.370 286.400 C 298.622 285.190,299.562 281.680,300.458 278.600 C 301.354 275.520,302.417 271.740,302.820 270.200 C 303.223 268.660,303.834 266.416,304.177 265.213 C 304.519 264.010,304.799 262.660,304.797 262.213 C 304.794 261.214,305.801 255.439,306.821 250.600 C 309.646 237.207,309.719 197.942,306.945 184.000 C 306.617 182.350,306.097 179.407,305.789 177.460 C 305.069 172.905,303.325 164.150,302.829 162.600 C 302.618 161.940,302.173 160.680,301.840 159.800 C 301.507 158.920,301.224 157.570,301.211 156.800 C 301.197 156.030,300.364 152.790,299.358 149.600 C 298.353 146.410,296.897 141.730,296.122 139.200 C 295.348 136.670,294.557 134.406,294.365 134.168 C 294.172 133.931,293.537 132.312,292.952 130.571 C 292.367 128.830,291.395 126.414,290.791 125.202 C 290.187 123.991,289.378 122.010,288.994 120.800 C 288.609 119.590,288.171 118.420,288.021 118.200 C 287.871 117.980,287.233 116.540,286.603 115.000 C 285.972 113.460,285.053 111.708,284.559 111.106 C 284.066 110.505,283.275 108.975,282.802 107.706 C 282.329 106.438,281.607 105.040,281.198 104.600 C 280.788 104.160,280.031 102.900,279.516 101.800 C 279.001 100.700,278.044 99.067,277.390 98.172 C 276.735 97.277,275.390 94.991,274.400 93.092 C 273.410 91.194,272.238 89.475,271.795 89.272 C 271.353 89.070,270.727 88.386,270.404 87.752 C 270.081 87.118,269.183 85.952,268.408 85.161 C 266.109 82.811,264.626 81.097,263.425 79.400 C 262.236 77.719,253.669 69.200,253.168 69.200 C 253.008 69.200,251.464 68.074,249.738 66.699 C 245.576 63.381,242.812 61.426,240.909 60.456 C 240.050 60.017,239.110 59.373,238.821 59.025 C 238.532 58.677,237.284 58.101,236.048 57.746 C 233.548 57.027,231.720 56.177,230.888 55.346 C 229.906 54.363,229.022 54.068,225.677 53.611 C 223.868 53.363,221.671 52.907,220.796 52.599 C 212.505 49.673,199.983 48.204,192.400 49.266 " stroke="none" fill="#0c0c0c" fill-rule="evenodd"></path><path id="path1" d="M0.000 376.200 L 0.000 752.400 200.000 752.400 L 400.000 752.400 400.000 376.200 L 400.000 0.000 200.000 0.000 L 0.000 0.000 0.000 376.200 M214.400 46.957 C 217.260 47.315,220.211 47.978,222.200 48.711 C 223.960 49.359,226.120 50.017,227.000 50.174 C 227.880 50.331,229.352 50.896,230.271 51.430 C 231.190 51.963,232.234 52.400,232.591 52.400 C 233.472 52.400,235.582 53.496,236.800 54.587 C 237.350 55.079,238.668 55.716,239.729 56.001 C 240.799 56.289,242.174 57.035,242.814 57.676 C 243.450 58.311,244.561 59.031,245.285 59.276 C 248.024 60.202,259.200 69.392,259.200 70.718 C 259.200 70.974,259.920 71.551,260.800 72.000 C 261.680 72.449,262.400 73.072,262.400 73.386 C 262.400 73.699,262.916 74.259,263.546 74.632 C 264.176 75.004,264.989 75.812,265.352 76.427 C 265.715 77.042,266.566 78.142,267.242 78.872 C 269.251 81.042,274.687 87.841,275.226 88.858 C 275.500 89.376,276.072 90.165,276.497 90.611 C 276.921 91.056,277.603 92.369,278.011 93.528 C 278.419 94.687,279.303 96.149,279.976 96.778 C 280.649 97.407,281.200 98.208,281.200 98.560 C 281.200 98.911,281.812 99.847,282.559 100.639 C 283.337 101.464,284.132 102.876,284.418 103.940 C 284.693 104.963,285.307 106.250,285.783 106.800 C 286.806 107.981,287.600 109.731,287.600 110.805 C 287.600 111.227,288.123 112.168,288.763 112.897 C 289.402 113.625,290.238 115.296,290.620 116.610 C 291.001 117.925,291.723 119.540,292.223 120.200 C 292.723 120.860,293.430 122.570,293.794 124.000 C 294.158 125.430,294.914 127.270,295.474 128.089 C 296.034 128.907,296.744 130.773,297.050 132.235 C 297.390 133.856,297.996 135.355,298.604 136.077 C 299.152 136.729,299.611 137.383,299.625 137.531 C 300.235 144.060,300.312 144.430,301.368 145.954 C 302.136 147.062,302.635 148.564,303.065 151.062 C 303.400 153.008,303.995 155.320,304.387 156.200 C 305.597 158.919,305.974 160.440,306.588 165.101 C 306.914 167.577,307.431 170.097,307.737 170.701 C 308.599 172.405,309.112 175.251,309.812 182.200 C 310.166 185.720,310.721 189.768,311.044 191.195 C 312.625 198.165,312.921 236.510,311.440 242.400 C 310.713 245.292,309.886 250.567,309.219 256.564 C 308.977 258.744,308.349 261.804,307.824 263.364 C 307.298 264.924,306.576 267.971,306.220 270.135 C 305.853 272.359,305.153 274.882,304.610 275.935 C 304.081 276.961,303.451 278.970,303.209 280.400 C 302.701 283.399,302.138 285.027,301.166 286.305 C 300.787 286.802,300.349 288.332,300.193 289.705 C 299.891 292.352,299.537 293.311,298.386 294.600 C 297.993 295.040,297.293 296.560,296.832 297.979 C 296.370 299.397,295.649 300.927,295.231 301.379 C 294.812 301.830,294.157 303.163,293.776 304.339 C 293.394 305.516,292.657 306.985,292.136 307.603 C 291.616 308.221,290.916 309.503,290.582 310.452 C 290.247 311.401,289.633 312.542,289.218 312.989 C 288.803 313.435,288.158 314.610,287.784 315.600 C 287.410 316.590,286.685 317.788,286.173 318.263 C 285.661 318.737,284.954 319.817,284.603 320.663 C 284.251 321.508,283.460 322.830,282.844 323.600 C 282.228 324.370,281.443 325.540,281.101 326.200 C 280.758 326.860,279.920 327.810,279.239 328.312 C 278.558 328.814,278.000 329.483,278.000 329.800 C 278.000 330.117,277.444 330.786,276.764 331.288 C 276.085 331.790,275.288 332.776,274.993 333.481 C 273.646 336.698,254.560 355.138,251.064 356.599 C 250.312 356.913,249.589 357.453,249.456 357.799 C 249.323 358.144,248.111 358.949,246.762 359.587 C 245.413 360.225,243.960 361.121,243.534 361.579 C 243.108 362.036,241.491 363.083,239.942 363.905 C 235.772 366.118,235.057 366.539,233.819 367.513 C 233.199 368.001,232.471 368.400,232.200 368.400 C 230.012 368.400,228.194 372.404,229.543 374.251 C 230.005 374.883,230.626 376.572,230.923 378.005 C 231.220 379.437,231.931 381.327,232.504 382.205 C 233.078 383.082,233.839 384.946,234.197 386.348 C 234.554 387.749,235.196 389.369,235.622 389.948 C 236.049 390.526,236.703 392.440,237.075 394.200 C 237.464 396.040,238.116 397.847,238.609 398.452 C 239.081 399.031,239.785 400.651,240.174 402.052 C 240.562 403.453,241.218 404.968,241.632 405.417 C 242.045 405.867,242.725 407.598,243.141 409.265 C 243.558 410.931,244.268 412.814,244.719 413.448 C 245.170 414.081,245.925 416.130,246.396 418.000 C 246.868 419.870,247.573 421.760,247.962 422.200 C 248.823 423.172,249.415 424.729,249.963 427.465 C 250.190 428.601,250.787 430.135,251.290 430.876 C 251.792 431.616,252.453 433.206,252.759 434.411 C 253.064 435.615,253.718 437.085,254.212 437.677 C 254.741 438.311,255.389 440.037,255.790 441.877 C 256.164 443.595,256.894 445.630,257.413 446.400 C 258.557 448.100,259.200 449.742,259.200 450.966 C 259.200 451.468,259.808 453.032,260.551 454.440 C 261.295 455.848,262.099 457.929,262.340 459.065 C 262.580 460.201,263.203 461.759,263.725 462.528 C 264.247 463.297,264.995 465.247,265.387 466.863 C 265.780 468.478,266.421 470.208,266.814 470.707 C 267.206 471.206,267.908 472.870,268.374 474.406 C 268.841 475.941,269.646 477.822,270.165 478.586 C 270.683 479.350,271.388 481.218,271.731 482.737 C 272.074 484.255,272.795 486.146,273.333 486.939 C 273.871 487.732,274.499 489.446,274.728 490.748 C 274.957 492.049,275.681 494.079,276.336 495.257 C 276.991 496.436,277.749 498.480,278.020 499.800 C 278.291 501.120,278.926 502.830,279.431 503.600 C 279.936 504.370,280.720 505.951,281.174 507.113 C 281.627 508.275,282.252 509.625,282.562 510.113 C 282.871 510.601,283.520 512.620,284.004 514.600 C 284.487 516.580,285.202 518.560,285.591 519.000 C 286.748 520.305,287.229 521.502,287.650 524.122 C 287.876 525.525,288.374 526.947,288.799 527.400 C 289.212 527.840,289.935 529.609,290.407 531.330 C 290.879 533.052,291.687 535.083,292.204 535.843 C 292.720 536.604,293.257 537.806,293.396 538.513 C 293.784 540.479,294.455 542.116,295.236 543.000 C 295.624 543.440,296.297 545.161,296.731 546.824 C 297.165 548.487,297.988 550.537,298.560 551.380 C 299.132 552.222,299.601 553.022,299.602 553.156 C 299.620 555.045,300.592 558.404,301.532 559.822 C 302.337 561.038,302.893 562.656,303.342 565.089 C 303.698 567.020,304.395 569.410,304.892 570.400 C 306.549 573.705,306.341 587.755,304.614 589.188 C 304.316 589.436,303.776 590.967,303.415 592.591 C 303.053 594.215,302.325 596.142,301.795 596.872 C 301.265 597.602,300.454 598.890,299.991 599.733 C 299.529 600.576,298.614 601.566,297.959 601.933 C 297.305 602.300,296.137 603.172,295.365 603.872 C 292.995 606.018,287.514 607.389,285.119 606.433 C 284.613 606.232,283.329 605.844,282.263 605.571 C 280.501 605.120,279.562 604.523,275.765 601.438 C 275.085 600.886,274.095 599.571,273.565 598.517 C 273.034 597.463,272.203 596.149,271.718 595.597 C 271.233 595.045,270.574 593.470,270.253 592.097 C 269.922 590.676,269.226 589.071,268.639 588.373 C 268.071 587.699,267.311 586.124,266.950 584.873 C 266.589 583.623,266.163 582.510,266.003 582.400 C 265.296 581.915,264.345 579.382,263.801 576.538 C 263.476 574.842,263.073 573.352,262.905 573.227 C 262.086 572.618,261.584 571.527,260.831 568.715 C 260.379 567.029,259.601 565.048,259.103 564.314 C 258.605 563.580,257.947 561.994,257.641 560.789 C 257.336 559.585,256.684 558.118,256.193 557.529 C 255.702 556.940,254.987 555.140,254.605 553.529 C 254.222 551.918,253.455 549.926,252.901 549.102 C 252.347 548.278,251.639 546.499,251.327 545.148 C 251.015 543.798,250.339 541.862,249.826 540.847 C 249.313 539.831,248.611 537.897,248.267 536.548 C 247.923 535.200,247.203 533.450,246.667 532.660 C 246.131 531.870,245.382 529.957,245.002 528.408 C 244.623 526.860,244.151 525.493,243.953 525.371 C 243.245 524.934,242.385 522.782,241.793 519.968 C 241.424 518.212,240.820 516.664,240.231 515.964 C 239.703 515.337,239.068 513.877,238.820 512.721 C 238.572 511.564,237.940 509.886,237.416 508.990 C 236.891 508.095,236.134 506.111,235.733 504.581 C 235.333 503.052,234.599 501.190,234.103 500.445 C 233.607 499.700,233.009 498.350,232.774 497.445 C 232.539 496.540,232.173 495.133,231.962 494.317 C 231.751 493.501,231.402 492.725,231.186 492.592 C 230.433 492.126,229.632 490.088,229.236 487.634 C 228.976 486.015,228.496 484.755,227.849 483.985 C 227.305 483.338,226.559 481.772,226.192 480.505 C 225.824 479.237,225.091 477.282,224.561 476.159 C 224.031 475.037,223.441 473.327,223.249 472.359 C 222.831 470.250,222.275 468.942,221.224 467.600 C 220.794 467.050,220.179 465.296,219.859 463.702 C 219.483 461.836,218.922 460.385,218.283 459.626 C 217.651 458.874,217.042 457.313,216.605 455.323 C 216.222 453.578,215.570 451.821,215.129 451.342 C 214.694 450.870,213.920 449.160,213.408 447.542 C 212.896 445.924,212.123 443.880,211.691 443.000 C 211.258 442.120,210.687 440.471,210.421 439.335 C 210.155 438.199,209.509 436.690,208.986 435.980 C 208.462 435.271,207.835 433.680,207.591 432.445 C 206.997 429.438,206.405 427.600,206.030 427.600 C 205.599 427.600,204.509 424.985,203.945 422.600 C 203.685 421.500,202.979 419.700,202.376 418.600 C 201.773 417.500,200.978 415.520,200.608 414.200 C 200.239 412.880,199.701 411.431,199.412 410.980 C 199.123 410.530,198.489 408.730,198.004 406.980 C 197.518 405.231,196.781 403.432,196.367 402.981 C 195.952 402.531,195.236 400.641,194.775 398.781 C 194.315 396.922,193.604 395.040,193.196 394.600 C 192.788 394.160,192.078 392.393,191.618 390.674 C 191.158 388.954,190.440 387.180,190.022 386.732 C 189.604 386.283,189.068 385.395,188.831 384.758 C 188.594 384.121,188.216 383.105,187.992 382.500 C 187.407 380.920,184.721 379.877,182.126 380.221 C 179.894 380.517,171.379 378.593,167.800 376.984 C 166.700 376.490,165.145 375.972,164.345 375.833 C 163.544 375.694,162.284 375.135,161.545 374.592 C 160.805 374.048,159.439 373.235,158.508 372.786 C 156.064 371.607,147.667 363.234,147.353 361.664 C 147.217 360.985,146.680 360.151,146.158 359.809 C 145.637 359.468,144.828 358.426,144.360 357.494 C 143.892 356.562,143.187 355.440,142.793 355.000 C 142.399 354.560,141.684 352.850,141.204 351.200 C 140.725 349.550,139.904 347.300,139.382 346.200 C 138.692 344.747,138.267 342.722,137.831 338.800 C 137.501 335.830,136.958 332.140,136.623 330.600 C 135.711 326.405,135.788 316.509,136.767 312.074 C 137.189 310.163,137.716 306.300,137.939 303.489 C 138.271 299.301,138.520 298.063,139.318 296.635 C 139.854 295.677,140.525 293.657,140.809 292.146 C 141.406 288.979,142.095 287.151,142.966 286.428 C 143.303 286.148,143.694 285.304,143.835 284.552 C 144.084 283.225,146.873 278.929,148.930 276.702 C 149.488 276.098,150.061 275.236,150.204 274.787 C 150.347 274.338,151.169 273.524,152.032 272.980 C 152.894 272.435,153.600 271.802,153.600 271.573 C 153.600 271.343,154.635 270.704,155.900 270.151 C 157.165 269.599,158.650 268.907,159.200 268.615 C 163.480 266.338,170.250 266.121,174.067 268.140 C 175.460 268.876,177.282 269.703,178.114 269.975 C 178.947 270.248,180.006 270.982,180.467 271.606 C 180.929 272.230,181.716 272.843,182.217 272.969 C 183.258 273.230,188.960 279.193,189.897 281.000 C 190.239 281.660,190.847 282.431,191.247 282.714 C 191.647 282.996,192.350 284.076,192.809 285.114 C 193.268 286.151,194.076 287.453,194.606 288.006 C 195.136 288.559,195.844 289.790,196.180 290.742 C 196.515 291.694,197.241 293.008,197.792 293.663 C 198.342 294.318,199.089 295.876,199.451 297.127 C 199.813 298.377,200.435 299.818,200.834 300.328 C 201.233 300.839,201.852 302.279,202.209 303.528 C 202.567 304.778,203.300 306.446,203.839 307.236 C 204.379 308.025,205.160 309.862,205.576 311.318 C 206.296 313.835,208.899 318.400,209.614 318.400 C 211.028 318.400,216.647 316.672,218.419 315.692 C 219.619 315.029,221.276 314.272,222.103 314.011 C 222.930 313.750,223.784 313.204,224.001 312.798 C 224.218 312.392,225.342 311.586,226.498 311.007 C 229.117 309.695,230.697 308.651,233.213 306.572 C 234.297 305.677,235.664 304.687,236.251 304.373 C 236.838 304.058,237.904 303.216,238.619 302.501 C 239.335 301.785,240.163 301.193,240.460 301.185 C 240.757 301.176,241.362 300.591,241.804 299.885 C 242.246 299.178,243.011 298.422,243.504 298.205 C 243.997 297.988,244.400 297.654,244.400 297.463 C 244.400 297.272,245.108 296.370,245.973 295.458 C 246.838 294.546,248.571 292.680,249.824 291.311 C 251.076 289.942,252.394 288.729,252.753 288.615 C 253.114 288.500,253.823 287.241,254.345 285.785 C 254.903 284.230,255.656 282.920,256.196 282.566 C 256.696 282.238,257.205 281.481,257.325 280.885 C 257.446 280.288,258.191 279.047,258.981 278.127 C 259.770 277.206,260.690 275.676,261.025 274.727 C 261.359 273.777,262.073 272.364,262.610 271.588 C 263.148 270.811,263.768 269.222,263.989 268.057 C 264.376 266.015,265.487 263.600,266.040 263.600 C 266.187 263.600,266.394 263.195,266.501 262.700 C 267.083 260.008,268.492 255.428,268.970 254.671 C 269.273 254.192,269.737 252.450,270.000 250.800 C 270.264 249.150,270.641 246.826,270.838 245.636 C 271.035 244.446,271.559 242.858,272.001 242.109 C 274.123 238.512,274.166 196.768,272.053 192.000 C 271.290 190.279,271.037 189.032,269.980 181.800 C 269.716 179.991,269.120 177.904,268.609 177.000 C 268.112 176.120,267.390 173.708,267.005 171.641 C 266.619 169.573,265.975 167.323,265.573 166.641 C 265.172 165.958,264.473 163.734,264.020 161.699 C 263.513 159.417,262.895 157.695,262.409 157.209 C 261.975 156.775,261.507 155.921,261.369 155.310 C 260.470 151.337,259.961 149.805,259.292 149.053 C 258.474 148.133,257.200 144.996,257.200 143.901 C 257.200 143.531,256.869 143.051,256.464 142.834 C 256.059 142.617,255.222 141.306,254.604 139.920 C 253.986 138.534,253.058 136.891,252.540 136.269 C 252.023 135.647,251.600 134.944,251.600 134.705 C 251.600 134.467,250.700 132.945,249.600 131.324 C 248.500 129.703,247.600 128.245,247.600 128.084 C 247.600 127.924,247.227 127.559,246.770 127.274 C 246.314 126.989,245.700 126.180,245.406 125.476 C 245.112 124.772,244.203 123.477,243.387 122.598 C 238.585 117.427,235.672 114.649,234.339 113.969 C 233.507 113.544,232.633 112.836,232.397 112.394 C 231.924 111.512,231.504 111.268,224.562 107.866 C 217.993 104.645,212.577 102.801,207.800 102.157 C 199.951 101.098,185.687 101.729,182.667 103.269 C 181.824 103.698,179.517 104.403,177.541 104.834 C 175.554 105.268,171.769 106.578,169.074 107.766 C 166.393 108.948,162.875 110.233,161.255 110.622 C 159.635 111.011,158.015 111.638,157.655 112.014 C 156.807 112.899,154.940 113.830,153.307 114.182 C 152.596 114.335,151.168 115.160,150.133 116.015 C 149.099 116.869,147.746 117.680,147.126 117.816 C 146.507 117.952,146.000 118.227,146.000 118.426 C 146.000 118.626,145.235 119.274,144.300 119.868 C 143.365 120.462,141.804 121.455,140.831 122.074 C 139.859 122.693,138.816 123.200,138.515 123.200 C 138.213 123.200,136.769 123.760,135.305 124.444 C 131.040 126.438,126.361 126.099,122.766 123.534 C 119.703 121.348,116.523 117.942,115.731 116.000 C 115.417 115.230,114.606 113.483,113.929 112.117 C 111.551 107.322,111.351 88.973,113.630 84.673 C 114.117 83.753,115.010 82.034,115.612 80.854 C 116.215 79.673,117.179 78.271,117.754 77.737 C 118.329 77.204,118.800 76.542,118.800 76.267 C 118.800 75.483,122.048 72.501,123.608 71.852 C 124.383 71.530,125.373 70.872,125.808 70.390 C 126.244 69.909,127.285 69.165,128.122 68.738 C 128.959 68.311,130.432 67.385,131.396 66.681 C 134.485 64.424,135.752 63.634,137.982 62.574 C 139.182 62.004,140.638 61.200,141.216 60.788 C 141.795 60.376,143.553 59.683,145.124 59.248 C 146.694 58.813,148.605 57.979,149.370 57.395 C 150.136 56.812,151.800 56.063,153.069 55.732 C 154.338 55.400,155.872 54.776,156.479 54.344 C 157.085 53.912,158.823 53.136,160.341 52.620 C 161.858 52.104,163.452 51.493,163.883 51.262 C 164.314 51.032,166.609 50.457,168.983 49.985 C 171.357 49.513,174.444 48.696,175.841 48.170 C 177.861 47.410,179.762 47.121,185.092 46.763 C 188.781 46.516,191.890 46.220,192.000 46.107 C 192.376 45.720,209.790 46.381,214.400 46.957 " stroke="none" fill="#fbf3d4" fill-rule="evenodd"></path><path id="path2" d="M192.000 46.107 C 191.890 46.220,188.781 46.516,185.092 46.763 C 179.762 47.121,177.861 47.410,175.841 48.170 C 174.444 48.696,171.357 49.513,168.983 49.985 C 166.609 50.457,164.314 51.032,163.883 51.262 C 163.452 51.493,161.858 52.104,160.341 52.620 C 158.823 53.136,157.085 53.912,156.479 54.344 C 155.872 54.776,154.338 55.400,153.069 55.732 C 151.800 56.063,150.136 56.812,149.370 57.395 C 148.605 57.979,146.694 58.813,145.124 59.248 C 143.553 59.683,141.795 60.376,141.216 60.788 C 140.638 61.200,139.182 62.004,137.982 62.574 C 135.752 63.634,134.485 64.424,131.396 66.681 C 130.432 67.385,128.959 68.311,128.122 68.738 C 127.285 69.165,126.244 69.909,125.808 70.390 C 125.373 70.872,124.383 71.530,123.608 71.852 C 122.048 72.501,118.800 75.483,118.800 76.267 C 118.800 76.542,118.329 77.204,117.754 77.737 C 117.179 78.271,116.215 79.673,115.612 80.854 C 115.010 82.034,114.117 83.753,113.630 84.673 C 111.351 88.973,111.551 107.322,113.929 112.117 C 114.606 113.483,115.417 115.230,115.731 116.000 C 116.523 117.942,119.703 121.348,122.766 123.534 C 126.361 126.099,131.040 126.438,135.305 124.444 C 136.769 123.760,138.213 123.200,138.515 123.200 C 138.816 123.200,139.859 122.693,140.831 122.074 C 141.804 121.455,143.365 120.462,144.300 119.868 C 145.235 119.274,146.000 118.626,146.000 118.426 C 146.000 118.227,146.507 117.952,147.126 117.816 C 147.746 117.680,149.099 116.869,150.133 116.015 C 151.168 115.160,152.596 114.335,153.307 114.182 C 154.940 113.830,156.807 112.899,157.655 112.014 C 158.015 111.638,159.635 111.011,161.255 110.622 C 162.875 110.233,166.393 108.948,169.074 107.766 C 171.769 106.578,175.554 105.268,177.541 104.834 C 179.517 104.403,181.824 103.698,182.667 103.269 C 185.687 101.729,199.951 101.098,207.800 102.157 C 212.577 102.801,217.993 104.645,224.562 107.866 C 231.504 111.268,231.924 111.512,232.397 112.394 C 232.633 112.836,233.507 113.544,234.339 113.969 C 235.672 114.649,238.585 117.427,243.387 122.598 C 244.203 123.477,245.112 124.772,245.406 125.476 C 245.700 126.180,246.314 126.989,246.770 127.274 C 247.227 127.559,247.600 127.924,247.600 128.084 C 247.600 128.245,248.500 129.703,249.600 131.324 C 250.700 132.945,251.600 134.467,251.600 134.705 C 251.600 134.944,252.023 135.647,252.540 136.269 C 253.058 136.891,253.986 138.534,254.604 139.920 C 255.222 141.306,256.059 142.617,256.464 142.834 C 256.869 143.051,257.200 143.531,257.200 143.901 C 257.200 144.996,258.474 148.133,259.292 149.053 C 259.961 149.805,260.470 151.337,261.369 155.310 C 261.507 155.921,261.975 156.775,262.409 157.209 C 262.895 157.695,263.513 159.417,264.020 161.699 C 264.473 163.734,265.172 165.958,265.573 166.641 C 265.975 167.323,266.619 169.573,267.005 171.641 C 267.390 173.708,268.112 176.120,268.609 177.000 C 269.120 177.904,269.716 179.991,269.980 181.800 C 271.037 189.032,271.290 190.279,272.053 192.000 C 274.166 196.768,274.123 238.512,272.001 242.109 C 271.559 242.858,271.035 244.446,270.838 245.636 C 270.641 246.826,270.264 249.150,270.000 250.800 C 269.737 252.450,269.273 254.192,268.970 254.671 C 268.492 255.428,267.083 260.008,266.501 262.700 C 266.394 263.195,266.187 263.600,266.040 263.600 C 265.487 263.600,264.376 266.015,263.989 268.057 C 263.768 269.222,263.148 270.811,262.610 271.588 C 262.073 272.364,261.359 273.777,261.025 274.727 C 260.690 275.676,259.770 277.206,258.981 278.127 C 258.191 279.047,257.446 280.288,257.325 280.885 C 257.205 281.481,256.696 282.238,256.196 282.566 C 255.656 282.920,254.903 284.230,254.345 285.785 C 253.823 287.241,253.114 288.500,252.753 288.615 C 252.394 288.729,251.076 289.942,249.824 291.311 C 248.571 292.680,246.838 294.546,245.973 295.458 C 245.108 296.370,244.400 297.272,244.400 297.463 C 244.400 297.654,243.997 297.988,243.504 298.205 C 243.011 298.422,242.246 299.178,241.804 299.885 C 241.362 300.591,240.757 301.176,240.460 301.185 C 240.163 301.193,239.335 301.785,238.619 302.501 C 237.904 303.216,236.838 304.058,236.251 304.373 C 235.664 304.687,234.297 305.677,233.213 306.572 C 230.697 308.651,229.117 309.695,226.498 311.007 C 225.342 311.586,224.218 312.392,224.001 312.798 C 223.784 313.204,222.930 313.750,222.103 314.011 C 221.276 314.272,219.619 315.029,218.419 315.692 C 216.647 316.672,211.028 318.400,209.614 318.400 C 208.899 318.400,206.296 313.835,205.576 311.318 C 205.160 309.862,204.379 308.025,203.839 307.236 C 203.300 306.446,202.567 304.778,202.209 303.528 C 201.852 302.279,201.233 300.839,200.834 300.328 C 200.435 299.818,199.813 298.377,199.451 297.127 C 199.089 295.876,198.342 294.318,197.792 293.663 C 197.241 293.008,196.515 291.694,196.180 290.742 C 195.844 289.790,195.136 288.559,194.606 288.006 C 194.076 287.453,193.268 286.151,192.809 285.114 C 192.350 284.076,191.647 282.996,191.247 282.714 C 190.847 282.431,190.239 281.660,189.897 281.000 C 188.960 279.193,183.258 273.230,182.217 272.969 C 181.716 272.843,180.929 272.230,180.467 271.606 C 180.006 270.982,178.947 270.248,178.114 269.975 C 177.282 269.703,175.460 268.876,174.067 268.140 C 170.250 266.121,163.480 266.338,159.200 268.615 C 158.650 268.907,157.165 269.599,155.900 270.151 C 154.635 270.704,153.600 271.343,153.600 271.573 C 153.600 271.802,152.894 272.435,152.032 272.980 C 151.169 273.524,150.347 274.338,150.204 274.787 C 150.061 275.236,149.488 276.098,148.930 276.702 C 146.873 278.929,144.084 283.225,143.835 284.552 C 143.694 285.304,143.303 286.148,142.966 286.428 C 142.095 287.151,141.406 288.979,140.809 292.146 C 140.525 293.657,139.854 295.677,139.318 296.635 C 138.520 298.063,138.271 299.301,137.939 303.489 C 137.716 306.300,137.189 310.163,136.767 312.074 C 135.788 316.509,135.711 326.405,136.623 330.600 C 136.958 332.140,137.501 335.830,137.831 338.800 C 138.267 342.722,138.692 344.747,139.382 346.200 C 139.904 347.300,140.725 349.550,141.204 351.200 C 141.684 352.850,142.399 354.560,142.793 355.000 C 143.187 355.440,143.892 356.562,144.360 357.494 C 144.828 358.426,145.637 359.468,146.158 359.809 C 146.680 360.151,147.217 360.985,147.353 361.664 C 147.667 363.234,156.064 371.607,158.508 372.786 C 159.439 373.235,160.805 374.048,161.545 374.592 C 162.284 375.135,163.544 375.694,164.345 375.833 C 165.145 375.972,166.700 376.490,167.800 376.984 C 171.379 378.593,179.894 380.517,182.126 380.221 C 184.721 379.877,187.407 380.920,187.992 382.500 C 188.216 383.105,188.594 384.121,188.831 384.758 C 189.068 385.395,189.604 386.283,190.022 386.732 C 190.440 387.180,191.158 388.954,191.618 390.674 C 192.078 392.393,192.788 394.160,193.196 394.600 C 193.604 395.040,194.315 396.922,194.775 398.781 C 195.236 400.641,195.952 402.531,196.367 402.981 C 196.781 403.432,197.518 405.231,198.004 406.980 C 198.489 408.730,199.123 410.530,199.412 410.980 C 199.701 411.431,200.239 412.880,200.608 414.200 C 200.978 415.520,201.773 417.500,202.376 418.600 C 202.979 419.700,203.685 421.500,203.945 422.600 C 204.509 424.985,205.599 427.600,206.030 427.600 C 206.405 427.600,206.997 429.438,207.591 432.445 C 207.835 433.680,208.462 435.271,208.986 435.980 C 209.509 436.690,210.155 438.199,210.421 439.335 C 210.687 440.471,211.258 442.120,211.691 443.000 C 212.123 443.880,212.896 445.924,213.408 447.542 C 213.920 449.160,214.694 450.870,215.129 451.342 C 215.570 451.821,216.222 453.578,216.605 455.323 C 217.042 457.313,217.651 458.874,218.283 459.626 C 218.922 460.385,219.483 461.836,219.859 463.702 C 220.179 465.296,220.794 467.050,221.224 467.600 C 222.275 468.942,222.831 470.250,223.249 472.359 C 223.441 473.327,224.031 475.037,224.561 476.159 C 225.091 477.282,225.824 479.237,226.192 480.505 C 226.559 481.772,227.305 483.338,227.849 483.985 C 228.496 484.755,228.976 486.015,229.236 487.634 C 229.632 490.088,230.433 492.126,231.186 492.592 C 231.402 492.725,231.751 493.501,231.962 494.317 C 232.173 495.133,232.539 496.540,232.774 497.445 C 233.009 498.350,233.607 499.700,234.103 500.445 C 234.599 501.190,235.333 503.052,235.733 504.581 C 236.134 506.111,236.891 508.095,237.416 508.990 C 237.940 509.886,238.572 511.564,238.820 512.721 C 239.068 513.877,239.703 515.337,240.231 515.964 C 240.820 516.664,241.424 518.212,241.793 519.968 C 242.385 522.782,243.245 524.934,243.953 525.371 C 244.151 525.493,244.623 526.860,245.002 528.408 C 245.382 529.957,246.131 531.870,246.667 532.660 C 247.203 533.450,247.923 535.200,248.267 536.548 C 248.611 537.897,249.313 539.831,249.826 540.847 C 250.339 541.862,251.015 543.798,251.327 545.148 C 251.639 546.499,252.347 548.278,252.901 549.102 C 253.455 549.926,254.222 551.918,254.605 553.529 C 254.987 555.140,255.702 556.940,256.193 557.529 C 256.684 558.118,257.336 559.585,257.641 560.789 C 257.947 561.994,258.605 563.580,259.103 564.314 C 259.601 565.048,260.379 567.029,260.831 568.715 C 261.584 571.527,262.086 572.618,262.905 573.227 C 263.073 573.352,263.476 574.842,263.801 576.538 C 264.345 579.382,265.296 581.915,266.003 582.400 C 266.163 582.510,266.589 583.623,266.950 584.873 C 267.311 586.124,268.071 587.699,268.639 588.373 C 269.226 589.071,269.922 590.676,270.253 592.097 C 270.574 593.470,271.233 595.045,271.718 595.597 C 272.203 596.149,273.034 597.463,273.565 598.517 C 274.095 599.571,275.085 600.886,275.765 601.438 C 279.562 604.523,280.501 605.120,282.263 605.571 C 283.329 605.844,284.613 606.232,285.119 606.433 C 287.514 607.389,292.995 606.018,295.365 603.872 C 296.137 603.172,297.305 602.300,297.959 601.933 C 298.614 601.566,299.529 600.576,299.991 599.733 C 300.454 598.890,301.265 597.602,301.795 596.872 C 302.325 596.142,303.053 594.215,303.415 592.591 C 303.776 590.967,304.316 589.436,304.614 589.188 C 306.341 587.755,306.549 573.705,304.892 570.400 C 304.395 569.410,303.698 567.020,303.342 565.089 C 302.893 562.656,302.337 561.038,301.532 559.822 C 300.592 558.404,299.620 555.045,299.602 553.156 C 299.601 553.022,299.132 552.222,298.560 551.380 C 297.988 550.537,297.165 548.487,296.731 546.824 C 296.297 545.161,295.624 543.440,295.236 543.000 C 294.455 542.116,293.784 540.479,293.396 538.513 C 293.257 537.806,292.720 536.604,292.204 535.843 C 291.687 535.083,290.879 533.052,290.407 531.330 C 289.935 529.609,289.212 527.840,288.799 527.400 C 288.374 526.947,287.876 525.525,287.650 524.122 C 287.229 521.502,286.748 520.305,285.591 519.000 C 285.202 518.560,284.487 516.580,284.004 514.600 C 283.520 512.620,282.871 510.601,282.562 510.113 C 282.252 509.625,281.627 508.275,281.174 507.113 C 280.720 505.951,279.936 504.370,279.431 503.600 C 278.926 502.830,278.291 501.120,278.020 499.800 C 277.749 498.480,276.991 496.436,276.336 495.257 C 275.681 494.079,274.957 492.049,274.728 490.748 C 274.499 489.446,273.871 487.732,273.333 486.939 C 272.795 486.146,272.074 484.255,271.731 482.737 C 271.388 481.218,270.683 479.350,270.165 478.586 C 269.646 477.822,268.841 475.941,268.374 474.406 C 267.908 472.870,267.206 471.206,266.814 470.707 C 266.421 470.208,265.780 468.478,265.387 466.863 C 264.995 465.247,264.247 463.297,263.725 462.528 C 263.203 461.759,262.580 460.201,262.340 459.065 C 262.099 457.929,261.295 455.848,260.551 454.440 C 259.808 453.032,259.200 451.468,259.200 450.966 C 259.200 449.742,258.557 448.100,257.413 446.400 C 256.894 445.630,256.164 443.595,255.790 441.877 C 255.389 440.037,254.741 438.311,254.212 437.677 C 253.718 437.085,253.064 435.615,252.759 434.411 C 252.453 433.206,251.792 431.616,251.290 430.876 C 250.787 430.135,250.190 428.601,249.963 427.465 C 249.415 424.729,248.823 423.172,247.962 422.200 C 247.573 421.760,246.868 419.870,246.396 418.000 C 245.925 416.130,245.170 414.081,244.719 413.448 C 244.268 412.814,243.558 410.931,243.141 409.265 C 242.725 407.598,242.045 405.867,241.632 405.417 C 241.218 404.968,240.562 403.453,240.174 402.052 C 239.785 400.651,239.081 399.031,238.609 398.452 C 238.116 397.847,237.464 396.040,237.075 394.200 C 236.703 392.440,236.049 390.526,235.622 389.948 C 235.196 389.369,234.554 387.749,234.197 386.348 C 233.839 384.946,233.078 383.082,232.504 382.205 C 231.931 381.327,231.220 379.437,230.923 378.005 C 230.626 376.572,230.005 374.883,229.543 374.251 C 228.194 372.404,230.012 368.400,232.200 368.400 C 232.471 368.400,233.199 368.001,233.819 367.513 C 235.057 366.539,235.772 366.118,239.942 363.905 C 241.491 363.083,243.108 362.036,243.534 361.579 C 243.960 361.121,245.413 360.225,246.762 359.587 C 248.111 358.949,249.323 358.144,249.456 357.799 C 249.589 357.453,250.312 356.913,251.064 356.599 C 254.560 355.138,273.646 336.698,274.993 333.481 C 275.288 332.776,276.085 331.790,276.764 331.288 C 277.444 330.786,278.000 330.117,278.000 329.800 C 278.000 329.483,278.558 328.814,279.239 328.312 C 279.920 327.810,280.758 326.860,281.101 326.200 C 281.443 325.540,282.228 324.370,282.844 323.600 C 283.460 322.830,284.251 321.508,284.603 320.663 C 284.954 319.817,285.661 318.737,286.173 318.263 C 286.685 317.788,287.410 316.590,287.784 315.600 C 288.158 314.610,288.803 313.435,289.218 312.989 C 289.633 312.542,290.247 311.401,290.582 310.452 C 290.916 309.503,291.616 308.221,292.136 307.603 C 292.657 306.985,293.394 305.516,293.776 304.339 C 294.157 303.163,294.812 301.830,295.231 301.379 C 295.649 300.927,296.370 299.397,296.832 297.979 C 297.293 296.560,297.993 295.040,298.386 294.600 C 299.537 293.311,299.891 292.352,300.193 289.705 C 300.349 288.332,300.787 286.802,301.166 286.305 C 302.138 285.027,302.701 283.399,303.209 280.400 C 303.451 278.970,304.081 276.961,304.610 275.935 C 305.153 274.882,305.853 272.359,306.220 270.135 C 306.576 267.971,307.298 264.924,307.824 263.364 C 308.349 261.804,308.977 258.744,309.219 256.564 C 309.886 250.567,310.713 245.292,311.440 242.400 C 312.921 236.510,312.625 198.165,311.044 191.195 C 310.721 189.768,310.166 185.720,309.812 182.200 C 309.112 175.251,308.599 172.405,307.737 170.701 C 307.431 170.097,306.914 167.577,306.588 165.101 C 305.974 160.440,305.597 158.919,304.387 156.200 C 303.995 155.320,303.400 153.008,303.065 151.062 C 302.635 148.564,302.136 147.062,301.368 145.954 C 300.312 144.430,300.235 144.060,299.625 137.531 C 299.611 137.383,299.152 136.729,298.604 136.077 C 297.996 135.355,297.390 133.856,297.050 132.235 C 296.744 130.773,296.034 128.907,295.474 128.089 C 294.914 127.270,294.158 125.430,293.794 124.000 C 293.430 122.570,292.723 120.860,292.223 120.200 C 291.723 119.540,291.001 117.925,290.620 116.610 C 290.238 115.296,289.402 113.625,288.763 112.897 C 288.123 112.168,287.600 111.227,287.600 110.805 C 287.600 109.731,286.806 107.981,285.783 106.800 C 285.307 106.250,284.693 104.963,284.418 103.940 C 284.132 102.876,283.337 101.464,282.559 100.639 C 281.812 99.847,281.200 98.911,281.200 98.560 C 281.200 98.208,280.649 97.407,279.976 96.778 C 279.303 96.149,278.419 94.687,278.011 93.528 C 277.603 92.369,276.921 91.056,276.497 90.611 C 276.072 90.165,275.500 89.376,275.226 88.858 C 274.687 87.841,269.251 81.042,267.242 78.872 C 266.566 78.142,265.715 77.042,265.352 76.427 C 264.989 75.812,264.176 75.004,263.546 74.632 C 262.916 74.259,262.400 73.699,262.400 73.386 C 262.400 73.072,261.680 72.449,260.800 72.000 C 259.920 71.551,259.200 70.974,259.200 70.718 C 259.200 69.392,248.024 60.202,245.285 59.276 C 244.561 59.031,243.450 58.311,242.814 57.676 C 242.174 57.035,240.799 56.289,239.729 56.001 C 238.668 55.716,237.350 55.079,236.800 54.587 C 235.582 53.496,233.472 52.400,232.591 52.400 C 232.234 52.400,231.190 51.963,230.271 51.430 C 229.352 50.896,227.880 50.331,227.000 50.174 C 226.120 50.017,223.960 49.359,222.200 48.711 C 217.565 47.004,193.170 44.901,192.000 46.107 M212.713 48.207 C 214.632 48.517,218.001 49.333,220.201 50.019 C 222.400 50.706,225.661 51.671,227.447 52.165 C 229.233 52.659,231.689 53.625,232.905 54.311 C 234.121 54.998,236.224 56.009,237.577 56.560 C 238.931 57.110,241.100 58.244,242.398 59.080 C 243.695 59.916,245.531 61.081,246.478 61.668 C 249.004 63.235,254.650 67.854,257.189 70.432 C 258.405 71.666,259.684 72.839,260.031 73.038 C 260.775 73.465,263.789 76.836,266.600 80.385 C 268.580 82.885,269.613 84.108,272.695 87.600 C 274.307 89.427,274.639 89.961,276.763 94.155 C 277.419 95.451,278.396 96.981,278.933 97.555 C 279.469 98.130,280.226 99.230,280.614 100.000 C 281.001 100.770,281.712 101.940,282.194 102.600 C 282.675 103.260,283.380 104.648,283.761 105.684 C 284.142 106.720,284.905 108.233,285.458 109.047 C 286.010 109.860,286.820 111.442,287.258 112.563 C 287.696 113.683,288.314 115.001,288.631 115.491 C 288.947 115.981,289.637 117.511,290.164 118.891 C 290.690 120.271,291.973 123.380,293.014 125.800 C 294.056 128.220,295.398 131.640,295.997 133.400 C 296.596 135.160,297.458 137.500,297.913 138.600 C 298.368 139.700,299.038 142.005,299.402 143.722 C 299.766 145.439,300.424 147.657,300.864 148.651 C 301.303 149.645,302.092 152.470,302.616 154.929 C 303.140 157.388,303.919 160.079,304.347 160.910 C 304.774 161.740,305.243 163.540,305.389 164.910 C 305.719 167.997,306.610 172.943,307.377 175.937 C 308.161 179.000,309.057 185.786,309.602 192.800 C 309.850 195.990,310.311 200.976,310.627 203.881 C 312.053 217.020,310.063 248.087,307.057 259.600 C 306.741 260.810,306.174 263.510,305.797 265.600 C 305.420 267.690,304.766 270.390,304.344 271.600 C 303.922 272.810,303.121 275.584,302.565 277.765 C 302.008 279.946,301.300 282.221,300.990 282.820 C 300.680 283.418,300.067 285.557,299.627 287.573 C 299.187 289.589,298.470 291.740,298.034 292.352 C 297.598 292.964,296.890 294.351,296.461 295.433 C 296.032 296.515,294.100 300.460,292.167 304.200 C 286.552 315.067,286.168 315.735,281.337 323.060 C 279.149 326.377,278.315 327.454,275.996 329.956 C 275.664 330.314,274.997 331.278,274.513 332.098 C 273.399 333.987,272.403 335.072,264.752 342.739 C 257.230 350.276,248.352 357.525,244.200 359.521 C 243.100 360.049,241.930 360.710,241.600 360.989 C 240.995 361.500,239.686 362.246,233.766 365.451 C 227.426 368.883,225.858 371.541,228.174 374.933 C 228.750 375.776,229.597 377.846,230.057 379.533 C 230.517 381.220,231.506 383.788,232.254 385.239 C 233.002 386.691,233.867 388.761,234.177 389.839 C 234.997 392.692,237.510 399.636,238.143 400.800 C 238.443 401.350,239.189 403.150,239.801 404.800 C 240.414 406.450,241.044 407.980,241.203 408.200 C 241.632 408.796,244.000 415.836,244.000 416.515 C 244.000 416.838,244.272 417.328,244.604 417.603 C 244.936 417.879,245.495 419.116,245.845 420.352 C 246.195 421.589,246.908 423.342,247.428 424.249 C 247.948 425.156,248.825 427.453,249.375 429.354 C 249.926 431.254,250.593 433.212,250.856 433.705 C 251.743 435.359,254.455 442.176,255.272 444.800 C 255.716 446.230,256.413 447.946,256.819 448.614 C 257.226 449.281,258.034 451.351,258.615 453.214 C 259.196 455.076,259.982 457.140,260.361 457.800 C 260.741 458.460,261.377 459.990,261.775 461.200 C 262.173 462.410,262.835 464.210,263.247 465.200 C 263.658 466.190,264.516 468.440,265.153 470.200 C 266.452 473.787,267.887 477.339,269.596 481.200 C 270.229 482.630,271.147 485.060,271.636 486.600 C 272.125 488.140,272.752 489.760,273.030 490.200 C 273.308 490.640,273.940 492.345,274.434 493.989 C 274.928 495.633,275.646 497.523,276.030 498.189 C 276.414 498.855,277.044 500.570,277.429 502.000 C 277.814 503.430,278.793 505.950,279.604 507.600 C 280.416 509.250,281.293 511.472,281.555 512.537 C 281.816 513.603,282.291 514.872,282.610 515.359 C 282.928 515.845,283.548 517.286,283.987 518.562 C 284.426 519.837,285.137 521.452,285.569 522.149 C 286.000 522.847,286.743 524.853,287.221 526.609 C 287.699 528.364,288.244 529.991,288.432 530.225 C 288.620 530.459,289.386 532.349,290.134 534.425 C 291.731 538.857,294.210 544.974,294.990 546.410 C 295.292 546.965,295.935 548.585,296.420 550.010 C 296.904 551.434,297.719 553.529,298.229 554.665 C 298.740 555.802,299.460 557.782,299.830 559.065 C 300.199 560.349,300.818 562.030,301.206 562.800 C 302.526 565.424,304.934 578.573,304.632 581.515 C 303.231 595.193,295.840 605.230,287.186 605.206 C 282.496 605.193,274.000 599.583,274.000 596.499 C 274.000 596.327,273.535 595.501,272.967 594.665 C 272.398 593.829,271.498 591.865,270.967 590.302 C 270.435 588.738,269.703 587.007,269.341 586.454 C 268.467 585.120,265.665 578.313,264.960 575.814 C 264.652 574.722,263.887 572.742,263.260 571.414 C 262.632 570.086,261.883 568.100,261.596 567.000 C 261.308 565.900,260.315 563.290,259.390 561.200 C 257.648 557.264,254.800 550.177,254.800 549.778 C 254.800 549.653,254.343 548.584,253.784 547.403 C 253.225 546.221,252.248 543.757,251.613 541.927 C 249.334 535.355,247.540 530.609,247.164 530.157 C 246.954 529.903,246.250 528.123,245.600 526.200 C 244.950 524.277,244.229 522.476,243.998 522.198 C 243.768 521.920,243.059 520.096,242.424 518.146 C 241.789 516.196,240.265 512.194,239.038 509.253 C 237.810 506.312,236.609 503.162,236.368 502.253 C 236.128 501.344,235.420 499.585,234.794 498.345 C 234.169 497.104,233.394 495.201,233.071 494.115 C 232.749 493.030,232.045 491.255,231.506 490.171 C 230.968 489.087,230.211 487.030,229.824 485.600 C 229.436 484.170,228.786 482.452,228.378 481.782 C 227.970 481.112,226.796 478.142,225.770 475.182 C 224.744 472.222,223.370 468.630,222.717 467.200 C 222.063 465.770,221.083 463.251,220.537 461.602 C 219.991 459.953,219.188 458.027,218.752 457.323 C 218.317 456.618,217.598 454.727,217.155 453.121 C 216.712 451.514,216.117 449.840,215.832 449.400 C 215.546 448.960,214.679 446.890,213.903 444.800 C 213.128 442.710,211.738 439.020,210.814 436.600 C 209.891 434.180,208.593 430.670,207.931 428.800 C 207.268 426.930,206.580 425.220,206.401 425.000 C 206.222 424.780,205.437 422.761,204.656 420.514 C 203.875 418.266,202.969 416.016,202.642 415.514 C 202.315 415.011,201.505 412.980,200.843 411.000 C 199.078 405.726,197.210 400.698,196.837 400.219 C 196.657 399.988,195.960 398.180,195.288 396.200 C 190.466 381.999,187.294 377.435,182.750 378.162 C 180.917 378.455,176.882 377.883,173.200 376.808 C 171.770 376.390,169.448 375.759,168.040 375.406 C 156.954 372.623,144.755 359.525,141.210 346.600 C 140.727 344.840,140.088 342.659,139.789 341.753 C 137.000 333.301,137.022 306.741,139.823 300.096 C 140.170 299.273,140.902 296.710,141.449 294.400 C 141.997 292.090,142.694 289.818,142.999 289.350 C 143.304 288.883,143.986 287.443,144.515 286.150 C 145.832 282.934,151.852 274.978,154.418 273.064 C 161.957 267.438,172.762 267.305,179.489 272.755 C 180.198 273.330,181.776 274.610,182.994 275.600 C 186.626 278.549,192.912 287.114,195.618 292.799 C 196.299 294.229,197.086 295.669,197.367 295.999 C 197.883 296.605,200.086 301.682,201.839 306.301 C 202.361 307.676,203.215 309.656,203.738 310.701 C 204.261 311.745,205.012 313.590,205.406 314.800 C 206.101 316.932,208.301 320.123,209.357 320.528 C 209.921 320.745,219.127 317.177,220.519 316.201 C 220.992 315.871,221.600 315.600,221.871 315.600 C 222.142 315.600,224.487 314.302,227.082 312.717 C 231.187 310.208,233.526 308.478,240.757 302.600 C 242.124 301.489,244.974 298.644,251.644 291.734 C 253.098 290.227,254.646 288.276,255.084 287.397 C 256.173 285.217,258.571 281.222,259.542 279.973 C 261.046 278.038,264.331 271.165,267.273 263.800 C 267.712 262.700,268.430 261.015,268.867 260.055 C 269.304 259.095,270.173 256.035,270.799 253.255 C 271.424 250.475,272.302 246.760,272.749 245.000 C 275.569 233.902,275.356 197.049,272.413 186.800 C 272.002 185.370,271.364 182.670,270.995 180.800 C 270.625 178.930,269.955 176.320,269.505 175.000 C 269.055 173.680,268.106 170.440,267.396 167.800 C 266.012 162.656,264.983 159.679,263.423 156.314 C 262.884 155.151,262.138 153.120,261.766 151.800 C 260.048 145.711,249.306 126.984,244.519 121.734 C 240.254 117.057,238.067 115.002,235.473 113.236 C 234.413 112.515,233.451 111.676,233.334 111.373 C 232.901 110.245,226.392 106.505,220.145 103.794 C 207.379 98.256,180.367 99.657,167.200 106.541 C 166.210 107.058,163.729 108.072,161.688 108.794 C 159.646 109.516,157.022 110.681,155.858 111.382 C 154.694 112.083,152.944 112.974,151.971 113.362 C 150.997 113.750,149.570 114.546,148.800 115.133 C 148.030 115.719,146.530 116.602,145.467 117.096 C 144.405 117.590,142.797 118.625,141.895 119.397 C 140.994 120.168,140.093 120.800,139.893 120.800 C 139.693 120.800,138.384 121.330,136.985 121.978 C 128.328 125.985,119.414 122.151,115.979 112.944 C 115.367 111.304,114.695 109.746,114.486 109.481 C 113.154 107.799,112.575 95.908,113.558 90.400 C 114.772 83.590,120.592 74.857,125.695 72.188 C 126.748 71.638,128.400 70.605,129.366 69.894 C 130.960 68.719,134.336 66.655,141.601 62.412 C 143.032 61.576,145.483 60.511,147.049 60.045 C 148.615 59.579,150.365 58.828,150.940 58.376 C 151.514 57.924,153.562 57.025,155.492 56.377 C 157.421 55.729,159.810 54.773,160.800 54.252 C 161.790 53.730,164.670 52.812,167.200 52.211 C 169.730 51.610,173.870 50.516,176.400 49.780 C 184.738 47.353,202.637 46.577,212.713 48.207 " stroke="none" fill="#a2a2a2" fill-rule="evenodd"></path><path id="path3" d="M193.000 47.850 C 192.560 47.928,189.950 48.156,187.200 48.356 C 183.431 48.631,180.772 49.114,176.400 50.318 C 173.210 51.197,168.623 52.396,166.206 52.983 C 163.790 53.570,161.253 54.396,160.570 54.819 C 159.886 55.241,158.083 55.969,156.563 56.436 C 155.044 56.902,152.720 57.880,151.400 58.608 C 150.080 59.336,148.019 60.217,146.821 60.568 C 144.796 61.159,143.295 61.946,137.000 65.719 C 135.680 66.510,133.430 67.836,132.000 68.664 C 130.570 69.493,128.621 70.762,127.669 71.485 C 126.718 72.208,125.715 72.800,125.441 72.800 C 123.800 72.800,117.758 80.217,115.799 84.635 C 113.077 90.777,112.420 103.342,114.557 108.400 C 115.161 109.830,116.014 112.020,116.453 113.267 C 119.923 123.126,132.873 125.991,141.891 118.894 C 142.721 118.241,144.210 117.298,145.200 116.798 C 146.190 116.299,147.720 115.401,148.600 114.802 C 149.480 114.204,151.093 113.321,152.185 112.842 C 153.277 112.362,154.468 111.701,154.831 111.372 C 155.553 110.719,161.182 108.262,163.919 107.405 C 164.865 107.109,166.098 106.566,166.659 106.198 C 167.769 105.471,177.218 102.268,180.276 101.583 C 189.405 99.537,205.134 99.562,215.510 101.639 C 220.172 102.572,232.061 108.839,233.754 111.256 C 234.055 111.685,235.088 112.539,236.050 113.154 C 242.379 117.194,250.049 127.216,256.904 140.400 C 261.457 149.157,261.502 149.254,262.045 151.435 C 262.315 152.516,263.062 154.570,263.705 156.000 C 265.391 159.744,267.012 164.261,267.583 166.800 C 267.855 168.010,268.673 170.890,269.400 173.200 C 270.128 175.510,271.031 178.927,271.407 180.793 C 271.783 182.660,272.265 184.640,272.478 185.193 C 275.881 194.044,275.956 233.585,272.597 247.400 C 271.848 250.480,270.964 254.196,270.633 255.658 C 269.562 260.388,262.985 275.564,260.248 279.620 C 259.562 280.637,258.100 283.053,257.000 284.989 C 255.900 286.924,253.824 289.788,252.387 291.354 C 250.949 292.919,249.292 294.830,248.704 295.600 C 248.116 296.370,246.081 298.350,244.182 300.000 C 242.282 301.650,240.132 303.562,239.402 304.248 C 235.773 307.666,226.291 314.218,222.800 315.721 C 222.030 316.053,219.196 317.317,216.502 318.530 C 208.868 321.968,207.240 321.587,205.385 315.926 C 205.002 314.757,204.023 312.270,203.209 310.400 C 202.394 308.530,201.115 305.481,200.364 303.625 C 197.415 296.327,194.084 290.242,189.451 283.689 C 177.634 266.971,161.395 264.256,151.000 277.261 C 145.887 283.658,143.383 288.204,142.112 293.400 C 141.790 294.720,141.008 297.600,140.375 299.800 C 135.436 316.962,138.603 347.454,146.337 357.198 C 146.948 357.969,148.104 359.596,148.905 360.813 C 153.335 367.543,163.476 374.422,171.000 375.802 C 172.540 376.084,174.873 376.604,176.184 376.958 C 177.495 377.311,180.033 377.600,181.824 377.600 C 187.374 377.600,188.931 378.934,191.818 386.162 C 192.530 387.943,193.426 390.120,193.810 391.000 C 194.193 391.880,195.098 394.220,195.819 396.200 C 196.541 398.180,198.047 402.214,199.166 405.165 C 200.285 408.116,201.200 410.726,201.200 410.965 C 201.200 411.204,201.763 412.570,202.451 414.000 C 203.139 415.430,204.299 418.220,205.028 420.200 C 208.391 429.330,214.374 444.902,216.016 448.800 C 216.619 450.230,217.414 452.460,217.783 453.756 C 218.153 455.052,218.704 456.492,219.008 456.956 C 219.312 457.421,220.091 459.241,220.738 461.000 C 221.385 462.760,222.565 465.775,223.359 467.699 C 224.154 469.624,225.416 472.954,226.163 475.099 C 226.911 477.245,228.058 480.170,228.713 481.600 C 229.368 483.030,230.037 484.830,230.200 485.600 C 230.363 486.370,231.031 488.170,231.685 489.600 C 232.338 491.030,233.144 493.100,233.475 494.200 C 233.806 495.300,234.398 496.740,234.790 497.400 C 235.183 498.060,236.091 500.310,236.809 502.400 C 237.527 504.490,238.902 508.051,239.864 510.314 C 240.827 512.576,242.081 515.816,242.651 517.514 C 243.220 519.211,244.002 521.230,244.388 522.000 C 244.774 522.770,245.410 524.390,245.800 525.600 C 246.190 526.810,246.858 528.494,247.284 529.341 C 247.710 530.189,248.669 532.576,249.416 534.646 C 250.162 536.716,251.387 540.072,252.137 542.105 C 253.762 546.509,259.222 559.934,260.309 562.200 C 260.732 563.080,261.391 564.970,261.775 566.400 C 262.159 567.830,262.710 569.374,263.001 569.832 C 263.292 570.290,264.069 572.180,264.729 574.032 C 266.887 580.094,268.688 584.574,269.548 586.027 C 270.013 586.812,270.733 588.443,271.149 589.651 C 274.995 600.830,284.261 607.493,291.000 603.926 C 291.660 603.577,293.172 602.776,294.361 602.145 C 299.695 599.317,303.986 589.530,303.996 580.166 C 304.000 576.926,302.159 566.198,301.188 563.800 C 300.921 563.140,300.201 561.250,299.590 559.600 C 296.912 552.378,295.160 547.907,293.397 543.800 C 292.358 541.380,290.904 537.733,290.165 535.694 C 289.427 533.656,288.620 531.612,288.373 531.150 C 288.127 530.689,287.569 529.026,287.135 527.456 C 286.701 525.885,285.845 523.610,285.233 522.400 C 284.622 521.190,283.889 519.480,283.605 518.600 C 283.321 517.720,282.787 516.550,282.417 516.000 C 282.048 515.450,281.431 513.830,281.047 512.400 C 280.663 510.970,279.929 509.080,279.416 508.200 C 278.903 507.320,278.079 505.250,277.585 503.600 C 277.091 501.950,276.412 500.060,276.075 499.400 C 275.738 498.740,274.881 496.580,274.170 494.600 C 271.527 487.241,270.011 483.285,268.193 479.000 C 267.166 476.580,265.711 472.922,264.959 470.872 C 264.207 468.822,263.324 466.626,262.996 465.992 C 262.668 465.358,262.398 464.516,262.395 464.120 C 262.392 463.724,261.742 461.960,260.949 460.200 C 260.157 458.440,259.017 455.560,258.416 453.800 C 257.816 452.040,256.961 449.880,256.517 449.000 C 256.073 448.120,255.390 446.410,254.999 445.200 C 254.608 443.990,253.400 440.840,252.315 438.200 C 251.230 435.560,249.889 431.960,249.335 430.200 C 248.781 428.440,248.010 426.448,247.620 425.772 C 247.231 425.097,246.597 423.567,246.211 422.372 C 245.825 421.178,245.107 419.480,244.614 418.600 C 244.121 417.720,243.517 416.177,243.271 415.171 C 243.025 414.165,241.722 410.655,240.374 407.371 C 237.098 399.387,234.926 393.635,233.815 390.000 C 233.311 388.350,232.350 386.010,231.680 384.800 C 231.010 383.590,230.168 381.454,229.808 380.053 C 229.448 378.652,228.602 376.528,227.927 375.332 C 225.296 370.670,226.493 368.789,235.050 364.138 C 238.225 362.412,241.978 360.370,243.389 359.600 C 244.801 358.830,246.281 357.913,246.678 357.561 C 247.075 357.210,248.300 356.321,249.400 355.586 C 255.512 351.503,272.435 335.321,274.277 331.800 C 274.622 331.140,275.843 329.520,276.989 328.200 C 278.135 326.880,280.173 324.090,281.516 322.000 C 282.860 319.910,284.462 317.480,285.077 316.600 C 286.334 314.800,290.485 306.917,293.818 300.000 C 295.037 297.470,296.661 294.140,297.427 292.600 C 298.193 291.060,299.157 288.360,299.571 286.600 C 299.984 284.840,300.780 281.960,301.341 280.200 C 303.353 273.880,304.766 268.771,305.403 265.514 C 305.760 263.691,306.391 260.670,306.805 258.800 C 307.861 254.037,309.076 245.209,309.586 238.600 C 309.824 235.520,310.194 231.009,310.409 228.577 C 310.972 222.208,310.890 212.250,310.214 204.722 C 309.892 201.135,309.351 194.818,309.012 190.685 C 308.623 185.938,307.893 180.707,307.030 176.485 C 306.278 172.808,305.457 168.270,305.204 166.400 C 304.951 164.530,304.319 162.010,303.799 160.800 C 303.279 159.590,302.650 157.346,302.400 155.814 C 302.151 154.282,301.577 152.032,301.126 150.814 C 300.674 149.596,299.796 146.710,299.174 144.400 C 298.052 140.238,294.804 130.711,294.033 129.322 C 293.813 128.925,292.714 126.350,291.592 123.600 C 288.687 116.483,285.918 110.404,285.120 109.389 C 284.743 108.910,284.063 107.576,283.609 106.424 C 282.640 103.963,280.095 99.521,278.650 97.764 C 278.090 97.084,276.860 95.033,275.916 93.206 C 274.855 91.151,272.918 88.419,270.840 86.042 C 268.992 83.929,266.486 80.940,265.272 79.400 C 261.299 74.363,250.836 64.875,245.800 61.743 C 244.920 61.196,243.049 60.027,241.642 59.146 C 240.236 58.264,238.221 57.202,237.165 56.786 C 236.110 56.370,233.841 55.318,232.123 54.447 C 230.405 53.576,228.000 52.682,226.778 52.460 C 225.556 52.238,223.846 51.780,222.978 51.442 C 215.780 48.640,199.538 46.694,193.000 47.850 M204.242 49.206 C 209.046 49.583,216.690 51.150,220.796 52.599 C 221.671 52.907,223.868 53.363,225.677 53.611 C 229.022 54.068,229.906 54.363,230.888 55.346 C 231.720 56.177,233.548 57.027,236.048 57.746 C 237.284 58.101,238.532 58.677,238.821 59.025 C 239.110 59.373,240.050 60.017,240.909 60.456 C 242.812 61.426,245.576 63.381,249.738 66.699 C 251.464 68.074,253.008 69.200,253.168 69.200 C 253.669 69.200,262.236 77.719,263.425 79.400 C 264.626 81.097,266.109 82.811,268.408 85.161 C 269.183 85.952,270.081 87.118,270.404 87.752 C 270.727 88.386,271.353 89.070,271.795 89.272 C 272.238 89.475,273.410 91.194,274.400 93.092 C 275.390 94.991,276.735 97.277,277.390 98.172 C 278.044 99.067,279.001 100.700,279.516 101.800 C 280.031 102.900,280.788 104.160,281.198 104.600 C 281.607 105.040,282.329 106.438,282.802 107.706 C 283.275 108.975,284.066 110.505,284.559 111.106 C 285.053 111.708,285.972 113.460,286.603 115.000 C 287.233 116.540,287.871 117.980,288.021 118.200 C 288.171 118.420,288.609 119.590,288.994 120.800 C 289.378 122.010,290.187 123.991,290.791 125.202 C 291.395 126.414,292.367 128.830,292.952 130.571 C 293.537 132.312,294.172 133.931,294.365 134.168 C 294.557 134.406,295.348 136.670,296.122 139.200 C 296.897 141.730,298.353 146.410,299.358 149.600 C 300.364 152.790,301.197 156.030,301.211 156.800 C 301.224 157.570,301.507 158.920,301.840 159.800 C 302.173 160.680,302.618 161.940,302.829 162.600 C 303.325 164.150,305.069 172.905,305.789 177.460 C 306.097 179.407,306.617 182.350,306.945 184.000 C 309.719 197.942,309.646 237.207,306.821 250.600 C 305.801 255.439,304.794 261.214,304.797 262.213 C 304.799 262.660,304.519 264.010,304.177 265.213 C 303.834 266.416,303.223 268.660,302.820 270.200 C 302.417 271.740,301.354 275.520,300.458 278.600 C 299.562 281.680,298.622 285.190,298.370 286.400 C 298.119 287.610,297.578 289.151,297.170 289.825 C 296.169 291.476,292.602 299.524,292.256 300.910 C 292.104 301.521,291.621 302.379,291.183 302.817 C 290.745 303.255,289.224 306.015,287.802 308.950 C 286.381 311.885,284.930 314.526,284.578 314.818 C 284.226 315.111,283.491 316.171,282.945 317.175 C 282.400 318.179,281.337 319.900,280.584 321.000 C 279.831 322.100,278.806 323.610,278.307 324.355 C 277.808 325.100,276.550 326.642,275.512 327.781 C 274.473 328.921,273.388 330.381,273.100 331.026 C 272.581 332.191,270.155 334.866,263.572 341.530 C 259.824 345.325,259.961 345.206,252.546 351.069 C 249.716 353.307,246.770 355.722,246.000 356.437 C 245.230 357.151,243.520 358.173,242.200 358.706 C 240.880 359.239,239.530 359.916,239.200 360.209 C 238.870 360.502,236.890 361.568,234.800 362.578 C 232.710 363.588,230.190 364.834,229.200 365.346 C 225.201 367.413,224.499 371.099,227.045 376.650 C 227.840 378.383,228.841 381.060,229.271 382.600 C 229.701 384.140,230.469 385.850,230.977 386.400 C 232.305 387.836,232.665 388.711,232.974 391.263 C 233.125 392.507,233.610 394.217,234.053 395.063 C 234.496 395.908,235.458 398.220,236.191 400.200 C 239.505 409.150,240.019 410.476,240.640 411.678 C 241.004 412.380,241.638 414.135,242.050 415.578 C 242.462 417.020,243.154 418.680,243.587 419.266 C 244.020 419.853,244.675 421.529,245.042 422.991 C 245.409 424.454,246.140 426.284,246.665 427.058 C 247.191 427.832,247.997 429.846,248.457 431.533 C 248.917 433.220,249.549 435.098,249.860 435.706 C 250.172 436.314,250.977 438.370,251.649 440.274 C 252.321 442.178,253.107 444.110,253.396 444.568 C 253.685 445.026,254.049 446.030,254.205 446.800 C 254.361 447.570,255.089 449.460,255.822 451.000 C 256.555 452.540,257.350 454.673,257.589 455.741 C 258.034 457.739,258.913 459.746,259.803 460.800 C 260.082 461.130,260.798 463.020,261.395 465.000 C 261.991 466.980,262.617 468.780,262.786 469.000 C 262.955 469.220,263.591 470.930,264.200 472.800 C 264.809 474.670,265.468 476.405,265.665 476.655 C 265.862 476.905,266.543 478.534,267.179 480.276 C 267.814 482.018,268.691 484.063,269.128 484.821 C 269.564 485.580,270.126 487.187,270.377 488.394 C 270.627 489.601,271.192 491.199,271.633 491.946 C 272.619 493.618,275.352 500.752,276.555 504.800 C 277.046 506.450,277.912 508.610,278.479 509.600 C 279.046 510.590,279.729 512.347,279.996 513.505 C 280.263 514.662,280.888 516.207,281.384 516.938 C 281.880 517.670,282.415 518.973,282.573 519.834 C 282.731 520.695,283.456 522.480,284.184 523.800 C 284.912 525.120,285.996 527.820,286.593 529.800 C 287.191 531.780,287.825 533.580,288.002 533.800 C 288.179 534.020,288.631 535.280,289.007 536.600 C 289.382 537.920,290.139 539.900,290.689 541.000 C 291.240 542.100,292.132 544.170,292.673 545.600 C 293.213 547.030,293.895 548.572,294.189 549.027 C 294.482 549.482,295.118 551.192,295.602 552.827 C 296.085 554.462,296.905 556.610,297.424 557.600 C 303.780 569.739,303.929 587.810,297.747 596.655 C 296.786 598.029,296.000 599.329,296.000 599.544 C 296.000 599.758,295.418 600.173,294.706 600.466 C 293.994 600.760,292.258 601.585,290.849 602.300 C 287.814 603.840,285.787 603.977,284.224 602.747 C 283.628 602.279,282.119 601.582,280.870 601.201 C 279.118 600.665,278.400 600.197,277.726 599.153 C 277.246 598.409,276.566 597.480,276.216 597.090 C 275.866 596.699,275.205 595.529,274.747 594.490 C 274.290 593.450,273.643 592.060,273.309 591.400 C 272.976 590.740,272.365 589.224,271.950 588.032 C 271.535 586.840,270.730 585.069,270.161 584.098 C 269.592 583.126,268.613 580.862,267.986 579.066 C 266.066 573.566,264.858 570.489,263.794 568.388 C 263.233 567.282,262.598 565.437,262.382 564.289 C 262.166 563.140,261.380 560.940,260.635 559.400 C 259.891 557.860,259.059 555.880,258.786 555.000 C 258.514 554.120,257.857 552.535,257.327 551.477 C 256.382 549.592,255.245 546.666,252.608 539.337 C 251.883 537.323,251.020 535.163,250.690 534.537 C 250.361 533.912,249.779 532.326,249.397 531.013 C 249.016 529.700,248.466 528.260,248.176 527.813 C 247.886 527.366,247.166 525.650,246.577 524.000 C 245.988 522.350,244.992 519.893,244.363 518.539 C 243.735 517.185,243.026 515.205,242.788 514.139 C 242.550 513.073,241.940 511.480,241.432 510.600 C 240.925 509.720,240.101 507.740,239.602 506.200 C 239.102 504.660,238.533 503.196,238.337 502.948 C 238.141 502.699,237.717 501.481,237.394 500.241 C 237.071 499.001,236.356 497.098,235.806 496.011 C 235.255 494.925,234.269 492.567,233.614 490.773 C 232.959 488.978,232.257 487.305,232.054 487.055 C 231.852 486.805,231.370 485.430,230.985 484.000 C 230.599 482.570,229.693 480.140,228.972 478.600 C 228.251 477.060,227.356 474.720,226.983 473.400 C 226.609 472.080,226.056 470.550,225.754 470.000 C 225.452 469.450,224.654 467.477,223.981 465.616 C 223.308 463.754,222.611 462.044,222.432 461.816 C 222.253 461.587,221.789 460.410,221.402 459.200 C 221.015 457.990,220.276 456.190,219.760 455.200 C 219.243 454.210,218.266 451.559,217.588 449.310 C 216.910 447.060,216.199 445.123,216.008 445.005 C 215.817 444.887,215.355 443.848,214.982 442.695 C 214.608 441.543,213.884 439.790,213.372 438.800 C 212.860 437.810,211.995 435.560,211.449 433.800 C 210.269 429.995,207.823 423.243,206.812 421.000 C 206.415 420.120,205.699 418.195,205.220 416.722 C 204.741 415.249,204.025 413.629,203.628 413.122 C 203.231 412.615,202.445 410.760,201.880 409.000 C 201.316 407.240,200.024 403.550,199.009 400.800 C 197.995 398.050,196.656 394.360,196.035 392.600 C 195.414 390.840,194.540 388.770,194.094 388.000 C 193.647 387.230,193.000 385.610,192.657 384.400 C 191.134 379.032,187.815 376.000,183.461 376.000 C 180.529 376.000,175.910 375.415,170.279 374.329 C 169.003 374.083,167.203 373.383,166.279 372.774 C 165.356 372.165,163.790 371.354,162.800 370.973 C 159.995 369.892,150.991 362.303,149.815 360.029 C 149.513 359.444,148.473 357.894,147.505 356.583 C 146.536 355.272,145.517 353.390,145.239 352.400 C 144.961 351.410,144.289 349.644,143.744 348.476 C 143.200 347.308,142.396 344.713,141.959 342.709 C 141.521 340.704,141.086 338.938,140.990 338.784 C 138.716 335.105,138.443 311.749,140.592 304.800 C 141.474 301.950,142.351 298.210,142.806 295.360 C 143.037 293.914,143.501 292.313,143.836 291.801 C 144.171 291.290,144.879 289.676,145.409 288.215 C 145.938 286.755,147.008 284.817,147.786 283.908 C 148.564 282.999,149.200 282.128,149.200 281.971 C 149.200 281.156,155.065 274.864,156.715 273.909 C 166.096 268.481,173.099 269.529,182.357 277.746 C 184.934 280.034,188.898 285.012,192.276 290.200 C 192.849 291.080,193.805 292.880,194.401 294.200 C 194.996 295.520,196.050 297.490,196.742 298.578 C 197.434 299.666,198.000 300.803,198.000 301.104 C 198.000 301.405,198.470 302.675,199.044 303.926 C 199.618 305.177,200.617 307.633,201.265 309.384 C 201.912 311.136,202.615 312.778,202.827 313.033 C 203.039 313.288,203.637 314.746,204.156 316.272 C 206.480 323.103,208.372 324.083,214.527 321.645 C 215.147 321.400,216.227 320.765,216.927 320.234 C 217.627 319.703,219.224 318.911,220.476 318.473 C 221.728 318.036,223.365 317.210,224.114 316.639 C 224.863 316.067,225.665 315.600,225.898 315.600 C 226.130 315.600,227.283 314.952,228.460 314.159 C 229.637 313.367,231.109 312.455,231.731 312.133 C 233.590 311.170,239.959 306.184,240.568 305.214 C 241.178 304.242,246.813 299.162,247.594 298.878 C 248.310 298.619,255.603 290.044,256.003 288.992 C 256.235 288.381,256.886 287.322,257.449 286.640 C 259.575 284.062,267.998 268.165,268.001 266.723 C 268.002 266.435,268.626 264.962,269.388 263.449 C 270.150 261.936,271.146 259.146,271.601 257.249 C 272.057 255.352,272.774 252.697,273.195 251.350 C 274.194 248.156,274.664 245.061,275.201 238.128 C 275.442 235.008,275.836 231.858,276.076 231.128 C 276.980 228.377,276.969 210.990,276.060 205.530 C 275.609 202.819,275.129 198.170,274.993 195.200 C 274.729 189.422,273.870 183.252,273.139 181.886 C 272.893 181.426,272.175 178.788,271.544 176.025 C 270.913 173.261,270.136 170.370,269.818 169.600 C 269.500 168.830,268.850 166.590,268.375 164.623 C 267.899 162.656,267.011 160.046,266.401 158.823 C 265.791 157.600,265.067 155.880,264.792 155.000 C 264.517 154.120,263.955 152.731,263.544 151.913 C 263.133 151.095,262.605 149.530,262.370 148.433 C 262.135 147.337,261.455 145.756,260.859 144.920 C 260.264 144.084,259.266 142.182,258.641 140.694 C 258.016 139.206,257.347 137.891,257.154 137.772 C 256.961 137.652,256.174 136.260,255.406 134.677 C 253.616 130.993,252.162 128.442,251.321 127.513 C 250.956 127.109,250.284 126.166,249.828 125.416 C 248.319 122.933,243.937 118.219,239.712 114.532 C 238.660 113.615,236.729 111.860,235.421 110.632 C 234.112 109.404,232.914 108.400,232.757 108.400 C 232.600 108.400,231.539 107.663,230.399 106.762 C 229.260 105.861,227.308 104.680,226.063 104.137 C 224.819 103.594,222.923 102.698,221.851 102.145 C 220.636 101.519,218.151 100.847,215.251 100.361 C 212.693 99.932,209.329 99.225,207.774 98.790 C 204.329 97.826,195.288 97.701,191.200 98.560 C 189.770 98.861,187.610 99.229,186.400 99.378 C 181.427 99.991,174.970 101.275,173.242 101.994 C 172.229 102.416,170.648 102.953,169.730 103.188 C 167.255 103.820,154.125 109.696,151.708 111.252 C 146.371 114.690,144.811 115.628,143.167 116.390 C 142.195 116.841,140.680 117.741,139.800 118.391 C 132.357 123.888,120.732 120.970,117.813 112.872 C 117.441 111.843,116.626 109.740,116.000 108.200 C 113.669 102.462,114.293 91.456,117.355 84.327 C 117.703 83.517,118.175 82.739,118.403 82.598 C 118.631 82.457,119.572 81.320,120.494 80.071 C 123.301 76.269,125.263 74.380,127.662 73.169 C 128.922 72.532,130.099 71.753,130.277 71.436 C 130.455 71.119,131.726 70.327,133.103 69.677 C 134.479 69.026,135.829 68.309,136.103 68.083 C 136.376 67.858,137.770 67.060,139.200 66.310 C 140.630 65.560,143.110 64.175,144.711 63.232 C 146.312 62.290,148.643 61.252,149.892 60.925 C 151.141 60.599,152.909 59.797,153.821 59.142 C 154.733 58.487,156.757 57.623,158.319 57.221 C 159.882 56.819,161.754 56.136,162.480 55.703 C 164.083 54.748,167.755 53.759,171.000 53.408 C 172.320 53.266,175.290 52.612,177.600 51.954 C 179.910 51.297,183.600 50.505,185.800 50.195 C 188.000 49.884,190.970 49.467,192.400 49.266 C 196.061 48.753,198.341 48.742,204.242 49.206 " stroke="none" fill="#7c7c7c" fill-rule="evenodd"></path><path id="path4" d="M188.600 47.806 L 183.800 48.345 188.600 48.073 C 194.567 47.734,201.039 47.725,207.800 48.048 C 210.660 48.185,212.190 48.158,211.200 47.989 C 207.546 47.365,193.540 47.252,188.600 47.806 M176.200 49.793 C 173.780 50.522,169.730 51.610,167.200 52.211 C 164.670 52.812,161.790 53.730,160.800 54.252 C 159.810 54.773,157.421 55.729,155.492 56.377 C 153.562 57.025,151.514 57.924,150.940 58.376 C 150.365 58.828,148.615 59.579,147.049 60.045 C 145.483 60.511,143.032 61.576,141.601 62.412 C 134.360 66.641,130.963 68.717,129.392 69.874 C 128.440 70.574,127.091 71.443,126.394 71.803 C 125.696 72.164,125.229 72.562,125.355 72.688 C 125.481 72.814,126.332 72.396,127.248 71.759 C 129.222 70.384,133.974 67.449,137.600 65.365 C 139.030 64.543,141.190 63.273,142.400 62.542 C 143.610 61.811,145.590 60.925,146.800 60.572 C 148.010 60.220,150.080 59.336,151.400 58.608 C 152.720 57.880,155.044 56.902,156.563 56.436 C 158.083 55.969,159.883 55.244,160.563 54.825 C 161.244 54.405,163.690 53.595,166.000 53.024 C 178.544 49.925,183.726 48.446,182.000 48.458 C 181.230 48.464,178.620 49.064,176.200 49.793 M217.600 49.791 C 220.130 50.520,222.988 51.405,223.950 51.758 C 224.913 52.111,226.083 52.394,226.550 52.387 C 227.018 52.380,226.410 52.019,225.200 51.586 C 221.668 50.320,214.734 48.397,213.831 48.433 C 213.374 48.450,215.070 49.062,217.600 49.791 M228.515 52.804 C 229.128 52.988,230.865 53.778,232.375 54.560 C 233.885 55.341,236.013 56.332,237.103 56.762 C 238.193 57.191,240.236 58.264,241.642 59.146 C 243.049 60.027,244.920 61.198,245.800 61.746 C 248.140 63.206,254.239 68.111,256.967 70.729 C 258.574 72.272,258.959 72.530,258.167 71.535 C 256.341 69.242,249.846 63.760,246.478 61.669 C 245.531 61.081,243.695 59.916,242.398 59.080 C 241.100 58.244,238.995 57.131,237.719 56.607 C 236.444 56.083,233.995 54.922,232.278 54.027 C 230.562 53.132,228.762 52.415,228.278 52.434 C 227.534 52.464,227.570 52.520,228.515 52.804 M122.161 74.900 C 116.432 80.882,112.241 90.034,113.310 94.228 C 113.436 94.722,113.524 94.542,113.554 93.726 C 113.781 87.496,118.280 78.505,123.335 74.177 C 124.220 73.420,124.770 72.800,124.558 72.800 C 124.346 72.800,123.268 73.745,122.161 74.900 M262.005 75.626 C 263.438 77.262,265.410 79.590,266.389 80.800 C 267.367 82.010,269.360 84.350,270.818 86.000 C 272.275 87.650,273.768 89.445,274.134 89.989 C 274.500 90.533,274.800 90.764,274.800 90.502 C 274.800 90.074,274.043 89.130,269.864 84.355 C 269.169 83.560,267.700 81.774,266.600 80.385 C 263.820 76.875,260.782 73.471,260.031 73.026 C 259.684 72.820,260.572 73.990,262.005 75.626 M276.228 93.826 C 277.005 95.317,278.097 97.092,278.654 97.769 C 280.108 99.536,282.645 103.976,283.624 106.465 C 284.085 107.639,284.698 108.870,284.985 109.200 C 285.273 109.530,285.970 110.700,286.535 111.800 C 287.100 112.900,287.571 113.687,287.581 113.549 C 287.620 113.029,286.374 110.398,285.432 109.009 C 284.894 108.216,284.142 106.720,283.761 105.684 C 283.380 104.648,282.674 103.260,282.192 102.600 C 281.710 101.940,280.949 100.680,280.500 99.800 C 280.052 98.920,279.302 97.853,278.833 97.430 C 278.365 97.006,277.513 95.614,276.939 94.336 C 276.365 93.057,275.653 91.810,275.355 91.563 C 275.058 91.316,275.451 92.334,276.228 93.826 M112.920 97.200 C 112.920 98.410,112.995 98.905,113.087 98.300 C 113.178 97.695,113.178 96.705,113.087 96.100 C 112.995 95.495,112.920 95.990,112.920 97.200 M189.800 100.385 C 188.480 100.523,191.180 100.561,195.800 100.470 C 207.238 100.244,214.127 101.184,220.140 103.792 C 226.392 106.504,232.901 110.244,233.334 111.373 C 233.451 111.676,234.413 112.515,235.473 113.236 C 238.067 115.002,240.254 117.057,244.519 121.734 C 249.143 126.806,260.328 146.184,261.642 151.400 C 261.895 152.407,262.181 153.152,262.278 153.056 C 262.538 152.795,261.619 149.603,260.823 148.000 C 251.398 129.031,243.485 117.901,236.050 113.154 C 235.088 112.539,234.055 111.685,233.754 111.256 C 232.061 108.839,220.172 102.572,215.510 101.639 C 207.839 100.103,197.378 99.593,189.800 100.385 M181.200 101.399 C 177.845 102.076,167.984 105.330,166.659 106.198 C 166.098 106.566,164.865 107.109,163.919 107.405 C 161.183 108.261,155.553 110.719,154.832 111.371 C 154.469 111.699,153.189 112.422,151.986 112.978 C 149.846 113.968,146.317 116.018,142.876 118.271 C 141.928 118.892,140.488 119.816,139.676 120.325 C 138.545 121.034,138.434 121.188,139.200 120.985 C 139.750 120.840,140.830 120.193,141.600 119.547 C 142.370 118.902,143.992 117.881,145.205 117.280 C 146.417 116.678,148.037 115.709,148.805 115.126 C 149.572 114.544,150.997 113.750,151.971 113.362 C 152.944 112.974,154.694 112.083,155.858 111.382 C 157.022 110.681,159.646 109.516,161.688 108.794 C 163.729 108.072,166.210 107.058,167.200 106.541 C 170.910 104.601,179.977 101.854,184.649 101.254 C 186.878 100.968,187.058 100.899,185.600 100.888 C 184.610 100.881,182.630 101.111,181.200 101.399 M113.314 104.200 C 113.317 105.300,113.395 105.703,113.487 105.095 C 113.579 104.486,113.577 103.586,113.482 103.095 C 113.387 102.603,113.311 103.100,113.314 104.200 M113.828 107.600 C 113.973 108.370,114.267 109.217,114.480 109.481 C 114.693 109.746,115.367 111.304,115.979 112.944 C 118.717 120.283,124.781 124.249,132.015 123.430 C 134.231 123.179,138.283 121.749,137.890 121.357 C 137.793 121.259,136.833 121.564,135.757 122.033 C 128.696 125.110,119.083 120.744,116.454 113.267 C 115.073 109.338,113.524 105.996,113.828 107.600 M287.601 114.091 C 287.601 114.251,288.044 115.331,288.587 116.491 C 289.129 117.651,290.487 120.850,291.603 123.600 C 292.719 126.350,293.813 128.925,294.033 129.322 C 294.850 130.792,298.094 140.309,298.875 143.526 C 299.319 145.355,299.753 146.781,299.839 146.695 C 300.104 146.430,298.527 139.896,297.789 138.200 C 297.406 137.320,296.601 135.160,296.000 133.400 C 295.400 131.640,294.056 128.220,293.014 125.800 C 291.973 123.380,290.700 120.298,290.185 118.951 C 289.307 116.651,287.605 113.449,287.601 114.091 M300.006 147.451 C 300.003 147.699,300.296 148.599,300.658 149.451 C 301.019 150.303,301.543 151.810,301.822 152.800 C 302.100 153.790,302.345 154.304,302.364 153.942 C 302.384 153.580,302.041 152.140,301.602 150.742 C 300.809 148.218,300.018 146.586,300.006 147.451 M262.430 153.825 C 262.413 154.059,262.843 155.169,263.385 156.291 C 264.912 159.458,265.993 162.576,267.393 167.860 C 268.102 170.533,268.965 173.431,269.313 174.299 C 269.660 175.167,270.405 178.020,270.967 180.639 C 272.112 185.969,273.132 189.444,273.173 188.150 C 273.188 187.683,272.947 186.584,272.638 185.708 C 272.329 184.832,271.772 182.604,271.400 180.758 C 271.027 178.911,270.128 175.510,269.400 173.200 C 268.673 170.890,267.855 168.010,267.583 166.800 C 266.777 163.215,262.522 152.501,262.430 153.825 M302.660 156.748 C 302.785 157.930,303.310 159.820,303.826 160.948 C 304.341 162.077,304.944 164.170,305.165 165.600 L 305.566 168.200 305.366 165.400 C 305.246 163.734,304.820 161.883,304.313 160.830 C 303.844 159.856,303.229 158.056,302.946 156.830 L 302.431 154.600 302.660 156.748 M305.695 169.200 C 305.695 169.750,305.832 170.740,306.000 171.400 C 306.272 172.470,306.305 172.492,306.305 171.600 C 306.305 171.050,306.168 170.060,306.000 169.400 C 305.728 168.330,305.695 168.308,305.695 169.200 M306.436 173.048 C 306.416 173.294,306.850 175.668,307.400 178.322 C 307.950 180.977,308.421 183.656,308.446 184.275 C 308.476 185.001,308.559 185.142,308.681 184.673 C 308.784 184.273,308.582 182.293,308.231 180.273 C 307.591 176.589,306.503 172.209,306.436 173.048 M308.928 188.000 C 308.928 189.430,309.001 190.015,309.089 189.300 C 309.178 188.585,309.178 187.415,309.089 186.700 C 309.001 185.985,308.928 186.570,308.928 188.000 M273.474 191.800 C 273.598 193.340,273.766 194.675,273.849 194.767 C 274.127 195.074,273.958 192.217,273.602 190.600 C 273.331 189.370,273.302 189.648,273.474 191.800 M309.437 194.400 C 309.539 196.490,309.907 201.350,310.255 205.200 C 310.919 212.547,310.839 223.442,310.045 233.600 C 309.330 242.756,309.195 245.003,309.381 244.600 C 310.745 241.645,311.594 213.134,310.601 203.600 C 310.269 200.410,309.830 196.180,309.625 194.200 L 309.251 190.600 309.437 194.400 M274.134 198.800 C 274.134 200.450,274.205 201.125,274.291 200.300 C 274.378 199.475,274.378 198.125,274.291 197.300 C 274.205 196.475,274.134 197.150,274.134 198.800 M274.528 205.200 C 274.528 206.630,274.601 207.215,274.689 206.500 C 274.778 205.785,274.778 204.615,274.689 203.900 C 274.601 203.185,274.528 203.770,274.528 205.200 M274.970 218.200 C 274.971 223.040,275.029 224.965,275.099 222.478 C 275.169 219.991,275.169 216.031,275.098 213.678 C 275.028 211.325,274.970 213.360,274.970 218.200 M274.531 231.400 C 274.533 232.940,274.605 233.521,274.692 232.691 C 274.779 231.861,274.777 230.601,274.689 229.891 C 274.600 229.181,274.529 229.860,274.531 231.400 M274.120 236.800 C 274.120 238.010,274.195 238.505,274.287 237.900 C 274.378 237.295,274.378 236.305,274.287 235.700 C 274.195 235.095,274.120 235.590,274.120 236.800 M273.664 240.436 C 273.629 241.226,273.225 243.296,272.766 245.036 C 272.308 246.776,271.422 250.475,270.797 253.255 C 270.172 256.035,269.304 259.095,268.867 260.055 C 268.430 261.015,267.712 262.700,267.273 263.800 C 264.331 271.165,261.046 278.038,259.542 279.973 C 258.571 281.222,256.173 285.217,255.084 287.397 C 254.646 288.276,253.098 290.227,251.644 291.734 C 244.974 298.644,242.124 301.489,240.757 302.600 C 233.417 308.566,231.218 310.196,227.300 312.571 C 224.825 314.072,222.800 315.386,222.800 315.493 C 222.800 316.572,235.317 308.095,239.402 304.248 C 240.132 303.562,242.282 301.650,244.182 300.000 C 246.081 298.350,248.116 296.370,248.704 295.600 C 249.292 294.830,250.949 292.919,252.387 291.354 C 253.824 289.788,255.900 286.924,257.000 284.989 C 258.100 283.053,259.562 280.637,260.248 279.620 C 262.985 275.564,269.562 260.388,270.633 255.658 C 270.964 254.196,271.869 250.440,272.644 247.311 C 273.418 244.183,273.979 241.033,273.890 240.311 L 273.728 239.000 273.664 240.436 M308.901 246.600 C 308.905 247.480,308.987 247.793,309.083 247.295 C 309.179 246.798,309.175 246.078,309.075 245.695 C 308.975 245.313,308.896 245.720,308.901 246.600 M308.013 252.091 C 307.736 254.131,307.170 257.134,306.755 258.764 C 306.340 260.394,306.020 262.194,306.045 262.764 C 306.070 263.339,306.254 262.910,306.459 261.800 C 306.662 260.700,307.080 258.990,307.388 258.000 C 308.023 255.959,309.020 248.887,308.716 248.583 C 308.606 248.473,308.289 250.052,308.013 252.091 M305.277 266.337 C 304.727 269.002,303.004 275.032,301.184 280.665 C 300.533 282.681,300.004 284.481,300.009 284.665 C 300.035 285.651,301.756 280.929,302.635 277.460 C 303.195 275.254,303.882 272.899,304.164 272.225 C 304.824 270.643,306.102 264.907,305.917 264.352 C 305.839 264.118,305.551 265.011,305.277 266.337 M164.800 268.761 C 164.470 268.946,163.210 269.328,162.000 269.609 C 155.372 271.152,147.765 278.302,144.562 286.000 C 144.058 287.210,143.276 288.913,142.823 289.785 C 142.370 290.656,142.004 291.646,142.009 291.985 C 142.014 292.323,142.735 290.980,143.612 289.000 C 154.395 264.632,174.346 262.320,189.451 283.689 C 194.084 290.242,197.415 296.327,200.364 303.625 C 201.115 305.481,202.394 308.530,203.209 310.400 C 204.023 312.270,205.002 314.757,205.385 315.926 C 206.386 318.982,208.730 321.367,210.376 321.005 C 212.754 320.483,223.191 315.636,221.989 315.612 C 221.653 315.605,220.992 315.871,220.519 316.201 C 219.127 317.177,209.921 320.745,209.357 320.528 C 208.301 320.123,206.101 316.932,205.406 314.800 C 205.012 313.590,204.261 311.745,203.738 310.701 C 203.215 309.656,202.361 307.676,201.839 306.301 C 200.086 301.682,197.883 296.605,197.367 295.999 C 197.086 295.669,196.299 294.229,195.618 292.799 C 192.912 287.114,186.626 278.549,182.994 275.600 C 181.776 274.610,180.198 273.330,179.489 272.755 C 175.953 269.890,167.086 267.479,164.800 268.761 M299.016 288.653 C 298.863 289.472,298.129 291.326,297.386 292.771 C 296.006 295.455,293.908 299.866,293.665 300.595 C 293.229 301.900,295.490 297.795,296.306 295.800 C 296.846 294.481,297.617 292.938,298.020 292.372 C 298.790 291.290,299.847 287.714,299.499 287.366 C 299.388 287.254,299.170 287.833,299.016 288.653 M141.223 295.400 C 141.201 295.840,140.736 297.460,140.189 299.000 C 139.642 300.540,139.128 302.700,139.046 303.800 C 138.964 304.900,138.972 305.350,139.064 304.800 C 139.156 304.250,139.780 301.958,140.451 299.706 C 141.122 297.454,141.579 295.384,141.467 295.106 C 141.355 294.828,141.245 294.960,141.223 295.400 M290.486 306.686 C 288.888 309.671,287.646 312.179,287.727 312.260 C 287.808 312.341,289.178 309.961,290.771 306.971 C 292.365 303.982,293.607 301.473,293.530 301.397 C 293.454 301.321,292.084 303.701,290.486 306.686 M138.501 307.800 C 138.505 308.680,138.587 308.993,138.683 308.495 C 138.779 307.998,138.775 307.278,138.675 306.895 C 138.575 306.513,138.496 306.920,138.501 307.800 M138.109 311.600 C 138.109 312.590,138.187 312.995,138.282 312.500 C 138.378 312.005,138.378 311.195,138.282 310.700 C 138.187 310.205,138.109 310.610,138.109 311.600 M286.895 313.751 C 286.656 314.277,285.893 315.492,285.200 316.453 C 284.507 317.414,282.845 319.910,281.506 322.000 C 280.168 324.090,278.135 326.880,276.989 328.200 C 275.843 329.520,274.622 331.140,274.277 331.800 C 272.397 335.393,255.820 351.206,249.000 355.911 C 245.933 358.027,244.508 359.180,244.945 359.191 C 245.364 359.202,248.791 356.686,254.352 352.286 C 260.156 347.692,272.757 335.075,274.513 332.098 C 274.997 331.278,275.664 330.314,275.996 329.956 C 278.315 327.454,279.149 326.377,281.337 323.060 C 282.692 321.006,284.340 318.459,285.000 317.400 C 285.660 316.340,286.537 314.954,286.948 314.318 C 287.359 313.682,287.613 313.080,287.513 312.979 C 287.412 312.879,287.134 313.226,286.895 313.751 M137.770 322.000 C 137.770 326.730,137.828 328.665,137.898 326.300 C 137.969 323.935,137.969 320.065,137.898 317.700 C 137.828 315.335,137.770 317.270,137.770 322.000 M138.101 332.600 C 138.105 333.480,138.187 333.793,138.283 333.295 C 138.379 332.798,138.375 332.078,138.275 331.695 C 138.175 331.313,138.096 331.720,138.101 332.600 M138.851 337.400 C 138.828 337.840,139.063 339.100,139.374 340.200 C 139.684 341.300,140.420 343.910,141.009 346.000 C 144.753 359.283,157.762 373.562,167.800 375.408 C 168.517 375.539,168.115 375.259,166.800 374.711 C 159.812 371.798,152.300 365.969,148.923 360.838 C 148.112 359.607,146.948 357.969,146.337 357.198 C 144.336 354.677,141.018 345.625,139.081 337.400 L 138.893 336.600 138.851 337.400 M242.200 360.178 C 241.320 360.709,238.052 362.523,234.939 364.209 C 226.506 368.776,225.304 370.684,227.927 375.332 C 228.602 376.528,229.449 378.652,229.811 380.053 C 230.413 382.388,232.731 387.402,233.058 387.075 C 233.134 386.999,232.675 385.961,232.038 384.768 C 231.400 383.576,230.505 381.220,230.049 379.533 C 229.593 377.846,228.750 375.776,228.174 374.933 C 225.858 371.541,227.426 368.883,233.766 365.451 C 239.641 362.270,240.994 361.502,241.600 360.998 C 241.930 360.724,242.740 360.215,243.400 359.866 C 244.060 359.517,244.420 359.228,244.200 359.223 C 243.980 359.217,243.080 359.647,242.200 360.178 M173.465 376.758 C 176.187 377.772,180.817 378.471,182.762 378.160 C 187.273 377.438,190.429 381.956,195.224 396.000 C 195.862 397.870,196.634 399.850,196.940 400.400 C 197.245 400.950,197.881 402.570,198.354 404.000 C 199.129 406.348,199.978 408.188,199.994 407.554 C 199.997 407.419,199.355 405.619,198.567 403.554 C 197.779 401.489,196.543 398.180,195.821 396.200 C 195.098 394.220,194.193 391.880,193.810 391.000 C 193.426 390.120,192.530 387.943,191.818 386.162 C 188.932 378.935,187.374 377.600,181.827 377.600 C 180.038 377.600,177.590 377.328,176.387 376.995 C 172.703 375.976,170.996 375.837,173.465 376.758 M233.444 388.600 C 233.773 390.071,234.002 390.390,233.994 389.367 C 233.991 388.945,233.805 388.330,233.582 388.000 C 233.285 387.562,233.248 387.724,233.444 388.600 M234.016 390.712 C 234.007 390.994,234.427 392.254,234.948 393.512 C 235.470 394.770,236.208 396.757,236.589 397.926 C 236.970 399.095,237.352 399.981,237.439 399.895 C 237.617 399.717,235.609 393.729,234.657 391.600 C 234.313 390.830,234.024 390.430,234.016 390.712 M237.701 400.834 C 240.491 407.489,242.923 413.733,243.284 415.166 C 243.820 417.295,246.267 422.129,245.833 420.200 C 245.684 419.540,245.211 418.512,244.781 417.916 C 244.352 417.320,244.000 416.629,244.000 416.380 C 244.000 415.793,241.579 408.722,241.199 408.200 C 241.039 407.980,240.318 406.220,239.597 404.288 C 238.875 402.356,238.100 400.662,237.874 400.522 C 237.636 400.375,237.563 400.506,237.701 400.834 M200.000 408.149 C 200.000 408.741,202.168 414.783,202.643 415.514 C 202.969 416.016,203.875 418.266,204.656 420.514 C 205.437 422.761,206.222 424.780,206.401 425.000 C 206.580 425.220,207.268 426.930,207.931 428.800 C 208.593 430.670,209.891 434.180,210.814 436.600 C 211.738 439.020,213.128 442.710,213.903 444.800 C 214.679 446.890,215.546 448.960,215.832 449.400 C 216.117 449.840,216.704 451.460,217.136 453.000 C 217.569 454.540,218.492 456.880,219.187 458.200 C 219.883 459.520,220.332 460.150,220.185 459.600 C 220.038 459.050,219.580 458.012,219.168 457.292 C 218.755 456.573,218.124 454.953,217.765 453.692 C 217.406 452.432,216.619 450.230,216.016 448.800 C 214.232 444.565,207.544 427.124,205.127 420.400 C 204.455 418.530,203.409 416.010,202.804 414.800 C 202.198 413.590,201.405 411.565,201.040 410.300 C 200.499 408.422,200.000 407.390,200.000 408.149 M246.404 423.000 C 246.404 423.220,246.700 423.940,247.062 424.600 C 247.423 425.260,248.132 426.880,248.638 428.200 C 249.744 431.085,249.905 430.612,248.855 427.563 C 248.119 425.423,246.402 422.228,246.404 423.000 M250.139 432.800 C 250.244 433.130,251.220 435.560,252.308 438.200 C 253.397 440.840,254.608 443.990,254.999 445.200 C 255.390 446.410,256.073 448.120,256.517 449.000 C 256.961 449.880,257.816 452.040,258.416 453.800 C 259.603 457.276,262.387 463.679,262.395 462.949 C 262.401 462.369,261.377 459.796,260.424 458.000 C 260.015 457.230,259.204 455.076,258.620 453.214 C 258.036 451.351,257.226 449.281,256.819 448.614 C 256.413 447.946,255.716 446.230,255.272 444.800 C 254.318 441.733,251.627 435.108,250.641 433.400 C 250.261 432.740,250.035 432.470,250.139 432.800 M220.640 461.900 C 220.780 462.505,221.569 464.530,222.392 466.400 C 223.216 468.270,224.124 470.520,224.410 471.400 C 224.697 472.280,224.996 472.806,225.076 472.569 C 225.155 472.333,224.393 470.173,223.381 467.769 C 222.370 465.366,221.367 462.815,221.152 462.100 C 220.678 460.520,220.284 460.366,220.640 461.900 M262.412 464.320 C 262.405 464.606,262.668 465.358,262.996 465.992 C 263.324 466.626,264.207 468.822,264.959 470.872 C 265.711 472.922,267.166 476.580,268.193 479.000 C 269.220 481.420,270.658 485.020,271.389 487.000 C 273.541 492.830,274.757 495.830,274.779 495.363 C 274.808 494.761,273.285 490.390,272.856 489.844 C 272.665 489.600,272.112 488.140,271.627 486.600 C 271.143 485.060,270.229 482.630,269.596 481.200 C 267.883 477.331,266.486 473.865,264.841 469.400 C 263.317 465.266,262.433 463.417,262.412 464.320 M225.200 473.325 C 225.200 473.993,227.768 480.785,228.384 481.747 C 229.475 483.450,229.407 482.788,228.256 480.487 C 227.736 479.449,226.911 477.385,226.423 475.900 C 225.691 473.676,225.200 472.642,225.200 473.325 M229.454 484.200 C 229.874 486.103,230.448 487.246,230.156 485.600 C 230.020 484.830,229.746 483.930,229.549 483.600 C 229.314 483.208,229.281 483.416,229.454 484.200 M230.414 487.513 C 230.406 487.796,230.869 488.952,231.443 490.084 C 232.016 491.216,232.749 493.030,233.071 494.115 C 233.394 495.201,234.163 497.104,234.782 498.345 C 235.400 499.585,236.003 500.870,236.121 501.200 C 236.273 501.621,236.346 501.642,236.368 501.269 C 236.386 500.977,235.782 499.447,235.027 497.869 C 234.272 496.291,233.522 494.466,233.362 493.813 C 232.988 492.293,230.433 486.833,230.414 487.513 M274.813 496.264 C 274.806 496.519,275.340 497.869,276.000 499.264 C 276.660 500.659,277.200 501.525,277.200 501.190 C 277.200 500.471,274.831 495.582,274.813 496.264 M236.428 502.293 C 236.397 502.839,240.135 512.366,241.014 513.981 C 242.050 515.887,241.604 514.403,240.026 510.696 C 239.161 508.663,238.004 505.830,237.454 504.400 C 236.905 502.970,236.443 502.022,236.428 502.293 M277.256 502.400 C 277.256 502.730,277.411 503.360,277.600 503.800 C 277.817 504.304,277.944 504.378,277.944 504.000 C 277.944 503.670,277.789 503.040,277.600 502.600 C 277.383 502.096,277.256 502.022,277.256 502.400 M278.241 505.600 C 278.384 506.150,278.918 507.320,279.426 508.200 C 279.933 509.080,280.663 510.970,281.047 512.400 C 281.431 513.830,282.048 515.450,282.417 516.000 C 282.787 516.550,283.319 517.720,283.601 518.600 C 283.883 519.480,284.533 521.010,285.045 522.000 C 285.557 522.990,286.254 524.520,286.594 525.400 C 287.079 526.656,287.164 526.742,286.990 525.800 C 286.869 525.140,286.306 523.700,285.739 522.600 C 285.173 521.500,284.368 519.620,283.949 518.421 C 283.531 517.223,282.934 515.853,282.621 515.376 C 282.309 514.900,281.799 513.540,281.487 512.355 C 281.176 511.170,280.259 508.940,279.450 507.400 C 278.641 505.860,278.097 505.050,278.241 505.600 M241.704 515.649 C 241.832 516.006,242.316 517.574,242.780 519.133 C 243.244 520.692,243.785 522.067,243.981 522.188 C 244.176 522.309,244.905 524.114,245.600 526.200 C 246.295 528.286,247.015 530.086,247.200 530.200 C 247.385 530.315,248.031 531.891,248.635 533.704 C 249.239 535.517,249.792 536.820,249.865 536.600 C 250.013 536.153,247.842 530.392,244.741 523.000 C 244.280 521.900,243.478 519.759,242.961 518.243 C 242.443 516.726,241.896 515.376,241.746 515.243 C 241.595 515.109,241.577 515.292,241.704 515.649 M287.602 529.120 C 287.601 529.406,287.878 530.178,288.219 530.836 C 288.559 531.494,289.438 533.690,290.173 535.716 C 291.648 539.785,294.781 547.350,295.510 548.600 C 296.309 549.972,296.054 548.410,295.225 546.854 C 294.248 545.021,291.891 539.290,290.186 534.600 C 288.799 530.786,287.607 528.256,287.602 529.120 M250.213 537.800 C 252.261 543.804,252.921 545.578,253.784 547.403 C 254.343 548.584,254.800 549.659,254.800 549.793 C 254.800 550.785,261.149 565.399,261.182 564.481 C 261.192 564.195,260.827 563.205,260.371 562.281 C 259.209 559.926,253.772 546.553,252.156 542.074 C 251.006 538.888,249.314 535.167,250.213 537.800 M296.217 550.500 C 296.804 552.454,299.951 560.171,299.975 559.715 C 300.004 559.161,298.443 554.804,298.000 554.200 C 297.838 553.980,297.398 552.855,297.021 551.700 C 296.366 549.692,295.655 548.631,296.217 550.500 M300.004 560.649 C 300.002 560.896,300.374 561.944,300.831 562.977 C 304.381 571.003,304.688 586.168,301.443 593.219 C 299.216 598.056,297.142 600.671,294.361 602.145 C 293.172 602.776,291.660 603.577,291.000 603.926 C 287.368 605.848,280.337 603.778,276.471 599.647 L 274.741 597.800 275.834 599.516 C 277.381 601.944,283.870 605.197,287.186 605.206 C 294.220 605.225,300.662 598.576,303.196 588.681 C 305.105 581.225,305.121 580.015,303.417 571.630 C 302.222 565.748,300.021 558.668,300.004 560.649 M261.256 565.600 C 261.256 565.930,261.411 566.560,261.600 567.000 C 261.817 567.504,261.944 567.578,261.944 567.200 C 261.944 566.870,261.789 566.240,261.600 565.800 C 261.383 565.296,261.256 565.222,261.256 565.600 M262.023 568.400 C 262.030 568.730,262.666 570.260,263.437 571.800 C 264.208 573.340,264.716 574.150,264.567 573.600 C 264.162 572.108,262.009 567.706,262.023 568.400 M264.826 575.400 C 264.821 575.840,265.189 577.010,265.642 578.000 C 266.096 578.990,266.904 580.952,267.438 582.361 C 267.973 583.769,268.774 585.510,269.218 586.229 C 269.662 586.948,270.461 588.815,270.992 590.378 C 271.524 591.940,272.323 593.731,272.769 594.357 C 273.215 594.983,273.770 595.994,274.001 596.603 C 274.233 597.212,274.524 597.610,274.648 597.486 C 274.772 597.362,274.226 596.104,273.436 594.690 C 272.645 593.276,271.637 591.070,271.195 589.787 C 270.754 588.504,270.013 586.812,269.548 586.027 C 269.083 585.242,267.832 582.350,266.768 579.600 C 265.704 576.850,264.830 574.960,264.826 575.400 " stroke="none" fill="#848484" fill-rule="evenodd"></path></g></svg>