<svg id="svg" version="1.1" xmlns="http://www.w3.org/2000/svg" xmlns:xlink="http://www.w3.org/1999/xlink" width="400" height="752.7559055118111" viewBox="0, 0, 400,752.7559055118111"><g id="svgg"><path id="path0" d="M192.600 49.256 C 191.280 49.454,188.268 49.888,185.907 50.221 C 183.547 50.553,179.806 51.346,177.596 51.982 C 175.385 52.618,172.367 53.268,170.888 53.426 C 167.579 53.781,163.321 54.966,162.416 55.786 C 162.044 56.122,160.314 56.761,158.570 57.205 C 156.757 57.668,154.707 58.510,153.782 59.173 C 152.892 59.811,151.182 60.589,149.982 60.902 C 148.782 61.216,146.450 62.250,144.800 63.202 C 137.823 67.224,135.661 68.415,133.206 69.592 C 131.779 70.276,130.464 71.100,130.283 71.423 C 130.102 71.747,128.922 72.532,127.662 73.169 C 125.276 74.373,123.300 76.270,120.546 80.000 C 119.653 81.211,118.646 82.430,118.308 82.710 C 117.970 82.991,117.297 84.521,116.812 86.110 C 116.328 87.700,115.644 89.900,115.293 91.000 C 114.196 94.439,114.513 104.852,115.804 107.771 C 116.355 109.016,117.147 111.007,117.565 112.195 C 120.825 121.471,133.145 124.302,141.000 117.580 C 141.440 117.204,142.698 116.505,143.795 116.028 C 144.892 115.551,146.152 114.830,146.595 114.426 C 147.038 114.021,148.210 113.289,149.200 112.799 C 150.190 112.309,151.570 111.481,152.267 110.959 C 153.750 109.848,167.291 103.815,169.730 103.179 C 170.648 102.940,172.480 102.320,173.800 101.803 C 175.183 101.260,178.743 100.498,182.200 100.005 C 185.500 99.533,189.497 98.890,191.083 98.574 C 195.476 97.699,204.334 97.809,207.729 98.780 C 209.228 99.208,212.378 99.851,214.728 100.208 C 217.168 100.578,219.857 101.263,221.000 101.804 C 222.100 102.326,224.178 103.279,225.618 103.923 C 228.470 105.198,232.908 108.280,235.819 111.008 C 236.833 111.959,238.554 113.516,239.643 114.468 C 243.977 118.259,248.312 122.921,249.843 125.440 C 250.307 126.203,251.054 127.226,251.503 127.713 C 252.324 128.604,252.880 129.594,255.258 134.400 C 255.965 135.830,256.938 137.540,257.419 138.200 C 257.900 138.860,258.624 140.300,259.029 141.400 C 259.434 142.500,260.255 144.084,260.854 144.920 C 261.453 145.756,262.135 147.337,262.370 148.433 C 262.605 149.530,263.133 151.095,263.544 151.913 C 263.955 152.731,264.517 154.120,264.792 155.000 C 265.067 155.880,265.820 157.659,266.467 158.953 C 267.113 160.247,268.069 163.037,268.591 165.153 C 269.113 167.269,269.828 169.781,270.180 170.736 C 270.532 171.690,271.189 174.210,271.639 176.336 C 272.090 178.461,272.798 181.027,273.213 182.038 C 274.089 184.168,274.636 188.417,275.193 197.400 C 275.412 200.920,275.788 204.502,276.030 205.360 C 277.190 209.468,277.101 226.054,275.885 232.600 C 275.517 234.580,275.042 238.720,274.829 241.800 C 274.575 245.475,274.153 248.294,273.600 250.000 C 273.136 251.430,272.323 254.458,271.793 256.730 C 271.262 259.001,270.459 261.458,270.007 262.189 C 269.555 262.921,268.848 264.497,268.437 265.693 C 267.711 267.803,265.392 272.961,264.073 275.400 C 263.716 276.060,262.879 277.617,262.212 278.860 C 259.948 283.082,258.603 285.278,257.300 286.879 C 256.585 287.757,256.000 288.723,256.000 289.026 C 256.000 289.896,248.705 297.952,245.521 300.600 C 242.146 303.406,241.073 304.407,240.568 305.220 C 240.366 305.546,239.063 306.710,237.674 307.806 C 236.285 308.903,234.755 310.133,234.274 310.540 C 233.793 310.946,232.579 311.697,231.575 312.208 C 230.571 312.719,229.537 313.394,229.277 313.707 C 229.017 314.020,228.039 314.615,227.102 315.028 C 226.166 315.442,224.696 316.281,223.835 316.894 C 222.974 317.507,221.374 318.274,220.279 318.599 C 219.184 318.924,217.696 319.642,216.972 320.194 C 215.508 321.311,214.296 321.847,211.539 322.599 C 207.990 323.568,205.648 321.653,204.206 316.605 C 203.830 315.288,203.110 313.488,202.606 312.605 C 202.102 311.722,201.371 310.010,200.980 308.800 C 200.590 307.590,199.760 305.520,199.135 304.200 C 198.511 302.880,198.000 301.505,198.000 301.145 C 198.000 300.785,197.357 299.555,196.571 298.412 C 195.784 297.269,194.882 295.598,194.564 294.699 C 194.247 293.800,193.360 292.119,192.594 290.964 C 191.827 289.809,191.200 288.692,191.200 288.481 C 191.200 288.270,190.928 287.872,190.596 287.597 C 190.264 287.321,189.151 285.830,188.122 284.283 C 181.080 273.690,168.788 268.049,160.800 271.744 C 156.295 273.828,149.200 280.083,149.200 281.971 C 149.200 282.128,148.598 282.963,147.862 283.828 C 147.125 284.693,146.124 286.480,145.635 287.800 C 145.147 289.120,144.402 290.791,143.979 291.514 C 143.557 292.236,143.021 294.020,142.788 295.477 C 142.555 296.935,141.901 299.854,141.335 301.964 C 139.667 308.178,139.581 308.935,139.334 319.467 C 139.092 329.819,139.408 334.228,140.644 337.720 C 140.971 338.644,141.596 340.998,142.032 342.951 C 142.468 344.903,143.259 347.423,143.790 348.551 C 144.321 349.678,144.989 351.475,145.273 352.544 C 145.557 353.613,146.233 354.963,146.775 355.544 C 147.317 356.125,148.417 357.680,149.220 359.000 C 151.220 362.290,159.812 369.901,162.680 370.924 C 163.796 371.322,165.310 372.091,166.044 372.633 C 168.173 374.203,177.620 376.000,183.747 376.000 C 187.798 376.000,191.178 379.187,192.657 384.400 C 193.000 385.610,193.644 387.230,194.087 388.000 C 194.861 389.344,196.100 392.601,198.959 400.810 C 199.689 402.906,200.554 405.156,200.881 405.810 C 201.207 406.465,201.795 408.169,202.186 409.598 C 202.577 411.027,203.223 412.612,203.623 413.120 C 204.022 413.628,204.741 415.249,205.220 416.722 C 205.699 418.195,206.421 420.120,206.825 421.000 C 207.777 423.071,210.177 429.721,211.446 433.800 C 211.993 435.560,212.860 437.810,213.373 438.800 C 213.885 439.790,214.527 441.320,214.800 442.200 C 215.074 443.080,215.621 444.340,216.017 445.000 C 216.413 445.660,217.282 448.037,217.948 450.283 C 218.614 452.528,219.436 454.788,219.774 455.304 C 220.112 455.820,220.751 457.294,221.193 458.580 C 221.635 459.865,222.425 461.835,222.947 462.958 C 223.470 464.081,224.218 465.990,224.610 467.200 C 225.002 468.410,225.547 469.760,225.820 470.200 C 226.094 470.640,226.620 472.080,226.990 473.400 C 227.359 474.720,228.262 477.060,228.996 478.600 C 229.729 480.140,230.626 482.548,230.989 483.951 C 231.352 485.354,231.907 486.897,232.224 487.381 C 232.541 487.864,233.224 489.506,233.742 491.030 C 234.261 492.553,235.162 494.742,235.746 495.893 C 236.329 497.045,237.071 499.001,237.394 500.241 C 237.717 501.481,238.141 502.699,238.337 502.948 C 238.533 503.196,239.102 504.660,239.602 506.200 C 240.101 507.740,240.925 509.720,241.432 510.600 C 241.940 511.480,242.550 513.074,242.789 514.142 C 243.027 515.211,243.869 517.461,244.658 519.142 C 245.448 520.824,246.360 523.100,246.685 524.200 C 247.010 525.300,247.600 526.740,247.996 527.400 C 248.392 528.060,249.026 529.680,249.404 531.000 C 249.782 532.320,250.361 533.912,250.690 534.537 C 251.020 535.163,251.883 537.323,252.608 539.337 C 255.243 546.662,256.382 549.592,257.326 551.477 C 257.856 552.535,258.604 554.390,258.988 555.600 C 259.373 556.810,260.121 558.444,260.651 559.232 C 261.181 560.020,261.888 561.973,262.221 563.573 C 262.555 565.172,263.274 567.362,263.820 568.440 C 264.939 570.648,266.366 574.254,268.024 579.061 C 268.643 580.854,269.682 583.284,270.334 584.461 C 270.986 585.637,271.645 587.050,271.798 587.600 C 271.951 588.150,272.585 589.680,273.207 591.000 C 273.828 592.320,274.622 594.030,274.971 594.800 C 275.321 595.570,276.048 596.830,276.588 597.600 C 277.129 598.370,277.843 599.388,278.176 599.863 C 278.541 600.383,279.419 600.834,280.381 600.997 C 281.260 601.145,282.749 601.788,283.690 602.426 C 285.960 603.965,287.625 603.935,290.849 602.300 C 292.258 601.585,293.994 600.760,294.706 600.466 C 295.418 600.173,296.000 599.772,296.000 599.574 C 296.000 599.377,296.864 597.907,297.921 596.308 C 303.935 587.204,303.709 569.604,297.424 557.600 C 296.905 556.610,296.085 554.462,295.602 552.827 C 295.118 551.192,294.479 549.482,294.181 549.027 C 293.883 548.572,293.197 547.030,292.657 545.600 C 292.117 544.170,291.228 542.100,290.682 541.000 C 290.136 539.900,289.382 537.920,289.007 536.600 C 288.631 535.280,288.179 534.020,288.002 533.800 C 287.825 533.580,287.191 531.780,286.593 529.800 C 285.996 527.820,284.912 525.120,284.184 523.800 C 283.456 522.480,282.731 520.695,282.573 519.834 C 282.415 518.973,281.880 517.670,281.384 516.938 C 280.888 516.207,280.263 514.662,279.996 513.505 C 279.729 512.347,279.046 510.590,278.479 509.600 C 277.912 508.610,277.046 506.450,276.554 504.800 C 275.333 500.699,273.001 494.587,271.804 492.354 C 271.260 491.339,270.614 489.539,270.368 488.354 C 270.122 487.169,269.564 485.580,269.128 484.821 C 268.691 484.063,267.814 482.018,267.179 480.276 C 266.543 478.534,265.862 476.905,265.665 476.655 C 265.468 476.405,264.809 474.670,264.200 472.800 C 263.591 470.930,262.955 469.220,262.787 469.000 C 262.618 468.780,261.985 466.980,261.381 465.000 C 260.776 463.020,260.059 461.130,259.789 460.800 C 258.899 459.716,258.029 457.714,257.589 455.741 C 257.350 454.673,256.555 452.540,255.822 451.000 C 255.089 449.460,254.361 447.570,254.205 446.800 C 254.049 446.030,253.693 445.038,253.413 444.595 C 253.134 444.152,252.425 442.442,251.837 440.795 C 251.249 439.148,250.416 437.037,249.984 436.104 C 249.553 435.172,248.825 433.043,248.367 431.374 C 247.910 429.705,247.124 427.735,246.622 426.995 C 246.121 426.255,245.415 424.477,245.055 423.043 C 244.695 421.609,243.968 419.800,243.441 419.022 C 242.914 418.245,242.259 416.662,241.987 415.505 C 241.714 414.347,241.149 412.719,240.731 411.886 C 239.995 410.422,239.006 407.864,236.179 400.112 C 235.440 398.084,234.569 396.014,234.243 395.512 C 233.664 394.618,233.074 392.459,232.609 389.530 C 232.479 388.715,231.933 387.646,231.382 387.130 C 230.789 386.574,230.057 385.073,229.564 383.400 C 229.110 381.860,228.032 379.039,227.169 377.131 C 224.474 371.174,225.116 367.449,229.200 365.351 C 230.190 364.843,232.710 363.589,234.800 362.564 C 236.890 361.540,238.870 360.471,239.200 360.189 C 239.530 359.907,240.880 359.239,242.200 358.706 C 243.520 358.173,245.230 357.151,246.000 356.437 C 246.770 355.722,249.716 353.307,252.546 351.069 C 259.692 345.419,259.857 345.279,262.365 342.721 C 263.594 341.468,264.841 340.208,265.135 339.921 C 265.429 339.635,266.059 338.979,266.535 338.465 C 267.011 337.951,268.600 336.295,270.067 334.785 C 271.534 333.275,272.858 331.648,273.010 331.169 C 273.162 330.691,274.211 329.262,275.343 327.994 C 277.566 325.502,278.099 324.762,281.384 319.600 C 282.574 317.730,283.980 315.660,284.507 315.000 C 285.035 314.340,286.577 311.505,287.933 308.700 C 289.289 305.896,290.750 303.250,291.179 302.821 C 291.607 302.393,292.160 301.291,292.407 300.374 C 292.654 299.456,294.006 296.315,295.410 293.394 C 296.815 290.472,298.078 287.568,298.216 286.941 C 298.674 284.873,302.473 271.060,303.427 268.000 C 304.257 265.336,304.726 262.870,306.043 254.256 C 306.240 252.967,306.660 250.897,306.976 249.656 C 309.761 238.738,309.549 193.665,306.660 182.158 C 306.334 180.861,305.952 178.990,305.810 178.000 C 304.996 172.321,303.371 164.542,302.361 161.494 C 301.723 159.566,301.200 157.445,301.200 156.781 C 301.200 156.117,300.374 152.925,299.364 149.687 C 298.355 146.449,296.895 141.730,296.121 139.200 C 295.347 136.670,294.552 134.400,294.354 134.155 C 294.156 133.911,293.471 132.201,292.831 130.355 C 292.191 128.510,291.225 126.100,290.682 125.000 C 290.140 123.900,289.381 122.010,288.995 120.800 C 288.610 119.590,288.151 118.418,287.977 118.195 C 287.803 117.972,287.290 116.802,286.839 115.595 C 286.387 114.388,285.387 112.421,284.616 111.224 C 283.845 110.028,282.931 108.197,282.585 107.155 C 282.239 106.114,281.668 105.023,281.315 104.731 C 280.962 104.439,280.173 103.144,279.563 101.853 C 278.952 100.563,278.113 99.123,277.699 98.653 C 276.799 97.634,272.800 90.661,272.800 90.113 C 272.800 89.901,272.393 89.543,271.895 89.316 C 271.398 89.090,270.727 88.386,270.404 87.752 C 270.081 87.118,269.183 85.952,268.408 85.161 C 265.907 82.606,264.555 81.038,263.266 79.200 C 262.006 77.403,254.371 69.975,252.590 68.814 C 252.073 68.476,249.611 66.650,247.120 64.757 C 244.628 62.863,241.860 60.941,240.968 60.486 C 240.076 60.031,239.113 59.377,238.827 59.032 C 238.541 58.688,237.113 58.047,235.654 57.608 C 233.182 56.865,232.438 56.489,229.950 54.727 C 229.428 54.357,227.512 53.853,225.694 53.607 C 223.875 53.361,221.630 52.893,220.704 52.566 C 212.643 49.722,199.680 48.195,192.600 49.256 " stroke="none" fill="#0d0d0d" fill-rule="evenodd"></path><path id="path1" d="M0.000 376.200 L 0.000 752.400 200.000 752.400 L 400.000 752.400 400.000 376.200 L 400.000 0.000 200.000 0.000 L 0.000 0.000 0.000 376.200 M215.640 47.143 C 218.412 47.595,221.590 48.323,222.702 48.762 C 223.814 49.200,225.866 49.851,227.262 50.209 C 228.658 50.566,230.188 51.109,230.663 51.414 C 231.137 51.720,232.342 52.175,233.339 52.426 C 234.337 52.678,235.839 53.459,236.677 54.163 C 237.514 54.867,238.968 55.667,239.907 55.940 C 240.845 56.213,242.195 56.937,242.907 57.549 C 243.618 58.162,245.010 59.049,246.000 59.521 C 248.801 60.856,255.309 65.983,258.223 69.151 C 259.165 70.175,260.109 71.131,261.714 72.686 C 262.272 73.228,262.880 73.823,263.065 74.008 C 266.883 77.851,268.737 79.971,268.998 80.794 C 269.139 81.237,269.393 81.600,269.562 81.600 C 269.928 81.600,274.438 87.361,275.198 88.800 C 275.489 89.350,276.031 90.016,276.403 90.280 C 276.774 90.544,277.466 91.822,277.939 93.120 C 278.412 94.419,279.340 96.046,280.000 96.737 C 280.660 97.428,281.200 98.258,281.200 98.583 C 281.200 98.907,281.723 99.707,282.362 100.361 C 283.001 101.015,283.914 102.596,284.391 103.875 C 284.868 105.154,285.568 106.560,285.947 107.000 C 286.772 107.957,287.452 109.404,287.772 110.883 C 287.901 111.479,288.418 112.410,288.921 112.952 C 289.423 113.494,290.162 114.976,290.561 116.244 C 290.961 117.513,291.706 119.192,292.216 119.975 C 292.726 120.759,293.448 122.480,293.822 123.800 C 294.195 125.120,294.912 126.920,295.414 127.800 C 295.916 128.680,296.620 130.562,296.977 131.983 C 297.334 133.403,297.878 134.844,298.185 135.184 C 299.046 136.135,299.505 137.626,299.972 140.981 C 300.231 142.843,300.780 144.717,301.363 145.729 C 301.893 146.648,302.632 148.840,303.006 150.600 C 303.379 152.360,304.283 155.600,305.014 157.800 C 305.746 160.000,306.527 163.353,306.752 165.252 C 306.976 167.151,307.512 169.761,307.944 171.052 C 308.375 172.343,309.115 176.370,309.589 180.000 C 310.063 183.630,310.818 188.940,311.267 191.800 C 312.895 202.159,312.719 238.335,311.010 244.898 C 310.691 246.123,310.059 250.067,309.605 253.663 C 309.152 257.258,308.495 261.190,308.146 262.400 C 307.797 263.610,307.026 266.850,306.433 269.600 C 305.841 272.350,304.983 275.410,304.528 276.400 C 304.072 277.390,303.397 279.589,303.026 281.286 C 302.655 282.983,301.926 285.172,301.406 286.151 C 300.885 287.130,300.334 288.801,300.180 289.865 C 299.847 292.177,299.113 294.075,298.012 295.476 C 297.567 296.041,297.009 297.246,296.772 298.152 C 296.534 299.058,295.890 300.493,295.339 301.339 C 294.788 302.186,294.074 303.626,293.753 304.539 C 293.432 305.453,292.754 306.830,292.246 307.600 C 291.739 308.370,290.964 309.810,290.524 310.800 C 290.084 311.790,289.246 313.300,288.662 314.156 C 288.078 315.012,287.600 316.033,287.600 316.425 C 287.600 316.817,287.026 317.713,286.324 318.414 C 285.622 319.116,284.656 320.525,284.176 321.545 C 283.696 322.565,282.830 323.940,282.252 324.600 C 281.674 325.260,281.201 325.948,281.200 326.129 C 281.200 326.311,280.582 327.121,279.826 327.929 C 275.928 332.102,275.200 332.970,275.200 333.450 C 275.200 335.378,255.652 354.298,251.377 356.509 C 250.728 356.844,249.843 357.510,249.409 357.990 C 248.975 358.469,247.705 359.295,246.587 359.824 C 245.468 360.353,244.141 361.225,243.637 361.761 C 243.133 362.297,242.154 362.966,241.460 363.248 C 240.767 363.530,238.490 364.780,236.400 366.026 C 234.310 367.272,232.219 368.410,231.753 368.556 C 229.636 369.217,228.508 372.254,229.655 374.202 C 230.045 374.864,230.620 376.505,230.934 377.849 C 231.248 379.194,231.961 381.083,232.518 382.047 C 233.076 383.011,233.813 384.763,234.156 385.941 C 234.500 387.118,235.233 389.008,235.786 390.141 C 236.339 391.273,237.004 393.280,237.265 394.600 C 237.525 395.920,238.141 397.630,238.634 398.400 C 239.127 399.170,239.858 400.880,240.259 402.200 C 240.661 403.520,241.295 404.937,241.670 405.349 C 242.044 405.761,242.749 407.606,243.236 409.449 C 243.723 411.292,244.252 412.800,244.412 412.800 C 244.800 412.800,245.378 414.345,246.415 418.156 C 246.887 419.892,247.608 421.672,248.018 422.111 C 248.840 422.994,250.000 426.074,250.000 427.374 C 250.000 427.832,250.425 429.015,250.945 430.003 C 251.464 430.991,252.210 432.790,252.601 434.000 C 252.992 435.210,253.639 436.666,254.038 437.236 C 254.437 437.805,255.207 439.935,255.749 441.969 C 256.292 444.002,257.002 445.966,257.328 446.333 C 258.060 447.157,259.200 449.861,259.200 450.773 C 259.200 451.144,259.822 452.711,260.583 454.255 C 261.343 455.799,262.153 457.898,262.382 458.920 C 262.611 459.942,263.161 461.368,263.605 462.089 C 264.048 462.810,264.777 464.660,265.223 466.200 C 265.670 467.740,266.373 469.630,266.785 470.400 C 267.198 471.170,267.935 472.970,268.424 474.400 C 268.913 475.830,269.641 477.468,270.041 478.041 C 270.442 478.613,271.146 480.452,271.605 482.127 C 272.065 483.802,272.883 485.964,273.424 486.931 C 273.964 487.898,274.600 489.733,274.835 491.007 C 275.071 492.282,275.778 494.242,276.407 495.362 C 277.035 496.483,277.768 498.300,278.035 499.400 C 278.470 501.194,281.017 507.078,282.702 510.183 C 283.055 510.834,283.593 512.364,283.898 513.583 C 284.203 514.803,284.604 516.398,284.790 517.129 C 284.977 517.860,285.400 518.760,285.731 519.129 C 286.490 519.975,287.456 522.520,287.803 524.586 C 287.949 525.459,288.395 526.631,288.794 527.192 C 289.193 527.752,289.927 529.553,290.426 531.194 C 290.924 532.835,291.662 534.737,292.065 535.421 C 292.469 536.104,293.176 537.819,293.636 539.232 C 294.097 540.644,294.730 542.087,295.043 542.438 C 295.355 542.788,296.081 544.678,296.655 546.638 C 297.229 548.597,297.934 550.470,298.222 550.801 C 298.952 551.640,299.592 553.432,300.058 555.942 C 300.281 557.139,300.955 558.773,301.587 559.646 C 302.413 560.785,302.901 562.206,303.396 564.904 C 303.769 566.937,304.211 568.780,304.379 569.000 C 306.510 571.794,306.786 584.778,304.803 589.000 C 304.390 589.880,303.754 591.768,303.390 593.195 C 303.027 594.622,302.153 596.602,301.448 597.595 C 300.744 598.588,299.921 599.892,299.620 600.493 C 299.318 601.095,298.766 601.684,298.393 601.802 C 298.019 601.921,296.962 602.712,296.043 603.560 C 289.811 609.314,278.341 606.801,273.533 598.628 C 272.876 597.513,271.912 596.002,271.390 595.271 C 270.867 594.540,270.321 593.143,270.174 592.168 C 270.018 591.123,269.431 589.794,268.747 588.933 C 268.108 588.129,267.297 586.465,266.946 585.235 C 266.594 584.006,266.081 582.730,265.805 582.400 C 264.833 581.238,264.350 579.940,263.777 576.946 C 263.459 575.282,262.868 573.444,262.464 572.861 C 261.589 571.597,261.308 570.888,260.555 568.051 C 260.241 566.869,259.649 565.429,259.238 564.851 C 258.827 564.273,258.117 562.586,257.659 561.102 C 257.202 559.619,256.469 557.909,256.030 557.302 C 255.592 556.696,254.875 554.886,254.436 553.279 C 253.998 551.673,253.284 549.782,252.849 549.079 C 252.414 548.375,251.704 546.540,251.270 545.000 C 250.837 543.460,250.017 541.210,249.449 540.000 C 248.880 538.790,248.203 536.855,247.944 535.700 C 247.685 534.545,247.342 533.600,247.182 533.600 C 246.723 533.600,245.666 531.121,244.974 528.422 C 244.626 527.061,243.917 525.324,243.399 524.561 C 242.882 523.798,242.166 521.890,241.809 520.321 C 241.452 518.752,240.824 516.995,240.413 516.418 C 240.001 515.840,239.285 514.205,238.820 512.784 C 238.355 511.363,237.592 509.495,237.124 508.633 C 236.656 507.771,235.942 505.806,235.538 504.266 C 235.134 502.726,234.562 501.182,234.268 500.833 C 233.633 500.083,233.091 498.663,232.192 495.400 C 231.829 494.080,231.175 492.616,230.741 492.148 C 230.246 491.615,229.749 490.140,229.415 488.216 C 229.054 486.137,228.596 484.835,228.005 484.206 C 227.094 483.236,225.008 478.049,223.364 472.667 C 222.838 470.943,222.041 469.019,221.593 468.390 C 221.146 467.762,220.428 465.872,219.998 464.191 C 219.560 462.482,218.792 460.630,218.253 459.990 C 217.659 459.284,217.027 457.659,216.601 455.747 C 216.222 454.043,215.552 452.162,215.113 451.568 C 214.367 450.559,213.820 449.159,210.746 440.400 C 210.089 438.530,209.295 436.604,208.981 436.121 C 208.666 435.638,208.024 433.840,207.554 432.126 C 207.084 430.412,206.193 428.107,205.575 427.005 C 204.956 425.902,204.230 424.100,203.960 423.000 C 203.690 421.900,202.951 419.974,202.319 418.719 C 201.686 417.465,200.886 415.485,200.540 414.319 C 200.195 413.154,199.603 411.570,199.226 410.800 C 198.849 410.030,198.202 408.230,197.790 406.800 C 197.377 405.370,196.723 403.750,196.336 403.200 C 195.949 402.650,195.257 400.775,194.797 399.034 C 194.337 397.293,193.584 395.340,193.124 394.693 C 192.664 394.047,191.959 392.268,191.558 390.740 C 191.157 389.212,190.485 387.526,190.065 386.992 C 189.645 386.458,188.902 385.036,188.413 383.831 C 187.213 380.876,185.607 379.995,181.956 380.288 C 179.036 380.523,171.037 378.729,167.400 377.024 C 166.300 376.509,164.745 375.973,163.945 375.834 C 163.144 375.694,161.884 375.142,161.145 374.606 C 160.405 374.071,159.168 373.283,158.397 372.857 C 155.167 371.074,148.700 364.637,147.502 362.012 C 147.052 361.029,146.264 359.894,145.750 359.490 C 145.236 359.085,144.503 358.090,144.121 357.277 C 143.739 356.465,143.127 355.474,142.761 355.076 C 142.396 354.678,141.705 353.058,141.226 351.476 C 140.748 349.894,140.009 347.867,139.586 346.971 C 139.162 346.075,138.528 343.375,138.177 340.971 C 137.826 338.567,137.192 334.755,136.769 332.501 C 135.674 326.667,135.690 315.893,136.800 311.400 C 137.235 309.640,137.593 307.358,137.595 306.329 C 137.604 302.884,138.431 298.219,139.392 296.200 C 139.915 295.100,140.547 293.058,140.796 291.661 C 141.343 288.597,141.824 287.260,142.760 286.200 C 143.149 285.760,143.765 284.589,144.129 283.598 C 144.493 282.607,145.468 280.945,146.296 279.905 C 147.123 278.865,148.340 277.274,149.000 276.370 C 150.196 274.732,151.123 273.725,153.400 271.595 C 156.786 268.425,165.590 265.977,170.600 266.810 C 172.863 267.187,179.738 270.494,180.499 271.572 C 180.775 271.962,181.540 272.566,182.200 272.914 C 184.511 274.134,189.727 279.935,192.300 284.147 C 192.685 284.777,193.675 286.307,194.499 287.547 C 195.324 288.786,195.999 289.986,195.999 290.213 C 196.000 290.441,196.627 291.600,197.393 292.789 C 198.159 293.978,199.084 295.850,199.449 296.948 C 199.814 298.046,200.445 299.509,200.853 300.199 C 201.260 300.889,201.942 302.468,202.368 303.708 C 202.795 304.947,203.592 306.735,204.140 307.681 C 204.689 308.626,205.445 310.480,205.821 311.800 C 206.530 314.292,208.953 318.400,209.713 318.400 C 211.131 318.400,215.749 316.913,217.800 315.796 C 219.120 315.077,220.845 314.285,221.634 314.035 C 222.423 313.786,223.577 313.050,224.200 312.400 C 224.823 311.750,225.977 311.009,226.766 310.752 C 227.555 310.495,228.791 309.771,229.514 309.143 C 230.237 308.514,230.968 308.000,231.138 308.000 C 231.309 308.000,231.798 307.678,232.225 307.283 C 232.651 306.889,233.900 305.959,235.000 305.215 C 237.624 303.442,240.345 301.193,242.200 299.263 C 242.640 298.805,243.782 297.659,244.738 296.715 C 245.694 295.772,246.954 294.363,247.538 293.583 C 248.122 292.804,249.680 291.193,251.000 290.004 C 252.747 288.429,253.604 287.290,254.149 285.820 C 254.561 284.709,255.316 283.350,255.827 282.800 C 256.339 282.250,257.233 280.900,257.813 279.800 C 258.394 278.700,259.191 277.440,259.584 277.000 C 259.977 276.560,260.796 275.075,261.404 273.700 C 262.012 272.325,262.636 271.200,262.791 271.200 C 262.945 271.200,263.302 270.435,263.583 269.500 C 264.875 265.201,265.233 264.224,265.731 263.633 C 266.391 262.850,267.369 260.108,268.025 257.200 C 268.298 255.990,268.744 254.640,269.017 254.200 C 269.290 253.760,269.819 251.600,270.193 249.400 C 270.567 247.200,271.230 244.320,271.666 243.000 C 274.033 235.839,274.306 197.724,272.028 192.600 C 271.637 191.720,270.923 188.336,270.442 185.080 C 269.922 181.567,269.254 178.559,268.797 177.680 C 268.374 176.866,267.759 174.920,267.431 173.356 C 267.103 171.791,266.536 169.721,266.171 168.756 C 265.806 167.790,265.009 165.104,264.400 162.786 C 263.791 160.468,262.850 157.919,262.309 157.122 C 261.768 156.325,261.117 154.637,260.863 153.372 C 260.609 152.107,259.882 150.246,259.247 149.236 C 258.612 148.226,257.792 146.469,257.425 145.331 C 257.057 144.193,256.477 143.030,256.136 142.747 C 255.795 142.464,255.096 141.282,254.582 140.121 C 254.069 138.960,253.188 137.406,252.624 136.667 C 252.061 135.929,251.600 135.135,251.600 134.904 C 251.600 134.540,250.332 132.591,245.806 126.000 C 244.472 124.057,242.273 121.555,239.100 118.370 C 237.615 116.880,236.400 115.487,236.400 115.274 C 236.400 115.062,235.619 114.521,234.665 114.072 C 233.710 113.624,232.626 112.794,232.255 112.228 C 231.885 111.663,231.340 111.200,231.045 111.200 C 230.749 111.200,230.079 110.870,229.554 110.467 C 226.827 108.373,214.637 103.622,209.352 102.593 C 201.687 101.102,186.837 101.557,183.208 103.395 C 182.214 103.899,179.917 104.591,178.103 104.933 C 176.290 105.275,173.230 106.215,171.303 107.022 C 167.104 108.781,164.610 109.682,161.400 110.598 C 160.080 110.975,158.217 111.796,157.260 112.423 C 156.303 113.050,154.596 113.869,153.468 114.244 C 152.340 114.619,151.105 115.322,150.723 115.807 C 150.342 116.292,149.151 117.067,148.077 117.529 C 147.002 117.991,145.906 118.631,145.640 118.952 C 144.902 119.841,140.022 122.690,138.044 123.386 C 137.078 123.726,135.728 124.340,135.044 124.751 C 129.153 128.289,118.290 123.154,115.409 115.470 C 115.147 114.771,114.434 113.152,113.824 111.872 C 112.054 108.153,111.481 99.343,112.398 89.917 C 112.783 85.965,115.342 79.869,117.653 77.400 C 118.065 76.960,119.158 75.730,120.083 74.666 C 121.008 73.603,122.492 72.362,123.382 71.909 C 124.272 71.456,125.237 70.748,125.526 70.337 C 125.816 69.926,126.806 69.209,127.726 68.744 C 128.647 68.280,130.234 67.292,131.254 66.550 C 132.273 65.807,133.280 65.200,133.492 65.200 C 133.703 65.200,134.183 64.860,134.559 64.445 C 134.935 64.030,136.333 63.201,137.666 62.602 C 138.999 62.004,140.698 61.102,141.441 60.598 C 142.183 60.094,143.738 59.466,144.895 59.202 C 146.053 58.938,147.720 58.225,148.600 57.618 C 149.480 57.012,151.190 56.199,152.400 55.812 C 153.610 55.426,155.341 54.687,156.247 54.169 C 158.453 52.909,165.445 50.574,169.400 49.776 C 171.160 49.421,174.040 48.701,175.800 48.176 C 183.218 45.962,204.941 45.399,215.640 47.143 " stroke="none" fill="#fbfbfb" fill-rule="evenodd"></path><path id="path2" d="M185.000 46.639 C 181.444 46.984,177.697 47.610,175.800 48.176 C 174.040 48.701,171.160 49.421,169.400 49.776 C 165.445 50.574,158.453 52.909,156.247 54.169 C 155.341 54.687,153.610 55.426,152.400 55.812 C 151.190 56.199,149.480 57.012,148.600 57.618 C 147.720 58.225,146.053 58.938,144.895 59.202 C 143.738 59.466,142.183 60.094,141.441 60.598 C 140.698 61.102,138.999 62.004,137.666 62.602 C 136.333 63.201,134.935 64.030,134.559 64.445 C 134.183 64.860,133.703 65.200,133.492 65.200 C 133.280 65.200,132.273 65.807,131.254 66.550 C 130.234 67.292,128.647 68.280,127.726 68.744 C 126.806 69.209,125.816 69.926,125.526 70.337 C 125.237 70.748,124.272 71.456,123.382 71.909 C 122.492 72.362,121.008 73.603,120.083 74.666 C 119.158 75.730,118.065 76.960,117.653 77.400 C 115.342 79.869,112.783 85.965,112.398 89.917 C 111.481 99.343,112.054 108.153,113.824 111.872 C 114.434 113.152,115.147 114.771,115.409 115.470 C 118.290 123.154,129.153 128.289,135.044 124.751 C 135.728 124.340,137.078 123.726,138.044 123.386 C 140.022 122.690,144.902 119.841,145.640 118.952 C 145.906 118.631,147.002 117.991,148.077 117.529 C 149.151 117.067,150.342 116.292,150.723 115.807 C 151.105 115.322,152.340 114.619,153.468 114.244 C 154.596 113.869,156.303 113.050,157.260 112.423 C 158.217 111.796,160.080 110.975,161.400 110.598 C 164.610 109.682,167.104 108.781,171.303 107.022 C 173.230 106.215,176.290 105.275,178.103 104.933 C 179.917 104.591,182.214 103.899,183.208 103.395 C 186.837 101.557,201.687 101.102,209.352 102.593 C 214.637 103.622,226.827 108.373,229.554 110.467 C 230.079 110.870,230.749 111.200,231.045 111.200 C 231.340 111.200,231.885 111.663,232.255 112.228 C 232.626 112.794,233.710 113.624,234.665 114.072 C 235.619 114.521,236.400 115.062,236.400 115.274 C 236.400 115.487,237.615 116.880,239.100 118.370 C 242.273 121.555,244.472 124.057,245.806 126.000 C 250.332 132.591,251.600 134.540,251.600 134.904 C 251.600 135.135,252.061 135.929,252.624 136.667 C 253.188 137.406,254.069 138.960,254.582 140.121 C 255.096 141.282,255.795 142.464,256.136 142.747 C 256.477 143.030,257.057 144.193,257.425 145.331 C 257.792 146.469,258.612 148.226,259.247 149.236 C 259.882 150.246,260.609 152.107,260.863 153.372 C 261.117 154.637,261.768 156.325,262.309 157.122 C 262.850 157.919,263.791 160.468,264.400 162.786 C 265.009 165.104,265.806 167.790,266.171 168.756 C 266.536 169.721,267.103 171.791,267.431 173.356 C 267.759 174.920,268.374 176.866,268.797 177.680 C 269.254 178.559,269.922 181.567,270.442 185.080 C 270.923 188.336,271.637 191.720,272.028 192.600 C 274.306 197.724,274.033 235.839,271.666 243.000 C 271.230 244.320,270.567 247.200,270.193 249.400 C 269.819 251.600,269.290 253.760,269.017 254.200 C 268.744 254.640,268.298 255.990,268.025 257.200 C 267.369 260.108,266.391 262.850,265.731 263.633 C 265.233 264.224,264.875 265.201,263.583 269.500 C 263.302 270.435,262.945 271.200,262.791 271.200 C 262.636 271.200,262.012 272.325,261.404 273.700 C 260.796 275.075,259.977 276.560,259.584 277.000 C 259.191 277.440,258.394 278.700,257.813 279.800 C 257.233 280.900,256.339 282.250,255.827 282.800 C 255.316 283.350,254.561 284.709,254.149 285.820 C 253.604 287.290,252.747 288.429,251.000 290.004 C 249.680 291.193,248.122 292.804,247.538 293.583 C 246.954 294.363,245.694 295.772,244.738 296.715 C 243.782 297.659,242.640 298.805,242.200 299.263 C 240.345 301.193,237.624 303.442,235.000 305.215 C 233.900 305.959,232.651 306.889,232.225 307.283 C 231.798 307.678,231.309 308.000,231.138 308.000 C 230.968 308.000,230.237 308.514,229.514 309.143 C 228.791 309.771,227.555 310.495,226.766 310.752 C 225.977 311.009,224.823 311.750,224.200 312.400 C 223.577 313.050,222.423 313.786,221.634 314.035 C 220.845 314.285,219.120 315.077,217.800 315.796 C 215.749 316.913,211.131 318.400,209.713 318.400 C 208.953 318.400,206.530 314.292,205.821 311.800 C 205.445 310.480,204.689 308.626,204.140 307.681 C 203.592 306.735,202.795 304.947,202.368 303.708 C 201.942 302.468,201.260 300.889,200.853 300.199 C 200.445 299.509,199.814 298.046,199.449 296.948 C 199.084 295.850,198.159 293.978,197.393 292.789 C 196.627 291.600,196.000 290.441,195.999 290.213 C 195.999 289.986,195.324 288.786,194.499 287.547 C 193.675 286.307,192.685 284.777,192.300 284.147 C 189.727 279.935,184.511 274.134,182.200 272.914 C 181.540 272.566,180.775 271.962,180.499 271.572 C 179.738 270.494,172.863 267.187,170.600 266.810 C 165.590 265.977,156.786 268.425,153.400 271.595 C 151.123 273.725,150.196 274.732,149.000 276.370 C 148.340 277.274,147.123 278.865,146.296 279.905 C 145.468 280.945,144.493 282.607,144.129 283.598 C 143.765 284.589,143.149 285.760,142.760 286.200 C 141.824 287.260,141.343 288.597,140.796 291.661 C 140.547 293.058,139.915 295.100,139.392 296.200 C 138.431 298.219,137.604 302.884,137.595 306.329 C 137.593 307.358,137.235 309.640,136.800 311.400 C 135.690 315.893,135.674 326.667,136.769 332.501 C 137.192 334.755,137.826 338.567,138.177 340.971 C 138.528 343.375,139.162 346.075,139.586 346.971 C 140.009 347.867,140.748 349.894,141.226 351.476 C 141.705 353.058,142.396 354.678,142.761 355.076 C 143.127 355.474,143.739 356.465,144.121 357.277 C 144.503 358.090,145.236 359.085,145.750 359.490 C 146.264 359.894,147.052 361.029,147.502 362.012 C 148.700 364.637,155.167 371.074,158.397 372.857 C 159.168 373.283,160.405 374.071,161.145 374.606 C 161.884 375.142,163.144 375.694,163.945 375.834 C 164.745 375.973,166.300 376.509,167.400 377.024 C 171.037 378.729,179.036 380.523,181.956 380.288 C 185.607 379.995,187.213 380.876,188.413 383.831 C 188.902 385.036,189.645 386.458,190.065 386.992 C 190.485 387.526,191.157 389.212,191.558 390.740 C 191.959 392.268,192.664 394.047,193.124 394.693 C 193.584 395.340,194.337 397.293,194.797 399.034 C 195.257 400.775,195.949 402.650,196.336 403.200 C 196.723 403.750,197.377 405.370,197.790 406.800 C 198.202 408.230,198.849 410.030,199.226 410.800 C 199.603 411.570,200.195 413.154,200.540 414.319 C 200.886 415.485,201.686 417.465,202.319 418.719 C 202.951 419.974,203.690 421.900,203.960 423.000 C 204.230 424.100,204.956 425.902,205.575 427.005 C 206.193 428.107,207.084 430.412,207.554 432.126 C 208.024 433.840,208.666 435.638,208.981 436.121 C 209.295 436.604,210.089 438.530,210.746 440.400 C 213.820 449.159,214.367 450.559,215.113 451.568 C 215.552 452.162,216.222 454.043,216.601 455.747 C 217.027 457.659,217.659 459.284,218.253 459.990 C 218.792 460.630,219.560 462.482,219.998 464.191 C 220.428 465.872,221.146 467.762,221.593 468.390 C 222.041 469.019,222.838 470.943,223.364 472.667 C 225.008 478.049,227.094 483.236,228.005 484.206 C 228.596 484.835,229.054 486.137,229.415 488.216 C 229.749 490.140,230.246 491.615,230.741 492.148 C 231.175 492.616,231.829 494.080,232.192 495.400 C 233.091 498.663,233.633 500.083,234.268 500.833 C 234.562 501.182,235.134 502.726,235.538 504.266 C 235.942 505.806,236.656 507.771,237.124 508.633 C 237.592 509.495,238.355 511.363,238.820 512.784 C 239.285 514.205,240.001 515.840,240.413 516.418 C 240.824 516.995,241.452 518.752,241.809 520.321 C 242.166 521.890,242.882 523.798,243.399 524.561 C 243.917 525.324,244.626 527.061,244.974 528.422 C 245.666 531.121,246.723 533.600,247.182 533.600 C 247.342 533.600,247.685 534.545,247.944 535.700 C 248.203 536.855,248.880 538.790,249.449 540.000 C 250.017 541.210,250.837 543.460,251.270 545.000 C 251.704 546.540,252.414 548.375,252.849 549.079 C 253.284 549.782,253.998 551.673,254.436 553.279 C 254.875 554.886,255.592 556.696,256.030 557.302 C 256.469 557.909,257.202 559.619,257.659 561.102 C 258.117 562.586,258.827 564.273,259.238 564.851 C 259.649 565.429,260.241 566.869,260.555 568.051 C 261.308 570.888,261.589 571.597,262.464 572.861 C 262.868 573.444,263.459 575.282,263.777 576.946 C 264.350 579.940,264.833 581.238,265.805 582.400 C 266.081 582.730,266.594 584.006,266.946 585.235 C 267.297 586.465,268.108 588.129,268.747 588.933 C 269.431 589.794,270.018 591.123,270.174 592.168 C 270.321 593.143,270.867 594.540,271.390 595.271 C 271.912 596.002,272.876 597.513,273.533 598.628 C 278.341 606.801,289.811 609.314,296.043 603.560 C 296.962 602.712,298.019 601.921,298.393 601.802 C 298.766 601.684,299.318 601.095,299.620 600.493 C 299.921 599.892,300.744 598.588,301.448 597.595 C 302.153 596.602,303.027 594.622,303.390 593.195 C 303.754 591.768,304.390 589.880,304.803 589.000 C 306.786 584.778,306.510 571.794,304.379 569.000 C 304.211 568.780,303.769 566.937,303.396 564.904 C 302.901 562.206,302.413 560.785,301.587 559.646 C 300.955 558.773,300.281 557.139,300.058 555.942 C 299.592 553.432,298.952 551.640,298.222 550.801 C 297.934 550.470,297.229 548.597,296.655 546.638 C 296.081 544.678,295.355 542.788,295.043 542.438 C 294.730 542.087,294.097 540.644,293.636 539.232 C 293.176 537.819,292.469 536.104,292.065 535.421 C 291.662 534.737,290.924 532.835,290.426 531.194 C 289.927 529.553,289.193 527.752,288.794 527.192 C 288.395 526.631,287.949 525.459,287.803 524.586 C 287.456 522.520,286.490 519.975,285.731 519.129 C 285.400 518.760,284.977 517.860,284.790 517.129 C 284.604 516.398,284.203 514.803,283.898 513.583 C 283.593 512.364,283.055 510.834,282.702 510.183 C 281.017 507.078,278.470 501.194,278.035 499.400 C 277.768 498.300,277.035 496.483,276.407 495.362 C 275.778 494.242,275.071 492.282,274.835 491.007 C 274.600 489.733,273.964 487.898,273.424 486.931 C 272.883 485.964,272.065 483.802,271.605 482.127 C 271.146 480.452,270.442 478.613,270.041 478.041 C 269.641 477.468,268.913 475.830,268.424 474.400 C 267.935 472.970,267.198 471.170,266.785 470.400 C 266.373 469.630,265.670 467.740,265.223 466.200 C 264.777 464.660,264.048 462.810,263.605 462.089 C 263.161 461.368,262.611 459.942,262.382 458.920 C 262.153 457.898,261.343 455.799,260.583 454.255 C 259.822 452.711,259.200 451.144,259.200 450.773 C 259.200 449.861,258.060 447.157,257.328 446.333 C 257.002 445.966,256.292 444.002,255.749 441.969 C 255.207 439.935,254.437 437.805,254.038 437.236 C 253.639 436.666,252.992 435.210,252.601 434.000 C 252.210 432.790,251.464 430.991,250.945 430.003 C 250.425 429.015,250.000 427.832,250.000 427.374 C 250.000 426.074,248.840 422.994,248.018 422.111 C 247.608 421.672,246.887 419.892,246.415 418.156 C 245.378 414.345,244.800 412.800,244.412 412.800 C 244.252 412.800,243.723 411.292,243.236 409.449 C 242.749 407.606,242.044 405.761,241.670 405.349 C 241.295 404.937,240.661 403.520,240.259 402.200 C 239.858 400.880,239.127 399.170,238.634 398.400 C 238.141 397.630,237.525 395.920,237.265 394.600 C 237.004 393.280,236.339 391.273,235.786 390.141 C 235.233 389.008,234.500 387.118,234.156 385.941 C 233.813 384.763,233.076 383.011,232.518 382.047 C 231.961 381.083,231.248 379.194,230.934 377.849 C 230.620 376.505,230.045 374.864,229.655 374.202 C 228.508 372.254,229.636 369.217,231.753 368.556 C 232.219 368.410,234.310 367.272,236.400 366.026 C 238.490 364.780,240.767 363.530,241.460 363.248 C 242.154 362.966,243.133 362.297,243.637 361.761 C 244.141 361.225,245.468 360.353,246.587 359.824 C 247.705 359.295,248.975 358.469,249.409 357.990 C 249.843 357.510,250.728 356.844,251.377 356.509 C 254.054 355.124,264.884 345.311,271.000 338.728 C 273.544 335.990,275.200 333.909,275.200 333.450 C 275.200 332.970,275.928 332.102,279.826 327.929 C 280.582 327.121,281.200 326.311,281.200 326.129 C 281.201 325.948,281.674 325.260,282.252 324.600 C 282.830 323.940,283.696 322.565,284.176 321.545 C 284.656 320.525,285.622 319.116,286.324 318.414 C 287.026 317.713,287.600 316.817,287.600 316.425 C 287.600 316.033,288.078 315.012,288.662 314.156 C 289.246 313.300,290.084 311.790,290.524 310.800 C 290.964 309.810,291.739 308.370,292.246 307.600 C 292.754 306.830,293.432 305.453,293.753 304.539 C 294.074 303.626,294.788 302.186,295.339 301.339 C 295.890 300.493,296.534 299.058,296.772 298.152 C 297.009 297.246,297.567 296.041,298.012 295.476 C 299.113 294.075,299.847 292.177,300.180 289.865 C 300.334 288.801,300.885 287.130,301.406 286.151 C 301.926 285.172,302.655 282.983,303.026 281.286 C 303.397 279.589,304.072 277.390,304.528 276.400 C 304.983 275.410,305.841 272.350,306.433 269.600 C 307.026 266.850,307.797 263.610,308.146 262.400 C 308.495 261.190,309.152 257.258,309.605 253.663 C 310.059 250.067,310.691 246.123,311.010 244.898 C 312.719 238.335,312.895 202.159,311.267 191.800 C 310.818 188.940,310.063 183.630,309.589 180.000 C 309.115 176.370,308.375 172.343,307.944 171.052 C 307.512 169.761,306.976 167.151,306.752 165.252 C 306.527 163.353,305.746 160.000,305.014 157.800 C 304.283 155.600,303.379 152.360,303.006 150.600 C 302.632 148.840,301.893 146.648,301.363 145.729 C 300.780 144.717,300.231 142.843,299.972 140.981 C 299.505 137.626,299.046 136.135,298.185 135.184 C 297.878 134.844,297.334 133.403,296.977 131.983 C 296.620 130.562,295.916 128.680,295.414 127.800 C 294.912 126.920,294.195 125.120,293.822 123.800 C 293.448 122.480,292.726 120.759,292.216 119.975 C 291.706 119.192,290.961 117.513,290.561 116.244 C 290.162 114.976,289.423 113.494,288.921 112.952 C 288.418 112.410,287.901 111.479,287.772 110.883 C 287.452 109.404,286.772 107.957,285.947 107.000 C 285.568 106.560,284.868 105.154,284.391 103.875 C 283.914 102.596,283.001 101.015,282.362 100.361 C 281.723 99.707,281.200 98.907,281.200 98.583 C 281.200 98.258,280.660 97.428,280.000 96.737 C 279.340 96.046,278.412 94.419,277.939 93.120 C 277.466 91.822,276.774 90.544,276.403 90.280 C 276.031 90.016,275.489 89.350,275.198 88.800 C 274.438 87.361,269.928 81.600,269.562 81.600 C 269.393 81.600,269.139 81.237,268.998 80.794 C 268.737 79.971,266.883 77.851,263.065 74.008 C 262.880 73.823,262.272 73.228,261.714 72.686 C 260.109 71.131,259.165 70.175,258.223 69.151 C 255.309 65.983,248.801 60.856,246.000 59.521 C 245.010 59.049,243.618 58.162,242.907 57.549 C 242.195 56.937,240.845 56.213,239.907 55.940 C 238.968 55.667,237.514 54.867,236.677 54.163 C 235.839 53.459,234.337 52.678,233.339 52.426 C 232.342 52.175,231.137 51.720,230.663 51.414 C 230.188 51.109,228.658 50.566,227.262 50.209 C 225.866 49.851,223.814 49.200,222.702 48.762 C 216.799 46.434,198.004 45.376,185.000 46.639 M212.668 48.223 C 214.685 48.547,218.105 49.364,220.268 50.039 C 222.431 50.715,225.661 51.671,227.447 52.165 C 229.233 52.659,231.689 53.625,232.905 54.311 C 234.121 54.998,236.170 55.990,237.458 56.517 C 238.746 57.043,240.970 58.211,242.400 59.111 C 243.830 60.012,245.720 61.196,246.600 61.742 C 249.023 63.247,254.704 67.909,257.189 70.432 C 258.405 71.666,259.684 72.839,260.031 73.038 C 260.775 73.465,263.789 76.836,266.600 80.385 C 268.560 82.859,269.499 83.972,272.689 87.600 C 273.560 88.590,274.555 89.940,274.901 90.600 C 275.248 91.260,276.095 92.878,276.785 94.195 C 277.475 95.512,278.428 97.004,278.903 97.509 C 280.359 99.059,288.192 114.065,290.329 119.400 C 290.770 120.500,291.966 123.380,292.988 125.800 C 295.717 132.267,297.917 138.448,299.180 143.200 C 299.794 145.510,300.659 148.300,301.102 149.400 C 301.545 150.500,302.276 153.200,302.727 155.400 C 303.179 157.600,303.851 160.002,304.222 160.737 C 304.592 161.472,305.152 163.812,305.466 165.937 C 305.780 168.062,306.399 171.510,306.841 173.600 C 308.790 182.802,308.821 183.038,310.024 198.000 C 310.245 200.750,310.599 204.530,310.810 206.400 C 312.065 217.522,309.875 248.486,307.046 259.600 C 306.739 260.810,306.188 263.420,305.822 265.400 C 305.177 268.895,304.239 272.269,301.374 281.400 C 300.615 283.820,299.809 286.700,299.584 287.800 C 299.358 288.900,298.476 291.240,297.623 293.000 C 296.769 294.760,295.068 298.270,293.842 300.800 C 291.195 306.262,286.682 314.722,285.000 317.377 C 280.949 323.769,279.438 325.939,277.533 328.096 C 276.360 329.425,275.146 330.981,274.836 331.554 C 271.736 337.279,251.336 355.913,244.316 359.431 C 243.152 360.014,241.930 360.718,241.600 360.994 C 241.270 361.271,240.010 362.039,238.800 362.701 C 228.143 368.530,227.766 368.818,227.373 371.438 C 227.155 372.892,227.302 373.482,228.325 375.278 C 228.990 376.445,229.832 378.556,230.196 379.968 C 230.560 381.380,231.411 383.630,232.088 384.968 C 232.765 386.306,233.729 388.660,234.231 390.200 C 235.548 394.241,237.937 400.524,240.761 407.371 C 242.116 410.655,243.429 414.154,243.679 415.148 C 243.929 416.141,244.551 417.684,245.062 418.577 C 245.573 419.470,245.993 420.497,245.995 420.859 C 245.998 421.222,246.554 422.571,247.230 423.857 C 247.907 425.143,248.891 427.684,249.418 429.502 C 249.945 431.321,250.551 433.134,250.763 433.531 C 251.438 434.793,254.661 442.914,255.394 445.200 C 255.782 446.410,256.438 448.030,256.853 448.800 C 257.268 449.570,258.129 451.730,258.767 453.600 C 259.405 455.470,260.462 458.260,261.116 459.800 C 261.769 461.340,262.526 463.230,262.798 464.000 C 264.779 469.603,268.655 479.391,269.689 481.400 C 270.028 482.060,270.808 484.130,271.420 486.000 C 272.033 487.870,272.759 489.760,273.032 490.200 C 273.306 490.640,273.913 492.259,274.382 493.798 C 274.851 495.336,275.650 497.496,276.158 498.598 C 276.666 499.699,277.311 501.500,277.591 502.600 C 277.871 503.700,278.772 505.950,279.593 507.600 C 280.413 509.250,281.304 511.500,281.573 512.600 C 281.841 513.700,282.385 515.140,282.782 515.800 C 283.178 516.460,283.725 517.720,283.996 518.600 C 284.267 519.480,284.906 520.930,285.416 521.823 C 285.926 522.715,286.786 524.965,287.328 526.823 C 287.869 528.680,288.688 531.100,289.147 532.200 C 289.607 533.300,290.516 535.550,291.168 537.200 C 293.747 543.726,294.447 545.429,294.834 546.125 C 295.268 546.904,297.743 553.388,299.596 558.600 C 300.221 560.360,301.019 562.471,301.369 563.292 C 304.295 570.164,305.129 581.221,303.269 588.488 C 297.758 610.012,278.011 610.759,270.772 589.718 C 270.341 588.467,269.695 586.994,269.336 586.446 C 268.482 585.143,265.695 578.341,264.995 575.852 C 264.694 574.781,264.001 572.981,263.455 571.852 C 262.909 570.724,262.063 568.450,261.574 566.800 C 261.086 565.150,260.323 563.080,259.879 562.200 C 259.435 561.320,257.729 557.270,256.087 553.200 C 253.234 546.127,252.234 543.506,249.021 534.672 C 248.235 532.512,247.301 530.182,246.946 529.496 C 246.591 528.809,245.876 526.998,245.356 525.472 C 244.837 523.946,244.225 522.471,243.996 522.195 C 243.766 521.918,243.060 520.096,242.427 518.146 C 241.794 516.196,240.478 512.710,239.502 510.400 C 238.527 508.090,237.144 504.490,236.429 502.400 C 235.715 500.310,234.903 498.240,234.626 497.800 C 234.349 497.360,233.800 496.010,233.406 494.800 C 233.012 493.590,232.290 491.790,231.802 490.800 C 231.314 489.810,230.513 487.650,230.021 486.000 C 229.530 484.350,228.792 482.452,228.382 481.782 C 227.972 481.112,226.795 478.142,225.766 475.182 C 224.738 472.222,223.454 468.810,222.913 467.600 C 222.373 466.390,221.391 463.870,220.731 462.000 C 220.071 460.130,219.258 458.174,218.925 457.653 C 218.592 457.132,217.731 454.972,217.011 452.853 C 216.292 450.734,214.944 447.110,214.016 444.800 C 212.161 440.182,209.831 434.049,207.937 428.800 C 207.262 426.930,206.395 424.770,206.010 424.000 C 205.625 423.230,204.903 421.340,204.406 419.800 C 203.908 418.260,203.174 416.456,202.774 415.791 C 202.374 415.126,201.514 412.966,200.862 410.991 C 200.210 409.016,199.009 405.690,198.191 403.600 C 197.374 401.510,196.108 398.180,195.378 396.200 C 189.737 380.898,187.311 377.432,182.750 378.162 C 180.894 378.458,176.752 377.869,173.400 376.832 C 172.080 376.423,169.938 375.870,168.639 375.602 C 166.001 375.058,159.349 371.733,157.200 369.884 C 146.361 360.558,141.498 351.781,138.536 336.200 C 137.050 328.377,137.585 308.464,139.460 301.800 C 139.770 300.700,140.543 297.778,141.179 295.307 C 141.814 292.836,142.787 289.866,143.342 288.707 C 143.896 287.548,144.611 285.970,144.931 285.200 C 147.513 278.978,154.886 271.795,160.370 270.159 C 162.256 269.596,164.213 268.970,164.719 268.768 C 166.925 267.885,174.727 269.528,177.654 271.493 C 187.481 278.088,195.484 289.607,201.836 306.301 C 202.359 307.676,203.215 309.656,203.738 310.701 C 204.261 311.745,205.010 313.590,205.402 314.800 C 206.131 317.051,207.934 319.722,209.170 320.384 C 209.854 320.750,218.553 317.574,220.686 316.180 C 221.173 315.861,221.750 315.600,221.968 315.600 C 222.186 315.600,224.487 314.302,227.082 312.717 C 231.187 310.208,233.526 308.478,240.757 302.600 C 242.114 301.497,245.298 298.323,251.793 291.600 C 253.174 290.170,254.658 288.280,255.090 287.400 C 255.919 285.714,258.382 281.640,260.121 279.077 C 261.221 277.457,264.559 270.734,265.422 268.400 C 265.707 267.630,266.603 265.470,267.413 263.600 C 272.078 252.834,274.342 240.079,274.691 222.600 C 275.106 201.881,273.936 190.878,269.716 175.800 C 269.162 173.820,268.111 170.040,267.381 167.400 C 266.651 164.760,265.482 161.250,264.783 159.600 C 264.084 157.950,262.918 154.870,262.192 152.756 C 260.996 149.270,254.225 135.453,253.002 134.000 C 252.724 133.670,252.204 132.823,251.847 132.117 C 250.121 128.708,243.787 120.440,241.048 118.018 C 240.414 117.458,239.244 116.350,238.448 115.557 C 237.651 114.763,236.145 113.539,235.100 112.837 C 234.055 112.136,233.200 111.406,233.200 111.215 C 233.200 110.407,226.104 106.379,220.069 103.762 C 207.562 98.338,179.618 99.727,167.592 106.370 C 166.818 106.798,164.478 107.769,162.392 108.528 C 158.723 109.864,149.623 114.326,148.400 115.388 C 148.070 115.674,146.810 116.405,145.600 117.011 C 144.390 117.617,142.693 118.717,141.828 119.456 C 140.963 120.195,140.093 120.800,139.893 120.800 C 139.693 120.800,138.384 121.330,136.985 121.978 C 128.647 125.837,118.865 121.819,116.163 113.425 C 115.804 112.311,115.197 110.849,114.813 110.175 C 113.131 107.221,112.455 96.581,113.558 90.400 C 114.772 83.590,120.592 74.857,125.695 72.188 C 126.748 71.638,128.400 70.605,129.366 69.894 C 130.940 68.734,134.016 66.851,141.400 62.524 C 142.720 61.750,145.135 60.690,146.767 60.168 C 148.398 59.645,150.378 58.793,151.167 58.273 C 151.955 57.753,154.119 56.823,155.975 56.206 C 157.832 55.589,159.973 54.717,160.734 54.268 C 161.496 53.819,164.837 52.783,168.159 51.967 C 171.482 51.151,175.820 50.021,177.800 49.455 C 185.254 47.327,203.137 46.695,212.668 48.223 " stroke="none" fill="#a2a2a2" fill-rule="evenodd"></path><path id="path3" d="M193.000 47.850 C 192.560 47.928,189.950 48.156,187.200 48.356 C 183.431 48.631,180.772 49.114,176.400 50.318 C 173.210 51.197,168.623 52.396,166.206 52.983 C 163.790 53.570,161.253 54.396,160.570 54.819 C 159.886 55.241,158.083 55.969,156.563 56.436 C 155.044 56.902,152.720 57.880,151.400 58.608 C 150.080 59.336,148.019 60.217,146.821 60.568 C 144.796 61.159,143.295 61.946,137.000 65.719 C 135.680 66.510,133.430 67.836,132.000 68.664 C 130.570 69.493,128.621 70.762,127.669 71.485 C 126.718 72.208,125.715 72.800,125.441 72.800 C 123.688 72.800,117.591 80.456,115.579 85.185 C 112.939 91.390,112.457 103.345,114.637 108.563 C 115.197 109.904,116.014 112.020,116.453 113.267 C 119.923 123.126,132.878 125.992,141.891 118.893 C 142.721 118.239,144.390 117.205,145.600 116.596 C 146.810 115.986,148.340 115.084,149.000 114.591 C 149.660 114.099,151.093 113.308,152.185 112.833 C 153.277 112.358,154.468 111.701,154.831 111.372 C 155.553 110.719,161.182 108.262,163.919 107.405 C 164.865 107.109,166.098 106.566,166.659 106.198 C 167.769 105.471,177.218 102.268,180.276 101.583 C 189.405 99.537,205.134 99.562,215.510 101.639 C 220.051 102.547,231.993 108.798,233.704 111.161 C 233.977 111.538,235.016 112.403,236.014 113.083 C 241.835 117.052,250.412 127.738,254.889 136.600 C 255.556 137.920,256.429 139.465,256.830 140.033 C 257.231 140.601,257.936 142.022,258.397 143.192 C 258.858 144.361,259.552 145.721,259.940 146.214 C 260.327 146.707,261.066 148.435,261.580 150.055 C 262.095 151.675,263.205 154.637,264.047 156.638 C 266.269 161.920,269.963 174.105,271.602 181.562 C 272.057 183.631,272.520 185.471,272.632 185.651 C 275.545 190.365,275.833 235.887,273.013 246.000 C 272.676 247.210,271.871 250.466,271.224 253.235 C 269.619 260.110,263.522 274.768,260.249 279.618 C 259.562 280.636,258.100 283.053,257.000 284.989 C 255.900 286.924,253.824 289.788,252.387 291.354 C 250.949 292.919,249.292 294.830,248.704 295.600 C 248.116 296.370,246.081 298.350,244.182 300.000 C 242.282 301.650,240.132 303.562,239.402 304.248 C 235.773 307.666,226.291 314.218,222.800 315.721 C 222.030 316.053,219.196 317.317,216.502 318.530 C 208.867 321.968,207.234 321.586,205.388 315.926 C 205.007 314.757,204.185 312.697,203.562 311.348 C 202.939 309.999,201.985 307.749,201.441 306.348 C 191.592 280.949,177.956 267.152,164.944 269.421 C 156.786 270.844,153.559 273.194,147.079 282.432 C 145.209 285.098,142.900 290.190,142.105 293.400 C 141.779 294.720,140.997 297.650,140.369 299.910 C 138.077 308.157,137.205 327.885,138.782 335.800 C 140.365 343.749,144.133 354.422,146.337 357.198 C 146.948 357.969,148.103 359.590,148.902 360.800 C 153.367 367.558,163.479 374.423,171.000 375.802 C 172.540 376.084,174.873 376.604,176.184 376.958 C 177.495 377.311,180.033 377.600,181.824 377.600 C 187.374 377.600,188.931 378.934,191.818 386.162 C 192.530 387.943,193.426 390.120,193.810 391.000 C 194.193 391.880,195.098 394.220,195.820 396.200 C 196.542 398.180,197.699 401.240,198.392 403.000 C 199.085 404.760,200.159 407.739,200.779 409.621 C 201.399 411.502,202.356 413.932,202.906 415.021 C 203.456 416.109,204.455 418.530,205.127 420.400 C 207.601 427.284,214.282 444.696,216.024 448.800 C 216.631 450.230,217.338 452.210,217.596 453.200 C 217.854 454.190,218.496 455.900,219.023 457.000 C 220.313 459.693,224.561 470.496,226.184 475.209 C 226.905 477.304,227.948 479.914,228.502 481.009 C 229.056 482.104,229.897 484.305,230.371 485.900 C 230.846 487.495,231.766 489.925,232.417 491.300 C 233.067 492.675,233.600 494.044,233.600 494.342 C 233.600 494.640,234.025 495.731,234.545 496.765 C 235.065 497.800,236.080 500.346,236.802 502.423 C 237.523 504.501,238.885 508.014,239.829 510.230 C 240.772 512.447,242.080 515.777,242.737 517.630 C 243.891 520.890,245.115 524.033,246.854 528.200 C 247.314 529.300,248.225 531.640,248.879 533.400 C 250.932 538.917,251.492 540.371,255.042 549.400 C 256.945 554.240,259.080 559.460,259.785 561.000 C 260.490 562.540,261.383 564.970,261.769 566.400 C 262.156 567.830,262.710 569.374,263.001 569.832 C 263.292 570.290,264.069 572.180,264.729 574.032 C 266.887 580.094,268.688 584.574,269.548 586.027 C 270.013 586.812,270.750 588.491,271.186 589.758 C 272.116 592.463,274.846 597.574,276.486 599.682 C 279.410 603.440,287.466 605.796,291.000 603.926 C 291.660 603.577,293.172 602.776,294.361 602.145 C 299.695 599.317,303.986 589.530,303.996 580.166 C 304.000 576.926,302.159 566.198,301.188 563.800 C 300.921 563.140,300.201 561.250,299.590 559.600 C 296.912 552.378,295.160 547.907,293.397 543.800 C 292.358 541.380,290.904 537.733,290.165 535.694 C 289.427 533.656,288.620 531.612,288.373 531.150 C 288.127 530.689,287.569 529.026,287.135 527.456 C 286.701 525.885,285.845 523.610,285.233 522.400 C 284.622 521.190,283.889 519.480,283.605 518.600 C 283.321 517.720,282.787 516.550,282.417 516.000 C 282.048 515.450,281.430 513.830,281.044 512.400 C 280.658 510.970,279.830 508.900,279.204 507.800 C 278.578 506.700,277.766 504.638,277.401 503.218 C 277.035 501.797,276.449 500.087,276.099 499.418 C 275.749 498.748,274.881 496.580,274.170 494.600 C 271.527 487.241,270.011 483.285,268.193 479.000 C 267.166 476.580,265.711 472.922,264.959 470.872 C 264.207 468.822,263.324 466.626,262.996 465.992 C 262.668 465.358,262.398 464.516,262.395 464.120 C 262.392 463.724,261.742 461.960,260.949 460.200 C 260.157 458.440,259.017 455.560,258.416 453.800 C 257.816 452.040,256.961 449.880,256.517 449.000 C 256.073 448.120,255.390 446.410,254.999 445.200 C 254.608 443.990,253.394 440.840,252.302 438.200 C 251.210 435.560,249.869 431.960,249.324 430.200 C 248.778 428.440,248.013 426.448,247.622 425.772 C 247.232 425.097,246.594 423.567,246.206 422.372 C 245.817 421.178,245.088 419.390,244.586 418.400 C 244.084 417.410,243.131 414.980,242.468 413.000 C 241.805 411.020,240.512 407.600,239.593 405.400 C 237.248 399.783,234.853 393.427,234.014 390.590 C 233.621 389.264,232.655 386.898,231.867 385.333 C 231.078 383.767,230.223 381.611,229.966 380.543 C 229.710 379.474,228.873 377.347,228.107 375.816 C 225.402 370.408,226.304 368.892,235.050 364.138 C 238.225 362.412,241.978 360.370,243.389 359.600 C 244.801 358.830,246.281 357.913,246.678 357.561 C 247.075 357.210,248.300 356.318,249.400 355.579 C 254.963 351.840,272.675 334.972,274.221 331.941 C 274.597 331.203,275.843 329.520,276.989 328.200 C 278.135 326.880,280.173 324.090,281.516 322.000 C 282.860 319.910,284.462 317.480,285.077 316.600 C 286.297 314.853,290.431 307.031,293.638 300.400 C 294.756 298.090,296.367 294.760,297.218 293.000 C 298.070 291.240,299.117 288.360,299.544 286.600 C 299.972 284.840,300.780 281.960,301.341 280.200 C 303.353 273.880,304.766 268.771,305.403 265.514 C 305.760 263.691,306.394 260.670,306.812 258.800 C 307.861 254.105,309.073 245.284,309.587 238.600 C 309.825 235.520,310.194 231.009,310.409 228.577 C 310.972 222.208,310.890 212.250,310.214 204.722 C 309.892 201.135,309.351 194.818,309.012 190.685 C 308.623 185.938,307.893 180.707,307.030 176.485 C 306.278 172.808,305.457 168.270,305.204 166.400 C 304.951 164.530,304.319 162.010,303.799 160.800 C 303.279 159.590,302.655 157.378,302.412 155.883 C 302.169 154.389,301.536 151.959,301.004 150.483 C 300.472 149.008,299.597 146.158,299.061 144.151 C 298.010 140.222,295.145 131.756,294.203 129.800 C 293.886 129.140,292.709 126.350,291.588 123.600 C 288.702 116.516,285.921 110.408,285.120 109.389 C 284.743 108.910,284.063 107.576,283.609 106.424 C 282.613 103.897,280.079 99.499,278.561 97.662 C 277.952 96.926,277.038 95.486,276.528 94.462 C 274.604 90.598,273.522 88.987,270.871 86.037 C 269.371 84.366,266.997 81.560,265.596 79.800 C 261.164 74.232,250.965 64.949,245.676 61.669 C 244.727 61.081,243.017 59.990,241.876 59.244 C 240.734 58.498,238.729 57.447,237.420 56.908 C 236.111 56.370,233.681 55.247,232.020 54.414 C 230.359 53.580,228.190 52.765,227.200 52.601 C 226.210 52.438,224.500 51.975,223.400 51.572 C 215.193 48.565,199.691 46.667,193.000 47.850 M204.242 49.218 C 209.070 49.609,216.748 51.170,220.704 52.566 C 221.630 52.893,223.875 53.361,225.694 53.607 C 227.512 53.853,229.428 54.357,229.950 54.727 C 232.438 56.489,233.182 56.865,235.654 57.608 C 237.113 58.047,238.541 58.688,238.827 59.032 C 239.113 59.377,240.076 60.031,240.968 60.486 C 241.860 60.941,244.628 62.863,247.120 64.757 C 249.611 66.650,252.073 68.476,252.590 68.814 C 254.371 69.975,262.006 77.403,263.266 79.200 C 264.555 81.038,265.907 82.606,268.408 85.161 C 269.183 85.952,270.081 87.118,270.404 87.752 C 270.727 88.386,271.398 89.090,271.895 89.316 C 272.393 89.543,272.800 89.901,272.800 90.113 C 272.800 90.661,276.799 97.634,277.699 98.653 C 278.113 99.123,278.952 100.563,279.563 101.853 C 280.173 103.144,280.962 104.439,281.315 104.731 C 281.668 105.023,282.239 106.114,282.585 107.155 C 282.931 108.197,283.845 110.028,284.616 111.224 C 285.387 112.421,286.387 114.388,286.839 115.595 C 287.290 116.802,287.803 117.972,287.977 118.195 C 288.151 118.418,288.610 119.590,288.995 120.800 C 289.381 122.010,290.140 123.900,290.682 125.000 C 291.225 126.100,292.191 128.510,292.831 130.355 C 293.471 132.201,294.156 133.911,294.354 134.155 C 294.552 134.400,295.347 136.670,296.121 139.200 C 296.895 141.730,298.355 146.449,299.364 149.687 C 300.374 152.925,301.200 156.117,301.200 156.781 C 301.200 157.445,301.723 159.566,302.361 161.494 C 303.371 164.542,304.996 172.321,305.810 178.000 C 305.952 178.990,306.334 180.861,306.660 182.158 C 309.549 193.665,309.761 238.738,306.976 249.656 C 306.660 250.897,306.240 252.967,306.043 254.256 C 304.726 262.870,304.257 265.336,303.427 268.000 C 302.473 271.060,298.674 284.873,298.216 286.941 C 298.078 287.568,296.815 290.472,295.410 293.394 C 294.006 296.315,292.654 299.456,292.407 300.374 C 292.160 301.291,291.607 302.393,291.179 302.821 C 290.750 303.250,289.289 305.896,287.933 308.700 C 286.577 311.505,285.035 314.340,284.507 315.000 C 283.980 315.660,282.574 317.730,281.384 319.600 C 278.099 324.762,277.566 325.502,275.343 327.994 C 274.211 329.262,273.162 330.691,273.010 331.169 C 272.858 331.648,271.534 333.275,270.067 334.785 C 268.600 336.295,267.011 337.951,266.535 338.465 C 266.059 338.979,265.429 339.635,265.135 339.921 C 264.841 340.208,263.594 341.468,262.365 342.721 C 259.857 345.279,259.692 345.419,252.546 351.069 C 249.716 353.307,246.770 355.722,246.000 356.437 C 245.230 357.151,243.520 358.173,242.200 358.706 C 240.880 359.239,239.530 359.907,239.200 360.189 C 238.870 360.471,236.890 361.540,234.800 362.564 C 232.710 363.589,230.190 364.843,229.200 365.351 C 225.116 367.449,224.474 371.174,227.169 377.131 C 228.032 379.039,229.110 381.860,229.564 383.400 C 230.057 385.073,230.789 386.574,231.382 387.130 C 231.933 387.646,232.479 388.715,232.609 389.530 C 233.074 392.459,233.664 394.618,234.243 395.512 C 234.569 396.014,235.440 398.084,236.179 400.112 C 239.006 407.864,239.995 410.422,240.731 411.886 C 241.149 412.719,241.714 414.347,241.987 415.505 C 242.259 416.662,242.914 418.245,243.441 419.022 C 243.968 419.800,244.695 421.609,245.055 423.043 C 245.415 424.477,246.121 426.255,246.622 426.995 C 247.124 427.735,247.910 429.705,248.367 431.374 C 248.825 433.043,249.553 435.172,249.984 436.104 C 250.416 437.037,251.249 439.148,251.837 440.795 C 252.425 442.442,253.134 444.152,253.413 444.595 C 253.693 445.038,254.049 446.030,254.205 446.800 C 254.361 447.570,255.089 449.460,255.822 451.000 C 256.555 452.540,257.350 454.673,257.589 455.741 C 258.029 457.714,258.899 459.716,259.789 460.800 C 260.059 461.130,260.776 463.020,261.381 465.000 C 261.985 466.980,262.618 468.780,262.787 469.000 C 262.955 469.220,263.591 470.930,264.200 472.800 C 264.809 474.670,265.468 476.405,265.665 476.655 C 265.862 476.905,266.543 478.534,267.179 480.276 C 267.814 482.018,268.691 484.063,269.128 484.821 C 269.564 485.580,270.122 487.169,270.368 488.354 C 270.614 489.539,271.260 491.339,271.804 492.354 C 273.001 494.587,275.333 500.699,276.554 504.800 C 277.046 506.450,277.912 508.610,278.479 509.600 C 279.046 510.590,279.729 512.347,279.996 513.505 C 280.263 514.662,280.888 516.207,281.384 516.938 C 281.880 517.670,282.415 518.973,282.573 519.834 C 282.731 520.695,283.456 522.480,284.184 523.800 C 284.912 525.120,285.996 527.820,286.593 529.800 C 287.191 531.780,287.825 533.580,288.002 533.800 C 288.179 534.020,288.631 535.280,289.007 536.600 C 289.382 537.920,290.136 539.900,290.682 541.000 C 291.228 542.100,292.117 544.170,292.657 545.600 C 293.197 547.030,293.883 548.572,294.181 549.027 C 294.479 549.482,295.118 551.192,295.602 552.827 C 296.085 554.462,296.905 556.610,297.424 557.600 C 303.709 569.604,303.935 587.204,297.921 596.308 C 296.864 597.907,296.000 599.377,296.000 599.574 C 296.000 599.772,295.418 600.173,294.706 600.466 C 293.994 600.760,292.258 601.585,290.849 602.300 C 287.625 603.935,285.960 603.965,283.690 602.426 C 282.749 601.788,281.260 601.145,280.381 600.997 C 279.419 600.834,278.541 600.383,278.176 599.863 C 277.843 599.388,277.129 598.370,276.588 597.600 C 276.048 596.830,275.321 595.570,274.971 594.800 C 274.622 594.030,273.828 592.320,273.207 591.000 C 272.585 589.680,271.951 588.150,271.798 587.600 C 271.645 587.050,270.986 585.637,270.334 584.461 C 269.682 583.284,268.643 580.854,268.024 579.061 C 266.366 574.254,264.939 570.648,263.820 568.440 C 263.274 567.362,262.555 565.172,262.221 563.573 C 261.888 561.973,261.181 560.020,260.651 559.232 C 260.121 558.444,259.373 556.810,258.988 555.600 C 258.604 554.390,257.856 552.535,257.326 551.477 C 256.382 549.592,255.243 546.662,252.608 539.337 C 251.883 537.323,251.020 535.163,250.690 534.537 C 250.361 533.912,249.782 532.320,249.404 531.000 C 249.026 529.680,248.392 528.060,247.996 527.400 C 247.600 526.740,247.010 525.300,246.685 524.200 C 246.360 523.100,245.448 520.824,244.658 519.142 C 243.869 517.461,243.027 515.211,242.789 514.142 C 242.550 513.074,241.940 511.480,241.432 510.600 C 240.925 509.720,240.101 507.740,239.602 506.200 C 239.102 504.660,238.533 503.196,238.337 502.948 C 238.141 502.699,237.717 501.481,237.394 500.241 C 237.071 499.001,236.329 497.045,235.746 495.893 C 235.162 494.742,234.261 492.553,233.742 491.030 C 233.224 489.506,232.541 487.864,232.224 487.381 C 231.907 486.897,231.352 485.354,230.989 483.951 C 230.626 482.548,229.729 480.140,228.996 478.600 C 228.262 477.060,227.359 474.720,226.990 473.400 C 226.620 472.080,226.094 470.640,225.820 470.200 C 225.547 469.760,225.002 468.410,224.610 467.200 C 224.218 465.990,223.470 464.081,222.947 462.958 C 222.425 461.835,221.635 459.865,221.193 458.580 C 220.751 457.294,220.112 455.820,219.774 455.304 C 219.436 454.788,218.614 452.528,217.948 450.283 C 217.282 448.037,216.413 445.660,216.017 445.000 C 215.621 444.340,215.074 443.080,214.800 442.200 C 214.527 441.320,213.885 439.790,213.373 438.800 C 212.860 437.810,211.993 435.560,211.446 433.800 C 210.177 429.721,207.777 423.071,206.825 421.000 C 206.421 420.120,205.699 418.195,205.220 416.722 C 204.741 415.249,204.022 413.628,203.623 413.120 C 203.223 412.612,202.577 411.027,202.186 409.598 C 201.795 408.169,201.207 406.465,200.881 405.810 C 200.554 405.156,199.689 402.906,198.959 400.810 C 196.100 392.601,194.861 389.344,194.087 388.000 C 193.644 387.230,193.000 385.610,192.657 384.400 C 191.178 379.187,187.798 376.000,183.747 376.000 C 177.620 376.000,168.173 374.203,166.044 372.633 C 165.310 372.091,163.796 371.322,162.680 370.924 C 159.812 369.901,151.220 362.290,149.220 359.000 C 148.417 357.680,147.317 356.125,146.775 355.544 C 146.233 354.963,145.557 353.613,145.273 352.544 C 144.989 351.475,144.321 349.678,143.790 348.551 C 143.259 347.423,142.468 344.903,142.032 342.951 C 141.596 340.998,140.971 338.644,140.644 337.720 C 139.408 334.228,139.092 329.819,139.334 319.467 C 139.581 308.935,139.667 308.178,141.335 301.964 C 141.901 299.854,142.555 296.935,142.788 295.477 C 143.021 294.020,143.557 292.236,143.979 291.514 C 144.402 290.791,145.147 289.120,145.635 287.800 C 146.124 286.480,147.125 284.693,147.862 283.828 C 148.598 282.963,149.200 282.128,149.200 281.971 C 149.200 280.083,156.295 273.828,160.800 271.744 C 168.788 268.049,181.080 273.690,188.122 284.283 C 189.151 285.830,190.264 287.321,190.596 287.597 C 190.928 287.872,191.200 288.270,191.200 288.481 C 191.200 288.692,191.827 289.809,192.594 290.964 C 193.360 292.119,194.247 293.800,194.564 294.699 C 194.882 295.598,195.784 297.269,196.571 298.412 C 197.357 299.555,198.000 300.785,198.000 301.145 C 198.000 301.505,198.511 302.880,199.135 304.200 C 199.760 305.520,200.590 307.590,200.980 308.800 C 201.371 310.010,202.102 311.722,202.606 312.605 C 203.110 313.488,203.830 315.288,204.206 316.605 C 205.648 321.653,207.990 323.568,211.539 322.599 C 214.296 321.847,215.508 321.311,216.972 320.194 C 217.696 319.642,219.184 318.924,220.279 318.599 C 221.374 318.274,222.974 317.507,223.835 316.894 C 224.696 316.281,226.166 315.442,227.102 315.028 C 228.039 314.615,229.017 314.020,229.277 313.707 C 229.537 313.394,230.571 312.719,231.575 312.208 C 232.579 311.697,233.793 310.946,234.274 310.540 C 234.755 310.133,236.285 308.903,237.674 307.806 C 239.063 306.710,240.366 305.546,240.568 305.220 C 241.073 304.407,242.146 303.406,245.521 300.600 C 248.705 297.952,256.000 289.896,256.000 289.026 C 256.000 288.723,256.585 287.757,257.300 286.879 C 258.603 285.278,259.948 283.082,262.212 278.860 C 262.879 277.617,263.716 276.060,264.073 275.400 C 265.392 272.961,267.711 267.803,268.437 265.693 C 268.848 264.497,269.555 262.921,270.007 262.189 C 270.459 261.458,271.262 259.001,271.793 256.730 C 272.323 254.458,273.136 251.430,273.600 250.000 C 274.153 248.294,274.575 245.475,274.829 241.800 C 275.042 238.720,275.517 234.580,275.885 232.600 C 277.101 226.054,277.190 209.468,276.030 205.360 C 275.788 204.502,275.412 200.920,275.193 197.400 C 274.636 188.417,274.089 184.168,273.213 182.038 C 272.798 181.027,272.090 178.461,271.639 176.336 C 271.189 174.210,270.532 171.690,270.180 170.736 C 269.828 169.781,269.113 167.269,268.591 165.153 C 268.069 163.037,267.113 160.247,266.467 158.953 C 265.820 157.659,265.067 155.880,264.792 155.000 C 264.517 154.120,263.955 152.731,263.544 151.913 C 263.133 151.095,262.605 149.530,262.370 148.433 C 262.135 147.337,261.453 145.756,260.854 144.920 C 260.255 144.084,259.434 142.500,259.029 141.400 C 258.624 140.300,257.900 138.860,257.419 138.200 C 256.938 137.540,255.965 135.830,255.258 134.400 C 252.880 129.594,252.324 128.604,251.503 127.713 C 251.054 127.226,250.307 126.203,249.843 125.440 C 248.312 122.921,243.977 118.259,239.643 114.468 C 238.554 113.516,236.833 111.959,235.819 111.008 C 232.908 108.280,228.470 105.198,225.618 103.923 C 224.178 103.279,222.100 102.326,221.000 101.804 C 219.857 101.263,217.168 100.578,214.728 100.208 C 212.378 99.851,209.228 99.208,207.729 98.780 C 204.334 97.809,195.476 97.699,191.083 98.574 C 189.497 98.890,185.500 99.533,182.200 100.005 C 178.743 100.498,175.183 101.260,173.800 101.803 C 172.480 102.320,170.648 102.940,169.730 103.179 C 167.291 103.815,153.750 109.848,152.267 110.959 C 151.570 111.481,150.190 112.309,149.200 112.799 C 148.210 113.289,147.038 114.021,146.595 114.426 C 146.152 114.830,144.892 115.551,143.795 116.028 C 142.698 116.505,141.440 117.204,141.000 117.580 C 133.145 124.302,120.825 121.471,117.565 112.195 C 117.147 111.007,116.355 109.016,115.804 107.771 C 114.513 104.852,114.196 94.439,115.293 91.000 C 115.644 89.900,116.328 87.700,116.812 86.110 C 117.297 84.521,117.970 82.991,118.308 82.710 C 118.646 82.430,119.653 81.211,120.546 80.000 C 123.300 76.270,125.276 74.373,127.662 73.169 C 128.922 72.532,130.102 71.747,130.283 71.423 C 130.464 71.100,131.779 70.276,133.206 69.592 C 135.661 68.415,137.823 67.224,144.800 63.202 C 146.450 62.250,148.782 61.216,149.982 60.902 C 151.182 60.589,152.892 59.811,153.782 59.173 C 154.707 58.510,156.757 57.668,158.570 57.205 C 160.314 56.761,162.044 56.122,162.416 55.786 C 163.321 54.966,167.579 53.781,170.888 53.426 C 172.367 53.268,175.385 52.618,177.596 51.982 C 179.806 51.346,183.547 50.553,185.907 50.221 C 188.268 49.888,191.280 49.454,192.600 49.256 C 195.991 48.748,198.347 48.740,204.242 49.218 " stroke="none" fill="#7c7c7c" fill-rule="evenodd"></path><path id="path4" d="M188.800 47.801 L 184.200 48.340 188.800 48.070 C 194.246 47.750,203.016 47.758,208.600 48.087 C 211.081 48.233,211.993 48.199,211.000 47.996 C 207.894 47.360,193.627 47.235,188.800 47.801 M177.800 49.414 C 176.040 49.948,171.900 51.037,168.600 51.834 C 165.300 52.631,161.844 53.696,160.921 54.202 C 159.997 54.707,157.747 55.616,155.921 56.221 C 154.094 56.826,151.970 57.750,151.200 58.273 C 150.430 58.796,148.842 59.506,147.670 59.849 C 146.499 60.193,145.632 60.565,145.744 60.677 C 146.079 61.012,148.847 59.995,151.400 58.598 C 152.720 57.875,155.044 56.902,156.563 56.436 C 158.083 55.969,159.883 55.244,160.563 54.825 C 161.244 54.405,163.690 53.595,166.000 53.024 C 177.911 50.081,183.686 48.449,182.200 48.445 C 181.540 48.444,179.560 48.880,177.800 49.414 M217.600 49.791 C 220.130 50.520,222.922 51.382,223.805 51.707 C 224.688 52.032,226.218 52.433,227.205 52.598 C 228.192 52.763,230.359 53.580,232.020 54.414 C 233.681 55.247,236.111 56.370,237.420 56.908 C 238.729 57.447,240.734 58.498,241.876 59.244 C 243.017 59.990,244.727 61.082,245.676 61.672 C 248.115 63.189,254.171 68.046,256.967 70.729 C 258.574 72.272,258.959 72.530,258.167 71.535 C 256.374 69.284,249.862 63.772,246.600 61.743 C 245.720 61.196,243.830 60.012,242.400 59.111 C 240.970 58.211,238.746 57.043,237.458 56.517 C 236.170 55.990,234.121 54.998,232.905 54.311 C 231.689 53.625,229.233 52.656,227.447 52.158 C 225.661 51.660,222.130 50.619,219.600 49.845 C 217.070 49.071,214.550 48.444,214.000 48.452 C 213.450 48.459,215.070 49.062,217.600 49.791 M141.600 62.385 C 140.170 63.236,137.227 64.983,135.061 66.266 C 132.895 67.550,130.344 69.173,129.392 69.874 C 128.440 70.574,127.091 71.443,126.394 71.803 C 125.696 72.164,125.229 72.562,125.355 72.688 C 125.481 72.814,126.332 72.396,127.248 71.759 C 129.199 70.399,133.921 67.481,137.600 65.361 C 143.402 62.016,145.321 60.801,144.775 60.819 C 144.459 60.829,143.030 61.534,141.600 62.385 M122.161 74.900 C 116.471 80.842,113.049 88.103,113.239 93.833 C 113.260 94.475,113.521 93.436,113.819 91.525 C 114.750 85.548,118.909 77.966,123.335 74.177 C 124.220 73.420,124.770 72.800,124.558 72.800 C 124.346 72.800,123.268 73.745,122.161 74.900 M262.005 75.626 C 263.438 77.262,265.410 79.590,266.389 80.800 C 267.367 82.010,269.360 84.350,270.818 86.000 C 272.275 87.650,273.768 89.445,274.134 89.989 C 274.500 90.533,274.800 90.764,274.800 90.502 C 274.800 90.074,274.043 89.130,269.864 84.355 C 269.169 83.560,267.700 81.774,266.600 80.385 C 263.820 76.875,260.782 73.471,260.031 73.026 C 259.684 72.820,260.572 73.990,262.005 75.626 M274.813 91.476 C 274.806 91.738,274.998 92.075,275.241 92.225 C 275.484 92.375,276.081 93.359,276.569 94.411 C 277.056 95.463,277.952 96.926,278.561 97.662 C 280.091 99.514,282.617 103.905,283.624 106.465 C 284.085 107.639,284.698 108.870,284.985 109.200 C 285.273 109.530,285.970 110.700,286.535 111.800 C 287.100 112.900,287.571 113.690,287.581 113.556 C 287.647 112.693,280.106 98.790,278.842 97.445 C 278.334 96.904,277.507 95.593,277.003 94.531 C 275.967 92.346,274.832 90.763,274.813 91.476 M112.920 97.200 C 112.920 98.410,112.995 98.905,113.087 98.300 C 113.178 97.695,113.178 96.705,113.087 96.100 C 112.995 95.495,112.920 95.990,112.920 97.200 M189.800 100.387 C 188.480 100.526,191.090 100.562,195.600 100.467 C 201.939 100.334,204.962 100.453,208.923 100.991 C 211.741 101.374,214.125 101.608,214.222 101.511 C 215.213 100.520,196.658 99.666,189.800 100.387 M181.200 101.399 C 177.845 102.076,167.984 105.330,166.659 106.198 C 166.098 106.566,164.865 107.109,163.919 107.405 C 161.182 108.262,155.553 110.719,154.831 111.372 C 154.468 111.701,153.277 112.358,152.185 112.833 C 151.093 113.308,149.660 114.099,149.000 114.591 C 148.340 115.084,146.810 115.986,145.600 116.596 C 144.390 117.205,142.770 118.196,142.000 118.796 C 141.230 119.396,140.060 120.189,139.400 120.558 C 138.339 121.151,138.316 121.200,139.200 120.975 C 139.750 120.835,140.830 120.198,141.600 119.559 C 142.370 118.920,144.080 117.838,145.400 117.154 C 146.720 116.470,148.070 115.675,148.400 115.388 C 149.621 114.327,158.721 109.865,162.392 108.528 C 164.478 107.769,166.818 106.798,167.592 106.370 C 170.684 104.662,180.097 101.839,184.649 101.254 C 186.878 100.968,187.058 100.899,185.600 100.888 C 184.610 100.881,182.630 101.111,181.200 101.399 M215.400 101.861 C 219.867 103.142,233.200 110.149,233.200 111.215 C 233.200 111.406,234.055 112.136,235.100 112.837 C 236.145 113.539,237.651 114.763,238.448 115.557 C 239.244 116.350,240.414 117.458,241.048 118.018 C 243.787 120.440,250.121 128.708,251.847 132.117 C 252.204 132.823,252.724 133.670,253.002 134.000 C 253.972 135.152,260.940 149.018,261.646 151.200 C 262.037 152.410,262.367 153.089,262.378 152.709 C 262.408 151.761,260.501 146.775,259.818 146.017 C 259.513 145.677,258.880 144.425,258.411 143.233 C 257.942 142.041,257.231 140.601,256.830 140.033 C 256.429 139.465,255.556 137.920,254.889 136.600 C 250.412 127.738,241.835 117.052,236.014 113.083 C 235.016 112.403,233.977 111.538,233.704 111.161 C 232.066 108.898,219.602 102.302,216.072 101.828 C 215.262 101.720,214.960 101.734,215.400 101.861 M113.314 104.200 C 113.317 105.300,113.395 105.703,113.487 105.095 C 113.579 104.486,113.577 103.586,113.482 103.095 C 113.387 102.603,113.311 103.100,113.314 104.200 M113.824 107.549 C 113.968 108.292,114.406 109.462,114.798 110.149 C 115.190 110.837,115.804 112.311,116.163 113.425 C 117.595 117.874,123.283 122.903,127.475 123.427 C 131.058 123.874,138.857 122.324,137.890 121.357 C 137.793 121.259,136.833 121.564,135.757 122.033 C 128.696 125.110,119.083 120.744,116.454 113.267 C 115.122 109.476,113.525 106.005,113.824 107.549 M287.616 114.091 C 287.607 114.251,288.044 115.331,288.587 116.491 C 289.129 117.651,290.485 120.850,291.600 123.600 C 292.714 126.350,293.885 129.140,294.202 129.800 C 295.181 131.839,298.229 140.843,298.981 143.919 C 299.374 145.524,299.773 146.761,299.867 146.666 C 300.165 146.368,298.129 139.180,296.449 134.600 C 293.330 126.096,287.678 112.972,287.616 114.091 M300.012 147.281 C 300.005 147.435,300.536 149.145,301.192 151.081 C 301.847 153.016,302.387 154.279,302.392 153.887 C 302.406 152.695,300.060 146.182,300.012 147.281 M262.426 153.681 C 262.412 153.835,263.026 155.384,263.790 157.123 C 265.830 161.764,269.432 173.677,271.372 182.200 C 272.630 187.732,273.118 189.342,273.166 188.126 C 273.185 187.645,273.015 186.765,272.788 186.169 C 272.562 185.574,272.016 183.447,271.576 181.443 C 269.430 171.679,262.662 151.143,262.426 153.681 M302.663 156.800 C 302.791 158.010,303.236 159.672,303.652 160.494 C 304.069 161.315,304.585 162.665,304.799 163.494 L 305.188 165.000 305.022 163.520 C 304.931 162.707,304.546 161.385,304.165 160.584 C 303.785 159.782,303.239 158.108,302.952 156.863 L 302.431 154.600 302.663 156.800 M305.301 166.600 C 305.305 167.480,305.387 167.793,305.483 167.295 C 305.579 166.798,305.575 166.078,305.475 165.695 C 305.375 165.313,305.296 165.720,305.301 166.600 M305.695 169.200 C 305.695 169.750,305.832 170.740,306.000 171.400 C 306.272 172.470,306.305 172.492,306.305 171.600 C 306.305 171.050,306.168 170.060,306.000 169.400 C 305.728 168.330,305.695 168.308,305.695 169.200 M306.400 173.081 C 306.400 173.309,306.838 175.634,307.374 178.248 C 307.910 180.861,308.423 183.540,308.514 184.200 L 308.680 185.400 308.740 184.246 C 308.773 183.611,308.333 180.821,307.763 178.046 C 306.823 173.475,306.400 171.934,306.400 173.081 M308.928 188.000 C 308.928 189.430,309.001 190.015,309.089 189.300 C 309.178 188.585,309.178 187.415,309.089 186.700 C 309.001 185.985,308.928 186.570,308.928 188.000 M273.474 191.800 C 273.598 193.340,273.766 194.675,273.849 194.767 C 274.127 195.074,273.958 192.217,273.602 190.600 C 273.331 189.370,273.302 189.648,273.474 191.800 M309.437 194.400 C 309.539 196.490,309.907 201.350,310.255 205.200 C 310.919 212.547,310.839 223.442,310.045 233.600 C 309.831 236.350,309.561 240.040,309.446 241.800 L 309.237 245.000 309.595 242.400 C 310.368 236.788,311.200 223.678,311.200 217.120 C 311.200 210.948,310.852 205.871,309.629 194.200 L 309.251 190.600 309.437 194.400 M274.134 198.800 C 274.134 200.450,274.205 201.125,274.291 200.300 C 274.378 199.475,274.378 198.125,274.291 197.300 C 274.205 196.475,274.134 197.150,274.134 198.800 M274.514 204.600 C 274.517 205.700,274.595 206.103,274.687 205.495 C 274.779 204.886,274.777 203.986,274.682 203.495 C 274.587 203.003,274.511 203.500,274.514 204.600 M274.972 218.000 C 274.972 223.170,275.029 225.285,275.099 222.700 C 275.168 220.115,275.168 215.885,275.099 213.300 C 275.029 210.715,274.972 212.830,274.972 218.000 M274.524 232.200 C 274.526 233.520,274.601 234.012,274.690 233.293 C 274.779 232.574,274.777 231.494,274.686 230.893 C 274.595 230.292,274.522 230.880,274.524 232.200 M274.114 237.000 C 274.117 238.100,274.195 238.503,274.287 237.895 C 274.379 237.286,274.377 236.386,274.282 235.895 C 274.187 235.403,274.111 235.900,274.114 237.000 M273.600 240.458 C 273.600 243.580,269.593 258.569,267.413 263.600 C 266.603 265.470,265.699 267.654,265.404 268.454 C 265.109 269.253,264.309 271.035,263.626 272.412 C 262.942 273.789,262.458 274.992,262.550 275.084 C 263.218 275.752,269.893 258.939,271.224 253.235 C 271.871 250.466,272.674 247.210,273.010 246.000 C 273.707 243.488,274.241 239.200,273.857 239.200 C 273.716 239.200,273.600 239.766,273.600 240.458 M308.901 246.600 C 308.905 247.480,308.987 247.793,309.083 247.295 C 309.179 246.798,309.175 246.078,309.075 245.695 C 308.975 245.313,308.896 245.720,308.901 246.600 M308.493 249.600 C 308.493 250.370,308.575 250.685,308.676 250.300 C 308.776 249.915,308.776 249.285,308.676 248.900 C 308.575 248.515,308.493 248.830,308.493 249.600 M307.805 253.495 C 307.648 254.757,307.177 257.126,306.759 258.759 C 306.342 260.392,306.017 262.194,306.038 262.764 C 306.058 263.334,306.312 262.630,306.601 261.200 C 306.891 259.770,307.300 258.150,307.511 257.600 C 307.937 256.489,308.571 251.200,308.278 251.200 C 308.176 251.200,307.963 252.233,307.805 253.495 M305.277 266.337 C 304.723 269.020,302.998 275.055,301.159 280.741 C 300.493 282.798,300.027 284.561,300.124 284.657 C 300.298 284.831,301.669 280.636,303.932 273.000 C 305.416 267.995,306.118 264.955,305.925 264.374 C 305.843 264.128,305.551 265.011,305.277 266.337 M164.600 268.794 C 164.160 268.981,162.256 269.595,160.370 270.158 C 154.886 271.795,147.526 278.966,144.929 285.200 C 144.608 285.970,143.818 287.714,143.173 289.075 C 142.528 290.436,142.004 291.786,142.009 292.075 C 142.014 292.364,142.735 290.980,143.612 289.000 C 154.395 264.633,174.331 262.321,189.451 283.684 C 194.894 291.373,197.668 296.617,201.441 306.348 C 201.985 307.749,202.939 309.999,203.562 311.348 C 204.185 312.697,205.007 314.757,205.388 315.926 C 206.385 318.981,208.728 321.367,210.376 321.005 C 212.603 320.516,223.194 315.638,222.086 315.612 C 221.803 315.605,221.173 315.861,220.686 316.180 C 218.553 317.574,209.854 320.750,209.170 320.384 C 207.934 319.722,206.131 317.051,205.402 314.800 C 205.010 313.590,204.261 311.745,203.738 310.701 C 203.215 309.656,202.359 307.676,201.836 306.301 C 195.484 289.607,187.481 278.088,177.654 271.493 C 174.715 269.521,166.761 267.876,164.600 268.794 M261.040 277.498 C 260.441 278.544,258.970 280.930,257.772 282.800 C 256.574 284.670,255.319 286.822,254.983 287.583 C 254.646 288.344,253.226 290.144,251.826 291.583 C 244.390 299.229,242.098 301.510,240.757 302.600 C 233.417 308.566,231.218 310.196,227.300 312.571 C 224.825 314.072,222.800 315.386,222.800 315.493 C 222.800 316.572,235.317 308.095,239.402 304.248 C 240.132 303.562,242.282 301.650,244.182 300.000 C 246.081 298.350,248.116 296.370,248.704 295.600 C 249.292 294.830,250.949 292.923,252.387 291.361 C 253.824 289.800,256.144 286.560,257.542 284.161 C 258.940 281.763,260.633 278.942,261.303 277.894 C 261.974 276.846,262.434 275.900,262.326 275.792 C 262.218 275.684,261.639 276.452,261.040 277.498 M299.049 288.453 C 298.817 289.615,296.232 295.380,294.349 298.935 C 293.902 299.779,293.611 300.544,293.702 300.636 C 293.794 300.727,294.325 299.856,294.883 298.701 C 295.440 297.545,296.638 295.070,297.543 293.200 C 299.051 290.085,299.992 287.200,299.500 287.200 C 299.390 287.200,299.187 287.764,299.049 288.453 M141.232 295.279 C 141.214 295.653,140.750 297.383,140.200 299.125 C 139.650 300.866,139.114 303.170,139.010 304.245 L 138.820 306.200 139.201 304.429 C 139.411 303.455,140.051 301.067,140.623 299.123 C 141.195 297.179,141.573 295.366,141.463 295.094 C 141.343 294.798,141.250 294.872,141.232 295.279 M290.486 306.686 C 288.888 309.671,287.646 312.179,287.727 312.260 C 287.808 312.341,289.178 309.961,290.771 306.971 C 292.365 303.982,293.607 301.473,293.530 301.397 C 293.454 301.321,292.084 303.701,290.486 306.686 M138.501 307.800 C 138.505 308.680,138.587 308.993,138.683 308.495 C 138.779 307.998,138.775 307.278,138.675 306.895 C 138.575 306.513,138.496 306.920,138.501 307.800 M138.109 311.600 C 138.109 312.590,138.187 312.995,138.282 312.500 C 138.378 312.005,138.378 311.195,138.282 310.700 C 138.187 310.205,138.109 310.610,138.109 311.600 M286.895 313.751 C 286.656 314.277,285.893 315.492,285.200 316.453 C 284.507 317.414,282.845 319.910,281.506 322.000 C 280.168 324.090,278.135 326.880,276.989 328.200 C 275.843 329.520,274.597 331.203,274.221 331.941 C 272.639 335.043,255.223 351.590,249.000 355.904 C 247.680 356.819,246.150 357.953,245.600 358.424 L 244.600 359.282 245.862 358.541 C 253.367 354.134,272.014 336.766,274.836 331.554 C 275.146 330.981,276.360 329.425,277.533 328.096 C 279.439 325.937,281.028 323.656,285.000 317.372 C 285.660 316.328,286.537 314.954,286.948 314.318 C 287.359 313.682,287.613 313.080,287.513 312.979 C 287.412 312.879,287.134 313.226,286.895 313.751 M137.769 321.800 C 137.770 326.420,137.828 328.255,137.899 325.878 C 137.970 323.501,137.969 319.721,137.898 317.478 C 137.827 315.235,137.769 317.180,137.769 321.800 M138.109 332.400 C 138.109 333.390,138.187 333.795,138.282 333.300 C 138.378 332.805,138.378 331.995,138.282 331.500 C 138.187 331.005,138.109 331.410,138.109 332.400 M138.846 337.353 C 138.747 338.969,142.189 349.989,143.858 353.400 C 147.016 359.851,150.364 363.988,157.200 369.887 C 158.878 371.335,166.110 375.103,167.800 375.410 C 168.525 375.542,168.128 375.265,166.800 374.711 C 159.834 371.807,152.285 365.941,148.898 360.800 C 148.101 359.590,146.948 357.969,146.337 357.198 C 144.336 354.677,141.018 345.625,139.081 337.400 C 138.909 336.670,138.889 336.665,138.846 337.353 M242.200 360.178 C 241.320 360.709,238.052 362.523,234.939 364.209 C 226.312 368.881,225.403 370.428,228.117 375.816 C 228.889 377.347,229.641 379.230,229.790 380.000 C 230.080 381.501,233.227 388.506,233.492 388.241 C 233.580 388.154,233.022 386.833,232.254 385.306 C 231.485 383.780,230.558 381.376,230.195 379.965 C 229.832 378.554,228.990 376.445,228.325 375.278 C 226.832 372.658,226.969 370.349,228.716 368.689 C 229.608 367.841,238.156 362.800,238.702 362.800 C 238.791 362.800,239.795 362.194,240.932 361.453 C 242.069 360.712,243.360 359.907,243.800 359.665 C 244.240 359.423,244.420 359.222,244.200 359.219 C 243.980 359.216,243.080 359.647,242.200 360.178 M173.465 376.758 C 176.187 377.772,180.817 378.471,182.762 378.160 C 187.310 377.432,189.727 380.889,195.380 396.200 C 198.270 404.028,199.712 407.621,199.890 407.443 C 199.993 407.340,199.596 406.028,199.007 404.528 C 198.418 403.028,197.421 400.450,196.791 398.800 C 188.850 378.002,188.566 377.600,181.827 377.600 C 180.038 377.600,177.590 377.328,176.387 376.995 C 172.703 375.976,170.996 375.837,173.465 376.758 M234.019 390.712 C 234.008 390.994,234.427 392.254,234.948 393.512 C 235.470 394.770,236.208 396.757,236.589 397.926 C 236.970 399.095,237.353 399.981,237.440 399.893 C 237.609 399.725,236.189 395.510,234.848 392.200 C 234.402 391.100,234.029 390.430,234.019 390.712 M237.620 400.400 C 237.613 400.510,238.432 402.580,239.440 405.000 C 240.448 407.420,241.818 411.020,242.486 413.000 C 243.744 416.735,246.004 421.729,245.995 420.756 C 245.993 420.450,245.559 419.446,245.032 418.525 C 244.505 417.603,243.948 416.253,243.794 415.525 C 243.322 413.296,237.677 399.467,237.620 400.400 M200.000 408.149 C 200.000 408.775,202.204 414.842,202.778 415.798 C 203.176 416.459,203.908 418.260,204.406 419.800 C 204.903 421.340,205.625 423.230,206.010 424.000 C 206.395 424.770,207.262 426.930,207.937 428.800 C 209.831 434.049,212.161 440.182,214.016 444.800 C 214.944 447.110,216.298 450.710,217.025 452.800 C 218.296 456.451,220.711 461.662,220.177 459.600 C 220.034 459.050,219.580 458.012,219.168 457.292 C 218.755 456.573,218.124 454.953,217.765 453.692 C 217.406 452.432,216.619 450.230,216.016 448.800 C 214.232 444.565,207.544 427.124,205.127 420.400 C 204.455 418.530,203.409 416.010,202.804 414.800 C 202.198 413.590,201.405 411.565,201.040 410.300 C 200.499 408.422,200.000 407.390,200.000 408.149 M246.404 423.000 C 246.404 423.220,246.700 423.940,247.062 424.600 C 247.423 425.260,248.132 426.880,248.638 428.200 C 249.744 431.085,249.905 430.612,248.855 427.563 C 248.119 425.423,246.402 422.228,246.404 423.000 M250.139 432.800 C 250.244 433.130,251.220 435.560,252.308 438.200 C 253.397 440.840,254.608 443.990,254.999 445.200 C 255.390 446.410,256.073 448.120,256.517 449.000 C 256.961 449.880,257.816 452.040,258.416 453.800 C 259.640 457.387,262.388 463.670,262.395 462.901 C 262.398 462.626,261.701 460.826,260.846 458.901 C 259.991 456.975,258.883 454.140,258.384 452.600 C 257.885 451.060,257.233 449.424,256.935 448.965 C 256.637 448.506,255.873 446.616,255.237 444.765 C 253.825 440.657,251.415 434.719,250.571 433.269 C 250.229 432.681,250.035 432.470,250.139 432.800 M220.592 461.600 C 220.753 462.150,221.328 463.680,221.870 465.000 C 222.412 466.320,223.320 468.618,223.888 470.106 C 224.456 471.595,225.007 472.727,225.112 472.622 C 225.217 472.517,224.268 469.859,223.003 466.715 C 220.788 461.213,219.977 459.491,220.592 461.600 M262.414 464.320 C 262.406 464.606,262.668 465.358,262.996 465.992 C 263.324 466.626,264.207 468.822,264.959 470.872 C 265.711 472.922,267.166 476.580,268.193 479.000 C 269.220 481.420,270.658 485.020,271.389 487.000 C 273.541 492.830,274.757 495.830,274.779 495.363 C 274.808 494.761,273.285 490.390,272.856 489.844 C 272.665 489.600,272.112 488.140,271.627 486.600 C 271.143 485.060,270.230 482.630,269.600 481.200 C 267.494 476.427,265.317 471.027,264.439 468.400 C 263.513 465.628,262.438 463.461,262.414 464.320 M225.200 473.325 C 225.200 473.911,227.736 480.749,228.237 481.513 C 228.592 482.054,229.225 483.419,229.646 484.548 C 230.066 485.677,230.306 486.060,230.180 485.400 C 230.053 484.740,229.260 482.670,228.417 480.800 C 227.574 478.930,226.581 476.455,226.210 475.300 C 225.657 473.578,225.200 472.684,225.200 473.325 M230.432 487.150 C 230.414 487.452,231.009 489.072,231.754 490.750 C 232.499 492.427,233.205 494.070,233.323 494.400 C 233.485 494.853,233.545 494.866,233.568 494.450 C 233.586 494.148,232.991 492.528,232.246 490.850 C 231.501 489.173,230.795 487.530,230.677 487.200 C 230.515 486.747,230.455 486.734,230.432 487.150 M233.623 495.317 C 233.610 495.491,234.116 496.751,234.747 498.117 C 235.377 499.483,235.993 500.870,236.115 501.200 C 236.312 501.733,236.339 501.733,236.352 501.200 C 236.367 500.581,233.664 494.752,233.623 495.317 M274.816 496.264 C 274.807 496.519,275.340 497.869,276.000 499.264 C 276.660 500.659,277.192 501.530,277.183 501.200 C 277.164 500.463,274.839 495.616,274.816 496.264 M236.428 502.233 C 236.394 502.753,240.143 512.375,240.980 513.916 C 242.050 515.887,241.623 514.447,240.026 510.696 C 239.161 508.663,238.004 505.830,237.454 504.400 C 236.905 502.970,236.443 501.995,236.428 502.233 M277.442 503.200 C 277.561 503.970,278.358 506.040,279.213 507.800 C 280.067 509.560,280.981 511.900,281.244 513.000 C 281.507 514.100,282.029 515.450,282.405 516.000 C 282.781 516.550,283.319 517.720,283.601 518.600 C 283.883 519.480,284.533 521.010,285.045 522.000 C 285.557 522.990,286.254 524.520,286.594 525.400 C 287.081 526.660,287.165 526.745,286.992 525.800 C 286.871 525.140,286.265 523.610,285.646 522.400 C 285.027 521.190,284.291 519.480,284.012 518.600 C 283.732 517.720,283.178 516.460,282.782 515.800 C 282.385 515.140,281.843 513.700,281.577 512.600 C 281.310 511.500,280.488 509.430,279.750 508.000 C 279.011 506.570,278.141 504.590,277.816 503.600 C 277.308 502.050,277.256 501.994,277.442 503.200 M241.704 515.649 C 241.832 516.006,242.316 517.574,242.780 519.133 C 243.244 520.692,243.785 522.067,243.981 522.188 C 244.177 522.309,244.737 523.622,245.224 525.104 C 245.712 526.587,246.511 528.610,247.000 529.600 C 247.489 530.590,248.304 532.660,248.811 534.200 C 249.318 535.740,249.792 536.820,249.865 536.600 C 250.013 536.153,247.843 530.393,244.741 523.000 C 244.280 521.900,243.478 519.759,242.961 518.243 C 242.443 516.726,241.896 515.376,241.746 515.243 C 241.595 515.109,241.577 515.292,241.704 515.649 M287.604 529.120 C 287.602 529.406,287.894 530.209,288.254 530.904 C 288.613 531.600,289.410 533.616,290.024 535.384 C 291.698 540.209,295.624 549.309,295.909 549.024 C 296.004 548.929,295.614 547.861,295.041 546.650 C 294.469 545.440,294.000 544.338,294.000 544.202 C 294.000 544.066,293.210 542.120,292.245 539.878 C 291.280 537.635,290.262 535.082,289.983 534.205 C 289.314 532.103,287.609 528.458,287.604 529.120 M250.195 537.900 C 250.350 538.285,251.067 540.220,251.789 542.200 C 254.913 550.763,261.187 565.643,261.196 564.509 C 261.198 564.239,260.593 562.709,259.851 561.109 C 258.630 558.474,252.735 543.771,251.028 539.100 C 250.646 538.055,250.239 537.200,250.124 537.200 C 250.009 537.200,250.041 537.515,250.195 537.900 M296.242 550.400 C 296.605 551.881,299.946 560.270,299.975 559.777 C 299.999 559.370,297.177 551.847,296.382 550.200 C 296.052 549.517,296.032 549.546,296.242 550.400 M300.016 560.649 C 300.007 560.896,300.374 561.944,300.831 562.977 C 304.381 571.003,304.688 586.168,301.443 593.219 C 299.216 598.056,297.142 600.671,294.361 602.145 C 293.172 602.776,291.660 603.577,291.000 603.926 C 287.466 605.796,279.410 603.440,276.486 599.682 C 274.846 597.574,272.116 592.463,271.186 589.758 C 270.750 588.491,270.013 586.812,269.548 586.027 C 269.083 585.242,267.820 582.350,266.741 579.600 C 265.661 576.850,264.895 575.230,265.037 576.000 C 265.180 576.770,265.538 577.873,265.833 578.451 C 266.129 579.030,266.829 580.722,267.390 582.212 C 267.951 583.702,268.771 585.506,269.213 586.220 C 269.654 586.935,270.362 588.526,270.785 589.757 C 275.019 602.063,284.082 607.925,292.352 603.706 C 302.368 598.597,306.507 586.063,303.254 570.690 C 302.205 565.733,300.072 559.119,300.016 560.649 M261.256 565.600 C 261.256 565.930,261.411 566.560,261.600 567.000 C 261.817 567.504,261.944 567.578,261.944 567.200 C 261.944 566.870,261.789 566.240,261.600 565.800 C 261.383 565.296,261.256 565.222,261.256 565.600 M262.409 569.500 C 262.414 569.665,262.964 570.880,263.631 572.200 C 264.926 574.765,264.826 573.739,263.504 570.900 C 262.755 569.293,262.389 568.824,262.409 569.500 " stroke="none" fill="#848484" fill-rule="evenodd"></path></g></svg>