<svg id="svg" version="1.1" xmlns="http://www.w3.org/2000/svg" xmlns:xlink="http://www.w3.org/1999/xlink" width="400" height="752.7559055118111" viewBox="0, 0, 400,752.7559055118111"><g id="svgg"><path id="path0" d="M155.000 56.868 C 143.761 57.181,130.252 58.172,128.586 58.805 C 126.057 59.767,121.864 60.356,114.400 60.798 L 106.600 61.260 97.982 64.044 L 89.364 66.827 86.182 69.989 C 81.158 74.979,79.109 79.274,78.881 85.296 C 78.667 90.957,79.292 96.272,80.409 98.284 C 82.859 102.698,83.389 103.544,84.721 105.172 C 87.282 108.300,87.843 108.775,90.238 109.834 C 96.349 112.536,102.804 113.294,106.824 111.780 C 110.061 110.560,115.348 109.614,119.000 109.600 C 123.908 109.581,129.548 108.948,131.290 108.220 C 136.198 106.169,169.950 104.446,183.519 105.553 C 186.754 105.817,191.341 106.189,193.713 106.381 C 197.206 106.664,198.423 106.938,200.113 107.825 C 201.922 108.774,202.872 108.961,207.242 109.229 C 212.789 109.569,214.838 110.001,217.576 111.411 C 218.579 111.928,220.789 112.632,222.487 112.976 C 227.434 113.979,229.957 115.091,235.551 118.734 C 236.678 119.468,237.600 120.225,237.600 120.416 C 237.600 120.606,238.229 121.061,238.999 121.426 C 242.422 123.050,250.000 130.970,250.000 132.922 C 250.000 133.218,250.435 133.869,250.966 134.368 C 251.498 134.868,252.225 136.204,252.582 137.338 C 252.938 138.472,253.756 140.570,254.398 142.000 C 256.243 146.107,256.515 149.110,256.279 162.789 C 256.057 175.653,255.894 177.019,253.889 182.800 C 253.316 184.450,252.663 186.952,252.437 188.360 C 252.188 189.907,251.624 191.499,251.012 192.382 C 250.456 193.186,250.000 194.053,250.000 194.310 C 250.000 195.097,248.067 199.200,247.696 199.200 C 247.505 199.200,247.052 199.821,246.690 200.580 C 246.328 201.340,245.575 202.260,245.016 202.626 C 244.457 202.992,244.000 203.548,244.000 203.862 C 244.000 205.219,230.183 218.400,228.760 218.400 C 228.563 218.400,227.546 219.009,226.501 219.753 C 223.860 221.633,220.664 223.181,217.638 224.046 C 216.227 224.450,214.416 225.235,213.614 225.790 C 212.812 226.346,210.546 227.222,208.578 227.736 C 206.610 228.251,204.280 229.035,203.400 229.477 C 200.344 231.015,189.538 232.315,172.400 233.208 C 164.054 233.643,162.385 233.803,151.800 235.187 C 148.500 235.618,143.640 236.084,141.000 236.221 C 133.883 236.591,131.012 237.076,128.269 238.373 C 126.911 239.016,124.771 239.746,123.513 239.996 C 117.134 241.266,108.780 254.463,108.804 263.232 C 108.819 268.670,113.400 280.046,116.381 282.049 C 117.160 282.572,118.533 283.671,119.432 284.490 C 120.332 285.310,122.313 286.570,123.834 287.290 L 126.600 288.600 134.200 288.523 C 139.533 288.469,143.470 288.195,147.400 287.604 C 150.480 287.142,154.710 286.598,156.800 286.396 C 163.121 285.785,171.234 284.853,174.200 284.397 C 185.524 282.655,201.573 283.502,210.000 286.286 C 212.970 287.267,216.840 288.485,218.600 288.992 C 222.232 290.039,230.158 293.275,231.145 294.114 C 231.505 294.421,233.023 295.181,234.518 295.803 C 236.013 296.426,237.363 297.136,237.518 297.381 C 237.851 297.908,243.368 301.200,243.918 301.200 C 244.126 301.200,244.979 301.903,245.813 302.763 C 246.648 303.623,247.797 304.419,248.367 304.533 C 250.254 304.911,262.511 316.309,264.636 319.662 C 265.145 320.466,266.126 321.651,266.814 322.294 C 268.055 323.454,269.044 324.917,270.939 328.400 C 271.478 329.390,272.477 330.899,273.159 331.754 C 273.840 332.608,274.590 334.019,274.824 334.888 C 275.058 335.757,275.756 337.307,276.377 338.334 C 276.997 339.360,277.734 341.189,278.015 342.398 C 278.297 343.607,278.932 345.358,279.427 346.290 C 279.923 347.221,280.631 349.382,281.001 351.092 C 281.371 352.801,281.850 354.920,282.065 355.800 C 283.120 360.110,283.270 361.785,283.086 367.200 C 282.694 378.738,279.268 393.487,276.098 397.285 C 275.822 397.616,275.244 398.911,274.813 400.162 C 274.383 401.413,273.656 402.923,273.198 403.518 C 272.322 404.656,270.436 407.378,268.432 410.400 C 267.775 411.390,266.991 412.470,266.690 412.800 C 266.388 413.130,265.735 414.075,265.238 414.900 C 264.741 415.725,264.017 416.625,263.630 416.900 C 263.242 417.175,262.607 418.074,262.218 418.898 C 261.829 419.721,260.856 420.943,260.056 421.613 C 257.468 423.778,254.865 426.141,252.083 428.848 C 250.587 430.304,248.777 431.798,248.061 432.168 C 247.345 432.539,246.656 433.110,246.530 433.438 C 246.404 433.766,245.610 434.387,244.766 434.817 C 243.921 435.248,242.909 435.927,242.515 436.325 C 242.122 436.724,240.900 437.759,239.800 438.625 C 238.700 439.491,237.710 440.295,237.600 440.412 C 236.783 441.276,233.061 443.560,231.523 444.140 C 230.491 444.530,229.051 445.283,228.323 445.814 C 221.471 450.814,215.599 449.419,210.649 441.615 C 210.016 440.617,208.981 439.209,208.349 438.486 C 207.717 437.763,207.197 436.953,207.194 436.686 C 207.191 436.419,206.175 435.210,204.937 434.000 C 203.699 432.790,202.267 431.137,201.755 430.327 C 201.243 429.516,200.008 427.935,199.012 426.813 C 198.015 425.691,197.199 424.554,197.199 424.287 C 197.198 424.019,196.703 423.459,196.099 423.043 C 195.494 422.627,194.100 421.235,193.000 419.949 C 191.900 418.664,188.975 415.497,186.500 412.911 C 184.025 410.325,182.000 408.078,182.000 407.917 C 182.000 407.757,181.563 407.395,181.029 407.113 C 180.103 406.624,174.595 401.781,172.424 399.547 C 171.861 398.967,170.817 398.199,170.105 397.839 C 169.393 397.479,168.188 396.638,167.426 395.969 C 166.461 395.122,164.975 394.466,162.521 393.803 C 160.584 393.280,158.229 392.577,157.287 392.239 C 152.583 390.556,143.693 390.723,140.046 392.563 C 139.471 392.854,137.774 393.494,136.274 393.987 C 134.245 394.654,133.458 395.120,133.195 395.814 C 133.000 396.327,132.336 397.119,131.720 397.575 C 131.104 398.030,129.790 399.677,128.800 401.234 C 127.810 402.791,126.393 404.996,125.650 406.133 C 124.908 407.270,123.971 409.342,123.568 410.738 C 123.165 412.133,122.483 414.023,122.053 414.938 C 120.736 417.737,120.399 420.525,120.414 428.520 C 120.428 436.312,120.572 437.436,122.365 443.800 C 122.799 445.340,123.169 447.050,123.187 447.600 C 123.221 448.594,124.236 451.812,126.094 456.811 C 126.627 458.247,127.725 460.382,128.532 461.556 C 129.339 462.729,130.005 463.895,130.012 464.145 C 130.053 465.736,135.439 472.405,139.426 475.800 C 140.460 476.680,142.587 478.581,144.153 480.025 C 147.934 483.511,151.891 486.534,153.530 487.190 C 154.262 487.483,155.702 488.419,156.730 489.271 C 157.759 490.122,159.296 491.007,160.147 491.238 C 161.993 491.737,166.673 494.160,167.800 495.200 C 168.240 495.606,170.130 496.315,172.000 496.775 C 173.870 497.235,175.869 497.955,176.442 498.375 C 177.894 499.439,179.852 499.880,185.400 500.393 C 197.551 501.517,202.535 504.094,205.412 510.739 C 205.731 511.476,206.440 512.431,206.987 512.861 C 207.534 513.292,208.326 514.421,208.746 515.371 C 209.166 516.321,210.160 517.818,210.955 518.697 C 211.750 519.577,212.400 520.478,212.400 520.700 C 212.400 520.921,212.680 521.335,213.023 521.619 C 213.366 521.904,213.881 522.691,214.167 523.368 C 214.454 524.046,215.139 525.050,215.690 525.600 C 216.241 526.150,217.263 527.590,217.962 528.800 C 218.661 530.010,219.568 531.450,219.978 532.000 C 220.388 532.550,221.415 534.063,222.262 535.362 C 223.108 536.661,224.250 538.386,224.800 539.195 C 225.350 540.005,226.340 541.520,227.000 542.561 C 227.660 543.602,228.875 545.360,229.700 546.467 C 230.525 547.575,231.200 548.665,231.200 548.892 C 231.200 549.118,231.785 549.972,232.500 550.790 C 233.215 551.608,234.299 553.160,234.908 554.239 C 235.518 555.317,236.554 557.010,237.211 558.000 C 237.868 558.990,239.027 561.077,239.786 562.637 C 240.545 564.197,241.446 565.706,241.788 565.990 C 242.130 566.273,242.769 567.318,243.208 568.311 C 243.647 569.304,244.301 570.332,244.662 570.596 C 245.395 571.132,247.333 574.179,249.243 577.800 C 249.940 579.120,251.025 580.826,251.655 581.591 C 252.285 582.356,252.800 583.205,252.800 583.477 C 252.800 583.749,253.302 584.563,253.916 585.286 C 255.181 586.776,256.000 588.474,256.000 589.608 C 256.000 590.031,256.554 590.967,257.231 591.689 C 259.386 593.985,262.318 598.436,262.574 599.801 C 262.710 600.526,263.086 601.340,263.411 601.609 C 263.735 601.878,264.000 602.252,264.000 602.441 C 264.000 602.913,266.694 607.087,267.201 607.401 C 267.427 607.540,267.987 608.391,268.446 609.291 C 273.816 619.817,290.789 622.805,298.600 614.600 C 299.260 613.906,300.081 613.173,300.426 612.969 C 305.626 609.897,307.785 588.835,303.526 582.720 C 303.113 582.126,302.318 580.645,301.761 579.428 C 301.204 578.211,300.592 577.118,300.400 577.000 C 300.208 576.882,299.591 575.777,299.027 574.546 C 298.463 573.315,297.462 571.693,296.801 570.940 C 296.140 570.188,295.600 569.345,295.600 569.067 C 295.600 568.790,294.835 567.376,293.900 565.927 C 291.258 561.829,288.559 557.198,286.469 553.172 C 285.328 550.974,283.160 547.552,281.673 545.600 C 281.253 545.050,280.411 543.610,279.800 542.400 C 279.189 541.190,278.341 539.750,277.916 539.200 C 276.421 537.268,272.424 530.943,271.091 528.400 C 270.234 526.765,266.958 522.195,265.213 520.200 C 264.829 519.760,263.996 518.410,263.362 517.200 C 262.064 514.719,260.032 511.494,258.825 510.000 C 258.381 509.450,258.014 508.789,258.009 508.531 C 258.004 508.272,257.382 507.251,256.626 506.262 C 255.871 505.272,254.944 503.863,254.568 503.131 C 254.191 502.399,253.270 501.082,252.521 500.205 C 247.368 494.164,247.151 489.134,251.968 487.327 C 252.975 486.949,254.250 486.237,254.800 485.745 C 255.967 484.701,260.660 481.211,263.600 479.200 C 264.725 478.430,266.221 477.329,266.923 476.754 C 267.625 476.178,268.948 475.329,269.861 474.865 C 270.775 474.402,272.702 472.713,274.144 471.112 C 275.585 469.510,278.499 466.760,280.619 465.000 C 285.984 460.545,288.173 458.416,288.961 456.883 C 289.334 456.158,290.035 455.374,290.519 455.139 C 292.030 454.409,299.923 444.775,301.285 442.000 C 301.800 440.950,305.451 435.312,306.725 433.600 C 307.134 433.050,307.946 431.610,308.529 430.400 C 309.112 429.190,310.131 427.300,310.793 426.200 C 311.455 425.100,312.099 423.930,312.224 423.600 C 312.491 422.894,312.996 421.783,315.135 417.200 C 316.007 415.330,317.078 412.709,317.514 411.375 C 317.951 410.041,318.667 408.241,319.106 407.375 C 319.546 406.509,320.038 404.810,320.200 403.600 C 320.544 401.041,321.843 396.621,322.604 395.427 C 322.917 394.935,323.305 392.145,323.562 388.534 C 323.800 385.198,324.216 381.508,324.488 380.334 C 325.285 376.893,325.151 359.516,324.268 351.800 C 323.072 341.350,322.900 340.328,321.842 337.373 C 321.285 335.819,320.625 333.209,320.375 331.573 C 320.125 329.938,319.657 328.304,319.336 327.942 C 318.632 327.149,316.820 322.140,316.808 320.954 C 316.804 320.489,316.473 319.679,316.073 319.154 C 314.703 317.358,312.113 312.201,311.225 309.504 C 310.737 308.022,310.161 306.700,309.946 306.566 C 309.730 306.433,309.081 305.306,308.503 304.062 C 307.925 302.818,306.900 301.155,306.226 300.366 C 305.552 299.577,304.689 298.407,304.309 297.766 C 303.928 297.125,302.627 295.250,301.417 293.600 C 300.207 291.950,298.922 290.073,298.561 289.429 C 298.201 288.784,297.342 287.695,296.653 287.008 C 295.964 286.320,294.770 284.969,294.000 284.004 C 291.739 281.171,278.827 268.400,278.223 268.400 C 277.920 268.400,277.249 267.905,276.732 267.300 C 276.216 266.695,274.985 265.678,273.997 265.039 C 273.008 264.401,271.803 263.488,271.317 263.011 C 270.832 262.534,269.662 261.742,268.717 261.250 C 265.437 259.545,263.793 258.156,262.500 256.002 C 260.953 253.424,260.976 253.638,262.107 252.396 C 262.606 251.848,263.430 250.860,263.939 250.200 C 265.965 247.574,270.273 243.099,271.512 242.332 C 272.234 241.885,273.167 240.849,273.585 240.029 C 274.003 239.210,275.546 237.023,277.014 235.170 C 278.482 233.316,279.781 231.530,279.901 231.200 C 280.021 230.870,280.486 230.193,280.933 229.696 C 282.682 227.753,286.568 220.165,289.364 213.232 C 289.933 211.819,290.644 210.379,290.942 210.032 C 291.241 209.684,291.882 207.780,292.367 205.800 C 292.852 203.820,293.583 201.630,293.992 200.933 C 294.435 200.176,295.075 197.437,295.579 194.133 C 297.047 184.516,297.165 183.846,297.778 181.655 C 298.911 177.606,299.315 169.638,299.068 156.222 C 298.832 143.417,298.543 140.485,297.074 135.966 C 296.746 134.957,296.362 132.887,296.221 131.366 C 295.882 127.712,295.273 125.350,294.167 123.400 C 293.668 122.520,292.965 120.630,292.606 119.200 C 292.247 117.770,291.449 115.880,290.834 115.000 C 290.218 114.120,289.507 112.770,289.255 112.000 C 289.003 111.230,288.427 110.060,287.974 109.400 C 287.522 108.740,286.737 107.300,286.231 106.200 C 284.468 102.376,282.081 99.112,277.800 94.673 C 276.700 93.533,275.082 91.700,274.204 90.600 C 271.426 87.117,266.936 82.867,265.340 82.209 C 264.493 81.860,263.620 81.352,263.400 81.081 C 262.732 80.258,259.894 78.219,258.256 77.385 C 257.408 76.953,255.940 75.925,254.995 75.100 C 254.050 74.275,252.894 73.600,252.426 73.600 C 251.117 73.600,248.971 72.579,248.317 71.645 C 247.967 71.147,246.524 70.418,244.764 69.851 C 243.134 69.327,240.900 68.442,239.800 67.885 C 237.647 66.796,232.703 65.226,228.202 64.202 C 226.664 63.853,224.427 63.014,223.231 62.339 C 221.199 61.193,220.667 61.088,215.094 60.742 C 210.121 60.433,208.820 60.216,207.265 59.438 C 203.110 57.358,179.335 56.189,155.000 56.868 " stroke="none" fill="#0a0a0a" fill-rule="evenodd"></path><path id="path1" d="M0.000 376.200 L 0.000 752.400 200.000 752.400 L 400.000 752.400 400.000 376.200 L 400.000 0.000 200.000 0.000 L 0.000 0.000 0.000 376.200 M189.400 52.807 C 193.741 53.164,197.069 53.636,207.600 55.389 C 209.470 55.700,212.342 56.153,213.981 56.394 C 215.621 56.636,217.780 57.196,218.780 57.638 C 219.779 58.080,223.086 58.871,226.128 59.394 C 229.170 59.918,232.087 60.627,232.609 60.969 C 233.131 61.311,234.939 61.970,236.626 62.433 C 239.547 63.234,245.518 65.917,246.800 67.003 C 247.130 67.283,248.390 67.921,249.600 68.421 C 250.810 68.921,252.250 69.718,252.800 70.193 C 253.350 70.668,255.105 71.555,256.700 72.164 C 258.295 72.772,259.600 73.401,259.600 73.561 C 259.600 73.721,260.185 74.135,260.900 74.480 C 261.615 74.826,263.550 76.312,265.200 77.782 C 266.850 79.253,268.840 80.789,269.621 81.196 C 270.403 81.603,271.255 82.403,271.515 82.974 C 271.775 83.545,272.486 84.234,273.094 84.506 C 274.278 85.035,276.882 87.560,277.935 89.200 C 278.720 90.424,281.626 94.042,282.268 94.596 C 283.673 95.809,287.237 100.669,287.548 101.798 C 287.748 102.520,288.276 103.476,288.722 103.922 C 289.168 104.368,289.932 105.828,290.420 107.166 C 290.908 108.505,291.471 109.600,291.671 109.600 C 292.080 109.600,294.399 114.306,294.400 115.137 C 294.400 115.432,294.732 116.095,295.137 116.611 C 295.542 117.126,296.291 119.044,296.800 120.874 C 297.310 122.703,297.945 124.470,298.213 124.800 C 299.076 125.866,299.557 128.097,300.005 133.110 C 300.246 135.810,300.803 139.320,301.242 140.910 C 302.971 147.167,302.956 173.334,301.219 180.519 C 300.768 182.387,300.226 185.960,300.015 188.458 C 299.622 193.100,299.364 194.343,298.282 196.800 C 297.943 197.570,297.357 199.820,296.980 201.800 C 296.603 203.780,295.883 206.210,295.380 207.200 C 294.878 208.190,294.095 210.276,293.641 211.836 C 293.187 213.396,292.475 215.106,292.058 215.636 C 291.641 216.166,290.995 217.500,290.624 218.600 C 290.252 219.700,289.438 221.410,288.814 222.400 C 288.191 223.390,287.563 224.762,287.420 225.450 C 287.276 226.137,286.728 227.104,286.202 227.598 C 285.676 228.092,284.920 229.405,284.523 230.516 C 284.125 231.626,283.305 233.030,282.700 233.636 C 282.095 234.243,281.600 234.936,281.600 235.178 C 281.600 235.420,280.913 236.379,280.073 237.309 C 279.233 238.239,278.123 239.630,277.606 240.400 C 277.089 241.170,276.202 242.278,275.633 242.863 C 275.065 243.447,273.880 244.760,273.000 245.781 C 272.120 246.801,270.095 248.949,268.500 250.554 C 265.255 253.820,265.128 254.136,266.729 254.963 C 267.350 255.284,268.103 255.842,268.402 256.203 C 268.702 256.563,269.589 257.187,270.373 257.589 C 271.158 257.991,272.880 259.379,274.200 260.673 C 275.520 261.968,277.352 263.531,278.270 264.147 C 279.189 264.763,280.029 265.499,280.138 265.782 C 280.247 266.066,281.115 266.677,282.068 267.142 C 283.020 267.606,284.107 268.530,284.481 269.193 C 284.856 269.857,285.396 270.402,285.681 270.405 C 285.967 270.408,287.100 271.408,288.200 272.628 C 289.300 273.847,290.935 275.600,291.834 276.522 C 292.732 277.445,293.542 278.387,293.634 278.614 C 293.725 278.842,294.385 279.440,295.100 279.942 C 295.815 280.444,296.400 281.077,296.400 281.349 C 296.400 281.621,297.045 282.463,297.834 283.222 C 299.423 284.749,302.579 289.317,302.976 290.664 C 303.117 291.140,303.854 292.004,304.616 292.585 C 305.377 293.166,306.000 293.872,306.000 294.154 C 306.000 294.436,306.714 295.440,307.586 296.385 C 308.458 297.330,309.380 298.754,309.633 299.551 C 309.887 300.348,310.577 301.540,311.167 302.200 C 311.757 302.860,312.481 304.120,312.777 305.000 C 313.072 305.880,313.637 307.015,314.032 307.522 C 314.426 308.029,315.128 309.583,315.592 310.975 C 316.055 312.368,316.791 313.830,317.227 314.225 C 317.663 314.619,318.400 316.215,318.864 317.771 C 319.328 319.327,319.941 320.870,320.226 321.201 C 320.981 322.076,321.578 323.813,322.267 327.141 C 322.602 328.759,323.225 330.675,323.653 331.400 C 324.107 332.169,324.679 334.440,325.028 336.859 C 325.357 339.136,326.076 342.426,326.627 344.170 C 329.105 352.009,328.944 384.111,326.390 391.557 C 325.967 392.791,325.337 395.579,324.991 397.754 C 324.644 399.929,324.031 402.359,323.628 403.154 C 323.226 403.949,322.772 405.410,322.620 406.400 C 322.201 409.138,321.185 412.106,320.353 413.022 C 319.943 413.474,319.244 415.264,318.800 417.000 C 318.356 418.736,317.634 420.538,317.195 421.006 C 316.756 421.473,316.029 422.943,315.581 424.271 C 315.132 425.600,314.437 427.039,314.036 427.469 C 313.033 428.545,312.400 429.802,312.400 430.715 C 312.400 431.136,311.957 432.093,311.416 432.841 C 310.875 433.588,310.040 434.920,309.562 435.800 C 309.083 436.680,308.250 437.940,307.711 438.600 C 307.171 439.260,306.204 440.610,305.561 441.600 C 303.404 444.920,302.469 446.193,301.302 447.400 C 300.664 448.060,299.932 449.100,299.675 449.711 C 299.417 450.322,298.928 450.930,298.586 451.061 C 298.245 451.192,297.589 452.041,297.128 452.949 C 295.718 455.729,279.576 471.983,277.155 473.062 C 276.360 473.416,275.412 474.211,275.047 474.828 C 274.682 475.446,273.982 476.075,273.492 476.225 C 273.001 476.376,272.030 477.062,271.334 477.749 C 269.704 479.361,267.544 481.077,265.457 482.421 C 264.546 483.007,263.364 483.963,262.830 484.544 C 262.297 485.125,261.524 485.600,261.112 485.600 C 260.700 485.600,259.886 486.077,259.303 486.661 C 258.719 487.245,257.123 488.229,255.756 488.849 C 252.283 490.424,251.235 495.320,254.049 496.826 C 254.461 497.047,255.139 497.896,255.556 498.713 C 255.973 499.531,256.719 500.560,257.213 501.000 C 258.303 501.970,262.000 507.562,262.000 508.240 C 262.000 508.506,262.615 509.460,263.366 510.359 C 264.117 511.258,265.037 512.793,265.410 513.771 C 265.784 514.749,266.330 515.641,266.624 515.754 C 266.918 515.867,267.461 516.553,267.832 517.279 C 268.202 518.006,269.292 519.653,270.253 520.940 C 271.214 522.226,272.000 523.504,272.000 523.778 C 272.000 524.052,272.386 524.619,272.858 525.038 C 273.330 525.457,274.118 526.700,274.611 527.800 C 275.104 528.900,275.871 530.128,276.317 530.529 C 276.762 530.930,277.356 531.830,277.636 532.529 C 277.916 533.228,278.628 534.363,279.218 535.052 C 279.809 535.741,280.708 537.226,281.217 538.352 C 281.726 539.478,282.288 540.400,282.466 540.400 C 282.643 540.400,283.355 541.525,284.046 542.900 C 284.738 544.275,285.730 545.829,286.251 546.354 C 286.772 546.878,287.378 547.958,287.599 548.754 C 287.819 549.549,288.437 550.612,288.973 551.116 C 289.508 551.620,290.264 552.880,290.652 553.916 C 291.040 554.952,291.594 555.945,291.883 556.122 C 292.173 556.300,292.883 557.380,293.461 558.522 C 294.040 559.665,294.908 561.140,295.391 561.800 C 295.874 562.460,296.577 563.839,296.954 564.865 C 297.331 565.890,297.909 566.833,298.239 566.960 C 298.570 567.086,299.271 568.166,299.799 569.358 C 300.326 570.551,300.938 571.638,301.159 571.775 C 301.380 571.912,302.130 573.178,302.825 574.589 C 303.519 576.001,304.429 577.464,304.846 577.841 C 305.262 578.218,305.796 579.263,306.032 580.164 C 306.267 581.064,306.994 582.909,307.646 584.265 C 310.098 589.359,310.322 601.210,308.052 605.715 C 307.364 607.082,306.522 609.148,306.183 610.306 C 305.133 613.888,299.041 619.972,294.891 621.583 C 289.380 623.723,289.577 623.685,284.800 623.519 C 279.701 623.341,276.909 622.380,273.268 619.547 C 270.819 617.643,266.800 613.590,266.800 613.025 C 266.800 612.763,266.260 612.032,265.600 611.400 C 264.940 610.768,264.400 610.081,264.400 609.874 C 264.400 609.667,263.716 608.485,262.881 607.249 C 262.045 606.012,261.040 604.145,260.647 603.100 C 260.255 602.055,259.796 601.200,259.627 601.200 C 259.458 601.200,258.726 600.029,257.999 598.599 C 257.273 597.168,256.428 595.789,256.121 595.534 C 255.814 595.279,255.121 594.138,254.582 592.998 C 254.042 591.858,253.257 590.614,252.837 590.234 C 252.417 589.853,251.842 588.970,251.559 588.271 C 251.276 587.572,250.464 586.145,249.754 585.100 C 249.043 584.056,248.260 582.587,248.012 581.836 C 247.764 581.085,247.307 580.373,246.997 580.254 C 246.687 580.135,245.956 579.084,245.373 577.919 C 244.791 576.753,243.893 575.350,243.378 574.800 C 242.864 574.250,242.144 573.086,241.780 572.214 C 241.415 571.341,240.876 570.441,240.581 570.214 C 240.038 569.796,237.859 566.010,236.384 562.922 C 235.943 562.000,234.776 560.300,233.791 559.146 C 232.806 557.992,232.000 556.834,232.000 556.573 C 232.000 556.312,231.717 555.863,231.371 555.576 C 231.025 555.289,230.370 554.321,229.917 553.427 C 229.463 552.532,228.551 551.179,227.888 550.420 C 227.226 549.661,226.345 548.274,225.931 547.337 C 225.516 546.400,224.999 545.523,224.781 545.388 C 224.563 545.254,223.923 544.232,223.358 543.117 C 222.793 542.003,221.885 540.620,221.339 540.045 C 220.794 539.470,220.065 538.460,219.720 537.800 C 219.374 537.140,218.844 536.455,218.541 536.278 C 218.238 536.100,217.528 535.042,216.962 533.925 C 216.396 532.808,215.596 531.533,215.184 531.091 C 214.772 530.648,214.082 529.537,213.652 528.621 C 213.221 527.705,212.570 526.707,212.205 526.404 C 211.840 526.101,211.190 525.165,210.761 524.324 C 210.332 523.483,209.602 522.571,209.139 522.298 C 208.677 522.024,207.880 520.870,207.369 519.734 C 206.858 518.598,206.055 517.248,205.584 516.734 C 205.113 516.220,203.566 514.180,202.146 512.200 C 198.245 506.761,198.002 506.631,188.600 504.991 C 178.668 503.259,171.209 501.130,169.222 499.460 C 168.606 498.943,164.731 497.600,163.853 497.600 C 163.602 497.600,162.511 496.970,161.428 496.200 C 160.345 495.430,159.214 494.800,158.914 494.800 C 157.857 494.800,155.382 493.249,153.800 491.596 C 152.920 490.676,151.287 489.515,150.171 489.015 C 149.055 488.516,147.777 487.643,147.331 487.076 C 146.886 486.509,146.039 485.925,145.450 485.777 C 144.402 485.514,140.584 482.300,137.400 479.000 C 131.558 472.946,129.004 470.026,128.502 468.825 C 128.186 468.069,127.526 466.899,127.036 466.225 C 126.546 465.551,125.805 464.190,125.390 463.200 C 124.975 462.210,124.250 460.923,123.778 460.341 C 123.306 459.758,122.696 458.138,122.422 456.741 C 122.148 455.343,121.420 453.120,120.804 451.800 C 119.960 449.991,119.517 448.071,119.006 444.000 C 118.632 441.030,118.073 437.617,117.763 436.416 C 116.996 433.442,116.998 423.754,117.766 421.708 C 118.078 420.879,118.626 418.061,118.984 415.447 C 119.567 411.189,119.863 410.180,121.170 408.000 C 121.368 407.670,121.833 406.538,122.204 405.484 C 122.575 404.431,123.278 403.081,123.766 402.484 C 124.254 401.888,124.900 400.788,125.200 400.040 C 126.455 396.918,133.211 391.079,138.365 388.661 C 141.446 387.216,151.241 386.638,156.670 387.582 C 160.004 388.161,169.291 392.625,170.802 394.375 C 171.354 395.014,172.330 395.668,172.972 395.829 C 173.614 395.990,175.233 397.093,176.570 398.279 C 177.906 399.466,179.676 401.014,180.503 401.718 C 181.329 402.423,183.669 404.684,185.703 406.743 C 190.829 411.932,191.435 412.535,192.055 413.066 C 193.104 413.962,195.061 416.212,195.999 417.600 C 197.076 419.193,198.978 421.443,202.424 425.200 C 203.736 426.630,205.141 428.340,205.547 429.000 C 205.953 429.660,206.686 430.556,207.176 430.992 C 207.665 431.427,208.323 432.400,208.638 433.152 C 208.952 433.905,209.928 435.300,210.805 436.252 C 211.682 437.203,212.400 438.152,212.400 438.360 C 212.400 438.568,212.895 439.272,213.500 439.925 C 214.105 440.577,215.075 441.626,215.656 442.255 C 218.914 445.789,221.430 446.631,223.374 444.839 C 223.828 444.420,225.910 443.089,228.000 441.881 C 230.090 440.673,232.160 439.330,232.600 438.898 C 233.547 437.968,235.729 436.800,236.519 436.800 C 236.826 436.800,237.726 436.170,238.519 435.400 C 239.312 434.630,240.246 434.000,240.596 434.000 C 240.946 434.000,241.922 433.325,242.765 432.500 C 245.552 429.774,251.299 424.606,251.955 424.236 C 252.971 423.664,259.525 416.782,260.841 414.906 C 261.495 413.974,262.370 413.030,262.785 412.808 C 263.201 412.586,263.860 411.680,264.250 410.796 C 264.640 409.911,265.351 408.931,265.831 408.617 C 266.310 408.303,266.825 407.541,266.976 406.923 C 267.127 406.305,267.756 405.164,268.375 404.386 C 268.993 403.609,269.958 402.067,270.518 400.961 C 271.079 399.855,271.811 398.722,272.146 398.445 C 272.481 398.167,273.150 396.738,273.632 395.270 C 274.114 393.801,274.784 392.060,275.121 391.400 C 275.457 390.740,276.221 388.310,276.819 386.000 C 277.416 383.690,278.216 380.990,278.597 380.000 C 280.208 375.807,279.810 356.977,278.026 353.000 C 277.632 352.120,276.998 349.988,276.618 348.261 C 276.239 346.535,275.512 344.285,275.004 343.261 C 274.496 342.238,273.803 340.570,273.463 339.555 C 273.124 338.539,272.316 336.919,271.667 335.955 C 271.018 334.990,270.207 333.525,269.864 332.700 C 269.521 331.875,269.057 331.200,268.832 331.200 C 268.607 331.200,267.963 330.227,267.401 329.039 C 266.839 327.850,266.138 326.785,265.843 326.672 C 265.117 326.393,261.626 321.759,260.983 320.220 C 260.672 319.476,259.904 318.712,259.066 318.312 C 258.297 317.945,257.551 317.275,257.407 316.823 C 257.264 316.370,256.959 316.000,256.731 316.000 C 256.303 316.000,254.782 314.637,249.814 309.800 C 248.202 308.231,246.029 306.575,244.871 306.032 C 243.734 305.500,242.543 304.667,242.225 304.181 C 241.835 303.587,241.065 303.211,239.871 303.031 C 238.578 302.838,237.630 302.335,236.381 301.183 C 235.438 300.312,234.453 299.600,234.191 299.600 C 233.243 299.600,225.519 296.003,224.344 295.014 C 223.681 294.456,222.657 293.896,222.069 293.769 C 221.481 293.641,219.650 293.089,218.000 292.541 C 216.350 291.993,212.570 291.088,209.600 290.530 C 206.630 289.972,203.390 289.248,202.400 288.920 C 196.269 286.893,183.429 286.840,175.776 288.812 C 172.640 289.620,171.639 289.700,151.000 290.799 C 146.600 291.033,141.290 291.492,139.200 291.819 C 134.315 292.582,128.097 292.584,126.108 291.822 C 125.279 291.505,123.340 290.876,121.800 290.426 C 118.749 289.533,113.877 285.669,112.538 283.079 C 112.187 282.402,111.579 281.567,111.186 281.224 C 106.519 277.152,104.280 256.620,107.989 251.905 C 108.384 251.402,109.159 249.922,109.709 248.616 C 110.260 247.311,111.065 245.873,111.498 245.421 C 111.931 244.970,112.401 244.240,112.542 243.800 C 112.683 243.360,113.419 242.579,114.177 242.064 C 114.935 241.549,115.829 240.710,116.163 240.201 C 116.517 239.661,117.652 238.987,118.885 238.586 C 120.048 238.207,121.270 237.671,121.600 237.395 C 124.012 235.377,129.395 233.659,135.400 232.992 C 144.877 231.939,147.692 231.521,149.007 230.971 C 150.498 230.348,159.586 229.818,179.537 229.190 C 189.733 228.869,193.267 228.625,194.537 228.154 C 198.498 226.687,201.127 225.951,203.717 225.583 C 205.335 225.354,206.893 224.871,207.465 224.420 C 208.004 223.996,209.380 223.346,210.523 222.975 C 211.665 222.605,213.140 221.987,213.800 221.603 C 214.460 221.219,215.900 220.580,217.000 220.183 C 218.100 219.787,219.189 219.321,219.419 219.149 C 219.650 218.977,221.270 218.100,223.019 217.199 C 228.921 214.163,238.800 206.363,238.800 204.740 C 238.800 204.578,239.340 204.126,240.000 203.736 C 240.660 203.346,241.200 202.812,241.200 202.550 C 241.200 202.287,241.938 201.139,242.839 199.998 C 243.741 198.857,244.819 197.155,245.235 196.215 C 245.650 195.275,246.273 194.271,246.618 193.985 C 247.401 193.335,248.185 191.492,248.567 189.400 C 248.728 188.520,249.291 187.057,249.818 186.150 C 250.519 184.942,250.940 183.226,251.390 179.750 C 251.729 177.137,252.391 172.750,252.863 170.000 C 254.139 162.563,254.088 155.980,252.703 149.600 C 252.106 146.850,251.443 143.466,251.228 142.080 C 250.971 140.420,250.509 139.169,249.872 138.413 C 249.341 137.781,248.567 136.441,248.153 135.434 C 247.739 134.427,247.178 133.602,246.906 133.601 C 246.634 133.601,245.925 132.865,245.330 131.966 C 244.735 131.067,243.518 129.644,242.624 128.802 C 241.731 127.961,240.246 126.569,239.325 125.708 C 238.404 124.848,236.913 123.812,236.013 123.406 C 235.113 123.000,233.814 122.253,233.126 121.745 C 232.438 121.238,230.959 120.523,229.838 120.156 C 228.717 119.789,226.525 118.794,224.966 117.944 C 223.407 117.095,221.825 116.400,221.450 116.400 C 221.075 116.400,220.100 116.062,219.284 115.648 C 218.468 115.234,216.990 114.762,216.000 114.599 C 215.010 114.436,212.760 113.769,211.000 113.118 C 207.520 111.830,202.382 111.075,194.000 110.622 C 191.250 110.473,187.059 110.092,184.686 109.776 C 178.945 109.010,163.064 109.017,153.800 109.791 C 149.840 110.121,141.286 110.655,134.791 110.978 C 124.753 111.476,122.714 111.682,121.191 112.353 C 120.206 112.787,117.150 113.520,114.400 113.983 C 111.650 114.446,108.204 115.089,106.743 115.412 C 100.248 116.848,89.999 115.268,87.497 112.445 C 86.890 111.760,86.240 111.200,86.052 111.200 C 84.705 111.200,80.398 106.331,78.974 103.200 C 78.624 102.430,77.676 100.450,76.869 98.800 L 75.400 95.800 75.400 88.000 L 75.400 80.200 76.900 77.131 C 77.725 75.443,78.400 73.930,78.400 73.768 C 78.400 73.096,81.981 68.793,84.906 65.950 L 88.044 62.901 93.122 61.262 C 95.965 60.345,100.137 59.349,102.600 59.000 C 109.181 58.069,111.631 57.616,113.400 57.005 C 114.280 56.702,116.440 56.345,118.200 56.214 C 122.791 55.870,134.613 54.448,137.200 53.929 C 143.873 52.588,177.850 51.858,189.400 52.807 " stroke="none" fill="#dcf3f3" fill-rule="evenodd"></path><path id="path2" d="M154.200 55.230 C 143.092 55.794,128.770 57.006,124.000 57.787 C 122.130 58.093,119.610 58.456,118.400 58.595 C 117.190 58.733,115.030 59.099,113.600 59.410 C 112.170 59.720,108.750 60.180,106.000 60.432 C 102.544 60.749,100.281 61.181,98.672 61.829 C 97.391 62.345,94.986 63.139,93.328 63.594 C 81.785 66.761,74.296 82.311,77.966 95.490 C 82.311 111.092,95.601 117.241,113.200 111.794 C 115.041 111.224,125.943 109.958,135.600 109.192 C 138.570 108.957,143.970 108.393,147.600 107.939 C 153.229 107.235,156.349 107.117,168.800 107.138 C 182.827 107.161,185.863 107.341,193.600 108.606 C 195.470 108.911,197.990 109.259,199.200 109.378 C 208.185 110.264,212.326 110.927,214.445 111.819 C 215.711 112.352,218.154 113.163,219.874 113.621 C 232.448 116.973,244.309 125.456,249.966 135.142 C 259.303 151.129,256.014 187.643,243.943 202.005 C 235.437 212.125,231.163 215.600,220.400 221.144 C 218.750 221.994,216.680 222.920,215.800 223.203 C 214.920 223.485,213.003 224.323,211.540 225.065 C 210.077 225.807,207.287 226.763,205.340 227.190 C 203.393 227.618,200.641 228.445,199.225 229.030 C 196.769 230.043,196.094 230.117,184.625 230.633 C 164.649 231.532,160.785 231.858,147.800 233.740 C 145.380 234.090,140.880 234.666,137.800 235.020 C 130.705 235.833,129.172 236.173,126.132 237.606 C 124.775 238.245,123.155 238.891,122.532 239.041 C 115.725 240.679,108.574 251.439,107.779 261.238 C 106.782 273.543,115.052 287.044,125.027 289.393 C 129.774 290.511,151.705 289.524,166.200 287.541 C 169.500 287.089,174.000 286.472,176.200 286.169 C 187.920 284.555,204.319 285.359,208.071 287.731 C 208.582 288.054,210.509 288.617,212.354 288.982 C 217.099 289.922,224.245 292.435,229.471 295.003 C 231.930 296.211,234.090 297.202,234.271 297.204 C 234.452 297.207,235.680 298.024,237.000 299.021 C 238.320 300.018,240.164 301.176,241.098 301.594 C 242.032 302.012,243.817 303.084,245.063 303.977 C 246.310 304.870,247.549 305.600,247.817 305.600 C 248.085 305.600,249.034 306.275,249.926 307.100 C 258.561 315.081,262.023 318.473,263.101 320.007 C 263.800 321.001,265.143 322.738,266.086 323.868 C 268.445 326.696,273.169 334.174,274.128 336.600 C 274.563 337.700,275.324 339.410,275.819 340.400 C 276.315 341.390,277.083 343.370,277.528 344.800 C 277.972 346.230,278.786 348.660,279.337 350.200 C 283.285 361.234,281.758 381.401,275.989 394.400 C 275.355 395.830,274.474 397.810,274.033 398.800 C 272.945 401.238,270.757 404.669,266.753 410.214 C 264.909 412.767,262.569 416.064,261.554 417.540 C 260.539 419.015,259.009 420.743,258.154 421.378 C 257.299 422.014,256.060 423.040,255.400 423.658 C 247.756 430.823,244.589 433.575,242.577 434.799 C 241.710 435.327,240.370 436.232,239.600 436.811 C 235.321 440.027,231.198 442.790,229.815 443.368 C 228.951 443.729,227.693 444.441,227.022 444.950 C 225.044 446.448,224.056 446.853,221.497 447.215 C 217.197 447.822,215.515 446.404,208.521 436.273 C 206.567 433.442,205.426 431.991,201.501 427.347 C 191.306 415.283,184.774 408.343,178.400 402.806 C 176.530 401.181,174.763 399.523,174.474 399.121 C 174.184 398.718,173.194 398.005,172.274 397.536 C 171.353 397.067,169.822 396.089,168.872 395.364 C 167.921 394.638,166.301 393.740,165.272 393.368 C 164.242 392.995,162.230 392.186,160.800 391.569 C 153.371 388.363,144.181 388.474,137.558 391.849 C 136.100 392.592,134.683 393.200,134.409 393.200 C 133.631 393.200,128.108 399.066,126.933 401.139 C 126.354 402.163,125.386 403.810,124.783 404.800 C 114.878 421.061,119.251 456.103,133.124 471.640 C 138.148 477.267,148.866 486.479,152.028 487.889 C 153.002 488.323,154.610 489.364,155.600 490.201 C 156.590 491.038,158.390 492.174,159.600 492.726 C 160.810 493.277,162.700 494.293,163.800 494.984 C 166.199 496.489,167.433 497.005,170.600 497.822 C 171.920 498.162,173.555 498.768,174.233 499.167 C 176.116 500.277,177.809 500.730,182.529 501.386 C 184.910 501.718,186.995 502.073,187.162 502.177 C 187.330 502.280,189.701 502.746,192.433 503.213 C 198.625 504.270,200.730 505.734,204.151 511.364 C 204.564 512.044,205.420 513.192,206.052 513.915 C 206.684 514.638,207.675 516.164,208.253 517.306 C 208.832 518.447,210.002 520.207,210.853 521.217 C 211.704 522.226,212.400 523.181,212.400 523.340 C 212.400 523.499,213.303 524.807,214.406 526.247 C 215.510 527.687,216.707 529.435,217.066 530.132 C 217.825 531.607,220.648 535.892,222.380 538.200 C 223.421 539.587,228.033 546.621,232.438 553.538 C 233.187 554.714,234.387 556.473,235.104 557.447 C 235.821 558.420,237.158 560.608,238.076 562.308 C 238.993 564.009,240.297 566.240,240.972 567.266 C 242.830 570.091,244.920 573.438,250.419 582.400 C 250.622 582.730,251.266 583.810,251.851 584.800 C 252.437 585.790,253.339 587.240,253.858 588.022 C 254.376 588.803,254.800 589.639,254.800 589.877 C 254.800 590.116,255.569 591.367,256.509 592.656 C 258.648 595.591,261.360 600.111,262.214 602.164 C 264.606 607.917,272.548 617.178,276.653 619.002 C 298.538 628.726,316.359 602.248,303.309 579.400 C 302.303 577.640,300.698 574.775,299.742 573.033 C 298.785 571.291,297.752 569.581,297.446 569.233 C 297.140 568.885,296.328 567.520,295.642 566.200 C 294.955 564.880,293.649 562.630,292.739 561.200 C 290.923 558.345,288.955 554.991,287.107 551.600 C 286.448 550.390,284.787 547.690,283.416 545.600 C 282.045 543.510,280.640 541.252,280.293 540.581 C 279.947 539.911,278.689 537.914,277.497 536.145 C 276.306 534.375,274.728 531.863,273.990 530.564 C 272.704 528.296,270.809 525.383,266.289 518.722 C 265.140 517.029,263.342 514.239,262.293 512.522 C 261.244 510.805,259.499 508.050,258.415 506.400 C 257.330 504.750,255.806 502.359,255.026 501.086 C 254.247 499.814,253.161 498.325,252.613 497.777 C 249.448 494.612,249.754 489.889,253.246 488.018 C 257.647 485.659,265.048 480.486,268.400 477.427 C 268.950 476.925,270.158 476.073,271.085 475.534 C 272.923 474.466,283.887 464.548,287.776 460.436 C 289.109 459.026,291.414 456.596,292.898 455.036 C 294.383 453.476,295.598 452.061,295.598 451.891 C 295.599 451.721,296.295 450.821,297.145 449.891 C 299.472 447.344,308.522 433.743,310.844 429.304 C 311.967 427.157,313.021 425.220,313.187 425.000 C 313.644 424.394,316.312 418.237,317.794 414.369 C 318.517 412.481,319.428 410.321,319.818 409.569 C 320.209 408.816,320.927 406.400,321.414 404.200 C 321.901 402.000,322.700 399.120,323.189 397.800 C 323.678 396.480,324.245 393.780,324.451 391.800 C 324.656 389.820,325.116 386.310,325.474 384.000 C 325.832 381.690,326.263 378.900,326.433 377.800 C 327.256 372.464,326.724 357.327,325.434 349.400 C 325.112 347.420,324.664 344.329,324.438 342.532 C 324.213 340.734,323.493 337.638,322.838 335.651 C 322.183 333.664,321.458 331.014,321.227 329.762 C 320.995 328.509,320.337 326.476,319.765 325.242 C 319.192 324.009,318.452 322.100,318.120 321.000 C 317.789 319.900,316.455 317.002,315.158 314.561 C 313.860 312.120,312.560 309.330,312.268 308.361 C 311.976 307.392,311.212 305.790,310.569 304.800 C 309.926 303.810,308.860 302.076,308.200 300.946 C 306.441 297.934,303.918 294.220,303.524 294.064 C 303.336 293.989,302.127 292.336,300.837 290.391 C 297.779 285.781,295.757 283.345,291.546 279.200 C 289.646 277.330,286.696 274.281,284.991 272.424 C 283.286 270.568,280.880 268.361,279.645 267.520 C 276.175 265.157,274.704 264.051,273.400 262.823 C 272.740 262.201,270.619 260.578,268.686 259.217 C 266.749 257.852,264.709 256.041,264.140 255.180 L 263.107 253.620 264.253 252.238 C 267.315 248.549,271.897 243.638,272.711 243.173 C 273.212 242.887,274.132 241.823,274.757 240.809 C 275.381 239.794,276.736 237.928,277.768 236.661 C 278.800 235.394,280.522 232.972,281.594 231.279 C 282.666 229.585,284.074 227.462,284.721 226.559 C 285.369 225.657,286.128 224.217,286.408 223.359 C 286.688 222.502,288.063 219.398,289.465 216.462 C 298.564 197.401,302.943 163.853,299.393 140.400 C 298.306 133.216,296.871 126.595,295.797 123.800 C 295.205 122.260,294.189 119.567,293.540 117.815 C 292.892 116.064,292.033 114.084,291.634 113.415 C 291.234 112.747,289.703 109.900,288.233 107.089 C 284.785 100.500,283.673 98.845,280.233 95.185 C 278.675 93.527,276.320 90.784,275.000 89.088 C 273.680 87.393,272.500 86.004,272.378 86.003 C 272.256 86.001,271.446 85.346,270.578 84.546 C 269.710 83.746,268.280 82.627,267.400 82.059 C 266.520 81.491,264.810 80.203,263.600 79.195 C 260.212 76.376,255.582 73.405,253.432 72.673 C 252.364 72.309,250.888 71.552,250.151 70.990 C 249.415 70.428,248.081 69.711,247.186 69.395 C 246.291 69.079,243.723 67.944,241.479 66.872 C 231.360 62.036,213.875 57.921,196.200 56.216 C 192.460 55.856,187.870 55.390,186.000 55.181 C 182.116 54.748,163.129 54.777,154.200 55.230 M196.200 57.654 C 203.965 58.372,205.691 58.650,207.265 59.438 C 208.820 60.216,210.121 60.433,215.094 60.742 C 220.667 61.088,221.199 61.193,223.231 62.339 C 224.427 63.014,226.664 63.853,228.202 64.202 C 232.703 65.226,237.647 66.796,239.800 67.885 C 240.900 68.442,243.134 69.327,244.764 69.851 C 246.524 70.418,247.967 71.147,248.317 71.645 C 248.971 72.579,251.117 73.600,252.426 73.600 C 252.894 73.600,254.050 74.275,254.995 75.100 C 255.940 75.925,257.408 76.953,258.256 77.385 C 259.894 78.219,262.732 80.258,263.400 81.081 C 263.620 81.352,264.493 81.860,265.340 82.209 C 266.936 82.867,271.426 87.117,274.204 90.600 C 275.082 91.700,276.700 93.533,277.800 94.673 C 282.081 99.112,284.468 102.376,286.231 106.200 C 286.737 107.300,287.522 108.740,287.974 109.400 C 288.427 110.060,289.003 111.230,289.255 112.000 C 289.507 112.770,290.218 114.120,290.834 115.000 C 291.449 115.880,292.247 117.770,292.606 119.200 C 292.965 120.630,293.668 122.520,294.167 123.400 C 295.273 125.350,295.882 127.712,296.221 131.366 C 296.362 132.887,296.746 134.957,297.074 135.966 C 299.586 143.693,300.046 173.546,297.778 181.655 C 297.165 183.846,297.047 184.516,295.579 194.133 C 295.075 197.437,294.435 200.176,293.992 200.933 C 293.583 201.630,292.852 203.820,292.367 205.800 C 291.882 207.780,291.241 209.684,290.942 210.032 C 290.644 210.379,289.933 211.819,289.364 213.232 C 286.568 220.165,282.682 227.753,280.933 229.696 C 280.486 230.193,280.021 230.870,279.901 231.200 C 279.781 231.530,278.482 233.316,277.014 235.170 C 275.546 237.023,274.003 239.210,273.585 240.029 C 273.167 240.849,272.234 241.885,271.512 242.332 C 270.273 243.099,265.965 247.574,263.939 250.200 C 263.430 250.860,262.606 251.848,262.107 252.396 C 260.976 253.638,260.953 253.424,262.500 256.002 C 263.793 258.156,265.437 259.545,268.717 261.250 C 269.662 261.742,270.832 262.534,271.317 263.011 C 271.803 263.488,273.008 264.401,273.997 265.039 C 274.985 265.678,276.216 266.695,276.732 267.300 C 277.249 267.905,277.920 268.400,278.223 268.400 C 278.827 268.400,291.739 281.171,294.000 284.004 C 294.770 284.969,295.964 286.320,296.653 287.008 C 297.342 287.695,298.201 288.784,298.561 289.429 C 298.922 290.073,300.207 291.950,301.417 293.600 C 302.627 295.250,303.928 297.125,304.309 297.766 C 304.689 298.407,305.552 299.577,306.226 300.366 C 306.900 301.155,307.925 302.818,308.503 304.062 C 309.081 305.306,309.730 306.433,309.946 306.566 C 310.161 306.700,310.737 308.022,311.225 309.504 C 312.113 312.201,314.703 317.358,316.073 319.154 C 316.473 319.679,316.804 320.489,316.808 320.954 C 316.820 322.140,318.632 327.149,319.336 327.942 C 319.657 328.304,320.125 329.938,320.375 331.573 C 320.625 333.209,321.285 335.819,321.842 337.373 C 322.900 340.328,323.072 341.350,324.268 351.800 C 325.151 359.516,325.285 376.893,324.488 380.334 C 324.216 381.508,323.800 385.198,323.562 388.534 C 323.305 392.145,322.917 394.935,322.604 395.427 C 321.843 396.621,320.544 401.041,320.200 403.600 C 320.038 404.810,319.546 406.509,319.106 407.375 C 318.667 408.241,317.951 410.041,317.514 411.375 C 317.078 412.709,316.007 415.330,315.135 417.200 C 312.996 421.783,312.491 422.894,312.224 423.600 C 312.099 423.930,311.455 425.100,310.793 426.200 C 310.131 427.300,309.112 429.190,308.529 430.400 C 307.946 431.610,307.134 433.050,306.725 433.600 C 305.451 435.312,301.800 440.950,301.285 442.000 C 299.923 444.775,292.030 454.409,290.519 455.139 C 290.035 455.374,289.334 456.158,288.961 456.883 C 288.173 458.416,285.984 460.545,280.619 465.000 C 278.499 466.760,275.585 469.510,274.144 471.112 C 272.702 472.713,270.775 474.402,269.861 474.865 C 268.948 475.329,267.625 476.178,266.923 476.754 C 266.221 477.329,264.725 478.430,263.600 479.200 C 260.660 481.211,255.967 484.701,254.800 485.745 C 254.250 486.237,252.975 486.949,251.968 487.327 C 247.151 489.134,247.368 494.164,252.521 500.205 C 253.270 501.082,254.191 502.399,254.568 503.131 C 254.944 503.863,255.871 505.272,256.626 506.262 C 257.382 507.251,258.004 508.272,258.009 508.531 C 258.014 508.789,258.381 509.450,258.825 510.000 C 260.032 511.494,262.064 514.719,263.362 517.200 C 263.996 518.410,264.829 519.760,265.213 520.200 C 266.958 522.195,270.234 526.765,271.091 528.400 C 272.424 530.943,276.421 537.268,277.916 539.200 C 278.341 539.750,279.189 541.190,279.800 542.400 C 280.411 543.610,281.253 545.050,281.673 545.600 C 283.160 547.552,285.328 550.974,286.469 553.172 C 288.559 557.198,291.258 561.829,293.900 565.927 C 294.835 567.376,295.600 568.790,295.600 569.067 C 295.600 569.345,296.140 570.188,296.801 570.940 C 297.462 571.693,298.463 573.315,299.027 574.546 C 299.591 575.777,300.208 576.882,300.400 577.000 C 300.592 577.118,301.204 578.211,301.761 579.428 C 302.318 580.645,303.113 582.126,303.526 582.720 C 305.813 586.004,306.629 597.712,305.007 603.971 C 304.313 606.652,301.384 612.403,300.426 612.969 C 300.081 613.173,299.260 613.906,298.600 614.600 C 290.789 622.805,273.816 619.817,268.446 609.291 C 267.987 608.391,267.427 607.540,267.201 607.401 C 266.694 607.087,264.000 602.913,264.000 602.441 C 264.000 602.252,263.735 601.878,263.411 601.609 C 263.086 601.340,262.710 600.526,262.574 599.801 C 262.318 598.436,259.386 593.985,257.231 591.689 C 256.554 590.967,256.000 590.031,256.000 589.608 C 256.000 588.474,255.181 586.776,253.916 585.286 C 253.302 584.563,252.800 583.749,252.800 583.477 C 252.800 583.205,252.285 582.356,251.655 581.591 C 251.025 580.826,249.940 579.120,249.243 577.800 C 247.333 574.179,245.395 571.132,244.662 570.596 C 244.301 570.332,243.647 569.304,243.208 568.311 C 242.769 567.318,242.130 566.273,241.788 565.990 C 241.446 565.706,240.545 564.197,239.786 562.637 C 239.027 561.077,237.868 558.990,237.211 558.000 C 236.554 557.010,235.518 555.317,234.908 554.239 C 234.299 553.160,233.215 551.608,232.500 550.790 C 231.785 549.972,231.200 549.118,231.200 548.892 C 231.200 548.665,230.525 547.575,229.700 546.467 C 228.875 545.360,227.660 543.602,227.000 542.561 C 226.340 541.520,225.350 540.005,224.800 539.195 C 224.250 538.386,223.108 536.661,222.262 535.362 C 221.415 534.063,220.388 532.550,219.978 532.000 C 219.568 531.450,218.661 530.010,217.962 528.800 C 217.263 527.590,216.241 526.150,215.690 525.600 C 215.139 525.050,214.454 524.046,214.167 523.368 C 213.881 522.691,213.366 521.904,213.023 521.619 C 212.680 521.335,212.400 520.921,212.400 520.700 C 212.400 520.478,211.750 519.577,210.955 518.697 C 210.160 517.818,209.166 516.321,208.746 515.371 C 208.326 514.421,207.534 513.292,206.987 512.861 C 206.440 512.431,205.731 511.476,205.412 510.739 C 202.535 504.094,197.551 501.517,185.400 500.393 C 179.852 499.880,177.894 499.439,176.442 498.375 C 175.869 497.955,173.870 497.235,172.000 496.775 C 170.130 496.315,168.240 495.606,167.800 495.200 C 166.673 494.160,161.993 491.737,160.147 491.238 C 159.296 491.007,157.759 490.122,156.730 489.271 C 155.702 488.419,154.262 487.483,153.530 487.190 C 151.891 486.534,147.934 483.511,144.153 480.025 C 142.587 478.581,140.460 476.680,139.426 475.800 C 135.439 472.405,130.053 465.736,130.012 464.145 C 130.005 463.895,129.339 462.729,128.532 461.556 C 127.725 460.382,126.627 458.247,126.094 456.811 C 124.236 451.812,123.221 448.594,123.187 447.600 C 123.169 447.050,122.799 445.340,122.365 443.800 C 120.572 437.436,120.428 436.312,120.414 428.520 C 120.399 420.525,120.736 417.737,122.053 414.938 C 122.483 414.023,123.165 412.133,123.568 410.738 C 123.971 409.342,124.908 407.270,125.650 406.133 C 126.393 404.996,127.810 402.791,128.800 401.234 C 129.790 399.677,131.104 398.030,131.720 397.575 C 132.336 397.119,133.000 396.327,133.195 395.814 C 133.458 395.120,134.245 394.654,136.274 393.987 C 137.774 393.494,139.471 392.854,140.046 392.563 C 143.693 390.723,152.583 390.556,157.287 392.239 C 158.229 392.577,160.584 393.280,162.521 393.803 C 164.975 394.466,166.461 395.122,167.426 395.969 C 168.188 396.638,169.393 397.479,170.105 397.839 C 170.817 398.199,171.861 398.967,172.424 399.547 C 174.595 401.781,180.103 406.624,181.029 407.113 C 181.563 407.395,182.000 407.757,182.000 407.917 C 182.000 408.078,184.025 410.325,186.500 412.911 C 188.975 415.497,191.900 418.664,193.000 419.949 C 194.100 421.235,195.494 422.627,196.099 423.043 C 196.703 423.459,197.198 424.019,197.199 424.287 C 197.199 424.554,198.015 425.691,199.012 426.813 C 200.008 427.935,201.243 429.516,201.755 430.327 C 202.267 431.137,203.699 432.790,204.937 434.000 C 206.175 435.210,207.191 436.419,207.194 436.686 C 207.197 436.953,207.717 437.763,208.349 438.486 C 208.981 439.209,210.016 440.617,210.649 441.615 C 215.599 449.419,221.471 450.814,228.323 445.814 C 229.051 445.283,230.491 444.530,231.523 444.140 C 233.061 443.560,236.783 441.276,237.600 440.412 C 237.710 440.295,238.700 439.491,239.800 438.625 C 240.900 437.759,242.122 436.724,242.515 436.325 C 242.909 435.927,243.921 435.248,244.766 434.817 C 245.610 434.387,246.404 433.766,246.530 433.438 C 246.656 433.110,247.345 432.539,248.061 432.168 C 248.777 431.798,250.587 430.304,252.083 428.848 C 254.865 426.141,257.468 423.778,260.056 421.613 C 260.856 420.943,261.829 419.721,262.218 418.898 C 262.607 418.074,263.242 417.175,263.630 416.900 C 264.017 416.625,264.741 415.725,265.238 414.900 C 265.735 414.075,266.388 413.130,266.690 412.800 C 266.991 412.470,267.775 411.390,268.432 410.400 C 270.436 407.378,272.322 404.656,273.198 403.518 C 273.656 402.923,274.383 401.413,274.813 400.162 C 275.244 398.911,275.822 397.616,276.098 397.285 C 279.268 393.487,282.694 378.738,283.086 367.200 C 283.270 361.785,283.120 360.110,282.065 355.800 C 281.850 354.920,281.371 352.801,281.001 351.092 C 280.631 349.382,279.923 347.221,279.427 346.290 C 278.932 345.358,278.297 343.607,278.015 342.398 C 277.734 341.189,276.997 339.360,276.377 338.334 C 275.756 337.307,275.058 335.757,274.824 334.888 C 274.590 334.019,273.840 332.608,273.159 331.754 C 272.477 330.899,271.478 329.390,270.939 328.400 C 269.044 324.917,268.055 323.454,266.814 322.294 C 266.126 321.651,265.145 320.466,264.636 319.662 C 262.511 316.309,250.254 304.911,248.367 304.533 C 247.797 304.419,246.648 303.623,245.813 302.763 C 244.979 301.903,244.126 301.200,243.918 301.200 C 243.368 301.200,237.851 297.908,237.518 297.381 C 237.363 297.136,236.013 296.426,234.518 295.803 C 233.023 295.181,231.505 294.421,231.145 294.114 C 230.158 293.275,222.232 290.039,218.600 288.992 C 216.840 288.485,212.970 287.267,210.000 286.286 C 201.573 283.502,185.524 282.655,174.200 284.397 C 171.234 284.853,163.121 285.785,156.800 286.396 C 154.710 286.598,150.480 287.142,147.400 287.604 C 143.470 288.195,139.533 288.469,134.200 288.523 L 126.600 288.600 123.834 287.290 C 122.313 286.570,120.332 285.310,119.432 284.490 C 118.533 283.671,117.160 282.572,116.381 282.049 C 113.400 280.046,108.819 268.670,108.804 263.232 C 108.780 254.463,117.134 241.266,123.513 239.996 C 124.771 239.746,126.911 239.016,128.269 238.373 C 131.012 237.076,133.883 236.591,141.000 236.221 C 143.640 236.084,148.500 235.618,151.800 235.187 C 162.385 233.803,164.054 233.643,172.400 233.208 C 189.538 232.315,200.344 231.015,203.400 229.477 C 204.280 229.035,206.610 228.251,208.578 227.736 C 210.546 227.222,212.812 226.346,213.614 225.790 C 214.416 225.235,216.227 224.450,217.638 224.046 C 220.664 223.181,223.860 221.633,226.501 219.753 C 227.546 219.009,228.563 218.400,228.760 218.400 C 230.183 218.400,244.000 205.219,244.000 203.862 C 244.000 203.548,244.457 202.992,245.016 202.626 C 245.575 202.260,246.328 201.340,246.690 200.580 C 247.052 199.821,247.505 199.200,247.696 199.200 C 248.067 199.200,250.000 195.097,250.000 194.310 C 250.000 194.053,250.456 193.186,251.012 192.382 C 251.624 191.499,252.188 189.907,252.437 188.360 C 252.663 186.952,253.316 184.450,253.889 182.800 C 255.894 177.019,256.057 175.653,256.279 162.789 C 256.515 149.110,256.243 146.107,254.398 142.000 C 253.756 140.570,252.938 138.472,252.582 137.338 C 252.225 136.204,251.498 134.868,250.966 134.368 C 250.435 133.869,250.000 133.218,250.000 132.922 C 250.000 130.970,242.422 123.050,238.999 121.426 C 238.229 121.061,237.600 120.606,237.600 120.416 C 237.600 120.225,236.678 119.468,235.551 118.734 C 229.957 115.091,227.434 113.979,222.487 112.976 C 220.789 112.632,218.579 111.928,217.576 111.411 C 214.838 110.001,212.789 109.569,207.242 109.229 C 202.872 108.961,201.922 108.774,200.113 107.825 C 198.423 106.938,197.206 106.664,193.713 106.381 C 191.341 106.189,186.754 105.817,183.519 105.553 C 169.950 104.446,136.198 106.169,131.290 108.220 C 129.548 108.948,123.908 109.581,119.000 109.600 C 115.348 109.614,110.061 110.560,106.824 111.780 C 102.804 113.294,96.349 112.536,90.238 109.834 C 87.843 108.775,87.282 108.300,84.721 105.172 C 83.389 103.544,82.859 102.698,80.409 98.284 C 79.292 96.272,78.667 90.957,78.881 85.296 C 79.109 79.274,81.158 74.979,86.182 69.989 L 89.364 66.827 97.982 64.044 L 106.600 61.260 114.400 60.798 C 121.864 60.356,126.057 59.767,128.586 58.805 C 134.011 56.743,178.196 55.990,196.200 57.654 " stroke="none" fill="#646464" fill-rule="evenodd"></path><path id="path3" d="M145.200 52.997 C 142.010 53.266,138.410 53.686,137.200 53.929 C 134.613 54.448,122.791 55.870,118.200 56.214 C 116.440 56.345,114.280 56.702,113.400 57.005 C 111.631 57.616,109.181 58.069,102.600 59.000 C 100.137 59.349,95.965 60.345,93.122 61.262 L 88.044 62.901 84.906 65.950 C 81.981 68.793,78.400 73.096,78.400 73.768 C 78.400 73.930,77.725 75.443,76.900 77.131 L 75.400 80.200 75.400 88.000 L 75.400 95.800 76.869 98.800 C 77.676 100.450,78.624 102.430,78.974 103.200 C 80.398 106.331,84.705 111.200,86.052 111.200 C 86.240 111.200,86.890 111.760,87.497 112.445 C 89.999 115.268,100.248 116.848,106.743 115.412 C 108.204 115.089,111.650 114.446,114.400 113.983 C 117.150 113.520,120.206 112.787,121.191 112.353 C 122.714 111.682,124.753 111.476,134.791 110.978 C 141.286 110.655,149.840 110.121,153.800 109.791 C 163.064 109.017,178.945 109.010,184.686 109.776 C 187.059 110.092,191.250 110.473,194.000 110.622 C 202.382 111.075,207.520 111.830,211.000 113.118 C 212.760 113.769,215.010 114.436,216.000 114.599 C 216.990 114.762,218.468 115.234,219.284 115.648 C 220.100 116.062,221.075 116.400,221.450 116.400 C 221.825 116.400,223.407 117.095,224.966 117.944 C 226.525 118.794,228.717 119.789,229.838 120.156 C 230.959 120.523,232.438 121.238,233.126 121.745 C 233.814 122.253,235.113 123.000,236.013 123.406 C 236.913 123.812,238.404 124.848,239.325 125.708 C 240.246 126.569,241.731 127.961,242.624 128.802 C 243.518 129.644,244.735 131.067,245.330 131.966 C 245.925 132.865,246.634 133.601,246.906 133.601 C 247.178 133.602,247.739 134.427,248.153 135.434 C 248.567 136.441,249.341 137.781,249.872 138.413 C 250.509 139.169,250.971 140.420,251.228 142.080 C 251.443 143.466,252.106 146.850,252.703 149.600 C 254.088 155.980,254.139 162.563,252.863 170.000 C 252.391 172.750,251.729 177.137,251.390 179.750 C 250.940 183.226,250.519 184.942,249.818 186.150 C 249.291 187.057,248.728 188.520,248.567 189.400 C 248.185 191.492,247.401 193.335,246.618 193.985 C 246.273 194.271,245.650 195.275,245.235 196.215 C 244.819 197.155,243.741 198.857,242.839 199.998 C 241.938 201.139,241.200 202.287,241.200 202.550 C 241.200 202.812,240.660 203.346,240.000 203.736 C 239.340 204.126,238.800 204.578,238.800 204.740 C 238.800 206.363,228.921 214.163,223.019 217.199 C 221.270 218.100,219.650 218.977,219.419 219.149 C 219.189 219.321,218.100 219.787,217.000 220.183 C 215.900 220.580,214.460 221.219,213.800 221.603 C 213.140 221.987,211.665 222.605,210.523 222.975 C 209.380 223.346,208.004 223.996,207.465 224.420 C 206.893 224.871,205.335 225.354,203.717 225.583 C 201.127 225.951,198.498 226.687,194.537 228.154 C 193.267 228.625,189.733 228.869,179.537 229.190 C 159.586 229.818,150.498 230.348,149.007 230.971 C 147.692 231.521,144.877 231.939,135.400 232.992 C 129.395 233.659,124.012 235.377,121.600 237.395 C 121.270 237.671,120.048 238.207,118.885 238.586 C 117.652 238.987,116.517 239.661,116.163 240.201 C 115.829 240.710,114.935 241.549,114.177 242.064 C 113.419 242.579,112.683 243.360,112.542 243.800 C 112.401 244.240,111.931 244.970,111.498 245.421 C 111.065 245.873,110.260 247.311,109.709 248.616 C 109.159 249.922,108.384 251.402,107.989 251.905 C 104.280 256.620,106.519 277.152,111.186 281.224 C 111.579 281.567,112.187 282.402,112.538 283.079 C 113.877 285.669,118.749 289.533,121.800 290.426 C 123.340 290.876,125.279 291.505,126.108 291.822 C 128.097 292.584,134.315 292.582,139.200 291.819 C 141.290 291.492,146.600 291.033,151.000 290.799 C 171.639 289.700,172.640 289.620,175.776 288.812 C 183.429 286.840,196.269 286.893,202.400 288.920 C 203.390 289.248,206.630 289.972,209.600 290.530 C 212.570 291.088,216.350 291.993,218.000 292.541 C 219.650 293.089,221.481 293.641,222.069 293.769 C 222.657 293.896,223.681 294.456,224.344 295.014 C 225.519 296.003,233.243 299.600,234.191 299.600 C 234.453 299.600,235.438 300.312,236.381 301.183 C 237.630 302.335,238.578 302.838,239.871 303.031 C 241.065 303.211,241.835 303.587,242.225 304.181 C 242.543 304.667,243.734 305.500,244.871 306.032 C 246.029 306.575,248.202 308.231,249.814 309.800 C 254.782 314.637,256.303 316.000,256.731 316.000 C 256.959 316.000,257.264 316.370,257.407 316.823 C 257.551 317.275,258.297 317.945,259.066 318.312 C 259.904 318.712,260.672 319.476,260.983 320.220 C 261.626 321.759,265.117 326.393,265.843 326.672 C 266.138 326.785,266.839 327.850,267.401 329.039 C 267.963 330.227,268.607 331.200,268.832 331.200 C 269.057 331.200,269.521 331.875,269.864 332.700 C 270.207 333.525,271.018 334.990,271.667 335.955 C 272.316 336.919,273.124 338.539,273.463 339.555 C 273.803 340.570,274.496 342.238,275.004 343.261 C 275.512 344.285,276.239 346.535,276.618 348.261 C 276.998 349.988,277.632 352.120,278.026 353.000 C 279.810 356.977,280.208 375.807,278.597 380.000 C 278.216 380.990,277.416 383.690,276.819 386.000 C 276.221 388.310,275.457 390.740,275.121 391.400 C 274.784 392.060,274.114 393.801,273.632 395.270 C 273.150 396.738,272.481 398.167,272.146 398.445 C 271.811 398.722,271.079 399.855,270.518 400.961 C 269.958 402.067,268.993 403.609,268.375 404.386 C 267.756 405.164,267.127 406.305,266.976 406.923 C 266.825 407.541,266.310 408.303,265.831 408.617 C 265.351 408.931,264.640 409.911,264.250 410.796 C 263.860 411.680,263.201 412.586,262.785 412.808 C 262.370 413.030,261.495 413.974,260.841 414.906 C 259.525 416.782,252.971 423.664,251.955 424.236 C 251.299 424.606,245.552 429.774,242.765 432.500 C 241.922 433.325,240.946 434.000,240.596 434.000 C 240.246 434.000,239.312 434.630,238.519 435.400 C 237.726 436.170,236.826 436.800,236.519 436.800 C 235.729 436.800,233.547 437.968,232.600 438.898 C 232.160 439.330,230.090 440.673,228.000 441.881 C 225.910 443.089,223.828 444.420,223.374 444.839 C 221.430 446.631,218.914 445.789,215.656 442.255 C 215.075 441.626,214.105 440.577,213.500 439.925 C 212.895 439.272,212.400 438.568,212.400 438.360 C 212.400 438.152,211.682 437.203,210.805 436.252 C 209.928 435.300,208.952 433.905,208.638 433.152 C 208.323 432.400,207.665 431.427,207.176 430.992 C 206.686 430.556,205.953 429.660,205.547 429.000 C 205.141 428.340,203.736 426.630,202.424 425.200 C 198.978 421.443,197.076 419.193,195.999 417.600 C 195.061 416.212,193.104 413.962,192.055 413.066 C 191.435 412.535,190.829 411.932,185.703 406.743 C 183.669 404.684,181.329 402.423,180.503 401.718 C 179.676 401.014,177.906 399.466,176.570 398.279 C 175.233 397.093,173.614 395.990,172.972 395.829 C 172.330 395.668,171.354 395.014,170.802 394.375 C 169.291 392.625,160.004 388.161,156.670 387.582 C 151.241 386.638,141.446 387.216,138.365 388.661 C 133.211 391.079,126.455 396.918,125.200 400.040 C 124.900 400.788,124.254 401.888,123.766 402.484 C 123.278 403.081,122.575 404.431,122.204 405.484 C 121.833 406.538,121.368 407.670,121.170 408.000 C 119.863 410.180,119.567 411.189,118.984 415.447 C 118.626 418.061,118.078 420.879,117.766 421.708 C 116.998 423.754,116.996 433.442,117.763 436.416 C 118.073 437.617,118.632 441.030,119.006 444.000 C 119.517 448.071,119.960 449.991,120.804 451.800 C 121.420 453.120,122.148 455.343,122.422 456.741 C 122.696 458.138,123.306 459.758,123.778 460.341 C 124.250 460.923,124.975 462.210,125.390 463.200 C 125.805 464.190,126.546 465.551,127.036 466.225 C 127.526 466.899,128.186 468.069,128.502 468.825 C 129.004 470.026,131.558 472.946,137.400 479.000 C 140.584 482.300,144.402 485.514,145.450 485.777 C 146.039 485.925,146.886 486.509,147.331 487.076 C 147.777 487.643,149.055 488.516,150.171 489.015 C 151.287 489.515,152.920 490.676,153.800 491.596 C 155.382 493.249,157.857 494.800,158.914 494.800 C 159.214 494.800,160.345 495.430,161.428 496.200 C 162.511 496.970,163.602 497.600,163.853 497.600 C 164.731 497.600,168.606 498.943,169.222 499.460 C 171.209 501.130,178.668 503.259,188.600 504.991 C 198.002 506.631,198.245 506.761,202.146 512.200 C 203.566 514.180,205.113 516.220,205.584 516.734 C 206.055 517.248,206.858 518.598,207.369 519.734 C 207.880 520.870,208.677 522.024,209.139 522.298 C 209.602 522.571,210.332 523.483,210.761 524.324 C 211.190 525.165,211.840 526.101,212.205 526.404 C 212.570 526.707,213.221 527.705,213.652 528.621 C 214.082 529.537,214.772 530.648,215.184 531.091 C 215.596 531.533,216.396 532.808,216.962 533.925 C 217.528 535.042,218.238 536.100,218.541 536.278 C 218.844 536.455,219.374 537.140,219.720 537.800 C 220.065 538.460,220.794 539.470,221.339 540.045 C 221.885 540.620,222.793 542.003,223.358 543.117 C 223.923 544.232,224.563 545.254,224.781 545.388 C 224.999 545.523,225.516 546.400,225.931 547.337 C 226.345 548.274,227.226 549.661,227.888 550.420 C 228.551 551.179,229.463 552.532,229.917 553.427 C 230.370 554.321,231.025 555.289,231.371 555.576 C 231.717 555.863,232.000 556.312,232.000 556.573 C 232.000 556.834,232.806 557.992,233.791 559.146 C 234.776 560.300,235.943 562.000,236.384 562.922 C 237.859 566.010,240.038 569.796,240.581 570.214 C 240.876 570.441,241.415 571.341,241.780 572.214 C 242.144 573.086,242.864 574.250,243.378 574.800 C 243.893 575.350,244.791 576.753,245.373 577.919 C 245.956 579.084,246.687 580.135,246.997 580.254 C 247.307 580.373,247.764 581.085,248.012 581.836 C 248.260 582.587,249.043 584.056,249.754 585.100 C 250.464 586.145,251.276 587.572,251.559 588.271 C 251.842 588.970,252.417 589.853,252.837 590.234 C 253.257 590.614,254.042 591.858,254.582 592.998 C 255.121 594.138,255.814 595.279,256.121 595.534 C 256.428 595.789,257.273 597.168,257.999 598.599 C 258.726 600.029,259.458 601.200,259.627 601.200 C 259.796 601.200,260.255 602.055,260.647 603.100 C 261.040 604.145,262.045 606.012,262.881 607.249 C 263.716 608.485,264.400 609.667,264.400 609.874 C 264.400 610.081,264.940 610.768,265.600 611.400 C 266.260 612.032,266.800 612.763,266.800 613.025 C 266.800 613.590,270.819 617.643,273.268 619.547 C 276.909 622.380,279.701 623.341,284.800 623.519 C 289.577 623.685,289.380 623.723,294.891 621.583 C 299.041 619.972,305.133 613.888,306.183 610.306 C 306.522 609.148,307.364 607.082,308.052 605.715 C 310.322 601.210,310.098 589.359,307.646 584.265 C 306.994 582.909,306.267 581.064,306.032 580.164 C 305.796 579.263,305.262 578.218,304.846 577.841 C 304.429 577.464,303.519 576.001,302.825 574.589 C 302.130 573.178,301.380 571.912,301.159 571.775 C 300.938 571.638,300.326 570.551,299.799 569.358 C 299.271 568.166,298.570 567.086,298.239 566.960 C 297.909 566.833,297.331 565.890,296.954 564.865 C 296.577 563.839,295.874 562.460,295.391 561.800 C 294.908 561.140,294.040 559.665,293.461 558.522 C 292.883 557.380,292.173 556.300,291.883 556.122 C 291.594 555.945,291.040 554.952,290.652 553.916 C 290.264 552.880,289.508 551.620,288.973 551.116 C 288.437 550.612,287.819 549.549,287.599 548.754 C 287.378 547.958,286.772 546.878,286.251 546.354 C 285.730 545.829,284.738 544.275,284.046 542.900 C 283.355 541.525,282.643 540.400,282.466 540.400 C 282.288 540.400,281.726 539.478,281.217 538.352 C 280.708 537.226,279.809 535.741,279.218 535.052 C 278.628 534.363,277.916 533.228,277.636 532.529 C 277.356 531.830,276.762 530.930,276.317 530.529 C 275.871 530.128,275.104 528.900,274.611 527.800 C 274.118 526.700,273.330 525.457,272.858 525.038 C 272.386 524.619,272.000 524.052,272.000 523.778 C 272.000 523.504,271.214 522.226,270.253 520.940 C 269.292 519.653,268.202 518.006,267.832 517.279 C 267.461 516.553,266.918 515.867,266.624 515.754 C 266.330 515.641,265.784 514.749,265.410 513.771 C 265.037 512.793,264.117 511.258,263.366 510.359 C 262.615 509.460,262.000 508.506,262.000 508.240 C 262.000 507.562,258.303 501.970,257.213 501.000 C 256.719 500.560,255.973 499.531,255.556 498.713 C 255.139 497.896,254.461 497.047,254.049 496.826 C 251.235 495.320,252.283 490.424,255.756 488.849 C 257.123 488.229,258.719 487.245,259.303 486.661 C 259.886 486.077,260.700 485.600,261.112 485.600 C 261.524 485.600,262.297 485.125,262.830 484.544 C 263.364 483.963,264.546 483.007,265.457 482.421 C 267.544 481.077,269.704 479.361,271.334 477.749 C 272.030 477.062,273.001 476.376,273.492 476.225 C 273.982 476.075,274.682 475.446,275.047 474.828 C 275.412 474.211,276.360 473.416,277.155 473.062 C 279.576 471.983,295.718 455.729,297.128 452.949 C 297.589 452.041,298.245 451.192,298.586 451.061 C 298.928 450.930,299.417 450.322,299.675 449.711 C 299.932 449.100,300.664 448.060,301.302 447.400 C 302.469 446.193,303.404 444.920,305.561 441.600 C 306.204 440.610,307.171 439.260,307.711 438.600 C 308.250 437.940,309.083 436.680,309.562 435.800 C 310.040 434.920,310.875 433.588,311.416 432.841 C 311.957 432.093,312.400 431.136,312.400 430.715 C 312.400 429.802,313.033 428.545,314.036 427.469 C 314.437 427.039,315.132 425.600,315.581 424.271 C 316.029 422.943,316.756 421.473,317.195 421.006 C 317.634 420.538,318.356 418.736,318.800 417.000 C 319.244 415.264,319.943 413.474,320.353 413.022 C 321.185 412.106,322.201 409.138,322.620 406.400 C 322.772 405.410,323.226 403.949,323.628 403.154 C 324.031 402.359,324.644 399.929,324.991 397.754 C 325.337 395.579,325.967 392.791,326.390 391.557 C 328.944 384.111,329.105 352.009,326.627 344.170 C 326.076 342.426,325.357 339.136,325.028 336.859 C 324.679 334.440,324.107 332.169,323.653 331.400 C 323.225 330.675,322.602 328.759,322.267 327.141 C 321.578 323.813,320.981 322.076,320.226 321.201 C 319.941 320.870,319.328 319.327,318.864 317.771 C 318.400 316.215,317.663 314.619,317.227 314.225 C 316.791 313.830,316.055 312.368,315.592 310.975 C 315.128 309.583,314.426 308.029,314.032 307.522 C 313.637 307.015,313.072 305.880,312.777 305.000 C 312.481 304.120,311.757 302.860,311.167 302.200 C 310.577 301.540,309.887 300.348,309.633 299.551 C 309.380 298.754,308.458 297.330,307.586 296.385 C 306.714 295.440,306.000 294.436,306.000 294.154 C 306.000 293.872,305.377 293.166,304.616 292.585 C 303.854 292.004,303.117 291.140,302.976 290.664 C 302.579 289.317,299.423 284.749,297.834 283.222 C 297.045 282.463,296.400 281.621,296.400 281.349 C 296.400 281.077,295.815 280.444,295.100 279.942 C 294.385 279.440,293.725 278.842,293.634 278.614 C 293.542 278.387,292.732 277.445,291.834 276.522 C 290.935 275.600,289.300 273.847,288.200 272.628 C 287.100 271.408,285.967 270.408,285.681 270.405 C 285.396 270.402,284.856 269.857,284.481 269.193 C 284.107 268.530,283.020 267.606,282.068 267.142 C 281.115 266.677,280.247 266.066,280.138 265.782 C 280.029 265.499,279.189 264.763,278.270 264.147 C 277.352 263.531,275.520 261.968,274.200 260.673 C 272.880 259.379,271.158 257.991,270.373 257.589 C 269.589 257.187,268.702 256.563,268.402 256.203 C 268.103 255.842,267.350 255.284,266.729 254.963 C 265.128 254.136,265.255 253.820,268.500 250.554 C 270.095 248.949,272.120 246.801,273.000 245.781 C 273.880 244.760,275.065 243.447,275.633 242.863 C 276.202 242.278,277.089 241.170,277.606 240.400 C 278.123 239.630,279.233 238.239,280.073 237.309 C 280.913 236.379,281.600 235.420,281.600 235.178 C 281.600 234.936,282.095 234.243,282.700 233.636 C 283.305 233.030,284.125 231.626,284.523 230.516 C 284.920 229.405,285.676 228.092,286.202 227.598 C 286.728 227.104,287.276 226.137,287.420 225.450 C 287.563 224.762,288.191 223.390,288.814 222.400 C 289.438 221.410,290.252 219.700,290.624 218.600 C 290.995 217.500,291.641 216.166,292.058 215.636 C 292.475 215.106,293.187 213.396,293.641 211.836 C 294.095 210.276,294.878 208.190,295.380 207.200 C 295.883 206.210,296.603 203.780,296.980 201.800 C 297.357 199.820,297.943 197.570,298.282 196.800 C 299.364 194.343,299.622 193.100,300.015 188.458 C 300.226 185.960,300.768 182.387,301.219 180.519 C 302.956 173.334,302.971 147.167,301.242 140.910 C 300.803 139.320,300.246 135.810,300.005 133.110 C 299.557 128.097,299.076 125.866,298.213 124.800 C 297.945 124.470,297.310 122.703,296.800 120.874 C 296.291 119.044,295.542 117.126,295.137 116.611 C 294.732 116.095,294.400 115.432,294.400 115.137 C 294.399 114.306,292.080 109.600,291.671 109.600 C 291.471 109.600,290.908 108.505,290.420 107.166 C 289.932 105.828,289.168 104.368,288.722 103.922 C 288.276 103.476,287.748 102.520,287.548 101.798 C 287.237 100.669,283.673 95.809,282.268 94.596 C 281.626 94.042,278.720 90.424,277.935 89.200 C 276.882 87.560,274.278 85.035,273.094 84.506 C 272.486 84.234,271.775 83.545,271.515 82.974 C 271.255 82.403,270.403 81.603,269.621 81.196 C 268.840 80.789,266.850 79.253,265.200 77.782 C 263.550 76.312,261.615 74.826,260.900 74.480 C 260.185 74.135,259.600 73.721,259.600 73.561 C 259.600 73.401,258.295 72.772,256.700 72.164 C 255.105 71.555,253.350 70.668,252.800 70.193 C 252.250 69.718,250.810 68.921,249.600 68.421 C 248.390 67.921,247.130 67.283,246.800 67.003 C 245.518 65.917,239.547 63.234,236.626 62.433 C 234.939 61.970,233.131 61.311,232.609 60.969 C 232.087 60.627,229.170 59.918,226.128 59.394 C 223.086 58.871,219.779 58.080,218.780 57.638 C 217.780 57.196,215.621 56.636,213.981 56.394 C 212.342 56.153,209.470 55.700,207.600 55.389 C 197.069 53.636,193.741 53.164,189.400 52.807 C 182.797 52.265,152.322 52.396,145.200 52.997 M185.116 54.410 C 187.252 54.635,191.160 55.086,193.800 55.412 C 196.440 55.737,200.580 56.181,203.000 56.397 C 205.420 56.614,208.930 57.141,210.800 57.569 C 212.670 57.998,216.990 58.902,220.400 59.579 C 229.734 61.433,234.997 63.088,241.412 66.187 C 243.399 67.147,246.063 68.392,247.332 68.953 C 248.601 69.514,250.125 70.319,250.720 70.743 C 251.314 71.166,252.904 71.961,254.252 72.509 C 257.026 73.636,260.754 76.044,264.000 78.804 C 265.210 79.833,266.740 81.010,267.400 81.419 C 268.493 82.096,269.716 83.097,273.034 86.032 C 273.675 86.599,275.010 88.105,276.000 89.379 C 276.990 90.652,278.945 92.978,280.344 94.547 C 283.822 98.447,285.755 101.097,287.141 103.863 C 289.784 109.135,291.540 112.446,291.969 112.962 C 292.219 113.263,292.962 114.988,293.622 116.795 C 294.281 118.601,295.082 120.585,295.401 121.202 C 301.169 132.357,302.661 176.895,297.799 192.800 C 297.497 193.790,296.948 196.130,296.581 198.000 C 296.213 199.870,295.467 202.570,294.924 204.000 C 294.380 205.430,293.571 207.765,293.124 209.190 C 292.678 210.614,291.264 213.944,289.982 216.590 C 288.700 219.235,287.267 222.390,286.796 223.600 C 286.325 224.810,285.614 226.160,285.215 226.600 C 284.816 227.040,284.121 228.120,283.670 229.000 C 282.030 232.199,275.520 240.906,272.036 244.562 C 266.326 250.554,264.001 253.195,264.011 253.679 C 264.030 254.592,266.091 256.612,270.000 259.547 C 272.090 261.117,274.790 263.214,276.000 264.208 C 277.210 265.202,279.101 266.611,280.201 267.340 C 281.302 268.068,283.367 269.910,284.789 271.432 C 286.212 272.954,289.215 276.090,291.464 278.400 C 296.955 284.040,298.335 285.670,300.601 289.200 C 301.660 290.850,303.084 292.840,303.764 293.623 C 306.438 296.702,309.801 302.034,311.820 306.400 C 312.379 307.610,314.084 311.120,315.607 314.200 C 317.130 317.280,318.497 320.340,318.645 321.000 C 318.793 321.660,319.316 323.010,319.808 324.000 C 320.299 324.990,321.092 327.397,321.569 329.349 C 322.047 331.300,322.869 334.180,323.395 335.749 C 323.922 337.317,324.552 340.205,324.796 342.167 C 325.040 344.129,325.508 347.009,325.836 348.567 C 327.349 355.753,327.615 376.952,326.265 382.800 C 325.935 384.230,325.375 387.788,325.021 390.707 C 324.648 393.784,323.971 397.146,323.410 398.707 C 322.878 400.188,322.085 403.048,321.648 405.062 C 321.210 407.076,320.415 409.596,319.881 410.662 C 319.346 411.728,318.687 413.320,318.415 414.200 C 317.937 415.752,314.798 422.982,313.901 424.600 C 313.657 425.040,312.628 427.029,311.615 429.020 C 310.601 431.011,307.830 435.511,305.455 439.020 C 299.885 447.252,299.449 447.864,297.682 449.943 C 296.867 450.901,296.008 452.038,295.772 452.468 C 295.030 453.828,283.970 465.173,279.800 468.854 C 277.600 470.795,275.368 472.793,274.839 473.292 C 274.311 473.791,272.746 475.010,271.362 476.000 C 269.977 476.990,267.106 479.150,264.981 480.800 C 260.399 484.357,257.465 486.329,254.200 488.043 C 251.361 489.534,251.213 489.719,251.208 491.800 C 251.203 494.127,251.891 496.242,253.133 497.711 C 254.247 499.029,256.802 502.712,258.155 504.951 C 258.570 505.638,260.030 507.910,261.398 510.000 C 262.767 512.090,264.166 514.340,264.507 515.000 C 264.848 515.660,265.999 517.475,267.064 519.033 C 268.129 520.591,269.937 523.238,271.083 524.915 C 272.228 526.592,273.559 528.736,274.041 529.679 C 274.522 530.623,276.120 533.196,277.592 535.398 C 279.064 537.599,281.050 540.750,282.005 542.400 C 282.960 544.050,284.185 546.006,284.727 546.747 C 285.635 547.989,287.451 551.105,289.884 555.600 C 290.420 556.590,291.264 558.030,291.760 558.800 C 294.985 563.812,295.600 564.821,295.600 565.103 C 295.600 565.276,296.590 566.940,297.800 568.800 C 299.010 570.660,300.000 572.336,300.000 572.523 C 300.000 572.710,301.104 574.659,302.453 576.854 C 313.708 595.169,307.765 616.684,290.200 621.212 C 279.463 623.980,268.616 616.715,261.571 602.038 C 260.502 599.811,259.074 597.393,256.348 593.200 C 255.561 591.990,253.606 588.750,252.003 586.000 C 250.400 583.250,248.509 580.100,247.800 579.000 C 241.414 569.083,241.152 568.658,238.567 564.000 C 237.529 562.130,235.942 559.574,235.040 558.320 C 234.138 557.065,231.628 553.285,229.461 549.920 C 225.634 543.972,224.654 542.487,219.966 535.520 C 218.737 533.694,216.667 530.593,215.366 528.630 C 211.584 522.922,211.148 522.307,210.118 521.225 C 209.582 520.661,208.521 519.030,207.761 517.600 C 207.002 516.170,205.746 514.190,204.972 513.200 C 204.197 512.210,202.717 510.299,201.682 508.953 C 198.834 505.249,197.772 504.665,192.400 503.853 C 189.870 503.470,186.990 502.905,186.000 502.596 C 185.010 502.288,182.683 501.834,180.828 501.589 C 177.558 501.156,176.472 500.817,171.400 498.646 C 170.080 498.081,168.640 497.612,168.200 497.603 C 167.760 497.594,166.482 497.095,165.360 496.493 C 164.239 495.892,161.719 494.563,159.760 493.541 C 157.802 492.519,155.750 491.195,155.200 490.601 C 154.650 490.006,153.030 488.901,151.600 488.145 C 141.013 482.549,127.689 467.439,124.048 456.899 C 115.346 431.710,117.503 409.852,130.007 396.490 C 137.468 388.517,152.079 386.030,161.453 391.139 C 162.304 391.603,164.038 392.360,165.306 392.822 C 166.575 393.284,168.109 394.080,168.716 394.591 C 169.323 395.102,170.940 396.176,172.310 396.979 C 173.679 397.782,174.800 398.578,174.800 398.749 C 174.800 398.920,175.963 400.004,177.384 401.157 C 180.714 403.859,189.913 412.999,193.156 416.828 C 194.540 418.463,196.421 420.627,197.336 421.639 C 198.251 422.650,199.652 424.270,200.448 425.239 C 201.245 426.207,202.865 428.137,204.048 429.526 C 205.232 430.915,206.782 432.972,207.493 434.097 C 208.205 435.222,209.214 436.605,209.737 437.171 C 210.260 437.737,211.415 439.280,212.304 440.600 C 216.870 447.383,221.361 448.620,226.680 444.560 C 227.617 443.844,228.793 443.134,229.292 442.980 C 229.791 442.827,231.370 441.869,232.800 440.851 C 234.230 439.833,236.243 438.460,237.272 437.800 C 243.531 433.789,245.369 432.363,250.424 427.600 C 255.329 422.978,256.175 422.219,257.717 421.053 C 258.552 420.422,259.976 418.802,260.883 417.453 C 261.789 416.104,263.087 414.370,263.768 413.600 C 264.934 412.280,268.477 407.080,271.765 401.863 C 274.549 397.444,278.284 387.704,279.842 380.800 C 281.367 374.041,280.941 356.435,279.126 351.200 C 278.706 349.990,277.813 347.290,277.141 345.200 C 276.468 343.110,275.773 341.220,275.596 341.000 C 275.418 340.780,274.799 339.414,274.220 337.966 C 273.089 335.134,267.861 326.907,264.600 322.825 C 263.500 321.448,262.510 320.090,262.400 319.807 C 262.220 319.344,257.153 314.498,250.600 308.522 C 247.980 306.133,245.218 304.317,241.200 302.341 C 239.770 301.637,238.008 300.552,237.284 299.929 C 233.884 297.003,217.361 290.167,211.800 289.386 C 210.700 289.232,208.990 288.780,208.000 288.381 C 206.069 287.604,199.603 286.208,195.989 285.787 C 192.523 285.384,178.793 286.355,172.400 287.456 C 169.210 288.005,162.640 288.718,157.800 289.040 C 152.960 289.362,146.570 289.794,143.600 290.000 C 140.630 290.206,136.490 290.493,134.400 290.637 C 125.040 291.285,117.244 287.885,113.048 281.325 C 112.371 280.266,111.703 279.310,111.564 279.200 C 110.174 278.099,107.619 269.830,107.341 265.526 C 106.595 253.998,113.315 241.624,121.867 238.778 C 123.342 238.287,125.128 237.543,125.836 237.126 C 128.057 235.815,132.312 234.977,141.755 233.988 C 143.710 233.784,147.310 233.260,149.755 232.824 C 157.785 231.393,164.048 230.839,175.000 230.591 C 191.452 230.218,195.423 229.858,199.030 228.413 C 200.684 227.751,203.244 227.019,204.718 226.786 C 206.277 226.541,208.992 225.634,211.200 224.621 C 213.290 223.662,215.637 222.679,216.415 222.436 C 217.193 222.193,219.208 221.208,220.894 220.248 C 222.579 219.287,224.239 218.394,224.581 218.262 C 226.886 217.378,233.828 212.148,237.112 208.821 C 247.287 198.515,250.164 192.605,254.025 174.082 C 254.760 170.551,255.184 159.238,254.779 153.920 C 254.380 148.676,254.144 147.321,253.055 144.000 C 252.730 143.010,252.174 141.248,251.819 140.085 C 249.340 131.960,239.716 122.610,228.800 117.723 C 227.150 116.984,225.170 116.052,224.400 115.652 C 223.630 115.251,221.380 114.510,219.400 114.004 C 217.420 113.498,214.893 112.672,213.785 112.169 C 211.841 111.287,210.679 111.103,197.600 109.614 C 195.510 109.376,191.100 108.810,187.800 108.358 C 180.163 107.310,157.068 107.407,148.000 108.526 C 145.030 108.892,139.630 109.386,136.000 109.624 C 127.314 110.193,116.255 111.495,114.000 112.214 C 95.324 118.169,81.468 111.466,77.149 94.389 C 73.929 81.652,81.770 66.135,93.005 63.012 C 94.322 62.646,96.300 61.998,97.400 61.573 C 99.503 60.760,106.288 59.606,108.987 59.602 C 109.860 59.601,112.020 59.253,113.787 58.830 C 117.469 57.948,127.614 56.646,135.800 56.006 C 138.880 55.765,144.190 55.301,147.600 54.975 C 154.618 54.303,157.363 54.200,171.316 54.083 C 176.769 54.037,182.979 54.184,185.116 54.410 " stroke="none" fill="#929292" fill-rule="evenodd"></path><path id="path4" d="M157.600 54.274 C 155.510 54.333,151.010 54.648,147.600 54.975 C 144.190 55.301,138.880 55.765,135.800 56.006 C 127.614 56.646,117.469 57.948,113.787 58.830 C 112.020 59.253,109.860 59.601,108.987 59.602 C 106.288 59.606,99.503 60.760,97.400 61.573 C 96.300 61.998,94.322 62.646,93.005 63.012 C 81.770 66.135,73.929 81.652,77.149 94.389 C 80.610 108.074,90.693 115.650,103.508 114.195 C 107.061 113.792,112.319 112.793,113.987 112.204 C 114.817 111.912,118.307 111.353,121.741 110.962 C 125.176 110.572,127.907 110.174,127.812 110.078 C 127.538 109.805,114.745 111.241,113.614 111.672 C 105.211 114.873,93.702 114.161,87.721 110.071 C 71.316 98.853,74.961 68.633,93.328 63.594 C 94.986 63.139,97.391 62.345,98.672 61.829 C 100.277 61.182,102.553 60.747,106.000 60.429 C 108.750 60.175,112.260 59.706,113.800 59.387 C 119.212 58.266,128.645 57.072,137.400 56.400 C 140.700 56.147,145.380 55.767,147.800 55.557 C 155.439 54.893,180.500 54.623,185.611 55.149 C 188.135 55.409,192.990 55.897,196.400 56.233 C 205.223 57.102,206.850 57.350,215.800 59.182 C 220.200 60.082,224.070 60.764,224.400 60.695 C 224.730 60.627,222.570 60.073,219.600 59.465 C 216.630 58.856,212.670 58.006,210.800 57.575 C 208.930 57.144,205.420 56.614,203.000 56.397 C 200.580 56.181,196.440 55.737,193.800 55.412 C 183.687 54.165,180.936 54.002,171.316 54.083 C 165.862 54.129,159.690 54.214,157.600 54.274 M231.600 63.036 C 235.230 64.246,239.840 66.037,241.845 67.016 C 243.850 67.996,246.238 69.060,247.151 69.383 C 248.065 69.705,249.415 70.428,250.151 70.990 C 250.888 71.552,252.364 72.309,253.432 72.673 C 255.582 73.405,260.212 76.376,263.600 79.195 C 264.810 80.203,266.520 81.491,267.400 82.059 C 268.280 82.627,269.710 83.746,270.578 84.546 C 271.446 85.346,272.256 86.001,272.378 86.003 C 272.500 86.004,273.680 87.393,275.000 89.088 C 276.320 90.784,278.675 93.527,280.233 95.185 C 283.111 98.248,284.959 100.776,286.437 103.672 C 286.887 104.555,287.346 105.188,287.456 105.078 C 288.068 104.466,284.569 99.286,280.344 94.547 C 278.945 92.978,276.990 90.652,276.000 89.379 C 275.010 88.105,273.675 86.599,273.034 86.032 C 269.716 83.097,268.493 82.096,267.400 81.419 C 266.740 81.010,265.210 79.833,264.000 78.804 C 260.832 76.110,257.046 73.644,254.452 72.587 C 253.213 72.082,251.131 71.023,249.824 70.234 C 248.516 69.446,247.308 68.800,247.139 68.800 C 246.969 68.800,244.619 67.735,241.915 66.434 C 239.212 65.133,236.195 63.855,235.212 63.595 C 234.228 63.335,232.109 62.599,230.501 61.961 C 228.894 61.322,226.999 60.808,226.290 60.818 C 225.446 60.830,227.282 61.597,231.600 63.036 M287.613 105.674 C 287.606 105.825,288.699 107.985,290.043 110.474 C 291.387 112.963,292.991 116.350,293.608 118.000 C 294.224 119.650,295.260 122.440,295.908 124.200 C 296.930 126.974,298.372 133.690,299.559 141.200 C 299.786 142.639,299.923 142.972,299.953 142.163 C 300.083 138.728,296.911 124.122,295.401 121.202 C 295.082 120.585,294.289 118.623,293.639 116.842 C 292.989 115.061,292.108 113.108,291.680 112.502 C 291.253 111.896,290.446 110.410,289.888 109.200 C 288.908 107.077,287.639 105.110,287.613 105.674 M156.600 107.226 C 153.520 107.376,148.660 107.788,145.800 108.143 C 142.940 108.497,139.970 108.851,139.200 108.929 C 138.430 109.008,139.330 109.097,141.200 109.128 C 143.070 109.159,146.400 108.897,148.600 108.545 C 155.580 107.430,180.745 107.317,187.558 108.371 C 193.657 109.314,197.570 109.471,193.200 108.597 C 186.527 107.262,169.201 106.613,156.600 107.226 M130.600 109.600 L 128.200 109.866 130.400 109.886 C 131.610 109.897,133.770 109.775,135.200 109.614 L 137.800 109.322 135.400 109.328 C 134.080 109.332,131.920 109.454,130.600 109.600 M198.400 109.592 C 199.610 109.790,203.110 110.243,206.177 110.599 C 210.037 111.048,212.377 111.530,213.777 112.165 C 214.890 112.671,217.420 113.498,219.400 114.004 C 221.380 114.510,223.630 115.251,224.400 115.652 C 225.170 116.052,227.150 116.984,228.800 117.723 C 239.716 122.610,249.340 131.960,251.819 140.085 C 252.174 141.248,252.730 143.010,253.055 144.000 C 254.144 147.321,254.380 148.676,254.779 153.920 C 255.184 159.238,254.760 170.551,254.025 174.082 C 250.164 192.605,247.287 198.515,237.112 208.821 C 233.828 212.148,226.886 217.378,224.581 218.262 C 224.239 218.394,222.579 219.287,220.894 220.248 C 219.208 221.208,217.193 222.193,216.415 222.436 C 215.637 222.679,213.290 223.662,211.200 224.621 C 208.992 225.634,206.277 226.541,204.718 226.786 C 203.244 227.019,200.659 227.761,198.975 228.435 C 196.701 229.346,194.870 229.750,191.857 230.004 L 187.800 230.347 192.210 230.226 C 195.900 230.125,197.042 229.930,199.210 229.036 C 200.634 228.448,203.393 227.618,205.340 227.190 C 207.287 226.763,210.077 225.807,211.540 225.065 C 213.003 224.323,214.920 223.485,215.800 223.203 C 216.680 222.920,218.750 221.994,220.400 221.144 C 231.163 215.600,235.437 212.125,243.943 202.005 C 256.014 187.643,259.303 151.129,249.966 135.142 C 244.309 125.456,232.448 116.973,219.874 113.621 C 218.154 113.163,215.712 112.352,214.447 111.820 C 212.230 110.887,205.496 109.847,198.800 109.405 L 196.200 109.233 198.400 109.592 M300.200 160.400 C 300.200 169.090,300.311 174.850,300.448 173.200 C 300.771 169.289,300.773 151.004,300.450 147.400 C 300.313 145.860,300.200 151.710,300.200 160.400 M299.610 178.100 C 299.626 179.562,298.011 189.432,296.944 194.400 C 295.492 201.163,292.363 210.391,289.465 216.462 C 288.063 219.398,286.688 222.502,286.408 223.359 C 286.128 224.217,285.369 225.657,284.721 226.559 C 284.074 227.462,282.666 229.585,281.594 231.279 C 280.522 232.972,278.800 235.394,277.768 236.661 C 276.736 237.928,275.381 239.794,274.757 240.809 C 274.132 241.823,273.212 242.887,272.711 243.173 C 271.897 243.638,267.315 248.549,264.253 252.238 L 263.107 253.620 264.140 255.180 C 264.709 256.041,266.749 257.852,268.686 259.217 C 270.619 260.578,272.740 262.201,273.400 262.823 C 274.704 264.051,276.175 265.157,279.645 267.520 C 280.880 268.361,283.286 270.568,284.991 272.424 C 286.696 274.281,289.646 277.330,291.546 279.200 C 295.757 283.345,297.779 285.781,300.837 290.391 C 302.127 292.336,303.336 293.989,303.524 294.064 C 303.918 294.220,306.441 297.934,308.200 300.946 C 308.860 302.076,309.926 303.810,310.569 304.800 C 311.212 305.790,311.976 307.392,312.268 308.361 C 312.560 309.330,313.860 312.120,315.158 314.561 C 316.455 317.002,317.789 319.900,318.120 321.000 C 318.452 322.100,319.192 324.009,319.765 325.242 C 320.337 326.476,320.995 328.509,321.227 329.762 C 321.458 331.014,322.178 333.649,322.827 335.617 C 323.475 337.584,324.178 340.141,324.389 341.297 L 324.773 343.400 324.576 341.039 C 324.467 339.740,323.942 337.377,323.408 335.787 C 322.875 334.198,322.047 331.300,321.569 329.349 C 321.092 327.397,320.299 324.990,319.808 324.000 C 319.316 323.010,318.793 321.660,318.645 321.000 C 318.497 320.340,317.130 317.280,315.607 314.200 C 314.084 311.120,312.379 307.610,311.820 306.400 C 309.801 302.034,306.438 296.702,303.764 293.623 C 303.084 292.840,301.660 290.850,300.601 289.200 C 298.335 285.670,296.955 284.040,291.464 278.400 C 289.215 276.090,286.212 272.954,284.789 271.432 C 283.367 269.910,281.302 268.068,280.201 267.340 C 279.101 266.611,277.210 265.202,276.000 264.208 C 274.790 263.214,272.090 261.117,270.000 259.547 C 266.091 256.612,264.030 254.592,264.011 253.679 C 264.001 253.195,266.326 250.554,272.036 244.562 C 275.520 240.906,282.030 232.199,283.670 229.000 C 284.121 228.120,284.816 227.040,285.215 226.600 C 285.614 226.160,286.325 224.810,286.796 223.600 C 287.267 222.390,288.700 219.235,289.982 216.590 C 291.264 213.944,292.678 210.614,293.124 209.190 C 293.571 207.765,294.380 205.430,294.924 204.000 C 295.467 202.570,296.213 199.870,296.581 198.000 C 296.948 196.130,297.497 193.790,297.799 192.800 C 298.775 189.610,300.410 177.200,299.855 177.200 C 299.715 177.200,299.604 177.605,299.610 178.100 M168.000 230.818 C 160.697 231.106,157.189 231.491,149.755 232.821 C 147.310 233.258,143.710 233.784,141.755 233.988 C 132.312 234.977,128.057 235.815,125.836 237.126 C 125.128 237.543,123.342 238.287,121.867 238.778 C 113.315 241.624,106.595 253.998,107.341 265.526 C 107.619 269.830,110.174 278.099,111.564 279.200 C 111.703 279.310,112.371 280.266,113.048 281.325 C 117.244 287.885,125.040 291.285,134.400 290.637 C 136.490 290.493,140.630 290.206,143.600 290.000 C 146.570 289.794,152.960 289.362,157.800 289.040 C 162.640 288.718,169.210 288.005,172.400 287.456 C 178.793 286.355,192.523 285.384,195.989 285.787 C 199.603 286.208,206.069 287.604,208.000 288.381 C 208.990 288.780,210.700 289.232,211.800 289.386 C 217.361 290.167,233.884 297.003,237.284 299.929 C 238.008 300.552,239.770 301.637,241.200 302.341 C 245.218 304.317,247.980 306.133,250.600 308.522 C 257.526 314.838,262.230 319.365,262.471 319.947 C 262.620 320.306,263.558 321.590,264.556 322.800 C 267.202 326.008,271.526 332.548,273.278 335.992 C 274.888 339.158,275.419 339.111,273.895 335.937 C 272.591 333.223,268.072 326.236,266.086 323.862 C 265.143 322.736,263.800 321.001,263.101 320.007 C 262.023 318.473,258.561 315.081,249.926 307.100 C 249.034 306.275,248.085 305.600,247.817 305.600 C 247.549 305.600,246.310 304.870,245.063 303.977 C 243.817 303.084,242.032 302.012,241.098 301.594 C 240.164 301.176,238.320 300.018,237.000 299.021 C 235.680 298.024,234.452 297.207,234.271 297.204 C 234.090 297.202,231.930 296.211,229.471 295.003 C 224.245 292.435,217.099 289.922,212.354 288.982 C 210.509 288.617,208.582 288.054,208.071 287.731 C 204.319 285.359,187.920 284.555,176.200 286.169 C 174.000 286.472,169.500 287.089,166.200 287.541 C 151.705 289.524,129.774 290.511,125.027 289.393 C 115.052 287.044,106.782 273.543,107.779 261.238 C 108.574 251.439,115.725 240.679,122.532 239.041 C 123.155 238.891,124.775 238.245,126.132 237.606 C 129.172 236.173,130.705 235.833,137.800 235.020 C 140.880 234.666,145.380 234.090,147.800 233.740 C 159.947 231.980,164.931 231.521,179.200 230.850 L 186.200 230.521 180.600 230.532 C 177.520 230.538,171.850 230.667,168.000 230.818 M274.800 339.511 C 274.800 339.682,275.050 340.179,275.356 340.616 C 275.662 341.053,276.464 343.118,277.138 345.205 C 277.811 347.292,278.706 349.990,279.126 351.200 C 280.941 356.435,281.367 374.041,279.842 380.800 C 278.284 387.704,274.549 397.444,271.765 401.863 C 268.477 407.080,264.934 412.280,263.768 413.600 C 263.087 414.370,261.789 416.104,260.883 417.453 C 259.976 418.802,258.552 420.422,257.717 421.053 C 256.175 422.219,255.329 422.978,250.424 427.600 C 245.369 432.363,243.531 433.789,237.272 437.800 C 236.243 438.460,234.230 439.833,232.800 440.851 C 231.370 441.869,229.791 442.827,229.292 442.980 C 228.793 443.134,227.617 443.844,226.680 444.560 C 221.361 448.620,216.870 447.383,212.304 440.600 C 211.415 439.280,210.260 437.737,209.737 437.171 C 209.214 436.605,208.205 435.222,207.493 434.097 C 206.782 432.972,205.232 430.915,204.048 429.526 C 202.865 428.137,201.245 426.207,200.448 425.239 C 199.652 424.270,198.251 422.650,197.336 421.639 C 196.421 420.627,194.540 418.463,193.156 416.828 C 189.913 412.999,180.714 403.859,177.384 401.157 C 175.963 400.004,174.800 398.920,174.800 398.749 C 174.800 398.578,173.679 397.782,172.310 396.979 C 170.940 396.176,169.323 395.102,168.716 394.591 C 168.109 394.080,166.575 393.284,165.306 392.822 C 164.038 392.360,162.304 391.603,161.453 391.139 C 152.079 386.030,137.468 388.517,130.007 396.490 C 117.503 409.852,115.346 431.710,124.048 456.899 C 127.689 467.439,141.013 482.549,151.600 488.145 C 153.030 488.901,154.650 490.006,155.200 490.601 C 155.750 491.195,157.802 492.519,159.760 493.541 C 161.719 494.563,164.239 495.892,165.360 496.493 C 166.482 497.095,167.760 497.580,168.200 497.571 C 168.699 497.561,168.391 497.300,167.383 496.878 C 166.493 496.505,164.873 495.647,163.783 494.970 C 162.692 494.294,160.810 493.287,159.600 492.732 C 158.390 492.177,156.590 491.038,155.600 490.201 C 154.610 489.364,153.002 488.323,152.028 487.889 C 148.866 486.479,138.148 477.267,133.124 471.640 C 119.251 456.103,114.878 421.061,124.783 404.800 C 125.386 403.810,126.354 402.163,126.933 401.139 C 128.108 399.066,133.631 393.200,134.409 393.200 C 134.683 393.200,136.100 392.592,137.558 391.849 C 144.181 388.474,153.371 388.363,160.800 391.569 C 162.230 392.186,164.242 392.995,165.272 393.368 C 166.301 393.740,167.921 394.638,168.872 395.364 C 169.822 396.089,171.353 397.067,172.274 397.536 C 173.194 398.005,174.184 398.718,174.474 399.121 C 174.763 399.523,176.530 401.181,178.400 402.806 C 184.774 408.343,191.306 415.283,201.501 427.347 C 205.426 431.991,206.567 433.442,208.521 436.273 C 215.515 446.404,217.197 447.822,221.497 447.215 C 224.056 446.853,225.044 446.448,227.022 444.950 C 227.693 444.441,228.951 443.729,229.815 443.368 C 231.198 442.790,235.321 440.027,239.600 436.811 C 240.370 436.232,241.710 435.327,242.577 434.799 C 244.589 433.575,247.756 430.823,255.400 423.658 C 256.060 423.040,257.299 422.014,258.154 421.378 C 259.009 420.743,260.539 419.015,261.554 417.540 C 262.569 416.064,264.909 412.767,266.753 410.214 C 270.757 404.669,272.945 401.238,274.033 398.800 C 274.474 397.810,275.355 395.830,275.989 394.400 C 281.758 381.401,283.285 361.234,279.337 350.200 C 278.786 348.660,277.969 346.230,277.522 344.800 C 276.422 341.288,274.800 338.135,274.800 339.511 M324.835 345.065 C 324.816 345.760,325.065 347.715,325.389 349.408 C 327.097 358.334,327.225 375.024,325.645 382.714 C 325.180 384.977,324.819 387.767,324.843 388.914 C 324.881 390.773,324.944 390.609,325.415 387.400 C 325.706 385.420,326.153 382.990,326.408 382.000 C 327.106 379.285,327.369 363.404,326.825 356.744 C 326.367 351.131,324.904 342.549,324.835 345.065 M324.282 393.534 C 324.156 394.598,323.659 396.533,323.176 397.834 C 322.694 399.135,321.901 402.000,321.414 404.200 C 320.927 406.400,320.209 408.816,319.818 409.569 C 319.428 410.321,318.517 412.481,317.794 414.369 C 316.312 418.237,313.644 424.394,313.187 425.000 C 313.021 425.220,311.967 427.157,310.844 429.304 C 308.522 433.743,299.472 447.344,297.145 449.891 C 296.295 450.821,295.599 451.721,295.598 451.891 C 295.598 452.061,294.383 453.476,292.898 455.036 C 291.414 456.596,289.109 459.026,287.776 460.436 C 283.887 464.548,272.923 474.466,271.085 475.534 C 270.158 476.073,268.950 476.925,268.400 477.427 C 265.048 480.486,257.647 485.659,253.246 488.018 C 249.754 489.889,249.448 494.612,252.613 497.777 C 253.161 498.325,254.247 499.814,255.026 501.086 C 255.806 502.359,257.330 504.750,258.415 506.400 C 259.499 508.050,261.244 510.805,262.293 512.522 C 263.342 514.239,265.140 517.029,266.289 518.722 C 270.809 525.383,272.704 528.296,273.990 530.564 C 274.728 531.863,276.306 534.375,277.497 536.145 C 278.689 537.914,279.947 539.911,280.293 540.581 C 280.640 541.252,282.045 543.510,283.416 545.600 C 284.787 547.690,286.448 550.390,287.107 551.600 C 288.955 554.991,290.923 558.345,292.739 561.200 C 293.649 562.630,294.955 564.880,295.642 566.200 C 296.328 567.520,297.140 568.885,297.446 569.233 C 297.752 569.581,298.785 571.291,299.742 573.033 C 300.698 574.775,302.303 577.640,303.309 579.400 C 316.359 602.248,298.538 628.726,276.653 619.002 C 272.548 617.178,264.606 607.917,262.214 602.164 C 261.360 600.111,258.648 595.591,256.509 592.656 C 255.569 591.367,254.800 590.116,254.800 589.877 C 254.800 589.639,254.376 588.803,253.858 588.022 C 253.339 587.240,252.437 585.790,251.851 584.800 C 251.266 583.810,250.622 582.730,250.419 582.400 C 244.920 573.438,242.830 570.091,240.972 567.266 C 240.297 566.240,238.993 564.009,238.076 562.308 C 237.158 560.608,235.821 558.420,235.104 557.447 C 234.387 556.473,233.187 554.714,232.438 553.538 C 228.033 546.621,223.421 539.587,222.380 538.200 C 220.648 535.892,217.825 531.607,217.066 530.132 C 216.707 529.435,215.510 527.687,214.406 526.247 C 213.303 524.807,212.400 523.499,212.400 523.340 C 212.400 523.181,211.704 522.226,210.853 521.217 C 210.002 520.207,208.832 518.447,208.253 517.306 C 207.675 516.164,206.684 514.638,206.052 513.915 C 205.420 513.192,204.564 512.044,204.151 511.364 C 200.885 505.989,198.527 504.241,193.400 503.397 C 191.200 503.035,188.410 502.495,187.200 502.198 C 185.990 501.900,183.920 501.536,182.600 501.388 C 178.794 500.963,176.868 500.457,174.246 499.195 C 172.901 498.547,171.170 497.911,170.400 497.781 C 169.272 497.591,169.467 497.752,171.400 498.609 C 176.182 500.729,177.514 501.150,180.828 501.589 C 182.683 501.834,185.010 502.288,186.000 502.596 C 186.990 502.905,189.870 503.470,192.400 503.853 C 197.772 504.665,198.834 505.249,201.682 508.953 C 202.717 510.299,204.197 512.210,204.972 513.200 C 205.746 514.190,207.002 516.170,207.761 517.600 C 208.521 519.030,209.582 520.661,210.118 521.225 C 211.148 522.307,211.584 522.922,215.366 528.630 C 216.667 530.593,218.737 533.694,219.966 535.520 C 224.654 542.487,225.634 543.972,229.461 549.920 C 231.628 553.285,234.138 557.065,235.040 558.320 C 235.942 559.574,237.529 562.130,238.567 564.000 C 241.152 568.658,241.414 569.083,247.800 579.000 C 248.509 580.100,250.400 583.250,252.003 586.000 C 253.606 588.750,255.561 591.990,256.348 593.200 C 259.074 597.393,260.502 599.811,261.571 602.038 C 268.616 616.715,279.463 623.980,290.200 621.212 C 307.765 616.684,313.708 595.169,302.453 576.854 C 301.104 574.659,300.000 572.710,300.000 572.523 C 300.000 572.336,299.010 570.660,297.800 568.800 C 296.590 566.940,295.600 565.276,295.600 565.103 C 295.600 564.821,294.985 563.812,291.760 558.800 C 291.264 558.030,290.420 556.590,289.884 555.600 C 287.451 551.105,285.635 547.989,284.727 546.747 C 284.185 546.006,282.960 544.050,282.005 542.400 C 281.050 540.750,279.064 537.599,277.592 535.398 C 276.120 533.196,274.522 530.623,274.041 529.679 C 273.559 528.736,272.228 526.592,271.083 524.915 C 269.937 523.238,268.129 520.591,267.064 519.033 C 265.999 517.475,264.848 515.660,264.507 515.000 C 264.166 514.340,262.767 512.090,261.398 510.000 C 260.030 507.910,258.570 505.638,258.155 504.951 C 256.802 502.712,254.247 499.029,253.133 497.711 C 251.891 496.242,251.203 494.127,251.208 491.800 C 251.213 489.719,251.361 489.534,254.200 488.043 C 257.465 486.329,260.399 484.357,264.981 480.800 C 267.106 479.150,269.977 476.990,271.362 476.000 C 272.746 475.010,274.311 473.791,274.839 473.292 C 275.368 472.793,277.600 470.795,279.800 468.854 C 283.970 465.173,295.030 453.828,295.772 452.468 C 296.008 452.038,296.867 450.901,297.682 449.943 C 299.449 447.864,299.885 447.252,305.455 439.020 C 307.830 435.511,310.601 431.011,311.615 429.020 C 312.628 427.029,313.657 425.040,313.901 424.600 C 314.798 422.982,317.937 415.752,318.415 414.200 C 318.687 413.320,319.346 411.728,319.881 410.662 C 320.415 409.596,321.210 407.076,321.648 405.062 C 322.085 403.048,322.883 400.176,323.420 398.679 C 324.332 396.141,325.160 391.600,324.711 391.600 C 324.601 391.600,324.408 392.470,324.282 393.534 " stroke="none" fill="#7c7c7c" fill-rule="evenodd"></path></g></svg>