<svg id="svg" version="1.1" xmlns="http://www.w3.org/2000/svg" xmlns:xlink="http://www.w3.org/1999/xlink" width="400" height="752.7559055118111" viewBox="0, 0, 400,752.7559055118111"><g id="svgg"><path id="path0" d="M156.000 56.671 C 144.697 56.946,130.592 58.108,127.000 59.062 C 124.363 59.761,121.045 60.181,114.600 60.631 C 106.243 61.213,105.569 61.322,101.200 62.795 C 98.670 63.647,94.980 64.846,93.000 65.458 C 81.823 68.915,74.798 86.515,80.092 97.800 C 82.602 103.151,86.500 108.261,88.912 109.362 C 96.352 112.759,104.124 113.674,107.985 111.608 C 109.567 110.762,114.633 109.998,121.400 109.585 C 128.541 109.150,129.351 109.034,133.600 107.835 C 143.833 104.947,193.310 104.928,199.493 107.810 C 201.411 108.705,202.665 108.945,206.934 109.237 C 212.545 109.620,214.704 110.060,216.725 111.233 C 217.453 111.656,220.153 112.525,222.725 113.164 C 228.104 114.501,231.594 116.046,235.000 118.597 C 236.320 119.586,238.120 120.875,239.000 121.461 C 243.226 124.274,247.776 128.753,249.219 131.520 C 249.759 132.554,250.600 133.903,251.090 134.518 C 251.579 135.133,252.331 136.753,252.761 138.118 C 253.191 139.483,253.897 141.320,254.330 142.200 C 256.091 145.774,256.197 146.815,256.192 160.400 C 256.187 174.144,255.869 177.252,253.973 182.067 C 253.569 183.094,252.939 185.434,252.574 187.267 C 252.209 189.100,251.528 191.230,251.060 192.000 C 250.593 192.770,249.926 194.239,249.579 195.264 C 248.891 197.293,246.287 201.310,244.985 202.349 C 244.536 202.707,243.947 203.544,243.674 204.209 C 242.828 206.272,231.762 216.682,228.800 218.201 C 228.030 218.596,226.860 219.322,226.200 219.815 C 224.446 221.126,220.602 222.956,217.400 224.006 C 215.860 224.511,214.060 225.331,213.400 225.829 C 212.740 226.327,210.648 227.109,208.752 227.566 C 206.855 228.023,204.335 228.836,203.152 229.373 C 199.532 231.016,189.583 232.181,170.400 233.206 C 166.330 233.424,161.560 233.782,159.800 234.003 C 158.040 234.223,153.900 234.753,150.600 235.180 C 147.300 235.607,142.440 236.064,139.800 236.196 C 133.634 236.504,130.721 237.024,128.310 238.246 C 127.242 238.787,125.093 239.517,123.534 239.869 C 121.795 240.262,120.447 240.815,120.049 241.298 C 119.692 241.732,118.521 242.922,117.446 243.943 C 116.371 244.964,115.259 246.026,114.973 246.301 C 112.268 248.915,108.650 259.308,108.902 263.742 C 109.320 271.134,113.097 280.102,116.832 282.574 C 117.716 283.158,119.105 284.235,119.919 284.967 C 120.734 285.698,122.390 286.815,123.600 287.448 L 125.800 288.600 134.400 288.547 C 140.901 288.506,144.318 288.290,148.400 287.660 C 151.370 287.202,155.600 286.647,157.800 286.426 C 166.511 285.552,173.132 284.815,175.800 284.424 C 186.135 282.909,202.578 283.610,208.200 285.805 C 209.520 286.321,212.220 287.218,214.200 287.799 C 221.634 289.981,229.191 292.820,230.679 293.991 C 231.174 294.380,232.619 295.110,233.889 295.612 C 235.160 296.115,236.560 296.823,237.000 297.185 C 238.201 298.174,240.797 299.782,243.020 300.913 C 244.109 301.467,245.450 302.404,246.000 302.995 C 246.550 303.586,247.630 304.333,248.400 304.654 C 249.170 304.975,250.520 305.916,251.400 306.744 C 252.280 307.572,253.639 308.715,254.420 309.284 C 258.478 312.240,270.800 326.612,270.800 328.389 C 270.800 328.571,271.597 329.781,272.572 331.077 C 273.546 332.374,274.467 333.966,274.619 334.617 C 274.771 335.268,275.478 336.880,276.191 338.200 C 276.904 339.520,277.701 341.477,277.962 342.549 C 278.223 343.621,278.867 345.347,279.392 346.385 C 280.297 348.171,281.958 355.088,282.853 360.800 C 283.714 366.291,281.602 384.566,279.606 388.901 C 279.176 389.836,278.343 391.860,277.755 393.400 C 277.167 394.940,276.363 396.661,275.969 397.224 C 275.575 397.788,275.126 398.778,274.970 399.424 C 274.619 400.887,273.796 402.547,273.056 403.287 C 272.746 403.597,272.114 404.592,271.652 405.498 C 271.190 406.404,270.638 407.253,270.427 407.383 C 269.999 407.648,267.600 411.112,267.600 411.465 C 267.600 411.681,266.846 412.659,264.174 415.909 C 263.500 416.729,262.461 418.249,261.865 419.287 C 261.269 420.325,260.003 421.710,259.051 422.365 C 258.100 423.019,257.049 423.971,256.715 424.481 C 256.381 424.990,255.602 425.675,254.984 426.004 C 254.367 426.332,252.650 427.770,251.170 429.200 C 247.841 432.416,245.310 434.531,244.000 435.191 C 243.450 435.468,242.370 436.273,241.600 436.981 C 240.830 437.688,239.730 438.611,239.156 439.033 C 238.582 439.455,237.122 440.552,235.912 441.472 C 234.702 442.391,232.561 443.623,231.156 444.210 C 229.750 444.797,228.235 445.613,227.789 446.025 C 226.020 447.655,220.004 449.047,217.565 448.391 C 215.614 447.865,210.643 442.176,207.591 436.977 C 207.036 436.032,206.106 434.884,205.525 434.427 C 204.943 433.969,203.426 432.201,202.154 430.497 C 200.883 428.794,199.622 427.264,199.352 427.098 C 199.083 426.931,198.448 426.124,197.941 425.304 C 197.434 424.485,196.295 423.088,195.410 422.201 C 194.524 421.314,192.450 419.111,190.800 417.305 C 186.879 413.012,180.861 406.965,178.755 405.200 C 177.836 404.430,175.823 402.589,174.281 401.109 C 172.739 399.628,170.740 398.037,169.839 397.573 C 168.937 397.108,167.723 396.278,167.139 395.727 C 166.514 395.137,164.705 394.317,162.739 393.732 C 160.903 393.186,158.230 392.386,156.800 391.954 C 151.652 390.402,142.397 390.759,139.400 392.626 C 138.960 392.900,137.543 393.451,136.251 393.851 C 134.664 394.341,133.697 394.905,133.267 395.588 C 132.918 396.145,131.995 397.248,131.216 398.040 C 129.322 399.965,129.024 400.369,127.337 403.291 C 126.541 404.671,125.570 406.160,125.180 406.600 C 124.790 407.040,124.072 408.750,123.584 410.400 C 123.096 412.050,122.370 414.030,121.971 414.800 C 120.740 417.175,120.399 420.136,120.415 428.320 C 120.429 436.106,120.674 438.260,122.150 443.600 C 122.485 444.810,123.056 447.150,123.419 448.800 C 124.188 452.294,126.909 459.520,127.964 460.869 C 128.365 461.381,129.166 462.739,129.746 463.886 C 132.314 468.970,134.675 471.827,140.693 477.130 C 142.426 478.657,144.554 480.578,145.422 481.399 C 146.290 482.220,147.752 483.411,148.670 484.045 C 149.589 484.679,150.617 485.474,150.956 485.813 C 151.295 486.152,152.247 486.711,153.073 487.056 C 153.898 487.401,155.569 488.462,156.787 489.414 C 158.004 490.366,159.540 491.273,160.200 491.430 C 161.886 491.831,165.657 493.763,167.065 494.948 C 167.787 495.556,169.567 496.275,171.625 496.792 C 173.481 497.258,175.503 498.002,176.118 498.445 C 177.474 499.422,181.354 500.242,186.200 500.576 C 193.211 501.060,199.122 502.846,201.309 505.143 C 202.954 506.870,205.600 510.781,205.600 511.485 C 205.600 511.758,206.061 512.284,206.625 512.653 C 207.188 513.022,208.107 514.242,208.667 515.362 C 209.226 516.483,210.183 517.940,210.792 518.600 C 211.402 519.260,212.148 520.273,212.450 520.851 C 213.340 522.553,215.897 526.289,216.373 526.583 C 216.614 526.732,217.194 527.603,217.661 528.519 C 218.128 529.435,219.002 530.817,219.604 531.592 C 220.206 532.366,221.036 533.630,221.449 534.400 C 221.862 535.170,222.714 536.413,223.343 537.162 C 223.971 537.912,224.664 539.037,224.882 539.662 C 225.100 540.288,225.433 540.800,225.621 540.800 C 225.810 540.800,226.701 542.015,227.601 543.500 C 229.569 546.746,230.814 548.594,232.116 550.200 C 232.650 550.860,233.406 552.021,233.796 552.781 C 234.185 553.540,235.156 555.160,235.953 556.381 C 238.074 559.628,238.261 559.945,239.787 562.870 C 240.553 564.339,241.369 565.657,241.599 565.799 C 241.829 565.942,242.539 567.091,243.176 568.353 C 243.813 569.615,244.633 570.895,244.997 571.197 C 245.361 571.499,246.026 572.479,246.476 573.373 C 246.925 574.268,247.520 575.270,247.798 575.600 C 248.075 575.930,248.729 577.011,249.251 578.002 C 249.773 578.993,250.699 580.523,251.310 581.402 C 254.434 585.901,255.571 587.862,255.966 589.431 C 256.205 590.379,256.723 591.390,257.118 591.677 C 257.513 591.965,258.382 593.010,259.049 594.000 C 259.717 594.990,260.744 596.500,261.332 597.356 C 261.919 598.212,262.403 599.202,262.407 599.556 C 262.415 600.319,265.626 605.852,266.728 607.000 C 267.150 607.440,267.984 608.651,268.581 609.691 C 273.920 618.998,287.766 622.511,296.184 616.695 C 304.386 611.027,307.467 601.783,305.411 589.008 C 304.744 584.863,304.460 584.093,302.014 579.800 C 301.137 578.260,299.871 575.849,299.200 574.442 C 298.530 573.036,297.482 571.316,296.872 570.621 C 296.261 569.925,295.507 568.736,295.196 567.978 C 294.884 567.220,294.038 565.821,293.315 564.869 C 292.592 563.918,292.000 562.896,292.000 562.600 C 292.000 562.304,291.581 561.553,291.069 560.931 C 290.123 559.782,288.305 556.624,286.504 553.000 C 285.958 551.900,284.901 550.166,284.155 549.146 C 283.410 548.127,282.800 547.183,282.800 547.050 C 282.800 546.916,282.208 546.032,281.485 545.085 C 280.762 544.137,279.847 542.516,279.452 541.481 C 279.057 540.447,278.576 539.600,278.384 539.600 C 278.191 539.600,277.543 538.745,276.943 537.700 C 276.344 536.655,275.379 535.170,274.800 534.400 C 273.674 532.903,271.969 530.040,270.595 527.341 C 270.130 526.428,269.258 525.078,268.657 524.341 C 266.169 521.288,264.741 519.180,262.422 515.140 C 261.078 512.797,259.699 510.648,259.358 510.365 C 259.017 510.082,258.320 509.029,257.809 508.025 C 257.299 507.021,256.323 505.500,255.640 504.645 C 254.958 503.790,254.400 502.856,254.400 502.569 C 254.400 502.283,253.673 501.209,252.784 500.182 C 247.678 494.282,247.365 489.159,252.000 487.374 C 252.990 486.992,254.250 486.280,254.800 485.792 C 255.350 485.303,256.340 484.568,257.000 484.157 C 257.660 483.746,258.444 483.177,258.743 482.891 C 259.215 482.440,262.327 480.200,264.951 478.425 C 265.418 478.109,266.250 477.444,266.800 476.947 C 267.350 476.449,268.661 475.585,269.714 475.025 C 270.766 474.466,272.566 472.986,273.714 471.737 C 276.375 468.840,276.859 468.382,280.825 465.000 C 287.944 458.931,295.857 450.232,300.110 443.800 C 301.129 442.260,302.701 439.920,303.604 438.600 C 307.278 433.231,312.092 424.421,314.642 418.400 C 315.247 416.970,315.946 415.530,316.195 415.200 C 316.444 414.870,316.974 413.520,317.372 412.200 C 317.771 410.880,318.508 408.984,319.011 407.988 C 319.513 406.991,320.044 405.281,320.189 404.188 C 320.526 401.663,321.892 396.939,322.604 395.841 C 322.934 395.332,323.323 392.710,323.590 389.200 C 323.832 386.010,324.192 382.410,324.389 381.200 C 325.346 375.328,325.705 370.090,325.450 365.683 C 324.811 354.612,323.294 340.541,322.592 339.185 C 321.876 337.800,320.554 332.852,320.195 330.216 C 320.047 329.125,319.582 327.795,319.162 327.261 C 318.405 326.299,316.800 321.696,316.800 320.489 C 316.800 320.145,316.547 319.579,316.237 319.231 C 315.244 318.118,312.328 312.287,311.378 309.514 C 310.871 308.037,310.084 306.428,309.629 305.939 C 309.173 305.449,308.800 304.823,308.800 304.547 C 308.800 303.834,307.258 301.214,306.006 299.800 C 305.422 299.140,304.644 298.150,304.276 297.600 C 303.909 297.050,302.842 295.503,301.904 294.162 C 300.967 292.821,299.662 290.931,299.004 289.962 C 297.254 287.382,292.920 282.474,287.431 276.855 C 280.369 269.627,279.939 269.226,278.349 268.394 C 277.551 267.976,276.795 267.364,276.668 267.034 C 276.542 266.704,275.665 265.947,274.719 265.352 C 273.774 264.757,272.178 263.580,271.174 262.735 C 270.170 261.891,269.208 261.200,269.036 261.200 C 267.182 261.200,261.600 255.584,261.600 253.718 C 261.600 252.615,270.618 242.639,272.017 242.194 C 272.457 242.055,273.283 241.009,273.853 239.870 C 274.423 238.732,275.738 236.810,276.776 235.600 C 277.813 234.390,279.368 232.337,280.231 231.038 C 281.094 229.739,282.291 227.939,282.892 227.038 C 283.493 226.137,284.180 224.950,284.420 224.400 C 285.261 222.472,289.253 213.773,290.570 211.000 C 291.302 209.460,292.204 206.940,292.575 205.400 C 292.947 203.860,293.581 202.036,293.985 201.346 C 294.414 200.612,295.076 197.790,295.580 194.546 C 296.054 191.496,296.713 187.650,297.044 186.000 C 299.154 175.482,299.240 174.279,299.055 158.000 C 298.878 142.520,298.706 140.451,297.228 136.000 C 296.827 134.790,296.378 132.450,296.231 130.800 C 295.946 127.601,295.026 124.184,294.184 123.200 C 293.902 122.870,293.374 121.520,293.009 120.200 C 292.057 116.747,291.562 115.505,290.778 114.600 C 290.397 114.160,289.676 112.810,289.175 111.600 C 288.675 110.390,288.042 109.130,287.768 108.800 C 287.494 108.470,286.800 107.210,286.225 106.000 C 284.825 103.051,282.696 99.715,281.104 97.975 C 280.387 97.191,279.530 96.256,279.200 95.898 C 278.870 95.539,278.150 94.829,277.600 94.320 C 277.050 93.811,276.060 92.685,275.400 91.817 C 273.806 89.723,271.194 86.777,270.200 85.952 C 269.760 85.587,268.734 84.638,267.920 83.844 C 267.106 83.050,266.175 82.400,265.852 82.400 C 265.530 82.400,264.306 81.579,263.133 80.575 C 261.960 79.572,260.010 78.191,258.800 77.507 C 257.590 76.823,255.946 75.683,255.146 74.974 C 254.250 74.180,253.050 73.577,252.014 73.402 C 251.035 73.237,249.779 72.630,249.000 71.947 C 248.266 71.302,246.436 70.356,244.933 69.845 C 243.430 69.334,241.300 68.460,240.200 67.904 C 238.123 66.853,231.818 64.833,228.000 63.996 C 226.790 63.730,224.855 62.991,223.700 62.353 C 221.501 61.138,217.105 60.422,211.756 60.407 C 209.875 60.402,208.999 60.188,207.956 59.482 C 206.804 58.702,205.518 58.455,199.400 57.839 C 185.850 56.473,175.540 56.196,156.000 56.671 " stroke="none" fill="#0b0b0b" fill-rule="evenodd"></path><path id="path1" d="M0.000 376.200 L 0.000 752.400 200.000 752.400 L 400.000 752.400 400.000 376.200 L 400.000 0.000 200.000 0.000 L 0.000 0.000 0.000 376.200 M186.977 52.417 C 192.870 52.855,205.743 54.565,207.800 55.184 C 208.460 55.383,210.564 55.743,212.475 55.984 C 215.793 56.403,217.437 56.818,221.000 58.133 C 221.880 58.457,224.580 59.027,227.000 59.398 C 229.477 59.778,231.982 60.409,232.732 60.842 C 233.465 61.265,235.533 61.992,237.328 62.457 C 240.274 63.221,244.971 65.382,247.600 67.182 C 248.150 67.559,249.410 68.181,250.400 68.565 C 251.390 68.948,252.650 69.676,253.200 70.182 C 253.750 70.687,255.231 71.480,256.492 71.942 C 258.800 72.789,261.778 74.669,264.441 76.960 C 266.488 78.721,268.786 80.485,270.094 81.299 C 270.711 81.684,271.421 82.447,271.671 82.996 C 271.921 83.545,272.727 84.211,273.463 84.477 C 274.198 84.743,274.800 85.069,274.800 85.201 C 274.800 85.333,275.565 86.268,276.500 87.278 C 277.435 88.289,278.740 89.874,279.400 90.801 C 280.060 91.728,281.181 93.142,281.892 93.943 C 286.269 98.878,287.202 100.120,287.578 101.518 C 287.808 102.373,288.354 103.396,288.790 103.791 C 289.226 104.186,289.960 105.519,290.419 106.754 C 290.879 107.989,291.679 109.450,292.196 110.000 C 292.713 110.550,293.471 111.990,293.881 113.200 C 294.291 114.410,294.922 115.850,295.282 116.400 C 295.643 116.950,296.238 118.480,296.607 119.800 C 296.975 121.120,297.785 123.280,298.407 124.600 C 299.330 126.557,299.621 127.931,299.983 132.049 C 300.227 134.826,300.782 138.336,301.215 139.849 C 303.338 147.263,303.342 173.229,301.221 181.434 C 300.771 183.175,300.233 186.703,300.025 189.274 C 299.759 192.547,299.353 194.706,298.671 196.474 C 298.134 197.863,297.384 200.530,297.004 202.400 C 296.624 204.270,295.890 206.610,295.373 207.600 C 294.857 208.590,294.169 210.452,293.845 211.738 C 293.521 213.024,292.811 214.749,292.267 215.571 C 291.722 216.393,290.981 217.938,290.619 219.004 C 289.900 221.121,288.782 223.200,288.361 223.200 C 288.215 223.200,287.881 224.055,287.620 225.100 C 287.359 226.145,286.721 227.450,286.203 228.000 C 285.685 228.550,284.951 229.810,284.572 230.800 C 284.192 231.790,283.368 233.149,282.741 233.819 C 282.113 234.490,281.600 235.227,281.600 235.457 C 281.600 235.687,280.745 236.887,279.700 238.122 C 278.655 239.358,276.360 242.089,274.600 244.191 C 270.974 248.521,267.792 251.887,266.368 252.901 L 265.400 253.590 266.344 254.295 C 266.863 254.683,267.726 255.404,268.261 255.898 C 268.795 256.392,269.769 257.074,270.424 257.412 C 271.079 257.751,272.760 259.105,274.158 260.420 C 275.557 261.736,277.534 263.448,278.551 264.225 C 279.568 265.001,280.400 265.775,280.400 265.944 C 280.400 266.113,281.075 266.571,281.900 266.961 C 282.725 267.351,283.940 268.199,284.600 268.845 C 288.039 272.210,289.973 274.192,291.600 276.017 C 292.590 277.128,294.120 278.819,295.000 279.774 C 299.726 284.904,302.100 288.034,303.031 290.360 C 303.367 291.200,304.070 292.117,304.594 292.397 C 305.118 292.677,305.763 293.429,306.028 294.067 C 306.292 294.705,306.916 295.548,307.413 295.939 C 308.331 296.661,310.000 299.426,310.000 300.224 C 310.000 300.464,310.431 301.065,310.957 301.559 C 311.483 302.054,312.233 303.300,312.624 304.329 C 313.015 305.358,313.656 306.650,314.048 307.200 C 314.441 307.750,315.147 309.334,315.619 310.721 C 316.091 312.107,316.879 313.675,317.370 314.206 C 317.862 314.736,318.604 316.302,319.020 317.685 C 319.436 319.068,320.153 320.761,320.614 321.447 C 321.075 322.134,321.788 324.293,322.198 326.246 C 322.608 328.199,323.275 330.359,323.679 331.045 C 324.084 331.731,324.752 334.341,325.164 336.846 C 325.575 339.351,326.292 342.521,326.757 343.890 C 329.398 351.674,329.164 385.729,326.424 392.317 C 325.994 393.353,325.369 395.974,325.036 398.142 C 324.703 400.310,324.082 402.830,323.656 403.742 C 323.229 404.654,322.764 406.120,322.621 407.000 C 322.208 409.543,321.162 412.531,320.381 413.400 C 319.986 413.840,319.302 415.614,318.861 417.342 C 318.421 419.070,317.689 420.879,317.236 421.361 C 316.783 421.844,316.047 423.301,315.600 424.600 C 315.153 425.899,314.433 427.339,314.000 427.800 C 313.567 428.261,312.886 429.620,312.488 430.819 C 312.089 432.019,311.141 433.830,310.381 434.845 C 309.622 435.860,308.686 437.210,308.303 437.845 C 306.421 440.961,304.933 443.166,304.291 443.788 C 303.901 444.166,303.334 444.954,303.031 445.538 C 302.728 446.122,301.922 447.096,301.240 447.703 C 300.558 448.310,300.000 449.059,300.000 449.368 C 300.000 449.676,299.505 450.351,298.900 450.867 C 298.295 451.383,297.530 452.392,297.200 453.109 C 296.870 453.826,294.530 456.552,292.000 459.167 C 289.470 461.782,286.520 464.884,285.444 466.061 C 282.638 469.130,278.379 472.823,277.124 473.274 C 276.532 473.487,275.587 474.266,275.024 475.004 C 274.461 475.742,273.649 476.457,273.219 476.594 C 272.790 476.730,271.834 477.417,271.095 478.121 C 268.494 480.598,261.895 485.600,261.228 485.600 C 261.008 485.600,260.212 486.141,259.458 486.802 C 258.705 487.464,257.089 488.447,255.867 488.988 C 252.346 490.545,251.634 494.333,254.390 496.849 C 255.055 497.457,255.600 498.226,255.600 498.558 C 255.600 498.890,256.275 499.813,257.100 500.608 C 258.663 502.116,260.645 505.043,261.987 507.825 C 262.418 508.719,263.121 509.766,263.548 510.153 C 263.976 510.540,264.724 511.789,265.211 512.929 C 265.698 514.068,266.346 515.145,266.651 515.321 C 266.956 515.498,267.582 516.381,268.043 517.284 C 268.503 518.186,269.582 519.813,270.440 520.898 C 271.298 521.984,272.000 523.127,272.000 523.440 C 272.000 523.752,272.379 524.321,272.842 524.704 C 273.306 525.087,274.030 526.189,274.451 527.153 C 274.872 528.118,275.728 529.558,276.351 530.353 C 276.975 531.149,277.802 532.475,278.188 533.300 C 278.575 534.125,279.048 534.800,279.241 534.800 C 279.433 534.800,280.218 536.047,280.985 537.570 C 281.752 539.094,282.568 540.457,282.798 540.599 C 283.027 540.740,283.686 541.789,284.260 542.928 C 284.835 544.068,285.822 545.591,286.453 546.314 C 287.084 547.037,287.600 548.040,287.600 548.544 C 287.600 549.048,288.059 549.892,288.621 550.419 C 289.182 550.947,290.001 552.191,290.440 553.184 C 290.880 554.177,291.570 555.352,291.974 555.795 C 292.379 556.238,293.116 557.410,293.613 558.400 C 294.109 559.390,294.950 560.771,295.481 561.469 C 296.013 562.166,296.626 563.386,296.845 564.180 C 297.064 564.973,297.761 566.211,298.393 566.931 C 299.025 567.651,299.845 568.996,300.215 569.920 C 300.584 570.844,301.034 571.600,301.214 571.600 C 301.395 571.600,302.030 572.632,302.626 573.892 C 303.223 575.153,304.212 576.818,304.825 577.592 C 305.437 578.367,306.151 579.810,306.411 580.800 C 306.671 581.790,307.319 583.342,307.850 584.249 C 310.112 588.109,310.305 602.174,308.150 606.001 C 307.468 607.210,306.611 609.234,306.245 610.498 C 305.640 612.584,304.193 614.677,301.950 616.711 C 301.593 617.035,300.542 618.013,299.615 618.885 C 298.688 619.757,297.271 620.738,296.465 621.065 C 295.659 621.393,294.235 622.023,293.299 622.466 C 287.426 625.249,278.033 623.957,273.148 619.695 C 269.312 616.348,267.457 614.483,266.907 613.420 C 266.568 612.765,265.876 611.903,265.369 611.504 C 264.862 611.106,264.326 610.379,264.177 609.890 C 264.029 609.400,263.467 608.413,262.929 607.695 C 262.391 606.977,261.533 605.447,261.021 604.295 C 260.509 603.143,259.440 601.237,258.645 600.060 C 257.850 598.883,257.200 597.696,257.200 597.422 C 257.200 597.148,256.817 596.581,256.348 596.162 C 255.880 595.743,255.148 594.590,254.721 593.600 C 254.295 592.610,253.594 591.424,253.164 590.965 C 252.418 590.168,251.839 589.167,248.660 583.177 C 247.894 581.734,246.969 580.306,246.605 580.004 C 246.240 579.701,245.586 578.757,245.152 577.905 C 244.717 577.053,243.740 575.543,242.981 574.548 C 242.221 573.553,241.600 572.483,241.600 572.169 C 241.600 571.856,241.245 571.245,240.812 570.812 C 240.077 570.077,238.854 567.973,236.382 563.194 C 235.822 562.112,234.946 560.782,234.436 560.238 C 233.078 558.792,230.932 555.644,230.002 553.733 C 229.556 552.816,228.537 551.286,227.738 550.333 C 226.938 549.380,226.043 548.027,225.748 547.327 C 225.453 546.627,225.026 545.940,224.798 545.799 C 224.571 545.658,223.915 544.611,223.341 543.472 C 222.766 542.332,221.735 540.755,221.048 539.966 C 220.362 539.177,219.483 538.007,219.095 537.366 C 218.395 536.207,217.420 534.749,215.701 532.287 C 215.207 531.579,214.333 530.042,213.759 528.871 C 213.185 527.700,212.487 526.655,212.208 526.548 C 211.930 526.441,211.301 525.575,210.812 524.623 C 210.322 523.671,209.416 522.518,208.797 522.061 C 208.178 521.603,207.452 520.547,207.183 519.714 C 206.914 518.882,206.269 517.750,205.749 517.200 C 204.718 516.109,203.492 514.436,201.575 511.504 C 199.390 508.160,197.640 506.989,193.685 506.222 C 185.334 504.602,184.016 504.361,180.714 503.850 C 178.797 503.554,176.817 503.044,176.314 502.717 C 175.812 502.391,174.195 501.724,172.722 501.236 C 171.249 500.748,169.629 500.034,169.122 499.650 C 168.615 499.265,166.882 498.561,165.272 498.087 C 163.661 497.612,161.837 496.797,161.218 496.277 C 160.599 495.756,159.263 495.097,158.247 494.813 C 156.999 494.464,155.528 493.521,153.701 491.900 C 152.215 490.581,150.256 489.180,149.347 488.786 C 148.437 488.391,147.433 487.697,147.115 487.242 C 146.796 486.788,145.905 486.152,145.134 485.830 C 144.362 485.508,142.827 484.379,141.723 483.322 C 140.618 482.265,138.924 480.681,137.957 479.801 C 134.712 476.849,128.755 469.903,128.131 468.344 C 127.791 467.495,127.374 466.800,127.203 466.800 C 126.818 466.800,124.800 462.593,124.800 461.789 C 124.800 461.465,124.625 461.200,124.410 461.200 C 123.809 461.200,122.857 459.093,122.204 456.316 C 121.879 454.932,121.172 452.938,120.633 451.885 C 120.095 450.832,119.535 448.942,119.390 447.685 C 118.903 443.461,118.068 438.609,117.632 437.474 C 116.964 435.733,117.069 422.766,117.766 420.908 C 118.077 420.079,118.612 417.354,118.955 414.854 C 119.389 411.688,119.864 409.806,120.520 408.654 C 121.038 407.744,121.792 406.108,122.196 405.017 C 122.599 403.926,123.334 402.630,123.827 402.136 C 124.321 401.642,124.925 400.633,125.170 399.892 C 126.080 397.135,132.491 391.363,137.427 388.858 C 145.754 384.631,165.723 387.830,171.035 394.242 C 171.494 394.796,172.789 395.676,173.914 396.197 C 175.038 396.718,176.193 397.527,176.479 397.995 C 176.766 398.463,177.588 399.212,178.307 399.660 C 180.080 400.764,184.998 405.392,188.200 408.968 C 190.238 411.245,190.575 411.588,193.027 413.894 C 194.142 414.942,195.480 416.430,196.000 417.200 C 197.276 419.091,199.295 421.489,202.326 424.713 C 203.715 426.191,205.193 428.053,205.609 428.851 C 206.025 429.649,206.635 430.405,206.965 430.531 C 207.294 430.658,207.951 431.535,208.425 432.481 C 208.899 433.426,209.987 435.042,210.843 436.072 C 211.699 437.101,212.402 438.091,212.404 438.272 C 212.407 438.452,213.037 439.210,213.804 439.956 C 214.572 440.702,215.200 441.552,215.200 441.846 C 215.200 442.139,215.695 442.636,216.301 442.949 C 216.906 443.262,217.732 443.883,218.137 444.330 C 219.359 445.680,221.858 445.875,223.135 444.719 C 224.261 443.700,227.873 441.465,230.679 440.051 C 231.602 439.586,232.502 438.959,232.679 438.657 C 233.072 437.986,235.323 436.800,236.203 436.800 C 236.556 436.800,237.330 436.274,237.923 435.631 C 238.515 434.988,239.765 434.159,240.700 433.788 C 241.635 433.417,242.400 432.953,242.400 432.757 C 242.400 432.323,243.346 431.394,245.412 429.800 C 246.268 429.140,247.892 427.700,249.022 426.600 C 250.152 425.500,251.816 424.012,252.720 423.293 C 253.624 422.574,255.813 420.324,257.583 418.293 C 259.354 416.262,261.500 413.880,262.352 413.000 C 263.204 412.120,264.024 411.000,264.174 410.510 C 264.324 410.021,264.861 409.296,265.366 408.898 C 265.872 408.501,266.680 407.283,267.162 406.193 C 267.644 405.102,268.370 403.848,268.775 403.405 C 269.180 402.962,269.968 401.689,270.525 400.575 C 271.082 399.461,271.821 398.314,272.168 398.027 C 272.514 397.739,273.149 396.367,273.578 394.976 C 274.008 393.586,274.707 391.763,275.133 390.924 C 275.558 390.086,276.186 388.040,276.528 386.379 C 276.870 384.717,277.443 382.557,277.802 381.579 C 279.006 378.297,279.186 377.032,279.456 369.929 C 279.751 362.161,279.259 356.896,277.915 353.422 C 277.494 352.334,276.874 350.084,276.538 348.422 C 276.201 346.760,275.696 345.038,275.416 344.595 C 275.135 344.152,274.420 342.442,273.826 340.796 C 273.232 339.150,272.502 337.533,272.202 337.202 C 271.903 336.871,271.115 335.505,270.451 334.168 C 269.788 332.830,268.954 331.494,268.599 331.199 C 268.244 330.905,267.693 330.040,267.375 329.278 C 267.056 328.515,266.082 327.151,265.211 326.246 C 263.291 324.252,260.800 320.787,260.800 320.111 C 260.800 319.840,260.305 319.313,259.700 318.940 C 259.095 318.568,258.016 317.708,257.302 317.031 C 256.589 316.354,255.162 315.080,254.133 314.200 C 253.103 313.320,250.987 311.343,249.430 309.808 C 247.874 308.272,245.790 306.631,244.800 306.161 C 243.810 305.691,242.620 304.860,242.155 304.313 C 241.623 303.689,240.693 303.221,239.650 303.054 C 238.602 302.887,237.439 302.300,236.495 301.464 C 235.673 300.736,233.830 299.718,232.400 299.203 C 229.167 298.039,225.814 296.374,224.071 295.068 C 223.340 294.520,221.450 293.760,219.871 293.380 C 218.292 292.999,216.370 292.375,215.600 291.993 C 214.830 291.611,211.327 290.812,207.816 290.216 C 204.305 289.621,200.939 288.879,200.337 288.567 C 197.585 287.144,183.344 287.297,177.081 288.817 C 175.172 289.281,171.040 289.783,167.200 290.018 C 144.417 291.411,140.439 291.703,139.000 292.089 C 136.461 292.771,127.204 292.624,125.565 291.876 C 124.814 291.534,123.115 290.959,121.788 290.599 C 120.368 290.213,118.806 289.443,117.988 288.724 C 117.225 288.053,115.824 286.865,114.875 286.083 C 113.926 285.302,112.870 284.108,112.529 283.431 C 112.188 282.754,111.499 281.750,110.998 281.200 C 105.835 275.534,104.118 257.287,108.174 251.200 C 108.687 250.430,109.417 248.958,109.797 247.929 C 110.176 246.900,110.917 245.654,111.443 245.159 C 111.969 244.665,112.400 244.079,112.400 243.856 C 112.400 243.247,114.063 241.600,114.678 241.600 C 114.975 241.600,115.419 241.158,115.665 240.618 C 116.096 239.672,118.974 238.000,120.172 238.000 C 120.491 238.000,120.879 237.796,121.033 237.546 C 121.964 236.041,128.989 233.525,133.767 232.987 C 136.425 232.688,140.375 232.241,142.545 231.995 C 144.715 231.748,146.965 231.362,147.545 231.136 C 149.757 230.277,153.974 229.981,172.335 229.394 C 191.880 228.769,192.186 228.739,197.200 227.011 C 198.850 226.443,201.550 225.780,203.200 225.538 C 204.850 225.296,206.490 224.845,206.845 224.536 C 207.454 224.007,210.911 222.470,216.800 220.110 C 218.230 219.537,219.850 218.773,220.400 218.413 C 220.950 218.052,222.210 217.419,223.200 217.005 C 224.190 216.592,225.463 215.833,226.029 215.320 C 226.595 214.806,227.701 214.058,228.487 213.658 C 233.166 211.272,242.432 201.454,245.019 196.140 C 245.571 195.007,246.298 193.851,246.634 193.572 C 247.402 192.934,248.187 191.078,248.567 189.000 C 248.728 188.120,249.292 186.655,249.821 185.744 C 250.594 184.413,250.942 182.767,251.599 177.344 C 252.049 173.635,252.590 169.610,252.801 168.400 C 253.618 163.735,253.983 158.555,253.647 156.400 C 252.019 145.941,250.686 139.797,249.791 138.624 C 249.268 137.938,248.509 136.638,248.104 135.734 C 247.700 134.830,246.791 133.604,246.084 133.010 C 245.378 132.415,244.791 131.720,244.781 131.464 C 244.771 131.209,243.766 130.100,242.548 129.000 C 241.330 127.900,239.674 126.378,238.867 125.618 C 238.060 124.858,236.387 123.751,235.148 123.158 C 233.910 122.565,232.783 121.895,232.643 121.670 C 232.504 121.445,231.448 120.956,230.295 120.583 C 229.143 120.210,226.918 119.206,225.351 118.352 C 223.784 117.498,222.284 116.800,222.019 116.800 C 221.754 116.800,220.426 116.371,219.068 115.847 C 217.711 115.323,215.250 114.580,213.600 114.197 C 211.950 113.814,209.700 113.106,208.600 112.625 C 206.572 111.739,204.906 111.535,189.600 110.300 C 181.571 109.652,157.985 109.657,148.000 110.309 C 143.710 110.589,136.510 110.986,132.000 111.190 C 125.080 111.504,123.541 111.689,122.140 112.371 C 121.227 112.816,118.257 113.546,115.540 113.992 C 112.823 114.438,109.340 115.114,107.800 115.494 C 104.683 116.262,97.834 116.354,94.800 115.669 C 90.176 114.623,88.571 114.000,87.600 112.870 C 87.050 112.229,86.051 111.426,85.379 111.083 C 84.080 110.422,80.800 107.084,80.800 106.425 C 80.800 106.208,80.440 105.696,80.001 105.287 C 79.561 104.877,78.735 103.385,78.164 101.971 C 77.593 100.557,76.766 98.812,76.327 98.094 C 74.167 94.566,74.556 81.254,76.954 76.600 C 77.747 75.060,78.397 73.615,78.398 73.389 C 78.399 73.163,78.940 72.387,79.600 71.664 C 80.260 70.942,80.800 70.215,80.800 70.050 C 80.800 68.972,87.814 62.795,89.729 62.187 C 90.868 61.826,92.340 61.291,93.000 61.000 C 94.271 60.438,99.577 59.319,106.200 58.216 C 108.400 57.850,111.101 57.296,112.203 56.985 C 113.305 56.674,116.365 56.233,119.003 56.003 C 121.641 55.774,125.510 55.332,127.600 55.020 C 131.560 54.430,139.014 53.414,142.800 52.949 C 149.381 52.141,178.528 51.790,186.977 52.417 " stroke="none" fill="#d4f3fb" fill-rule="evenodd"></path><path id="path2" d="M151.400 54.429 C 149.420 54.602,145.730 54.942,143.200 55.185 C 140.670 55.428,136.350 55.800,133.600 56.011 C 130.850 56.223,126.710 56.655,124.400 56.972 C 122.090 57.289,119.047 57.671,117.637 57.821 C 116.228 57.970,114.518 58.322,113.837 58.603 C 113.157 58.883,111.070 59.239,109.200 59.395 C 100.958 60.080,90.928 62.852,87.784 65.315 C 75.623 74.838,72.779 90.714,80.922 103.616 C 83.050 106.989,84.613 108.811,86.267 109.850 C 86.890 110.241,88.051 111.061,88.846 111.672 C 92.817 114.720,105.896 115.189,113.335 112.549 C 116.389 111.465,128.667 110.069,142.800 109.199 C 146.210 108.989,150.170 108.604,151.600 108.344 C 156.030 107.538,181.490 107.650,187.800 108.503 C 190.660 108.890,196.240 109.569,200.200 110.013 C 209.863 111.097,211.957 111.458,213.842 112.369 C 214.723 112.795,216.964 113.520,218.822 113.982 C 234.228 117.808,249.152 130.282,252.349 142.004 C 252.798 143.652,253.452 145.990,253.803 147.200 C 255.299 152.375,254.960 170.187,253.231 177.169 C 252.819 178.836,252.365 180.920,252.223 181.800 C 250.279 193.857,240.532 207.747,228.400 215.747 C 225.064 217.947,217.073 222.158,215.000 222.809 C 214.120 223.085,212.180 223.920,210.689 224.666 C 209.164 225.428,206.545 226.293,204.701 226.643 C 202.898 226.985,200.428 227.676,199.211 228.179 C 196.089 229.469,195.161 229.659,190.200 230.017 L 185.800 230.334 191.000 230.230 C 195.602 230.138,196.499 230.002,198.800 229.047 C 200.230 228.453,203.020 227.613,205.000 227.181 C 206.980 226.749,209.935 225.746,211.566 224.953 C 213.198 224.160,215.538 223.166,216.766 222.745 C 224.663 220.036,237.980 210.032,242.944 203.080 C 246.620 197.931,247.287 196.926,248.178 195.200 C 249.996 191.673,252.931 181.948,254.454 174.400 C 255.838 167.541,255.472 149.953,253.844 145.064 C 253.319 143.489,252.585 141.210,252.213 140.000 C 251.841 138.790,251.241 137.350,250.878 136.800 C 250.516 136.250,249.881 135.170,249.467 134.400 C 245.163 126.399,231.625 116.764,220.803 114.001 C 219.068 113.558,216.333 112.669,214.725 112.025 C 211.863 110.879,210.238 110.617,197.173 109.198 C 195.508 109.017,193.078 108.683,191.773 108.456 C 185.443 107.355,182.670 107.200,169.300 107.200 C 157.577 107.200,153.788 107.342,148.577 107.974 C 145.070 108.400,139.590 108.942,136.400 109.178 C 127.216 109.858,115.565 111.190,113.600 111.784 C 96.424 116.978,85.234 112.735,79.015 98.672 C 72.937 84.930,80.826 66.475,94.164 63.234 C 95.244 62.971,97.140 62.330,98.376 61.810 C 99.969 61.140,102.079 60.730,105.612 60.404 C 108.355 60.152,111.770 59.695,113.200 59.390 C 117.265 58.523,129.988 56.893,136.600 56.392 C 139.900 56.142,144.400 55.758,146.600 55.540 C 155.809 54.624,181.939 54.658,190.800 55.598 C 195.310 56.076,200.800 56.619,203.000 56.805 C 205.200 56.990,207.630 57.337,208.400 57.575 C 209.170 57.812,213.572 58.739,218.182 59.633 C 227.606 61.460,234.936 63.726,242.000 66.997 C 244.530 68.169,246.965 69.233,247.412 69.363 C 247.859 69.492,249.209 70.232,250.412 71.008 C 251.615 71.783,253.183 72.579,253.896 72.775 C 255.483 73.214,260.228 76.294,263.200 78.816 C 264.410 79.842,266.210 81.188,267.200 81.805 C 269.997 83.549,273.927 87.319,276.409 90.638 C 277.247 91.758,278.952 93.738,280.197 95.038 C 283.219 98.192,285.586 101.625,287.825 106.101 C 288.843 108.135,290.448 111.240,291.393 113.000 C 292.338 114.760,293.333 116.920,293.605 117.800 C 293.877 118.680,294.507 120.306,295.004 121.412 C 296.562 124.877,298.045 131.189,299.560 140.800 C 299.844 142.604,299.915 142.742,299.953 141.563 C 300.038 138.958,298.005 128.465,296.647 124.497 C 294.615 118.562,292.764 113.910,291.992 112.800 C 291.609 112.250,290.163 109.550,288.779 106.800 C 286.008 101.296,283.899 98.136,280.770 94.800 C 279.635 93.590,278.007 91.662,277.152 90.516 C 274.851 87.430,270.126 82.911,267.779 81.552 C 266.911 81.049,265.030 79.633,263.600 78.407 C 260.178 75.471,257.002 73.377,254.792 72.599 C 253.806 72.252,251.819 71.255,250.376 70.384 C 248.933 69.513,247.574 68.800,247.357 68.800 C 247.140 68.800,245.260 67.917,243.181 66.837 C 241.101 65.758,237.438 64.220,235.040 63.419 C 232.642 62.619,230.324 61.773,229.889 61.540 C 229.454 61.308,228.176 60.976,227.049 60.804 C 225.023 60.494,218.966 59.234,211.600 57.589 C 209.510 57.123,204.650 56.397,200.800 55.977 C 196.950 55.557,191.640 54.946,189.000 54.619 C 183.748 53.969,158.148 53.839,151.400 54.429 M300.200 160.200 C 300.200 171.437,300.315 176.360,300.531 174.400 C 300.931 170.779,300.904 150.679,300.493 146.200 C 300.324 144.350,300.200 150.256,300.200 160.200 M298.691 184.800 C 297.208 194.157,295.763 200.832,294.628 203.558 C 294.115 204.791,293.390 206.880,293.016 208.200 C 292.642 209.520,291.651 212.040,290.812 213.800 C 287.791 220.141,286.499 223.025,286.039 224.452 C 285.781 225.250,285.193 226.240,284.733 226.652 C 284.273 227.063,283.562 228.120,283.153 229.000 C 282.454 230.504,280.803 232.877,276.292 238.866 C 275.242 240.260,272.597 243.290,270.414 245.600 C 265.640 250.653,264.088 252.393,263.605 253.235 C 263.004 254.283,264.675 256.213,268.800 259.238 C 272.375 261.858,274.591 263.560,277.400 265.843 C 278.060 266.379,279.349 267.311,280.264 267.915 C 281.179 268.518,283.258 270.449,284.883 272.206 C 286.509 273.963,289.158 276.660,290.770 278.200 C 294.116 281.396,297.297 285.181,300.219 289.443 C 301.330 291.063,302.689 292.886,303.240 293.494 C 305.031 295.472,311.955 306.439,311.988 307.350 C 312.011 308.016,314.913 314.211,316.227 316.400 C 316.954 317.610,317.756 319.410,318.010 320.400 C 318.264 321.390,318.995 323.397,319.633 324.861 C 320.272 326.324,321.063 328.799,321.392 330.360 C 321.720 331.921,322.279 333.874,322.633 334.699 C 322.988 335.525,323.623 337.730,324.044 339.600 C 324.732 342.652,324.793 342.775,324.637 340.800 C 324.479 338.787,323.921 336.700,321.054 327.400 C 319.460 322.230,317.357 316.874,316.295 315.281 C 315.752 314.467,314.635 312.270,313.814 310.400 C 310.478 302.807,306.756 296.584,303.356 292.915 C 302.880 292.401,301.884 290.982,301.145 289.763 C 298.647 285.646,295.634 282.243,284.554 271.028 C 282.769 269.221,280.654 267.432,279.854 267.052 C 279.054 266.673,278.400 266.210,278.400 266.023 C 278.400 265.836,277.516 265.116,276.436 264.423 C 275.355 263.729,274.388 262.946,274.286 262.681 C 274.184 262.417,272.593 261.133,270.751 259.829 C 267.065 257.222,264.943 255.384,264.342 254.279 C 263.956 253.569,267.123 249.702,273.089 243.600 C 275.807 240.820,283.220 230.718,283.882 228.892 C 284.020 228.512,284.611 227.570,285.195 226.800 C 285.779 226.030,286.495 224.770,286.786 224.000 C 287.471 222.184,290.170 216.305,291.376 214.000 C 291.895 213.010,292.683 211.030,293.127 209.600 C 293.572 208.170,294.410 205.754,294.990 204.231 C 295.570 202.708,296.395 199.715,296.824 197.578 C 297.252 195.442,297.872 192.931,298.201 191.997 C 298.530 191.063,298.800 189.759,298.800 189.099 C 298.800 188.439,299.083 186.237,299.430 184.206 C 299.776 182.175,300.001 179.902,299.930 179.156 C 299.855 178.380,299.325 180.795,298.691 184.800 M165.600 230.809 C 159.432 231.106,159.082 231.146,149.800 232.596 C 146.500 233.112,142.270 233.725,140.400 233.959 C 130.771 235.162,128.587 235.609,125.800 236.950 C 124.260 237.690,122.088 238.593,120.974 238.956 C 116.482 240.418,112.406 245.249,109.126 253.000 L 107.433 257.000 107.416 263.200 L 107.400 269.400 108.957 273.736 C 109.813 276.122,110.912 278.552,111.400 279.136 C 111.888 279.721,112.580 280.770,112.937 281.467 C 114.053 283.645,120.497 288.779,123.328 289.745 C 126.497 290.828,136.110 290.875,148.800 289.869 C 153.530 289.494,159.830 289.008,162.800 288.788 C 165.770 288.569,170.180 288.029,172.600 287.588 C 185.039 285.324,202.619 285.734,207.610 288.405 C 207.991 288.609,210.017 289.147,212.112 289.601 C 217.320 290.730,223.511 292.866,227.594 294.943 C 229.467 295.897,231.829 296.989,232.842 297.370 C 233.855 297.752,235.625 298.836,236.774 299.778 C 237.923 300.721,239.524 301.699,240.331 301.952 C 241.139 302.205,242.520 302.943,243.400 303.592 C 244.280 304.241,245.900 305.252,247.000 305.837 C 248.100 306.423,249.056 307.047,249.125 307.225 C 249.193 307.402,252.054 310.124,255.482 313.274 C 258.910 316.423,262.154 319.696,262.691 320.546 C 263.228 321.396,264.350 322.836,265.183 323.746 C 267.291 326.047,272.852 334.905,274.007 337.800 C 274.533 339.120,275.126 340.422,275.325 340.693 C 275.524 340.964,276.284 343.034,277.015 345.293 C 277.746 347.552,278.629 350.174,278.977 351.119 C 280.330 354.797,280.912 360.960,280.665 369.000 C 280.353 379.166,280.207 379.966,276.682 390.800 C 275.674 393.897,273.302 399.169,271.945 401.328 C 270.186 404.127,266.386 409.869,265.400 411.219 C 264.960 411.821,263.700 413.548,262.600 415.057 C 260.630 417.759,257.138 421.293,250.343 427.462 C 243.909 433.303,241.646 435.066,237.476 437.484 C 236.417 438.098,234.527 439.384,233.276 440.343 C 232.024 441.301,229.920 442.626,228.600 443.286 C 227.280 443.947,225.840 444.802,225.400 445.188 C 221.467 448.635,215.879 446.416,211.831 439.800 C 211.427 439.140,210.667 438.137,210.142 437.571 C 209.616 437.005,208.605 435.621,207.893 434.496 C 206.398 432.129,203.074 427.971,199.023 423.400 C 197.463 421.640,195.471 419.300,194.597 418.200 C 193.155 416.386,192.018 415.159,186.686 409.663 C 183.232 406.103,173.893 397.770,172.416 396.930 C 171.574 396.452,170.066 395.434,169.063 394.669 C 168.061 393.904,166.324 392.973,165.203 392.601 C 164.082 392.229,162.350 391.469,161.355 390.913 C 155.681 387.741,143.271 387.634,138.000 390.710 C 137.010 391.288,135.480 392.102,134.600 392.520 C 130.252 394.584,124.747 402.171,121.459 410.630 C 116.620 423.081,118.768 448.350,125.742 461.000 C 126.470 462.320,127.849 464.827,128.806 466.571 C 131.314 471.141,142.877 483.095,146.800 485.173 C 147.570 485.581,148.520 486.269,148.912 486.702 C 149.303 487.135,150.383 487.820,151.312 488.225 C 152.240 488.630,153.720 489.607,154.600 490.396 C 156.388 491.999,166.724 497.605,167.866 497.591 C 168.270 497.586,167.610 497.074,166.400 496.453 C 160.516 493.432,155.800 490.752,154.926 489.930 C 154.393 489.430,152.990 488.476,151.807 487.810 C 140.576 481.489,127.339 466.124,124.057 455.600 C 121.657 447.901,121.179 446.162,120.370 442.164 C 118.507 432.964,119.009 418.123,121.376 412.431 C 121.886 411.204,122.434 409.750,122.593 409.200 C 123.361 406.543,127.902 399.294,130.438 396.677 C 137.681 389.201,151.911 386.839,161.163 391.578 C 162.133 392.074,163.790 392.737,164.846 393.051 C 165.902 393.364,167.605 394.261,168.630 395.044 C 169.655 395.826,171.132 396.825,171.911 397.263 C 174.784 398.876,187.761 411.314,193.367 417.827 C 194.705 419.382,197.060 422.098,198.600 423.861 C 203.262 429.199,206.132 432.765,207.493 434.907 C 208.205 436.026,209.209 437.405,209.725 437.971 C 210.240 438.537,211.482 440.170,212.484 441.600 C 214.195 444.043,216.373 446.134,218.200 447.088 C 219.701 447.872,224.105 446.941,226.200 445.398 C 226.860 444.911,228.390 444.015,229.600 443.405 C 230.810 442.795,233.088 441.374,234.662 440.248 C 236.235 439.122,239.025 437.155,240.862 435.877 C 245.361 432.746,248.683 429.937,255.800 423.241 C 256.680 422.413,257.888 421.419,258.485 421.032 C 259.082 420.644,260.238 419.309,261.054 418.064 C 261.870 416.819,263.189 414.990,263.985 414.000 C 264.781 413.010,265.695 411.819,266.016 411.352 C 266.337 410.886,267.391 409.356,268.359 407.952 C 270.959 404.179,274.389 398.344,274.679 397.200 C 274.818 396.650,275.533 394.945,276.266 393.411 C 277.000 391.877,277.600 390.428,277.600 390.190 C 277.600 389.952,278.212 387.877,278.961 385.579 C 281.213 378.666,282.024 364.394,280.642 356.000 C 280.080 352.590,276.470 341.253,275.614 340.214 C 275.427 339.986,274.911 338.765,274.467 337.501 C 273.748 335.448,270.782 330.506,267.400 325.722 C 264.211 321.211,260.922 317.449,256.979 313.800 C 254.601 311.600,251.891 309.045,250.956 308.123 C 250.021 307.200,248.479 306.050,247.528 305.568 C 246.578 305.085,245.260 304.238,244.600 303.685 C 243.940 303.132,242.320 302.189,241.000 301.589 C 239.680 300.990,238.060 300.017,237.400 299.427 C 234.266 296.626,220.100 290.704,212.844 289.162 C 210.779 288.722,208.529 288.072,207.844 287.716 C 202.790 285.088,186.788 284.571,173.657 286.612 C 165.520 287.876,161.083 288.358,151.800 288.985 C 146.520 289.342,139.848 289.815,136.972 290.037 C 122.150 291.181,113.900 286.054,109.291 272.833 C 105.981 263.335,108.691 249.693,115.028 243.954 C 115.608 243.429,116.804 242.326,117.687 241.502 C 118.721 240.537,120.167 239.730,121.746 239.237 C 123.096 238.816,125.390 237.909,126.845 237.223 C 129.482 235.980,132.017 235.518,142.324 234.404 C 145.857 234.022,155.803 232.647,159.800 231.988 C 161.120 231.770,166.520 231.414,171.800 231.196 C 185.420 230.633,186.304 230.545,178.400 230.537 C 174.550 230.533,168.790 230.655,165.600 230.809 M324.837 344.414 C 324.816 345.192,325.191 347.892,325.669 350.414 C 326.870 356.752,327.014 376.741,325.894 381.771 C 325.506 383.515,325.002 387.115,324.773 389.771 C 324.479 393.191,324.020 395.592,323.200 398.000 C 322.563 399.870,321.674 403.094,321.225 405.165 C 320.775 407.235,320.159 409.308,319.856 409.770 C 319.553 410.233,318.831 411.927,318.251 413.535 C 317.671 415.143,316.673 417.570,316.033 418.929 C 315.394 420.288,314.500 422.210,314.049 423.200 C 310.963 429.960,302.371 443.730,297.901 449.082 C 296.965 450.202,295.339 452.202,294.287 453.527 C 290.111 458.787,275.416 472.700,270.339 476.200 C 269.062 477.080,266.259 479.164,264.109 480.832 C 259.576 484.348,255.382 487.149,252.745 488.421 C 249.852 489.816,249.873 494.461,252.788 497.916 C 253.881 499.212,257.126 504.053,259.441 507.841 C 259.859 508.524,260.865 510.075,261.678 511.288 C 262.491 512.500,263.612 514.310,264.170 515.309 C 264.728 516.308,266.784 519.437,268.740 522.262 C 270.696 525.088,272.896 528.480,273.628 529.800 C 274.361 531.120,276.156 534.000,277.617 536.200 C 279.078 538.400,281.231 541.820,282.400 543.800 C 283.570 545.780,284.830 547.760,285.201 548.200 C 285.572 548.640,286.824 550.800,287.983 553.000 C 289.143 555.200,290.678 557.900,291.395 559.000 C 293.083 561.591,294.120 563.333,295.442 565.800 C 296.032 566.900,297.298 568.946,298.257 570.347 C 299.216 571.747,300.000 573.068,300.000 573.283 C 300.000 573.497,301.059 575.411,302.354 577.536 C 310.349 590.656,309.343 606.460,299.942 615.445 C 292.034 623.003,280.024 623.160,272.115 615.809 C 268.856 612.780,262.934 604.629,262.053 601.960 C 261.577 600.519,260.081 598.012,257.184 593.800 C 256.276 592.480,254.506 589.600,253.250 587.400 C 251.995 585.200,250.615 582.794,250.184 582.054 C 249.278 580.498,242.919 570.353,240.999 567.400 C 240.284 566.300,239.016 564.140,238.180 562.600 C 237.345 561.060,235.963 558.810,235.110 557.600 C 233.707 555.612,227.746 546.546,223.896 540.545 C 223.068 539.255,221.496 536.940,220.401 535.400 C 219.306 533.860,217.733 531.450,216.905 530.044 C 216.077 528.637,214.725 526.720,213.900 525.782 C 213.075 524.844,212.400 523.901,212.400 523.686 C 212.400 523.470,211.504 522.148,210.408 520.747 C 209.312 519.346,208.412 517.985,208.408 517.721 C 208.404 517.458,207.545 516.105,206.500 514.714 C 205.455 513.323,204.087 511.400,203.459 510.439 C 200.229 505.496,198.472 504.316,192.983 503.402 C 190.792 503.037,188.010 502.497,186.800 502.203 C 185.590 501.908,183.004 501.462,181.054 501.212 C 178.470 500.881,176.556 500.329,174.001 499.179 C 172.072 498.311,170.068 497.614,169.547 497.631 C 168.853 497.654,169.081 497.841,170.400 498.332 C 171.390 498.700,172.740 499.291,173.400 499.646 C 175.230 500.630,178.336 501.509,181.000 501.797 C 182.320 501.940,184.280 502.311,185.356 502.623 C 186.431 502.935,189.568 503.557,192.327 504.005 C 198.075 504.939,199.293 505.650,202.200 509.764 C 203.080 511.010,204.539 513.000,205.442 514.187 C 206.344 515.374,207.401 517.033,207.789 517.873 C 208.178 518.713,209.165 520.210,209.983 521.200 C 210.801 522.190,211.702 523.450,211.983 524.000 C 212.265 524.550,212.992 525.540,213.597 526.200 C 214.203 526.860,215.433 528.660,216.332 530.200 C 218.105 533.240,219.112 534.754,221.071 537.330 C 221.770 538.248,223.057 540.170,223.932 541.600 C 226.695 546.116,233.527 556.531,234.882 558.293 C 235.598 559.224,237.001 561.474,237.999 563.293 C 238.998 565.112,240.386 567.500,241.085 568.600 C 241.783 569.700,243.025 571.680,243.843 573.000 C 244.662 574.320,246.091 576.570,247.020 578.000 C 247.948 579.430,250.063 582.940,251.720 585.800 C 253.377 588.660,255.243 591.780,255.866 592.733 C 259.294 597.970,260.532 600.042,261.584 602.298 C 266.214 612.233,274.146 619.856,281.466 621.407 C 303.144 626.000,316.126 599.030,302.769 577.152 C 301.477 575.036,300.247 572.850,300.036 572.294 C 299.824 571.738,298.875 570.111,297.926 568.678 C 296.977 567.246,295.412 564.663,294.449 562.937 C 293.487 561.212,292.205 559.080,291.602 558.200 C 290.999 557.320,290.026 555.700,289.441 554.600 C 287.000 550.012,286.143 548.528,285.168 547.200 C 284.603 546.430,283.362 544.450,282.411 542.800 C 281.460 541.150,279.380 537.820,277.790 535.400 C 276.200 532.980,274.580 530.370,274.191 529.600 C 273.537 528.309,269.891 522.723,269.099 521.800 C 268.910 521.580,267.821 519.934,266.678 518.141 C 265.535 516.349,263.700 513.474,262.600 511.751 C 261.500 510.029,259.970 507.609,259.200 506.372 C 256.553 502.124,253.862 498.199,252.967 497.281 C 250.360 494.607,250.753 490.037,253.719 488.553 C 254.863 487.979,256.340 487.116,257.000 486.634 C 257.660 486.152,258.891 485.359,259.736 484.871 C 260.581 484.383,261.931 483.453,262.736 482.805 C 266.943 479.417,270.725 476.491,272.049 475.600 C 276.482 472.618,292.487 457.131,296.095 452.332 C 297.033 451.085,298.609 449.015,299.598 447.732 C 302.502 443.966,310.158 432.290,311.393 429.744 C 312.018 428.455,312.774 426.950,313.073 426.400 C 314.410 423.940,317.568 417.104,318.006 415.723 C 318.271 414.885,319.088 412.850,319.820 411.200 C 320.552 409.550,321.498 406.580,321.922 404.600 C 322.346 402.620,323.086 399.944,323.566 398.654 C 324.047 397.364,324.788 393.674,325.214 390.454 C 325.640 387.234,326.256 383.160,326.582 381.400 C 328.069 373.376,327.702 357.914,325.783 347.800 C 325.283 345.160,324.857 343.636,324.837 344.414 " stroke="none" fill="#7c7c7c" fill-rule="evenodd"></path><path id="path3" d="M152.800 52.406 C 148.510 52.556,144.010 52.801,142.800 52.949 C 139.014 53.414,131.560 54.430,127.600 55.020 C 125.510 55.332,121.641 55.774,119.003 56.003 C 116.365 56.233,113.305 56.674,112.203 56.985 C 111.101 57.296,108.400 57.850,106.200 58.216 C 99.577 59.319,94.271 60.438,93.000 61.000 C 92.340 61.291,90.868 61.826,89.729 62.187 C 87.814 62.795,80.800 68.972,80.800 70.050 C 80.800 70.215,80.260 70.942,79.600 71.664 C 78.940 72.387,78.399 73.163,78.398 73.389 C 78.397 73.615,77.747 75.060,76.954 76.600 C 74.556 81.254,74.167 94.566,76.327 98.094 C 76.766 98.812,77.593 100.557,78.164 101.971 C 78.735 103.385,79.561 104.877,80.001 105.287 C 80.440 105.696,80.800 106.208,80.800 106.425 C 80.800 107.084,84.080 110.422,85.379 111.083 C 86.051 111.426,87.050 112.229,87.600 112.870 C 88.571 114.000,90.176 114.623,94.800 115.669 C 97.834 116.354,104.683 116.262,107.800 115.494 C 109.340 115.114,112.823 114.438,115.540 113.992 C 118.257 113.546,121.227 112.816,122.140 112.371 C 123.541 111.689,125.080 111.504,132.000 111.190 C 136.510 110.986,143.710 110.589,148.000 110.309 C 157.985 109.657,181.571 109.652,189.600 110.300 C 204.906 111.535,206.572 111.739,208.600 112.625 C 209.700 113.106,211.950 113.814,213.600 114.197 C 215.250 114.580,217.711 115.323,219.068 115.847 C 220.426 116.371,221.754 116.800,222.019 116.800 C 222.284 116.800,223.784 117.498,225.351 118.352 C 226.918 119.206,229.143 120.210,230.295 120.583 C 231.448 120.956,232.504 121.445,232.643 121.670 C 232.783 121.895,233.910 122.565,235.148 123.158 C 236.387 123.751,238.060 124.858,238.867 125.618 C 239.674 126.378,241.330 127.900,242.548 129.000 C 243.766 130.100,244.771 131.209,244.781 131.464 C 244.791 131.720,245.378 132.415,246.084 133.010 C 246.791 133.604,247.700 134.830,248.104 135.734 C 248.509 136.638,249.268 137.938,249.791 138.624 C 250.686 139.797,252.019 145.941,253.647 156.400 C 253.983 158.555,253.618 163.735,252.801 168.400 C 252.590 169.610,252.049 173.635,251.599 177.344 C 250.942 182.767,250.594 184.413,249.821 185.744 C 249.292 186.655,248.728 188.120,248.567 189.000 C 248.187 191.078,247.402 192.934,246.634 193.572 C 246.298 193.851,245.571 195.007,245.019 196.140 C 242.432 201.454,233.166 211.272,228.487 213.658 C 227.701 214.058,226.595 214.806,226.029 215.320 C 225.463 215.833,224.190 216.592,223.200 217.005 C 222.210 217.419,220.950 218.052,220.400 218.413 C 219.850 218.773,218.230 219.537,216.800 220.110 C 210.911 222.470,207.454 224.007,206.845 224.536 C 206.490 224.845,204.850 225.296,203.200 225.538 C 201.550 225.780,198.850 226.443,197.200 227.011 C 192.186 228.739,191.880 228.769,172.335 229.394 C 153.974 229.981,149.757 230.277,147.545 231.136 C 146.965 231.362,144.715 231.748,142.545 231.995 C 140.375 232.241,136.425 232.688,133.767 232.987 C 128.989 233.525,121.964 236.041,121.033 237.546 C 120.879 237.796,120.491 238.000,120.172 238.000 C 118.974 238.000,116.096 239.672,115.665 240.618 C 115.419 241.158,114.975 241.600,114.678 241.600 C 114.063 241.600,112.400 243.247,112.400 243.856 C 112.400 244.079,111.969 244.665,111.443 245.159 C 110.917 245.654,110.176 246.900,109.797 247.929 C 109.417 248.958,108.687 250.430,108.174 251.200 C 104.118 257.287,105.835 275.534,110.998 281.200 C 111.499 281.750,112.188 282.754,112.529 283.431 C 112.870 284.108,113.926 285.302,114.875 286.083 C 115.824 286.865,117.225 288.053,117.988 288.724 C 118.806 289.443,120.368 290.213,121.788 290.599 C 123.115 290.959,124.814 291.534,125.565 291.876 C 127.204 292.624,136.461 292.771,139.000 292.089 C 140.439 291.703,144.417 291.411,167.200 290.018 C 171.040 289.783,175.172 289.281,177.081 288.817 C 183.344 287.297,197.585 287.144,200.337 288.567 C 200.939 288.879,204.305 289.621,207.816 290.216 C 211.327 290.812,214.830 291.611,215.600 291.993 C 216.370 292.375,218.292 292.999,219.871 293.380 C 221.450 293.760,223.340 294.520,224.071 295.068 C 225.814 296.374,229.167 298.039,232.400 299.203 C 233.830 299.718,235.673 300.736,236.495 301.464 C 237.439 302.300,238.602 302.887,239.650 303.054 C 240.693 303.221,241.623 303.689,242.155 304.313 C 242.620 304.860,243.810 305.691,244.800 306.161 C 245.790 306.631,247.874 308.272,249.430 309.808 C 250.987 311.343,253.103 313.320,254.133 314.200 C 255.162 315.080,256.589 316.354,257.302 317.031 C 258.016 317.708,259.095 318.568,259.700 318.940 C 260.305 319.313,260.800 319.840,260.800 320.111 C 260.800 320.787,263.291 324.252,265.211 326.246 C 266.082 327.151,267.056 328.515,267.375 329.278 C 267.693 330.040,268.244 330.905,268.599 331.199 C 268.954 331.494,269.788 332.830,270.451 334.168 C 271.115 335.505,271.903 336.871,272.202 337.202 C 272.502 337.533,273.232 339.150,273.826 340.796 C 274.420 342.442,275.135 344.152,275.416 344.595 C 275.696 345.038,276.201 346.760,276.538 348.422 C 276.874 350.084,277.494 352.334,277.915 353.422 C 279.259 356.896,279.751 362.161,279.456 369.929 C 279.186 377.032,279.006 378.297,277.802 381.579 C 277.443 382.557,276.870 384.717,276.528 386.379 C 276.186 388.040,275.558 390.086,275.133 390.924 C 274.707 391.763,274.008 393.586,273.578 394.976 C 273.149 396.367,272.514 397.739,272.168 398.027 C 271.821 398.314,271.082 399.461,270.525 400.575 C 269.968 401.689,269.180 402.962,268.775 403.405 C 268.370 403.848,267.644 405.102,267.162 406.193 C 266.680 407.283,265.872 408.501,265.366 408.898 C 264.861 409.296,264.324 410.021,264.174 410.510 C 264.024 411.000,263.204 412.120,262.352 413.000 C 261.500 413.880,259.354 416.262,257.583 418.293 C 255.813 420.324,253.624 422.574,252.720 423.293 C 251.816 424.012,250.152 425.500,249.022 426.600 C 247.892 427.700,246.268 429.140,245.412 429.800 C 243.346 431.394,242.400 432.323,242.400 432.757 C 242.400 432.953,241.635 433.417,240.700 433.788 C 239.765 434.159,238.515 434.988,237.923 435.631 C 237.330 436.274,236.556 436.800,236.203 436.800 C 235.323 436.800,233.072 437.986,232.679 438.657 C 232.502 438.959,231.602 439.586,230.679 440.051 C 227.873 441.465,224.261 443.700,223.135 444.719 C 221.858 445.875,219.359 445.680,218.137 444.330 C 217.732 443.883,216.906 443.262,216.301 442.949 C 215.695 442.636,215.200 442.139,215.200 441.846 C 215.200 441.552,214.572 440.702,213.804 439.956 C 213.037 439.210,212.407 438.452,212.404 438.272 C 212.402 438.091,211.699 437.101,210.843 436.072 C 209.987 435.042,208.899 433.426,208.425 432.481 C 207.951 431.535,207.294 430.658,206.965 430.531 C 206.635 430.405,206.025 429.649,205.609 428.851 C 205.193 428.053,203.715 426.191,202.326 424.713 C 199.295 421.489,197.276 419.091,196.000 417.200 C 195.480 416.430,194.142 414.942,193.027 413.894 C 190.575 411.588,190.238 411.245,188.200 408.968 C 184.998 405.392,180.080 400.764,178.307 399.660 C 177.588 399.212,176.766 398.463,176.479 397.995 C 176.193 397.527,175.038 396.718,173.914 396.197 C 172.789 395.676,171.494 394.796,171.035 394.242 C 165.723 387.830,145.754 384.631,137.427 388.858 C 132.491 391.363,126.080 397.135,125.170 399.892 C 124.925 400.633,124.321 401.642,123.827 402.136 C 123.334 402.630,122.599 403.926,122.196 405.017 C 121.792 406.108,121.038 407.744,120.520 408.654 C 119.864 409.806,119.389 411.688,118.955 414.854 C 118.612 417.354,118.077 420.079,117.766 420.908 C 117.069 422.766,116.964 435.733,117.632 437.474 C 118.068 438.609,118.903 443.461,119.390 447.685 C 119.535 448.942,120.095 450.832,120.633 451.885 C 121.172 452.938,121.879 454.932,122.204 456.316 C 122.857 459.093,123.809 461.200,124.410 461.200 C 124.625 461.200,124.800 461.465,124.800 461.789 C 124.800 462.593,126.818 466.800,127.203 466.800 C 127.374 466.800,127.791 467.495,128.131 468.344 C 128.755 469.903,134.712 476.849,137.957 479.801 C 138.924 480.681,140.618 482.265,141.723 483.322 C 142.827 484.379,144.362 485.508,145.134 485.830 C 145.905 486.152,146.796 486.788,147.115 487.242 C 147.433 487.697,148.437 488.391,149.347 488.786 C 150.256 489.180,152.215 490.581,153.701 491.900 C 155.528 493.521,156.999 494.464,158.247 494.813 C 159.263 495.097,160.599 495.756,161.218 496.277 C 161.837 496.797,163.661 497.612,165.272 498.087 C 166.882 498.561,168.615 499.265,169.122 499.650 C 169.629 500.034,171.249 500.748,172.722 501.236 C 174.195 501.724,175.812 502.391,176.314 502.717 C 176.817 503.044,178.797 503.554,180.714 503.850 C 184.016 504.361,185.334 504.602,193.685 506.222 C 197.640 506.989,199.390 508.160,201.575 511.504 C 203.492 514.436,204.718 516.109,205.749 517.200 C 206.269 517.750,206.914 518.882,207.183 519.714 C 207.452 520.547,208.178 521.603,208.797 522.061 C 209.416 522.518,210.322 523.671,210.812 524.623 C 211.301 525.575,211.930 526.441,212.208 526.548 C 212.487 526.655,213.185 527.700,213.759 528.871 C 214.333 530.042,215.207 531.579,215.701 532.287 C 217.420 534.749,218.395 536.207,219.095 537.366 C 219.483 538.007,220.362 539.177,221.048 539.966 C 221.735 540.755,222.766 542.332,223.341 543.472 C 223.915 544.611,224.571 545.658,224.798 545.799 C 225.026 545.940,225.453 546.627,225.748 547.327 C 226.043 548.027,226.938 549.380,227.738 550.333 C 228.537 551.286,229.556 552.816,230.002 553.733 C 230.932 555.644,233.078 558.792,234.436 560.238 C 234.946 560.782,235.822 562.112,236.382 563.194 C 238.854 567.973,240.077 570.077,240.812 570.812 C 241.245 571.245,241.600 571.856,241.600 572.169 C 241.600 572.483,242.221 573.553,242.981 574.548 C 243.740 575.543,244.717 577.053,245.152 577.905 C 245.586 578.757,246.240 579.701,246.605 580.004 C 246.969 580.306,247.894 581.734,248.660 583.177 C 251.839 589.167,252.418 590.168,253.164 590.965 C 253.594 591.424,254.295 592.610,254.721 593.600 C 255.148 594.590,255.880 595.743,256.348 596.162 C 256.817 596.581,257.200 597.148,257.200 597.422 C 257.200 597.696,257.850 598.883,258.645 600.060 C 259.440 601.237,260.509 603.143,261.021 604.295 C 261.533 605.447,262.391 606.977,262.929 607.695 C 263.467 608.413,264.029 609.400,264.177 609.890 C 264.326 610.379,264.862 611.106,265.369 611.504 C 265.876 611.903,266.568 612.765,266.907 613.420 C 267.457 614.483,269.312 616.348,273.148 619.695 C 278.033 623.957,287.426 625.249,293.299 622.466 C 294.235 622.023,295.659 621.393,296.465 621.065 C 297.271 620.738,298.688 619.757,299.615 618.885 C 300.542 618.013,301.593 617.035,301.950 616.711 C 304.193 614.677,305.640 612.584,306.245 610.498 C 306.611 609.234,307.468 607.210,308.150 606.001 C 310.305 602.174,310.112 588.109,307.850 584.249 C 307.319 583.342,306.671 581.790,306.411 580.800 C 306.151 579.810,305.437 578.367,304.825 577.592 C 304.212 576.818,303.223 575.153,302.626 573.892 C 302.030 572.632,301.395 571.600,301.214 571.600 C 301.034 571.600,300.584 570.844,300.215 569.920 C 299.845 568.996,299.025 567.651,298.393 566.931 C 297.761 566.211,297.064 564.973,296.845 564.180 C 296.626 563.386,296.013 562.166,295.481 561.469 C 294.950 560.771,294.109 559.390,293.613 558.400 C 293.116 557.410,292.379 556.238,291.974 555.795 C 291.570 555.352,290.880 554.177,290.440 553.184 C 290.001 552.191,289.182 550.947,288.621 550.419 C 288.059 549.892,287.600 549.048,287.600 548.544 C 287.600 548.040,287.084 547.037,286.453 546.314 C 285.822 545.591,284.835 544.068,284.260 542.928 C 283.686 541.789,283.027 540.740,282.798 540.599 C 282.568 540.457,281.752 539.094,280.985 537.570 C 280.218 536.047,279.433 534.800,279.241 534.800 C 279.048 534.800,278.575 534.125,278.188 533.300 C 277.802 532.475,276.975 531.149,276.351 530.353 C 275.728 529.558,274.872 528.118,274.451 527.153 C 274.030 526.189,273.306 525.087,272.842 524.704 C 272.379 524.321,272.000 523.752,272.000 523.440 C 272.000 523.127,271.298 521.984,270.440 520.898 C 269.582 519.813,268.503 518.186,268.043 517.284 C 267.582 516.381,266.956 515.498,266.651 515.321 C 266.346 515.145,265.698 514.068,265.211 512.929 C 264.724 511.789,263.976 510.540,263.548 510.153 C 263.121 509.766,262.418 508.719,261.987 507.825 C 260.645 505.043,258.663 502.116,257.100 500.608 C 256.275 499.813,255.600 498.890,255.600 498.558 C 255.600 498.226,255.055 497.457,254.390 496.849 C 251.634 494.333,252.346 490.545,255.867 488.988 C 257.089 488.447,258.705 487.464,259.458 486.802 C 260.212 486.141,261.008 485.600,261.228 485.600 C 261.895 485.600,268.494 480.598,271.095 478.121 C 271.834 477.417,272.790 476.730,273.219 476.594 C 273.649 476.457,274.461 475.742,275.024 475.004 C 275.587 474.266,276.532 473.487,277.124 473.274 C 278.379 472.823,282.638 469.130,285.444 466.061 C 286.520 464.884,289.470 461.782,292.000 459.167 C 294.530 456.552,296.870 453.826,297.200 453.109 C 297.530 452.392,298.295 451.383,298.900 450.867 C 299.505 450.351,300.000 449.676,300.000 449.368 C 300.000 449.059,300.558 448.310,301.240 447.703 C 301.922 447.096,302.728 446.122,303.031 445.538 C 303.334 444.954,303.901 444.166,304.291 443.788 C 304.933 443.166,306.421 440.961,308.303 437.845 C 308.686 437.210,309.622 435.860,310.381 434.845 C 311.141 433.830,312.089 432.019,312.488 430.819 C 312.886 429.620,313.567 428.261,314.000 427.800 C 314.433 427.339,315.153 425.899,315.600 424.600 C 316.047 423.301,316.783 421.844,317.236 421.361 C 317.689 420.879,318.421 419.070,318.861 417.342 C 319.302 415.614,319.986 413.840,320.381 413.400 C 321.162 412.531,322.208 409.543,322.621 407.000 C 322.764 406.120,323.229 404.654,323.656 403.742 C 324.082 402.830,324.703 400.310,325.036 398.142 C 325.369 395.974,325.994 393.353,326.424 392.317 C 329.164 385.729,329.398 351.674,326.757 343.890 C 326.292 342.521,325.575 339.351,325.164 336.846 C 324.752 334.341,324.084 331.731,323.679 331.045 C 323.275 330.359,322.608 328.199,322.198 326.246 C 321.788 324.293,321.075 322.134,320.614 321.447 C 320.153 320.761,319.436 319.068,319.020 317.685 C 318.604 316.302,317.862 314.736,317.370 314.206 C 316.879 313.675,316.091 312.107,315.619 310.721 C 315.147 309.334,314.441 307.750,314.048 307.200 C 313.656 306.650,313.015 305.358,312.624 304.329 C 312.233 303.300,311.483 302.054,310.957 301.559 C 310.431 301.065,310.000 300.464,310.000 300.224 C 310.000 299.426,308.331 296.661,307.413 295.939 C 306.916 295.548,306.292 294.705,306.028 294.067 C 305.763 293.429,305.118 292.677,304.594 292.397 C 304.070 292.117,303.367 291.200,303.031 290.360 C 302.100 288.034,299.726 284.904,295.000 279.774 C 294.120 278.819,292.590 277.128,291.600 276.017 C 289.973 274.192,288.039 272.210,284.600 268.845 C 283.940 268.199,282.725 267.351,281.900 266.961 C 281.075 266.571,280.400 266.113,280.400 265.944 C 280.400 265.775,279.568 265.001,278.551 264.225 C 277.534 263.448,275.557 261.736,274.158 260.420 C 272.760 259.105,271.079 257.751,270.424 257.412 C 269.769 257.074,268.795 256.392,268.261 255.898 C 267.726 255.404,266.863 254.683,266.344 254.295 L 265.400 253.590 266.368 252.901 C 267.792 251.887,270.974 248.521,274.600 244.191 C 276.360 242.089,278.655 239.358,279.700 238.122 C 280.745 236.887,281.600 235.687,281.600 235.457 C 281.600 235.227,282.113 234.490,282.741 233.819 C 283.368 233.149,284.192 231.790,284.572 230.800 C 284.951 229.810,285.685 228.550,286.203 228.000 C 286.721 227.450,287.359 226.145,287.620 225.100 C 287.881 224.055,288.215 223.200,288.361 223.200 C 288.782 223.200,289.900 221.121,290.619 219.004 C 290.981 217.938,291.722 216.393,292.267 215.571 C 292.811 214.749,293.521 213.024,293.845 211.738 C 294.169 210.452,294.857 208.590,295.373 207.600 C 295.890 206.610,296.624 204.270,297.004 202.400 C 297.384 200.530,298.134 197.863,298.671 196.474 C 299.353 194.706,299.759 192.547,300.025 189.274 C 300.233 186.703,300.771 183.175,301.221 181.434 C 303.342 173.229,303.338 147.263,301.215 139.849 C 300.782 138.336,300.227 134.826,299.983 132.049 C 299.621 127.931,299.330 126.557,298.407 124.600 C 297.785 123.280,296.975 121.120,296.607 119.800 C 296.238 118.480,295.643 116.950,295.282 116.400 C 294.922 115.850,294.291 114.410,293.881 113.200 C 293.471 111.990,292.713 110.550,292.196 110.000 C 291.679 109.450,290.879 107.989,290.419 106.754 C 289.960 105.519,289.226 104.186,288.790 103.791 C 288.354 103.396,287.808 102.373,287.578 101.518 C 287.202 100.120,286.269 98.878,281.892 93.943 C 281.181 93.142,280.060 91.728,279.400 90.801 C 278.740 89.874,277.435 88.289,276.500 87.278 C 275.565 86.268,274.800 85.333,274.800 85.201 C 274.800 85.069,274.198 84.743,273.463 84.477 C 272.727 84.211,271.921 83.545,271.671 82.996 C 271.421 82.447,270.711 81.684,270.094 81.299 C 268.786 80.485,266.488 78.721,264.441 76.960 C 261.778 74.669,258.800 72.789,256.492 71.942 C 255.231 71.480,253.750 70.687,253.200 70.182 C 252.650 69.676,251.390 68.948,250.400 68.565 C 249.410 68.181,248.150 67.559,247.600 67.182 C 244.971 65.382,240.274 63.221,237.328 62.457 C 235.533 61.992,233.465 61.265,232.732 60.842 C 231.982 60.409,229.477 59.778,227.000 59.398 C 224.580 59.027,221.880 58.457,221.000 58.133 C 217.437 56.818,215.793 56.403,212.475 55.984 C 210.564 55.743,208.460 55.383,207.800 55.184 C 199.406 52.658,177.374 51.545,152.800 52.406 M189.000 54.619 C 191.640 54.946,196.950 55.557,200.800 55.977 C 204.650 56.397,209.510 57.123,211.600 57.589 C 218.966 59.234,225.023 60.494,227.049 60.804 C 228.176 60.976,229.454 61.308,229.889 61.540 C 230.324 61.773,232.642 62.619,235.040 63.419 C 237.438 64.220,241.101 65.758,243.181 66.837 C 245.260 67.917,247.140 68.800,247.357 68.800 C 247.574 68.800,248.933 69.513,250.376 70.384 C 251.819 71.255,253.806 72.252,254.792 72.599 C 257.002 73.377,260.178 75.471,263.600 78.407 C 265.030 79.633,266.911 81.049,267.779 81.552 C 270.126 82.911,274.851 87.430,277.152 90.516 C 278.007 91.662,279.635 93.590,280.770 94.800 C 283.899 98.136,286.008 101.296,288.779 106.800 C 290.163 109.550,291.609 112.250,291.992 112.800 C 292.764 113.911,294.616 118.564,296.649 124.504 C 301.807 139.576,302.400 175.608,297.782 193.400 C 297.268 195.380,296.728 197.810,296.582 198.800 C 296.436 199.790,295.724 202.220,295.001 204.200 C 294.278 206.180,293.374 208.790,292.993 210.000 C 292.611 211.210,291.879 213.010,291.366 214.000 C 290.136 216.376,287.451 222.237,286.786 224.000 C 286.495 224.770,285.779 226.030,285.195 226.800 C 284.611 227.570,284.020 228.512,283.882 228.892 C 283.220 230.718,275.807 240.820,273.089 243.600 C 267.123 249.702,263.956 253.569,264.342 254.279 C 264.943 255.384,267.065 257.222,270.751 259.829 C 272.593 261.133,274.184 262.417,274.286 262.681 C 274.388 262.946,275.355 263.729,276.436 264.423 C 277.516 265.116,278.400 265.836,278.400 266.023 C 278.400 266.210,279.054 266.673,279.854 267.052 C 280.654 267.432,282.769 269.221,284.554 271.028 C 295.634 282.243,298.647 285.646,301.145 289.763 C 301.884 290.982,302.880 292.401,303.356 292.915 C 306.756 296.584,310.478 302.807,313.814 310.400 C 314.635 312.270,315.752 314.467,316.295 315.281 C 318.473 318.547,324.116 335.938,324.821 341.559 C 325.020 343.140,325.533 346.361,325.961 348.717 C 327.731 358.450,328.021 373.674,326.584 381.400 C 326.257 383.160,325.640 387.234,325.214 390.454 C 324.788 393.674,324.047 397.364,323.566 398.654 C 323.086 399.944,322.346 402.620,321.922 404.600 C 321.498 406.580,320.552 409.550,319.820 411.200 C 319.088 412.850,318.271 414.885,318.006 415.723 C 317.568 417.104,314.410 423.940,313.073 426.400 C 312.774 426.950,312.018 428.455,311.393 429.744 C 310.158 432.290,302.502 443.966,299.598 447.732 C 298.609 449.015,297.033 451.085,296.095 452.332 C 292.487 457.131,276.482 472.618,272.049 475.600 C 270.725 476.491,266.943 479.417,262.736 482.805 C 261.931 483.453,260.581 484.383,259.736 484.871 C 258.891 485.359,257.660 486.152,257.000 486.634 C 256.340 487.116,254.863 487.979,253.719 488.553 C 250.753 490.037,250.360 494.607,252.967 497.281 C 253.862 498.199,256.553 502.124,259.200 506.372 C 259.970 507.609,261.500 510.029,262.600 511.751 C 263.700 513.474,265.535 516.349,266.678 518.141 C 267.821 519.934,268.910 521.580,269.099 521.800 C 269.891 522.723,273.537 528.309,274.191 529.600 C 274.580 530.370,276.200 532.980,277.790 535.400 C 279.380 537.820,281.460 541.150,282.411 542.800 C 283.362 544.450,284.603 546.430,285.168 547.200 C 286.143 548.528,287.000 550.012,289.441 554.600 C 290.026 555.700,290.999 557.320,291.602 558.200 C 292.205 559.080,293.487 561.212,294.449 562.937 C 295.412 564.663,296.977 567.246,297.926 568.678 C 298.875 570.111,299.824 571.738,300.036 572.294 C 300.247 572.850,301.477 575.036,302.769 577.152 C 316.126 599.030,303.144 626.000,281.466 621.407 C 274.146 619.856,266.214 612.233,261.584 602.298 C 260.532 600.042,259.294 597.970,255.866 592.733 C 255.243 591.780,253.377 588.660,251.720 585.800 C 250.063 582.940,247.948 579.430,247.020 578.000 C 246.091 576.570,244.662 574.320,243.843 573.000 C 243.025 571.680,241.783 569.700,241.085 568.600 C 240.386 567.500,238.998 565.112,237.999 563.293 C 237.001 561.474,235.598 559.224,234.882 558.293 C 233.527 556.531,226.695 546.116,223.932 541.600 C 223.057 540.170,221.770 538.248,221.071 537.330 C 219.112 534.754,218.105 533.240,216.332 530.200 C 215.433 528.660,214.203 526.860,213.597 526.200 C 212.992 525.540,212.265 524.550,211.983 524.000 C 211.702 523.450,210.801 522.190,209.983 521.200 C 209.165 520.210,208.178 518.713,207.789 517.873 C 207.401 517.033,206.344 515.374,205.442 514.187 C 204.539 513.000,203.080 511.010,202.200 509.764 C 199.293 505.650,198.075 504.939,192.327 504.005 C 189.568 503.557,186.431 502.935,185.356 502.623 C 184.280 502.311,182.320 501.940,181.000 501.797 C 178.155 501.490,175.279 500.634,172.800 499.359 C 171.810 498.849,169.983 498.170,168.741 497.849 C 165.863 497.105,156.697 492.274,154.600 490.394 C 153.720 489.606,152.240 488.630,151.312 488.225 C 150.383 487.820,149.303 487.135,148.912 486.702 C 148.520 486.269,147.570 485.581,146.800 485.173 C 142.877 483.095,131.314 471.141,128.806 466.571 C 127.849 464.827,126.470 462.320,125.742 461.000 C 118.768 448.350,116.620 423.081,121.459 410.630 C 124.747 402.171,130.252 394.584,134.600 392.520 C 135.480 392.102,137.010 391.288,138.000 390.710 C 143.271 387.634,155.681 387.741,161.355 390.913 C 162.350 391.469,164.082 392.229,165.203 392.601 C 166.324 392.973,168.061 393.904,169.063 394.669 C 170.066 395.434,171.574 396.452,172.416 396.930 C 173.893 397.770,183.232 406.103,186.686 409.663 C 192.018 415.159,193.155 416.386,194.597 418.200 C 195.471 419.300,197.463 421.640,199.023 423.400 C 203.074 427.971,206.398 432.129,207.893 434.496 C 208.605 435.621,209.616 437.005,210.142 437.571 C 210.667 438.137,211.427 439.140,211.831 439.800 C 215.879 446.416,221.467 448.635,225.400 445.188 C 225.840 444.802,227.280 443.947,228.600 443.286 C 229.920 442.626,232.024 441.301,233.276 440.343 C 234.527 439.384,236.417 438.098,237.476 437.484 C 241.646 435.066,243.909 433.303,250.343 427.462 C 257.138 421.293,260.630 417.759,262.600 415.057 C 263.700 413.548,264.960 411.821,265.400 411.219 C 266.386 409.869,270.186 404.127,271.945 401.328 C 273.302 399.169,275.674 393.897,276.682 390.800 C 280.207 379.966,280.353 379.166,280.665 369.000 C 280.912 360.960,280.330 354.797,278.977 351.119 C 278.629 350.174,277.746 347.552,277.015 345.293 C 276.284 343.034,275.524 340.964,275.325 340.693 C 275.126 340.422,274.533 339.120,274.007 337.800 C 272.852 334.905,267.291 326.047,265.183 323.746 C 264.350 322.836,263.228 321.396,262.691 320.546 C 262.154 319.696,258.910 316.423,255.482 313.274 C 252.054 310.124,249.193 307.402,249.125 307.225 C 249.056 307.047,248.100 306.423,247.000 305.837 C 245.900 305.252,244.280 304.241,243.400 303.592 C 242.520 302.943,241.139 302.205,240.331 301.952 C 239.524 301.699,237.923 300.721,236.774 299.778 C 235.625 298.836,233.855 297.752,232.842 297.370 C 231.829 296.989,229.467 295.897,227.594 294.943 C 223.511 292.866,217.320 290.730,212.112 289.601 C 210.017 289.147,207.991 288.609,207.610 288.405 C 202.619 285.734,185.039 285.324,172.600 287.588 C 170.180 288.029,165.770 288.569,162.800 288.788 C 159.830 289.008,153.530 289.494,148.800 289.869 C 136.110 290.875,126.497 290.828,123.328 289.745 C 120.497 288.779,114.053 283.645,112.937 281.467 C 112.580 280.770,111.888 279.721,111.400 279.136 C 110.912 278.552,109.813 276.122,108.957 273.736 L 107.400 269.400 107.416 263.200 L 107.433 257.000 109.126 253.000 C 112.406 245.249,116.482 240.418,120.974 238.956 C 122.088 238.593,124.260 237.690,125.800 236.950 C 128.587 235.609,130.771 235.162,140.400 233.959 C 142.270 233.725,146.500 233.107,149.800 232.586 C 159.244 231.093,162.453 230.843,177.881 230.398 C 193.127 229.958,195.633 229.699,199.211 228.194 C 200.428 227.683,202.898 226.985,204.701 226.643 C 206.545 226.293,209.164 225.428,210.689 224.666 C 212.180 223.920,214.120 223.085,215.000 222.809 C 231.993 217.478,249.598 198.083,252.223 181.800 C 252.365 180.920,252.819 178.836,253.231 177.169 C 254.960 170.187,255.299 152.375,253.803 147.200 C 253.452 145.990,252.798 143.652,252.349 142.004 C 249.152 130.282,234.228 117.808,218.822 113.982 C 216.964 113.520,214.723 112.795,213.842 112.369 C 211.957 111.458,209.863 111.097,200.200 110.013 C 196.240 109.569,190.660 108.890,187.800 108.503 C 181.490 107.650,156.030 107.538,151.600 108.344 C 150.170 108.604,146.210 108.989,142.800 109.199 C 128.667 110.069,116.389 111.465,113.335 112.549 C 105.896 115.189,92.817 114.720,88.846 111.672 C 88.051 111.061,86.890 110.241,86.267 109.850 C 84.613 108.811,83.050 106.989,80.922 103.616 C 72.779 90.714,75.623 74.838,87.784 65.315 C 90.928 62.852,100.958 60.080,109.200 59.395 C 111.070 59.239,113.157 58.883,113.837 58.603 C 114.518 58.322,116.228 57.970,117.637 57.821 C 119.047 57.671,122.090 57.289,124.400 56.972 C 126.710 56.655,130.850 56.223,133.600 56.011 C 136.350 55.800,140.670 55.428,143.200 55.185 C 153.427 54.203,155.564 54.112,169.600 54.069 C 180.333 54.037,185.471 54.182,189.000 54.619 " stroke="none" fill="#9c9c9c" fill-rule="evenodd"></path><path id="path4" d="M154.600 55.057 C 153.720 55.124,150.300 55.373,147.000 55.610 C 130.472 56.796,120.444 57.916,113.400 59.363 C 111.860 59.680,108.355 60.147,105.612 60.401 C 102.086 60.728,99.965 61.141,98.376 61.810 C 97.140 62.330,95.244 62.971,94.164 63.234 C 80.826 66.475,72.937 84.930,79.015 98.672 C 84.735 111.607,93.500 115.834,108.600 112.941 C 110.360 112.604,112.610 112.083,113.600 111.784 C 115.565 111.190,127.216 109.858,136.400 109.178 C 139.590 108.942,145.070 108.400,148.577 107.974 C 153.788 107.342,157.577 107.200,169.300 107.200 C 182.670 107.200,185.443 107.355,191.773 108.456 C 193.078 108.683,195.508 109.017,197.173 109.198 C 210.238 110.617,211.863 110.879,214.725 112.025 C 216.333 112.669,219.068 113.558,220.803 114.001 C 231.625 116.764,245.163 126.399,249.467 134.400 C 249.881 135.170,250.516 136.250,250.878 136.800 C 251.241 137.350,251.841 138.790,252.213 140.000 C 252.585 141.210,253.319 143.489,253.844 145.064 C 255.472 149.953,255.838 167.541,254.454 174.400 C 252.931 181.948,249.996 191.673,248.178 195.200 C 247.287 196.926,246.620 197.931,242.944 203.080 C 237.980 210.032,224.663 220.036,216.766 222.745 C 215.538 223.166,213.198 224.160,211.566 224.953 C 209.935 225.746,206.980 226.749,205.000 227.181 C 203.020 227.613,200.244 228.444,198.830 229.028 C 196.043 230.178,196.270 230.160,171.952 231.169 C 166.756 231.385,161.356 231.746,159.952 231.972 C 155.475 232.692,145.760 234.032,142.324 234.404 C 132.017 235.518,129.482 235.980,126.845 237.223 C 125.390 237.909,123.096 238.816,121.746 239.237 C 120.167 239.730,118.721 240.537,117.687 241.502 C 116.804 242.326,115.608 243.429,115.028 243.954 C 108.691 249.693,105.981 263.335,109.291 272.833 C 113.900 286.054,122.150 291.181,136.972 290.037 C 139.848 289.815,146.520 289.342,151.800 288.985 C 161.083 288.358,165.520 287.876,173.657 286.612 C 186.788 284.571,202.790 285.088,207.844 287.716 C 208.529 288.072,210.779 288.722,212.844 289.162 C 220.100 290.704,234.266 296.626,237.400 299.427 C 238.060 300.017,239.680 300.990,241.000 301.589 C 242.320 302.189,243.940 303.132,244.600 303.685 C 245.260 304.238,246.578 305.085,247.528 305.568 C 248.479 306.050,250.021 307.200,250.956 308.123 C 251.891 309.045,254.601 311.600,256.979 313.800 C 260.922 317.449,264.211 321.211,267.400 325.722 C 270.782 330.506,273.748 335.448,274.467 337.501 C 274.911 338.765,275.427 339.986,275.614 340.214 C 276.470 341.253,280.080 352.590,280.642 356.000 C 282.024 364.394,281.213 378.666,278.961 385.579 C 278.212 387.877,277.600 389.952,277.600 390.190 C 277.600 390.428,277.000 391.877,276.266 393.411 C 275.533 394.945,274.818 396.650,274.679 397.200 C 274.389 398.344,270.959 404.179,268.359 407.952 C 267.391 409.356,266.337 410.886,266.016 411.352 C 265.695 411.819,264.781 413.010,263.985 414.000 C 263.189 414.990,261.870 416.819,261.054 418.064 C 260.238 419.309,259.082 420.644,258.485 421.032 C 257.888 421.419,256.680 422.413,255.800 423.241 C 248.683 429.937,245.361 432.746,240.862 435.877 C 239.025 437.155,236.235 439.122,234.662 440.248 C 233.088 441.374,230.810 442.795,229.600 443.405 C 228.390 444.015,226.860 444.911,226.200 445.398 C 224.105 446.941,219.701 447.872,218.200 447.088 C 216.373 446.134,214.195 444.043,212.484 441.600 C 211.482 440.170,210.240 438.537,209.725 437.971 C 209.209 437.405,208.205 436.026,207.493 434.907 C 206.132 432.765,203.262 429.199,198.600 423.861 C 197.060 422.098,194.705 419.382,193.367 417.827 C 187.761 411.314,174.784 398.876,171.911 397.263 C 171.132 396.825,169.655 395.826,168.630 395.044 C 167.605 394.261,165.902 393.364,164.846 393.051 C 163.790 392.737,162.133 392.074,161.163 391.578 C 151.911 386.839,137.681 389.201,130.438 396.677 C 127.902 399.294,123.361 406.543,122.593 409.200 C 122.434 409.750,121.886 411.204,121.376 412.431 C 119.009 418.123,118.507 432.964,120.370 442.164 C 121.179 446.162,121.657 447.901,124.057 455.600 C 127.339 466.124,140.576 481.489,151.807 487.810 C 152.990 488.476,154.393 489.430,154.926 489.930 C 155.800 490.752,160.516 493.432,166.400 496.453 C 167.610 497.074,169.026 497.586,169.547 497.591 C 170.068 497.596,172.072 498.311,174.001 499.179 C 176.556 500.329,178.470 500.881,181.054 501.212 C 183.004 501.462,185.590 501.908,186.800 502.203 C 188.010 502.497,190.792 503.037,192.983 503.402 C 198.472 504.316,200.229 505.496,203.459 510.439 C 204.087 511.400,205.455 513.323,206.500 514.714 C 207.545 516.105,208.404 517.458,208.408 517.721 C 208.412 517.985,209.312 519.346,210.408 520.747 C 211.504 522.148,212.400 523.470,212.400 523.686 C 212.400 523.901,213.075 524.844,213.900 525.782 C 214.725 526.720,216.077 528.637,216.905 530.044 C 217.733 531.450,219.306 533.860,220.401 535.400 C 221.496 536.940,223.068 539.255,223.896 540.545 C 227.746 546.546,233.707 555.612,235.110 557.600 C 235.963 558.810,237.345 561.060,238.180 562.600 C 239.016 564.140,240.284 566.300,240.999 567.400 C 242.919 570.353,249.278 580.498,250.184 582.054 C 250.615 582.794,251.995 585.200,253.250 587.400 C 254.506 589.600,256.276 592.480,257.184 593.800 C 260.081 598.012,261.577 600.519,262.053 601.960 C 264.075 608.088,273.251 618.037,278.515 619.810 C 301.095 627.415,316.309 600.438,302.354 577.536 C 301.059 575.411,300.000 573.497,300.000 573.283 C 300.000 573.068,299.216 571.747,298.257 570.347 C 297.298 568.946,296.032 566.900,295.442 565.800 C 294.120 563.333,293.083 561.591,291.395 559.000 C 290.678 557.900,289.143 555.200,287.983 553.000 C 286.824 550.800,285.572 548.640,285.201 548.200 C 284.830 547.760,283.570 545.780,282.400 543.800 C 281.231 541.820,279.078 538.400,277.617 536.200 C 276.156 534.000,274.361 531.120,273.628 529.800 C 272.896 528.480,270.696 525.088,268.740 522.262 C 266.784 519.437,264.728 516.308,264.170 515.309 C 263.612 514.310,262.491 512.500,261.678 511.288 C 260.865 510.075,259.859 508.524,259.441 507.841 C 257.126 504.053,253.881 499.212,252.788 497.916 C 249.873 494.461,249.852 489.816,252.745 488.421 C 255.382 487.149,259.576 484.348,264.109 480.832 C 266.259 479.164,269.062 477.080,270.339 476.200 C 275.416 472.700,290.111 458.787,294.287 453.527 C 295.339 452.202,296.965 450.202,297.901 449.082 C 302.371 443.730,310.963 429.960,314.049 423.200 C 314.500 422.210,315.394 420.288,316.033 418.929 C 316.673 417.570,317.671 415.143,318.251 413.535 C 318.831 411.927,319.553 410.233,319.856 409.770 C 320.159 409.308,320.775 407.235,321.225 405.165 C 321.674 403.094,322.563 399.870,323.200 398.000 C 324.020 395.592,324.479 393.191,324.773 389.771 C 325.002 387.115,325.506 383.515,325.894 381.771 C 327.005 376.782,326.893 357.288,325.714 350.400 C 325.244 347.650,324.652 343.870,324.400 342.000 C 324.148 340.130,323.427 337.070,322.799 335.200 C 322.171 333.330,321.462 330.834,321.223 329.654 C 320.984 328.474,320.268 326.314,319.631 324.854 C 318.994 323.394,318.264 321.390,318.010 320.400 C 317.756 319.410,316.954 317.610,316.227 316.400 C 314.913 314.211,312.011 308.016,311.988 307.350 C 311.955 306.439,305.031 295.472,303.240 293.494 C 302.689 292.886,301.330 291.063,300.219 289.443 C 297.297 285.181,294.116 281.396,290.770 278.200 C 289.158 276.660,286.509 273.963,284.883 272.206 C 283.258 270.449,281.179 268.518,280.264 267.915 C 279.349 267.311,278.060 266.379,277.400 265.843 C 274.591 263.560,272.375 261.858,268.800 259.238 C 264.675 256.213,263.004 254.283,263.605 253.235 C 264.088 252.393,265.640 250.653,270.414 245.600 C 272.597 243.290,275.242 240.260,276.292 238.866 C 280.803 232.877,282.454 230.504,283.153 229.000 C 283.562 228.120,284.273 227.063,284.733 226.652 C 285.193 226.240,285.781 225.250,286.039 224.452 C 286.499 223.025,287.791 220.141,290.812 213.800 C 291.651 212.040,292.642 209.520,293.016 208.200 C 293.390 206.880,294.113 204.797,294.623 203.570 C 295.697 200.990,297.138 194.424,298.874 184.200 C 300.288 175.879,300.791 148.481,299.661 141.400 C 297.988 130.918,296.600 124.962,295.004 121.412 C 294.507 120.306,293.877 118.680,293.605 117.800 C 293.333 116.920,292.338 114.760,291.393 113.000 C 290.448 111.240,288.843 108.135,287.825 106.101 C 285.586 101.625,283.219 98.192,280.197 95.038 C 278.952 93.738,277.247 91.758,276.409 90.638 C 273.927 87.319,269.997 83.549,267.200 81.805 C 266.210 81.188,264.410 79.842,263.200 78.816 C 260.228 76.294,255.483 73.214,253.896 72.775 C 253.183 72.579,251.615 71.783,250.412 71.008 C 249.209 70.232,247.859 69.492,247.412 69.363 C 246.965 69.233,244.530 68.169,242.000 66.997 C 234.936 63.726,227.606 61.460,218.182 59.633 C 213.572 58.739,209.170 57.813,208.400 57.576 C 207.630 57.338,205.110 56.983,202.800 56.786 C 200.490 56.589,195.101 56.062,190.825 55.614 C 183.664 54.864,161.559 54.524,154.600 55.057 M187.200 56.775 C 199.572 57.611,206.533 58.519,207.956 59.482 C 208.999 60.188,209.875 60.402,211.756 60.407 C 217.105 60.422,221.501 61.138,223.700 62.353 C 224.855 62.991,226.790 63.730,228.000 63.996 C 231.818 64.833,238.123 66.853,240.200 67.904 C 241.300 68.460,243.430 69.334,244.933 69.845 C 246.436 70.356,248.266 71.302,249.000 71.947 C 249.779 72.630,251.035 73.237,252.014 73.402 C 253.050 73.577,254.250 74.180,255.146 74.974 C 255.946 75.683,257.590 76.823,258.800 77.507 C 260.010 78.191,261.960 79.572,263.133 80.575 C 264.306 81.579,265.530 82.400,265.852 82.400 C 266.175 82.400,267.106 83.050,267.920 83.844 C 268.734 84.638,269.760 85.587,270.200 85.952 C 271.194 86.777,273.806 89.723,275.400 91.817 C 276.060 92.685,277.050 93.811,277.600 94.320 C 278.150 94.829,278.870 95.539,279.200 95.898 C 279.530 96.256,280.387 97.191,281.104 97.975 C 282.696 99.715,284.825 103.051,286.225 106.000 C 286.800 107.210,287.494 108.470,287.768 108.800 C 288.042 109.130,288.675 110.390,289.175 111.600 C 289.676 112.810,290.397 114.160,290.778 114.600 C 291.562 115.505,292.057 116.747,293.009 120.200 C 293.374 121.520,293.902 122.870,294.184 123.200 C 295.026 124.184,295.946 127.601,296.231 130.800 C 296.378 132.450,296.827 134.790,297.228 136.000 C 298.706 140.451,298.878 142.520,299.055 158.000 C 299.240 174.279,299.154 175.482,297.044 186.000 C 296.713 187.650,296.054 191.496,295.580 194.546 C 295.076 197.790,294.414 200.612,293.985 201.346 C 293.581 202.036,292.947 203.860,292.575 205.400 C 292.204 206.940,291.302 209.460,290.570 211.000 C 289.253 213.773,285.261 222.472,284.420 224.400 C 284.180 224.950,283.493 226.137,282.892 227.038 C 282.291 227.939,281.094 229.739,280.231 231.038 C 279.368 232.337,277.813 234.390,276.776 235.600 C 275.738 236.810,274.423 238.732,273.853 239.870 C 273.283 241.009,272.457 242.055,272.017 242.194 C 270.618 242.639,261.600 252.615,261.600 253.718 C 261.600 255.584,267.182 261.200,269.036 261.200 C 269.208 261.200,270.170 261.891,271.174 262.735 C 272.178 263.580,273.774 264.757,274.719 265.352 C 275.665 265.947,276.542 266.704,276.668 267.034 C 276.795 267.364,277.551 267.976,278.349 268.394 C 279.939 269.226,280.369 269.627,287.431 276.855 C 292.920 282.474,297.254 287.382,299.004 289.962 C 299.662 290.931,300.967 292.821,301.904 294.162 C 302.842 295.503,303.909 297.050,304.276 297.600 C 304.644 298.150,305.422 299.140,306.006 299.800 C 307.258 301.214,308.800 303.834,308.800 304.547 C 308.800 304.823,309.173 305.449,309.629 305.939 C 310.084 306.428,310.871 308.037,311.378 309.514 C 312.328 312.287,315.244 318.118,316.237 319.231 C 316.547 319.579,316.800 320.145,316.800 320.489 C 316.800 321.696,318.405 326.299,319.162 327.261 C 319.582 327.795,320.047 329.125,320.195 330.216 C 320.554 332.852,321.876 337.800,322.592 339.185 C 323.294 340.541,324.811 354.612,325.450 365.683 C 325.705 370.090,325.346 375.328,324.389 381.200 C 324.192 382.410,323.832 386.010,323.590 389.200 C 323.323 392.710,322.934 395.332,322.604 395.841 C 321.892 396.939,320.526 401.663,320.189 404.188 C 320.044 405.281,319.513 406.991,319.011 407.988 C 318.508 408.984,317.771 410.880,317.372 412.200 C 316.974 413.520,316.444 414.870,316.195 415.200 C 315.946 415.530,315.247 416.970,314.642 418.400 C 312.092 424.421,307.278 433.231,303.604 438.600 C 302.701 439.920,301.129 442.260,300.110 443.800 C 295.857 450.232,287.944 458.931,280.825 465.000 C 276.859 468.382,276.375 468.840,273.714 471.737 C 272.566 472.986,270.766 474.466,269.714 475.025 C 268.661 475.585,267.350 476.449,266.800 476.947 C 266.250 477.444,265.418 478.109,264.951 478.425 C 262.327 480.200,259.215 482.440,258.743 482.891 C 258.444 483.177,257.660 483.746,257.000 484.157 C 256.340 484.568,255.350 485.303,254.800 485.792 C 254.250 486.280,252.990 486.992,252.000 487.374 C 247.365 489.159,247.678 494.282,252.784 500.182 C 253.673 501.209,254.400 502.283,254.400 502.569 C 254.400 502.856,254.958 503.790,255.640 504.645 C 256.323 505.500,257.299 507.021,257.809 508.025 C 258.320 509.029,259.017 510.082,259.358 510.365 C 259.699 510.648,261.078 512.797,262.422 515.140 C 264.741 519.180,266.169 521.288,268.657 524.341 C 269.258 525.078,270.130 526.428,270.595 527.341 C 271.969 530.040,273.674 532.903,274.800 534.400 C 275.379 535.170,276.344 536.655,276.943 537.700 C 277.543 538.745,278.191 539.600,278.384 539.600 C 278.576 539.600,279.057 540.447,279.452 541.481 C 279.847 542.516,280.762 544.137,281.485 545.085 C 282.208 546.032,282.800 546.916,282.800 547.050 C 282.800 547.183,283.410 548.127,284.155 549.146 C 284.901 550.166,285.958 551.900,286.504 553.000 C 288.305 556.624,290.123 559.782,291.069 560.931 C 291.581 561.553,292.000 562.304,292.000 562.600 C 292.000 562.896,292.592 563.918,293.315 564.869 C 294.038 565.821,294.884 567.220,295.196 567.978 C 295.507 568.736,296.261 569.925,296.872 570.621 C 297.482 571.316,298.530 573.036,299.200 574.442 C 299.871 575.849,301.137 578.260,302.014 579.800 C 304.460 584.093,304.744 584.863,305.411 589.008 C 308.926 610.850,295.583 624.554,277.440 617.737 C 275.030 616.831,270.118 612.370,268.581 609.691 C 267.984 608.651,267.150 607.440,266.728 607.000 C 265.626 605.852,262.415 600.319,262.407 599.556 C 262.403 599.202,261.919 598.212,261.332 597.356 C 260.744 596.500,259.717 594.990,259.049 594.000 C 258.382 593.010,257.513 591.965,257.118 591.677 C 256.723 591.390,256.205 590.379,255.966 589.431 C 255.571 587.862,254.434 585.901,251.310 581.402 C 250.699 580.523,249.773 578.993,249.251 578.002 C 248.729 577.011,248.075 575.930,247.798 575.600 C 247.520 575.270,246.925 574.268,246.476 573.373 C 246.026 572.479,245.361 571.499,244.997 571.197 C 244.633 570.895,243.813 569.615,243.176 568.353 C 242.539 567.091,241.829 565.942,241.599 565.799 C 241.369 565.657,240.553 564.339,239.787 562.870 C 238.261 559.945,238.074 559.628,235.953 556.381 C 235.156 555.160,234.185 553.540,233.796 552.781 C 233.406 552.021,232.650 550.860,232.116 550.200 C 230.814 548.594,229.569 546.746,227.601 543.500 C 226.701 542.015,225.810 540.800,225.621 540.800 C 225.433 540.800,225.100 540.288,224.882 539.662 C 224.664 539.037,223.971 537.912,223.343 537.162 C 222.714 536.413,221.862 535.170,221.449 534.400 C 221.036 533.630,220.206 532.366,219.604 531.592 C 219.002 530.817,218.128 529.435,217.661 528.519 C 217.194 527.603,216.614 526.732,216.373 526.583 C 215.897 526.289,213.340 522.553,212.450 520.851 C 212.148 520.273,211.402 519.260,210.792 518.600 C 210.183 517.940,209.226 516.483,208.667 515.362 C 208.107 514.242,207.188 513.022,206.625 512.653 C 206.061 512.284,205.600 511.758,205.600 511.485 C 205.600 510.781,202.954 506.870,201.309 505.143 C 199.122 502.846,193.211 501.060,186.200 500.576 C 181.354 500.242,177.474 499.422,176.118 498.445 C 175.503 498.002,173.481 497.258,171.625 496.792 C 169.567 496.275,167.787 495.556,167.065 494.948 C 165.657 493.763,161.886 491.831,160.200 491.430 C 159.540 491.273,158.004 490.366,156.787 489.414 C 155.569 488.462,153.898 487.401,153.073 487.056 C 152.247 486.711,151.295 486.152,150.956 485.813 C 150.617 485.474,149.589 484.679,148.670 484.045 C 147.752 483.411,146.290 482.220,145.422 481.399 C 144.554 480.578,142.426 478.657,140.693 477.130 C 134.675 471.827,132.314 468.970,129.746 463.886 C 129.166 462.739,128.365 461.381,127.964 460.869 C 126.909 459.520,124.188 452.294,123.419 448.800 C 123.056 447.150,122.485 444.810,122.150 443.600 C 120.674 438.260,120.429 436.106,120.415 428.320 C 120.399 420.136,120.740 417.175,121.971 414.800 C 122.370 414.030,123.096 412.050,123.584 410.400 C 124.072 408.750,124.790 407.040,125.180 406.600 C 125.570 406.160,126.541 404.671,127.337 403.291 C 129.024 400.369,129.322 399.965,131.216 398.040 C 131.995 397.248,132.918 396.145,133.267 395.588 C 133.697 394.905,134.664 394.341,136.251 393.851 C 137.543 393.451,138.960 392.900,139.400 392.626 C 142.397 390.759,151.652 390.402,156.800 391.954 C 158.230 392.386,160.903 393.186,162.739 393.732 C 164.705 394.317,166.514 395.137,167.139 395.727 C 167.723 396.278,168.937 397.108,169.839 397.573 C 170.740 398.037,172.739 399.628,174.281 401.109 C 175.823 402.589,177.836 404.430,178.755 405.200 C 180.861 406.965,186.879 413.012,190.800 417.305 C 192.450 419.111,194.524 421.314,195.410 422.201 C 196.295 423.088,197.434 424.485,197.941 425.304 C 198.448 426.124,199.083 426.931,199.352 427.098 C 199.622 427.264,200.883 428.794,202.154 430.497 C 203.426 432.201,204.943 433.969,205.525 434.427 C 206.106 434.884,207.036 436.032,207.591 436.977 C 210.643 442.176,215.614 447.865,217.565 448.391 C 220.004 449.047,226.020 447.655,227.789 446.025 C 228.235 445.613,229.750 444.797,231.156 444.210 C 232.561 443.623,234.702 442.391,235.912 441.472 C 237.122 440.552,238.582 439.455,239.156 439.033 C 239.730 438.611,240.830 437.688,241.600 436.981 C 242.370 436.273,243.450 435.468,244.000 435.191 C 245.310 434.531,247.841 432.416,251.170 429.200 C 252.650 427.770,254.367 426.332,254.984 426.004 C 255.602 425.675,256.381 424.990,256.715 424.481 C 257.049 423.971,258.100 423.019,259.051 422.365 C 260.003 421.710,261.269 420.325,261.865 419.287 C 262.461 418.249,263.500 416.729,264.174 415.909 C 266.846 412.659,267.600 411.681,267.600 411.465 C 267.600 411.112,269.999 407.648,270.427 407.383 C 270.638 407.253,271.190 406.404,271.652 405.498 C 272.114 404.592,272.746 403.597,273.056 403.287 C 273.796 402.547,274.619 400.887,274.970 399.424 C 275.126 398.778,275.575 397.788,275.969 397.224 C 276.363 396.661,277.167 394.940,277.755 393.400 C 278.343 391.860,279.176 389.836,279.606 388.901 C 281.602 384.566,283.714 366.291,282.853 360.800 C 281.958 355.088,280.297 348.171,279.392 346.385 C 278.867 345.347,278.223 343.621,277.962 342.549 C 277.701 341.477,276.904 339.520,276.191 338.200 C 275.478 336.880,274.771 335.268,274.619 334.617 C 274.467 333.966,273.546 332.374,272.572 331.077 C 271.597 329.781,270.800 328.571,270.800 328.389 C 270.800 326.612,258.478 312.240,254.420 309.284 C 253.639 308.715,252.280 307.572,251.400 306.744 C 250.520 305.916,249.170 304.975,248.400 304.654 C 247.630 304.333,246.550 303.586,246.000 302.995 C 245.450 302.404,244.109 301.467,243.020 300.913 C 240.797 299.782,238.201 298.174,237.000 297.185 C 236.560 296.823,235.160 296.115,233.889 295.612 C 232.619 295.110,231.174 294.380,230.679 293.991 C 229.191 292.820,221.634 289.981,214.200 287.799 C 212.220 287.218,209.520 286.321,208.200 285.805 C 202.578 283.610,186.135 282.909,175.800 284.424 C 173.132 284.815,166.511 285.552,157.800 286.426 C 155.600 286.647,151.370 287.202,148.400 287.660 C 144.318 288.290,140.901 288.506,134.400 288.547 L 125.800 288.600 123.600 287.448 C 122.390 286.815,120.734 285.698,119.919 284.967 C 119.105 284.235,117.716 283.158,116.832 282.574 C 113.097 280.102,109.320 271.134,108.902 263.742 C 108.650 259.308,112.268 248.915,114.973 246.301 C 115.259 246.026,116.371 244.964,117.446 243.943 C 118.521 242.922,119.692 241.732,120.049 241.298 C 120.447 240.815,121.795 240.262,123.534 239.869 C 125.093 239.517,127.242 238.787,128.310 238.246 C 130.721 237.024,133.634 236.504,139.800 236.196 C 142.440 236.064,147.300 235.607,150.600 235.180 C 153.900 234.753,158.040 234.223,159.800 234.003 C 161.560 233.782,166.330 233.424,170.400 233.206 C 189.583 232.181,199.532 231.016,203.152 229.373 C 204.335 228.836,206.855 228.023,208.752 227.566 C 210.648 227.109,212.740 226.327,213.400 225.829 C 214.060 225.331,215.860 224.511,217.400 224.006 C 220.602 222.956,224.446 221.126,226.200 219.815 C 226.860 219.322,228.030 218.596,228.800 218.201 C 231.762 216.682,242.828 206.272,243.674 204.209 C 243.947 203.544,244.536 202.707,244.985 202.349 C 246.287 201.310,248.891 197.293,249.579 195.264 C 249.926 194.239,250.593 192.770,251.060 192.000 C 251.528 191.230,252.209 189.100,252.574 187.267 C 252.939 185.434,253.569 183.094,253.973 182.067 C 255.869 177.252,256.187 174.144,256.192 160.400 C 256.197 146.815,256.091 145.774,254.330 142.200 C 253.897 141.320,253.191 139.483,252.761 138.118 C 252.331 136.753,251.579 135.133,251.090 134.518 C 250.600 133.903,249.759 132.554,249.219 131.520 C 247.776 128.753,243.226 124.274,239.000 121.461 C 238.120 120.875,236.320 119.586,235.000 118.597 C 231.594 116.046,228.104 114.501,222.725 113.164 C 220.153 112.525,217.453 111.656,216.725 111.233 C 214.704 110.060,212.545 109.620,206.934 109.237 C 202.665 108.945,201.411 108.705,199.493 107.810 C 193.310 104.928,143.833 104.947,133.600 107.835 C 129.351 109.034,128.541 109.150,121.400 109.585 C 114.633 109.998,109.567 110.762,107.985 111.608 C 104.124 113.674,96.352 112.759,88.912 109.362 C 86.500 108.261,82.602 103.151,80.092 97.800 C 74.798 86.515,81.823 68.915,93.000 65.458 C 94.980 64.846,98.670 63.647,101.200 62.795 C 105.569 61.322,106.243 61.213,114.600 60.631 C 121.045 60.181,124.363 59.761,127.000 59.062 C 132.602 57.575,148.814 56.637,171.200 56.503 C 177.250 56.467,184.450 56.590,187.200 56.775 " stroke="none" fill="#6c6c6c" fill-rule="evenodd"></path></g></svg>