<svg id="svg" version="1.1" xmlns="http://www.w3.org/2000/svg" xmlns:xlink="http://www.w3.org/1999/xlink" width="400" height="752.7559055118111" viewBox="0, 0, 400,752.7559055118111"><g id="svgg"><path id="path0" d="M156.000 56.671 C 144.697 56.946,130.592 58.108,127.000 59.062 C 124.363 59.761,121.045 60.181,114.600 60.631 C 106.243 61.213,105.569 61.322,101.200 62.795 C 98.670 63.647,94.980 64.846,93.000 65.458 C 81.823 68.915,74.798 86.515,80.092 97.800 C 82.602 103.151,86.500 108.261,88.912 109.362 C 96.352 112.759,104.124 113.674,107.985 111.608 C 109.567 110.762,114.633 109.998,121.400 109.585 C 128.541 109.150,129.351 109.034,133.600 107.835 C 143.833 104.947,193.310 104.928,199.493 107.810 C 201.411 108.705,202.665 108.945,206.934 109.237 C 212.545 109.620,214.704 110.060,216.725 111.233 C 217.453 111.656,220.153 112.525,222.725 113.164 C 228.104 114.501,231.594 116.046,235.000 118.597 C 236.320 119.586,238.120 120.875,239.000 121.461 C 243.226 124.274,247.776 128.753,249.219 131.520 C 249.759 132.554,250.600 133.903,251.090 134.518 C 251.579 135.133,252.331 136.753,252.761 138.118 C 253.191 139.483,253.897 141.320,254.330 142.200 C 256.091 145.774,256.197 146.815,256.192 160.400 C 256.187 174.144,255.869 177.252,253.973 182.067 C 253.569 183.094,252.939 185.434,252.574 187.267 C 252.209 189.100,251.528 191.230,251.060 192.000 C 250.593 192.770,249.926 194.239,249.579 195.264 C 248.891 197.293,246.287 201.310,244.985 202.349 C 244.536 202.707,243.947 203.544,243.674 204.209 C 242.828 206.272,231.762 216.682,228.800 218.201 C 228.030 218.596,226.860 219.322,226.200 219.815 C 224.446 221.126,220.602 222.956,217.400 224.006 C 215.860 224.511,214.060 225.331,213.400 225.829 C 212.740 226.327,210.648 227.109,208.752 227.566 C 206.855 228.023,204.335 228.836,203.152 229.373 C 199.532 231.016,189.583 232.181,170.400 233.206 C 166.330 233.424,161.560 233.782,159.800 234.003 C 158.040 234.223,153.900 234.753,150.600 235.180 C 147.300 235.607,142.440 236.064,139.800 236.196 C 133.634 236.504,130.721 237.024,128.310 238.246 C 127.242 238.787,125.093 239.517,123.534 239.869 C 121.795 240.262,120.447 240.815,120.049 241.298 C 119.692 241.732,118.521 242.922,117.446 243.943 C 116.371 244.964,115.259 246.026,114.973 246.301 C 112.268 248.915,108.650 259.308,108.902 263.742 C 109.320 271.134,113.097 280.102,116.832 282.574 C 117.716 283.158,119.105 284.235,119.919 284.967 C 120.734 285.698,122.390 286.815,123.600 287.448 L 125.800 288.600 134.400 288.547 C 140.901 288.506,144.318 288.290,148.400 287.660 C 151.370 287.202,155.600 286.647,157.800 286.426 C 166.511 285.552,173.132 284.815,175.800 284.424 C 186.135 282.909,202.578 283.610,208.200 285.805 C 209.520 286.321,212.220 287.218,214.200 287.799 C 221.634 289.981,229.191 292.820,230.679 293.991 C 231.174 294.380,232.619 295.110,233.889 295.612 C 235.160 296.115,236.560 296.823,237.000 297.185 C 238.201 298.174,240.797 299.782,243.020 300.913 C 244.109 301.467,245.450 302.404,246.000 302.995 C 246.550 303.586,247.630 304.333,248.400 304.654 C 249.170 304.975,250.520 305.916,251.400 306.744 C 252.280 307.572,253.639 308.715,254.420 309.284 C 258.478 312.240,270.800 326.612,270.800 328.389 C 270.800 328.571,271.597 329.781,272.572 331.077 C 273.546 332.374,274.467 333.966,274.619 334.617 C 274.771 335.268,275.478 336.880,276.191 338.200 C 276.904 339.520,277.701 341.477,277.962 342.549 C 278.223 343.621,278.867 345.347,279.392 346.385 C 280.297 348.171,281.958 355.088,282.853 360.800 C 283.714 366.291,281.602 384.566,279.606 388.901 C 279.176 389.836,278.343 391.860,277.755 393.400 C 277.167 394.940,276.363 396.661,275.969 397.224 C 275.575 397.788,275.126 398.778,274.970 399.424 C 274.619 400.887,273.796 402.547,273.056 403.287 C 272.746 403.597,272.114 404.592,271.652 405.498 C 271.190 406.404,270.638 407.253,270.427 407.383 C 269.999 407.648,267.600 411.112,267.600 411.465 C 267.600 411.681,266.846 412.659,264.174 415.909 C 263.500 416.729,262.461 418.249,261.865 419.287 C 261.269 420.325,260.003 421.710,259.051 422.365 C 258.100 423.019,257.049 423.971,256.715 424.481 C 256.381 424.990,255.602 425.675,254.984 426.004 C 254.367 426.332,252.650 427.770,251.170 429.200 C 247.841 432.416,245.310 434.531,244.000 435.191 C 243.450 435.468,242.370 436.273,241.600 436.981 C 240.830 437.688,239.730 438.611,239.156 439.033 C 238.582 439.455,237.122 440.552,235.912 441.472 C 234.702 442.391,232.561 443.623,231.156 444.210 C 229.750 444.797,228.235 445.613,227.789 446.025 C 226.020 447.655,220.004 449.047,217.565 448.391 C 215.614 447.865,210.643 442.176,207.591 436.977 C 207.036 436.032,206.106 434.884,205.525 434.427 C 204.943 433.969,203.426 432.201,202.154 430.497 C 200.883 428.794,199.622 427.264,199.352 427.098 C 199.083 426.931,198.448 426.124,197.941 425.304 C 197.434 424.485,196.295 423.088,195.410 422.201 C 194.524 421.314,192.450 419.111,190.800 417.305 C 186.879 413.012,180.861 406.965,178.755 405.200 C 177.836 404.430,175.823 402.589,174.281 401.109 C 172.739 399.628,170.740 398.037,169.839 397.573 C 168.937 397.108,167.723 396.278,167.139 395.727 C 166.514 395.137,164.705 394.317,162.739 393.732 C 160.903 393.186,158.230 392.386,156.800 391.954 C 151.652 390.402,142.397 390.759,139.400 392.626 C 138.960 392.900,137.543 393.451,136.251 393.851 C 134.664 394.341,133.697 394.905,133.267 395.588 C 132.918 396.145,131.995 397.248,131.216 398.040 C 129.322 399.965,129.024 400.369,127.337 403.291 C 126.541 404.671,125.570 406.160,125.180 406.600 C 124.790 407.040,124.072 408.750,123.584 410.400 C 123.096 412.050,122.370 414.030,121.971 414.800 C 120.740 417.175,120.399 420.136,120.415 428.320 C 120.429 436.106,120.674 438.260,122.150 443.600 C 122.485 444.810,123.056 447.150,123.419 448.800 C 124.188 452.294,126.909 459.520,127.964 460.869 C 128.365 461.381,129.166 462.739,129.746 463.886 C 132.314 468.970,134.675 471.827,140.693 477.130 C 142.426 478.657,144.554 480.578,145.422 481.399 C 146.290 482.220,147.752 483.411,148.670 484.045 C 149.589 484.679,150.617 485.474,150.956 485.813 C 151.295 486.152,152.247 486.711,153.073 487.056 C 153.898 487.401,155.569 488.462,156.787 489.414 C 158.004 490.366,159.540 491.273,160.200 491.430 C 161.886 491.831,165.657 493.763,167.065 494.948 C 167.787 495.556,169.567 496.275,171.625 496.792 C 173.481 497.258,175.503 498.002,176.118 498.445 C 177.474 499.422,181.354 500.242,186.200 500.576 C 193.211 501.060,199.122 502.846,201.309 505.143 C 202.954 506.870,205.600 510.781,205.600 511.485 C 205.600 511.758,206.061 512.284,206.625 512.653 C 207.188 513.022,208.107 514.242,208.667 515.362 C 209.226 516.483,210.183 517.940,210.792 518.600 C 211.402 519.260,212.148 520.273,212.450 520.851 C 213.340 522.553,215.897 526.289,216.373 526.583 C 216.614 526.732,217.194 527.603,217.661 528.519 C 218.128 529.435,219.002 530.817,219.604 531.592 C 220.206 532.366,221.036 533.630,221.449 534.400 C 221.862 535.170,222.714 536.413,223.343 537.162 C 223.971 537.912,224.664 539.037,224.882 539.662 C 225.100 540.288,225.433 540.800,225.621 540.800 C 225.810 540.800,226.701 542.015,227.601 543.500 C 229.569 546.746,230.814 548.594,232.116 550.200 C 232.650 550.860,233.406 552.021,233.796 552.781 C 234.185 553.540,235.156 555.160,235.953 556.381 C 238.074 559.628,238.261 559.945,239.787 562.870 C 240.553 564.339,241.369 565.657,241.599 565.799 C 241.829 565.942,242.539 567.091,243.176 568.353 C 243.813 569.615,244.633 570.895,244.997 571.197 C 245.361 571.499,246.026 572.479,246.476 573.373 C 246.925 574.268,247.520 575.270,247.798 575.600 C 248.075 575.930,248.729 577.011,249.251 578.002 C 249.773 578.993,250.699 580.523,251.310 581.402 C 254.434 585.901,255.571 587.862,255.966 589.431 C 256.205 590.379,256.723 591.390,257.118 591.677 C 257.513 591.965,258.382 593.010,259.049 594.000 C 259.717 594.990,260.744 596.500,261.332 597.356 C 261.919 598.212,262.403 599.202,262.407 599.556 C 262.415 600.319,265.626 605.852,266.728 607.000 C 267.150 607.440,267.984 608.651,268.581 609.691 C 273.920 618.998,287.766 622.511,296.184 616.695 C 304.386 611.027,307.467 601.783,305.411 589.008 C 304.744 584.863,304.460 584.093,302.014 579.800 C 301.137 578.260,299.871 575.849,299.200 574.442 C 298.530 573.036,297.482 571.316,296.872 570.621 C 296.261 569.925,295.507 568.736,295.196 567.978 C 294.884 567.220,294.038 565.821,293.315 564.869 C 292.592 563.918,292.000 562.896,292.000 562.600 C 292.000 562.304,291.581 561.553,291.069 560.931 C 290.123 559.782,288.305 556.624,286.504 553.000 C 285.958 551.900,284.901 550.166,284.155 549.146 C 283.410 548.127,282.800 547.183,282.800 547.050 C 282.800 546.916,282.208 546.032,281.485 545.085 C 280.762 544.137,279.847 542.516,279.452 541.481 C 279.057 540.447,278.576 539.600,278.384 539.600 C 278.191 539.600,277.543 538.745,276.943 537.700 C 276.344 536.655,275.379 535.170,274.800 534.400 C 273.674 532.903,271.969 530.040,270.595 527.341 C 270.130 526.428,269.258 525.078,268.657 524.341 C 266.169 521.288,264.741 519.180,262.422 515.140 C 261.078 512.797,259.699 510.648,259.358 510.365 C 259.017 510.082,258.320 509.029,257.809 508.025 C 257.299 507.021,256.323 505.500,255.640 504.645 C 254.958 503.790,254.400 502.856,254.400 502.569 C 254.400 502.283,253.673 501.209,252.784 500.182 C 247.678 494.282,247.365 489.159,252.000 487.374 C 252.990 486.992,254.250 486.280,254.800 485.792 C 255.350 485.303,256.340 484.568,257.000 484.157 C 257.660 483.746,258.444 483.177,258.743 482.891 C 259.215 482.440,262.327 480.200,264.951 478.425 C 265.418 478.109,266.250 477.444,266.800 476.947 C 267.350 476.449,268.661 475.585,269.714 475.025 C 270.766 474.466,272.566 472.986,273.714 471.737 C 276.375 468.840,276.859 468.382,280.825 465.000 C 287.944 458.931,295.857 450.232,300.110 443.800 C 301.129 442.260,302.701 439.920,303.604 438.600 C 307.278 433.231,312.092 424.421,314.642 418.400 C 315.247 416.970,315.946 415.530,316.195 415.200 C 316.444 414.870,316.974 413.520,317.372 412.200 C 317.771 410.880,318.508 408.984,319.011 407.988 C 319.513 406.991,320.044 405.281,320.189 404.188 C 320.526 401.663,321.892 396.939,322.604 395.841 C 322.934 395.332,323.323 392.710,323.590 389.200 C 323.832 386.010,324.192 382.410,324.389 381.200 C 325.346 375.328,325.705 370.090,325.450 365.683 C 324.811 354.612,323.294 340.541,322.592 339.185 C 321.876 337.800,320.554 332.852,320.195 330.216 C 320.047 329.125,319.582 327.795,319.162 327.261 C 318.405 326.299,316.800 321.696,316.800 320.489 C 316.800 320.145,316.547 319.579,316.237 319.231 C 315.244 318.118,312.328 312.287,311.378 309.514 C 310.871 308.037,310.084 306.428,309.629 305.939 C 309.173 305.449,308.800 304.823,308.800 304.547 C 308.800 303.834,307.258 301.214,306.006 299.800 C 305.422 299.140,304.644 298.150,304.276 297.600 C 303.909 297.050,302.842 295.503,301.904 294.162 C 300.967 292.821,299.662 290.931,299.004 289.962 C 297.254 287.382,292.920 282.474,287.431 276.855 C 280.369 269.627,279.939 269.226,278.349 268.394 C 277.551 267.976,276.795 267.364,276.668 267.034 C 276.542 266.704,275.665 265.947,274.719 265.352 C 273.774 264.757,272.178 263.580,271.174 262.735 C 270.170 261.891,269.208 261.200,269.036 261.200 C 267.182 261.200,261.600 255.584,261.600 253.718 C 261.600 252.615,270.618 242.639,272.017 242.194 C 272.457 242.055,273.283 241.009,273.853 239.870 C 274.423 238.732,275.738 236.810,276.776 235.600 C 277.813 234.390,279.368 232.337,280.231 231.038 C 281.094 229.739,282.291 227.939,282.892 227.038 C 283.493 226.137,284.180 224.950,284.420 224.400 C 285.261 222.472,289.253 213.773,290.570 211.000 C 291.302 209.460,292.204 206.940,292.575 205.400 C 292.947 203.860,293.581 202.036,293.985 201.346 C 294.414 200.612,295.076 197.790,295.580 194.546 C 296.054 191.496,296.713 187.650,297.044 186.000 C 299.154 175.482,299.240 174.279,299.055 158.000 C 298.878 142.520,298.706 140.451,297.228 136.000 C 296.827 134.790,296.378 132.450,296.231 130.800 C 295.946 127.601,295.026 124.184,294.184 123.200 C 293.902 122.870,293.374 121.520,293.009 120.200 C 292.057 116.747,291.562 115.505,290.778 114.600 C 290.397 114.160,289.676 112.810,289.175 111.600 C 288.675 110.390,288.042 109.130,287.768 108.800 C 287.494 108.470,286.800 107.210,286.225 106.000 C 284.825 103.051,282.696 99.715,281.104 97.975 C 280.387 97.191,279.530 96.256,279.200 95.898 C 278.870 95.539,278.150 94.829,277.600 94.320 C 277.050 93.811,276.060 92.685,275.400 91.817 C 273.806 89.723,271.194 86.777,270.200 85.952 C 269.760 85.587,268.734 84.638,267.920 83.844 C 267.106 83.050,266.175 82.400,265.852 82.400 C 265.530 82.400,264.306 81.579,263.133 80.575 C 261.960 79.572,260.010 78.191,258.800 77.507 C 257.590 76.823,255.946 75.683,255.146 74.974 C 254.250 74.180,253.050 73.577,252.014 73.402 C 251.035 73.237,249.779 72.630,249.000 71.947 C 248.266 71.302,246.436 70.356,244.933 69.845 C 243.430 69.334,241.300 68.460,240.200 67.904 C 238.123 66.853,231.818 64.833,228.000 63.996 C 226.790 63.730,224.855 62.991,223.700 62.353 C 221.501 61.138,217.105 60.422,211.756 60.407 C 209.875 60.402,208.999 60.188,207.956 59.482 C 206.804 58.702,205.518 58.455,199.400 57.839 C 185.850 56.473,175.540 56.196,156.000 56.671 " stroke="none" fill="#0b0b0b" fill-rule="evenodd"></path><path id="path1" d="M0.000 376.200 L 0.000 752.400 200.000 752.400 L 400.000 752.400 400.000 376.200 L 400.000 0.000 200.000 0.000 L 0.000 0.000 0.000 376.200 M189.200 52.424 C 195.165 52.831,205.527 54.215,207.400 54.855 C 208.060 55.081,210.516 55.509,212.857 55.808 C 215.495 56.144,218.310 56.808,220.257 57.553 C 221.986 58.215,225.200 59.046,227.400 59.401 C 229.600 59.755,232.300 60.458,233.400 60.963 C 234.500 61.468,236.570 62.197,238.000 62.583 C 240.900 63.367,244.972 65.195,247.400 66.803 C 248.280 67.386,249.801 68.177,250.780 68.560 C 251.759 68.944,253.151 69.777,253.874 70.412 C 254.597 71.046,256.096 71.835,257.204 72.164 C 258.313 72.493,259.980 73.358,260.910 74.086 C 261.839 74.814,263.083 75.767,263.673 76.205 C 264.264 76.642,265.794 77.812,267.073 78.804 C 268.353 79.796,269.881 80.916,270.470 81.293 C 271.058 81.670,271.656 82.345,271.798 82.794 C 271.940 83.242,272.563 83.871,273.182 84.191 C 274.660 84.955,278.400 88.729,278.400 89.456 C 278.400 89.769,278.655 90.123,278.967 90.243 C 279.278 90.362,279.979 91.133,280.523 91.956 C 281.068 92.779,282.028 94.002,282.657 94.676 C 285.099 97.290,286.853 99.630,287.459 101.080 C 287.807 101.912,288.505 103.084,289.009 103.684 C 289.514 104.284,290.240 105.726,290.621 106.888 C 291.003 108.049,291.576 109.153,291.895 109.341 C 292.558 109.731,294.390 113.474,294.396 114.451 C 294.398 114.809,294.669 115.325,294.997 115.598 C 295.326 115.871,296.050 117.558,296.606 119.347 C 297.162 121.136,298.056 123.597,298.593 124.816 C 299.274 126.362,299.695 128.355,299.986 131.416 C 300.216 133.827,300.757 137.272,301.189 139.070 C 303.335 148.011,303.369 172.626,301.248 182.206 C 300.811 184.183,300.277 187.690,300.061 190.000 C 299.821 192.577,299.283 195.282,298.669 197.000 C 298.119 198.540,297.361 201.240,296.986 203.000 C 296.611 204.760,295.888 207.010,295.379 208.000 C 294.871 208.990,294.159 210.880,293.799 212.200 C 293.438 213.520,292.734 215.230,292.235 216.000 C 291.735 216.770,291.012 218.351,290.627 219.512 C 290.242 220.674,289.512 222.119,289.003 222.723 C 288.495 223.327,287.880 224.561,287.637 225.464 C 287.393 226.368,286.902 227.349,286.545 227.646 C 286.188 227.942,285.294 229.448,284.558 230.992 C 283.823 232.537,282.313 234.880,281.203 236.200 C 280.093 237.520,278.675 239.357,278.053 240.283 C 277.430 241.209,276.399 242.513,275.760 243.182 C 275.122 243.850,273.970 245.136,273.200 246.040 C 272.430 246.944,270.495 249.024,268.900 250.663 C 265.594 254.058,265.635 253.962,267.103 254.906 C 270.941 257.376,276.448 261.838,280.424 265.700 C 281.273 266.525,282.200 267.199,282.484 267.197 C 282.768 267.196,283.630 267.816,284.400 268.576 C 285.170 269.336,286.880 271.014,288.200 272.304 C 289.520 273.594,291.378 275.539,292.329 276.625 C 293.279 277.711,294.179 278.723,294.329 278.873 C 294.602 279.148,295.388 279.968,298.054 282.758 C 298.853 283.595,299.738 284.712,300.019 285.240 C 300.300 285.768,301.022 286.830,301.624 287.600 C 302.226 288.370,302.846 289.450,303.002 290.000 C 303.157 290.550,303.941 291.663,304.742 292.474 C 307.278 295.038,308.772 297.036,309.660 299.048 C 310.133 300.122,310.825 301.216,311.198 301.479 C 311.570 301.742,312.200 302.822,312.597 303.879 C 312.994 304.936,313.621 306.250,313.989 306.800 C 314.358 307.350,315.075 308.970,315.584 310.400 C 316.092 311.830,316.926 313.500,317.437 314.110 C 317.948 314.721,318.682 316.251,319.070 317.510 C 319.457 318.770,320.095 320.250,320.488 320.800 C 320.881 321.350,321.586 323.420,322.055 325.400 C 322.524 327.380,323.267 329.779,323.704 330.730 C 324.142 331.682,324.846 334.458,325.269 336.899 C 325.692 339.341,326.372 342.342,326.779 343.569 C 329.406 351.481,329.231 385.923,326.531 392.400 C 326.210 393.170,325.592 395.764,325.157 398.164 C 324.723 400.564,324.031 403.354,323.621 404.364 C 323.211 405.374,322.652 407.330,322.380 408.712 C 322.108 410.093,321.372 412.033,320.744 413.023 C 320.117 414.013,319.308 415.999,318.947 417.436 C 318.586 418.874,317.853 420.695,317.318 421.483 C 316.783 422.271,315.990 423.865,315.556 425.025 C 315.122 426.185,314.411 427.587,313.975 428.141 C 313.539 428.695,312.917 429.902,312.592 430.823 C 312.067 432.310,310.520 434.924,307.989 438.600 C 307.534 439.260,306.625 440.610,305.968 441.600 C 303.584 445.193,301.919 447.407,301.363 447.721 C 301.050 447.898,300.428 448.762,299.979 449.641 C 299.531 450.520,298.894 451.342,298.565 451.469 C 298.235 451.595,297.614 452.388,297.184 453.230 C 296.755 454.073,294.917 456.271,293.102 458.115 C 291.286 459.959,288.782 462.623,287.537 464.034 C 283.434 468.687,282.811 469.278,278.737 472.388 C 278.152 472.835,277.505 473.200,277.298 473.200 C 277.092 473.200,276.186 474.010,275.285 475.000 C 274.384 475.990,273.444 476.800,273.197 476.800 C 272.949 476.800,272.149 477.385,271.419 478.100 C 269.415 480.062,261.404 486.000,260.761 486.000 C 260.580 486.000,260.055 486.405,259.595 486.900 C 259.135 487.395,257.643 488.340,256.279 489.000 C 252.349 490.902,251.716 493.950,254.630 496.950 C 255.384 497.726,256.000 498.634,256.000 498.968 C 256.000 499.303,256.549 499.982,257.221 500.479 C 258.414 501.361,261.685 506.348,262.227 508.112 C 262.377 508.601,262.839 509.324,263.254 509.719 C 263.669 510.115,264.531 511.476,265.171 512.743 C 265.811 514.011,266.633 515.295,266.997 515.597 C 267.361 515.899,268.026 516.867,268.476 517.748 C 268.925 518.629,269.542 519.599,269.846 519.903 C 270.150 520.208,270.879 521.299,271.465 522.328 C 272.051 523.358,272.930 524.650,273.417 525.200 C 273.905 525.750,274.514 526.861,274.772 527.668 C 275.030 528.475,275.512 529.361,275.844 529.636 C 276.175 529.911,276.915 530.961,277.489 531.968 C 278.062 532.976,278.925 534.250,279.406 534.800 C 279.887 535.350,280.677 536.640,281.161 537.668 C 281.644 538.695,282.330 539.775,282.685 540.068 C 283.040 540.360,283.688 541.410,284.126 542.400 C 284.564 543.390,285.524 544.991,286.261 545.958 C 286.997 546.924,287.600 548.058,287.600 548.477 C 287.600 548.895,288.057 549.661,288.615 550.179 C 289.173 550.696,290.168 552.172,290.825 553.460 C 291.483 554.747,292.422 556.381,292.911 557.092 C 295.384 560.683,296.779 563.160,297.173 564.659 C 297.412 565.571,297.869 566.418,298.188 566.540 C 298.507 566.662,299.250 567.716,299.840 568.881 C 300.431 570.047,301.338 571.557,301.857 572.238 C 302.376 572.919,302.800 573.663,302.800 573.893 C 302.800 574.122,303.446 575.250,304.236 576.398 C 305.027 577.547,305.994 579.412,306.385 580.543 C 306.777 581.675,307.469 583.320,307.924 584.200 C 309.195 586.661,309.736 590.429,309.770 597.036 L 309.800 603.073 308.338 606.036 C 307.534 607.666,306.544 609.974,306.138 611.164 C 305.093 614.227,299.321 620.000,295.600 621.703 C 287.426 625.444,278.175 624.655,273.001 619.775 C 272.199 619.019,271.410 618.400,271.247 618.400 C 270.940 618.400,267.435 614.341,265.471 611.711 C 263.403 608.941,260.826 604.629,260.586 603.535 C 260.455 602.941,260.075 602.229,259.742 601.952 C 259.408 601.675,258.595 600.380,257.936 599.074 C 257.277 597.768,256.381 596.318,255.945 595.850 C 255.508 595.383,254.808 594.226,254.389 593.279 C 253.970 592.333,253.245 591.073,252.778 590.479 C 251.719 589.133,248.082 582.874,247.743 581.815 C 247.605 581.384,247.077 580.704,246.570 580.305 C 246.062 579.906,245.526 579.198,245.378 578.731 C 245.230 578.265,244.312 576.695,243.337 575.242 C 242.363 573.789,241.467 572.208,241.347 571.729 C 241.226 571.250,240.892 570.767,240.604 570.657 C 240.315 570.546,239.505 569.318,238.802 567.928 C 238.099 566.538,237.293 565.130,237.011 564.800 C 236.729 564.470,236.127 563.345,235.672 562.300 C 235.217 561.255,234.661 560.400,234.436 560.400 C 233.992 560.400,229.600 553.931,229.600 553.276 C 229.600 553.056,228.956 552.105,228.168 551.162 C 227.381 550.220,226.304 548.595,225.776 547.553 C 225.248 546.510,224.629 545.542,224.402 545.401 C 224.175 545.261,223.607 544.393,223.141 543.473 C 222.675 542.553,221.642 540.959,220.847 539.931 C 217.826 536.028,213.200 528.940,213.200 528.216 C 213.200 527.959,212.660 527.232,212.000 526.600 C 211.340 525.968,210.800 525.196,210.800 524.885 C 210.800 524.574,210.141 523.663,209.336 522.860 C 208.530 522.057,207.547 520.669,207.150 519.775 C 206.754 518.881,206.044 517.802,205.574 517.376 C 205.103 516.950,204.471 516.124,204.168 515.539 C 203.866 514.954,203.380 514.234,203.087 513.938 C 202.795 513.642,201.822 512.320,200.924 511.000 C 198.713 507.747,197.538 506.975,193.973 506.430 C 192.338 506.181,189.650 505.701,188.000 505.364 C 186.350 505.027,183.323 504.499,181.273 504.191 C 179.223 503.883,176.973 503.341,176.273 502.985 C 175.573 502.630,173.918 501.927,172.596 501.423 C 171.274 500.920,169.294 500.047,168.196 499.484 C 167.098 498.920,165.390 498.233,164.400 497.956 C 163.410 497.679,161.880 496.958,161.000 496.355 C 160.120 495.751,158.626 495.033,157.680 494.759 C 156.573 494.439,155.146 493.493,153.680 492.107 C 152.426 490.922,150.465 489.520,149.322 488.991 C 148.179 488.462,147.046 487.660,146.805 487.209 C 146.563 486.757,145.565 486.011,144.586 485.551 C 143.461 485.023,140.884 482.781,137.579 479.458 C 129.608 471.442,129.327 471.128,128.374 469.200 C 127.885 468.210,127.082 466.860,126.590 466.200 C 126.099 465.540,125.454 464.280,125.159 463.400 C 124.863 462.520,124.234 461.318,123.761 460.729 C 123.288 460.140,122.580 458.340,122.187 456.729 C 121.795 455.118,121.226 453.417,120.923 452.949 C 120.112 451.695,119.661 449.889,118.992 445.200 C 118.662 442.890,118.090 439.920,117.721 438.600 C 116.750 435.123,116.720 423.027,117.677 420.200 C 118.049 419.100,118.634 416.326,118.977 414.035 C 119.380 411.340,119.929 409.292,120.531 408.235 C 121.043 407.336,121.769 405.767,122.145 404.749 C 122.521 403.731,123.189 402.572,123.629 402.174 C 124.069 401.776,124.785 400.646,125.219 399.663 C 126.413 396.964,132.552 391.137,136.065 389.367 C 143.480 385.633,155.982 385.862,163.946 389.878 C 169.835 392.848,170.265 393.103,171.058 394.095 C 171.466 394.605,172.836 395.526,174.102 396.142 C 175.369 396.757,176.586 397.601,176.808 398.015 C 177.030 398.430,178.035 399.336,179.041 400.028 C 180.572 401.082,188.215 408.549,190.717 411.436 C 191.115 411.895,191.702 412.435,192.021 412.636 C 192.827 413.143,195.784 416.563,198.400 420.014 C 199.610 421.610,201.657 424.049,202.949 425.433 C 204.241 426.817,205.607 428.456,205.984 429.075 C 206.362 429.694,206.983 430.458,207.364 430.773 C 207.746 431.089,208.429 432.079,208.882 432.973 C 209.335 433.868,210.267 435.260,210.953 436.066 C 211.639 436.873,212.830 438.388,213.600 439.434 C 217.095 444.179,220.963 446.269,222.946 444.485 C 223.416 444.062,225.510 442.771,227.600 441.615 C 229.690 440.459,231.940 439.014,232.600 438.404 C 233.260 437.794,234.520 437.072,235.400 436.799 C 236.280 436.527,237.450 435.896,238.000 435.397 C 238.550 434.899,239.557 434.210,240.238 433.867 C 240.920 433.524,242.090 432.648,242.839 431.922 C 243.588 431.195,245.978 429.070,248.152 427.200 C 252.508 423.452,257.182 418.743,260.361 414.900 C 261.498 413.525,262.574 412.400,262.751 412.400 C 262.928 412.400,263.563 411.500,264.161 410.400 C 264.760 409.300,265.428 408.400,265.645 408.400 C 265.863 408.400,266.322 407.725,266.667 406.900 C 267.271 405.452,268.769 402.971,271.317 399.200 C 272.748 397.082,275.425 390.416,276.216 387.000 C 276.522 385.680,277.241 383.160,277.813 381.400 C 279.930 374.893,279.908 360.608,277.771 353.532 C 277.217 351.699,276.498 348.953,276.173 347.430 C 275.848 345.906,275.409 344.452,275.199 344.198 C 274.988 343.945,274.352 342.504,273.785 340.998 C 273.217 339.491,272.439 337.795,272.056 337.229 C 271.672 336.663,270.917 335.300,270.379 334.200 C 269.841 333.100,269.162 332.049,268.870 331.863 C 268.579 331.678,268.007 330.750,267.600 329.800 C 267.193 328.851,266.195 327.473,265.383 326.737 C 263.772 325.280,261.077 321.523,260.636 320.120 C 260.484 319.637,260.018 319.133,259.601 319.000 C 259.184 318.868,257.601 317.554,256.082 316.080 C 254.564 314.606,252.847 313.146,252.266 312.835 C 251.686 312.525,250.191 311.123,248.944 309.720 C 247.418 308.003,246.039 306.895,244.727 306.330 C 243.655 305.869,242.410 304.976,241.961 304.346 C 241.497 303.693,240.770 303.196,240.273 303.191 C 239.119 303.180,236.343 301.900,235.647 301.059 C 235.103 300.401,231.879 298.800,231.099 298.800 C 230.244 298.800,225.722 296.613,224.281 295.503 C 223.323 294.765,221.431 293.976,219.158 293.368 C 217.175 292.837,215.158 292.191,214.676 291.933 C 213.671 291.394,207.863 290.130,203.919 289.592 C 202.445 289.391,200.555 288.935,199.719 288.578 C 196.471 287.189,185.131 287.461,175.800 289.151 C 173.127 289.635,166.924 290.194,160.000 290.574 C 149.066 291.175,144.265 291.596,138.954 292.420 C 135.153 293.010,127.670 292.866,125.800 292.167 C 124.920 291.838,123.072 291.207,121.693 290.766 C 120.315 290.325,118.515 289.398,117.693 288.707 C 114.952 286.401,112.400 283.835,112.400 283.385 C 112.400 283.140,111.932 282.503,111.359 281.970 C 105.828 276.816,104.055 259.575,108.174 251.000 C 108.913 249.460,109.822 247.536,110.193 246.725 C 111.246 244.423,116.706 238.992,118.600 238.363 C 119.480 238.072,120.910 237.330,121.779 236.716 C 122.647 236.102,123.497 235.600,123.667 235.600 C 123.837 235.600,124.954 235.153,126.149 234.606 C 127.587 233.948,129.655 233.468,132.261 233.187 C 134.427 232.952,136.470 232.682,136.800 232.587 C 137.130 232.491,139.175 232.229,141.344 232.005 C 143.513 231.780,146.213 231.329,147.344 231.003 C 150.051 230.220,164.738 229.208,173.800 229.179 C 186.568 229.139,191.667 228.690,195.904 227.234 C 197.941 226.534,201.054 225.707,202.821 225.396 C 204.736 225.060,206.453 224.502,207.072 224.015 C 207.643 223.566,208.940 222.940,209.955 222.624 C 214.287 221.276,225.220 216.238,225.721 215.358 C 225.898 215.048,226.798 214.412,227.721 213.946 C 232.643 211.457,244.800 198.957,244.800 196.386 C 244.800 196.223,245.457 195.135,246.260 193.968 C 247.079 192.777,248.020 190.694,248.403 189.223 C 248.779 187.780,249.466 185.965,249.931 185.188 C 250.534 184.180,250.957 182.294,251.411 178.588 C 251.762 175.735,252.397 170.674,252.824 167.343 C 253.679 160.673,253.795 156.932,253.214 154.800 C 253.005 154.030,252.454 150.700,251.989 147.400 C 251.525 144.100,250.843 140.830,250.473 140.133 C 247.759 135.024,247.120 133.985,246.480 133.643 C 246.081 133.430,245.416 132.625,245.001 131.854 C 244.586 131.084,243.851 130.241,243.367 129.983 C 242.884 129.724,242.251 129.068,241.961 128.527 C 241.671 127.985,240.855 127.299,240.148 127.004 C 239.441 126.709,238.546 125.985,238.160 125.396 C 237.774 124.806,236.514 123.893,235.360 123.365 C 234.206 122.837,233.019 122.162,232.722 121.865 C 232.425 121.568,231.196 121.007,229.991 120.619 C 228.786 120.230,226.811 119.366,225.603 118.698 C 222.932 117.222,217.937 115.471,212.693 114.175 C 210.544 113.644,208.114 112.874,207.293 112.464 C 206.189 111.914,204.078 111.593,199.200 111.232 C 195.570 110.964,189.665 110.487,186.078 110.172 C 177.738 109.441,167.239 109.446,153.499 110.190 C 147.504 110.514,138.544 110.956,133.587 111.172 C 125.256 111.535,124.407 111.641,122.371 112.573 C 120.938 113.229,118.286 113.861,114.784 114.381 C 111.823 114.821,108.800 115.357,108.066 115.572 C 101.964 117.363,90.567 115.859,87.244 112.825 C 86.386 112.041,84.846 110.770,83.823 110.000 C 77.251 105.054,73.551 92.947,75.176 81.711 C 76.232 74.413,83.902 64.310,90.254 61.850 C 93.907 60.435,108.015 57.200,110.530 57.200 C 111.148 57.200,112.013 57.007,112.454 56.771 C 112.894 56.536,115.897 56.088,119.127 55.776 C 122.357 55.465,126.260 54.941,127.800 54.612 C 129.340 54.283,131.320 54.010,132.200 54.006 C 133.080 54.001,135.330 53.741,137.200 53.427 C 146.761 51.825,173.014 51.318,189.200 52.424 " stroke="none" fill="#fbfbfb" fill-rule="evenodd"></path><path id="path2" d="M158.200 51.859 C 151.322 52.043,140.746 52.833,137.200 53.427 C 135.330 53.741,133.080 54.001,132.200 54.006 C 131.320 54.010,129.340 54.283,127.800 54.612 C 126.260 54.941,122.357 55.465,119.127 55.776 C 115.897 56.088,112.894 56.536,112.454 56.771 C 112.013 57.007,111.148 57.200,110.530 57.200 C 108.015 57.200,93.907 60.435,90.254 61.850 C 76.166 67.306,70.290 89.054,78.908 103.844 C 80.658 106.847,82.201 108.779,83.823 110.000 C 84.846 110.770,86.386 112.041,87.244 112.825 C 90.567 115.859,101.964 117.363,108.066 115.572 C 108.800 115.357,111.823 114.821,114.784 114.381 C 118.286 113.861,120.938 113.229,122.371 112.573 C 124.407 111.641,125.256 111.535,133.587 111.172 C 138.544 110.956,147.504 110.514,153.499 110.190 C 167.239 109.446,177.738 109.441,186.078 110.172 C 189.665 110.487,195.570 110.964,199.200 111.232 C 204.078 111.593,206.189 111.914,207.293 112.464 C 208.114 112.874,210.544 113.644,212.693 114.175 C 217.937 115.471,222.932 117.222,225.603 118.698 C 226.811 119.366,228.786 120.230,229.991 120.619 C 231.196 121.007,232.425 121.568,232.722 121.865 C 233.019 122.162,234.206 122.837,235.360 123.365 C 236.514 123.893,237.774 124.806,238.160 125.396 C 238.546 125.985,239.441 126.709,240.148 127.004 C 240.855 127.299,241.671 127.985,241.961 128.527 C 242.251 129.068,242.884 129.724,243.367 129.983 C 243.851 130.241,244.586 131.084,245.001 131.854 C 245.416 132.625,246.081 133.430,246.480 133.643 C 247.120 133.985,247.759 135.024,250.473 140.133 C 250.843 140.830,251.525 144.100,251.989 147.400 C 252.454 150.700,253.005 154.030,253.214 154.800 C 253.795 156.932,253.679 160.673,252.824 167.343 C 252.397 170.674,251.762 175.735,251.411 178.588 C 250.957 182.294,250.534 184.180,249.931 185.188 C 249.466 185.965,248.779 187.780,248.403 189.223 C 248.020 190.694,247.079 192.777,246.260 193.968 C 245.457 195.135,244.800 196.223,244.800 196.386 C 244.800 198.957,232.643 211.457,227.721 213.946 C 226.798 214.412,225.898 215.048,225.721 215.358 C 225.220 216.238,214.287 221.276,209.955 222.624 C 208.940 222.940,207.643 223.566,207.072 224.015 C 206.453 224.502,204.736 225.060,202.821 225.396 C 201.054 225.707,197.941 226.534,195.904 227.234 C 191.667 228.690,186.568 229.139,173.800 229.179 C 164.738 229.208,150.051 230.220,147.344 231.003 C 146.213 231.329,143.513 231.780,141.344 232.005 C 139.175 232.229,137.130 232.491,136.800 232.587 C 136.470 232.682,134.427 232.952,132.261 233.187 C 129.655 233.468,127.587 233.948,126.149 234.606 C 124.954 235.153,123.837 235.600,123.667 235.600 C 123.497 235.600,122.647 236.102,121.779 236.716 C 120.910 237.330,119.480 238.072,118.600 238.363 C 116.706 238.992,111.246 244.423,110.193 246.725 C 109.822 247.536,108.913 249.460,108.174 251.000 C 104.055 259.575,105.828 276.816,111.359 281.970 C 111.932 282.503,112.400 283.140,112.400 283.385 C 112.400 283.835,114.952 286.401,117.693 288.707 C 118.515 289.398,120.315 290.325,121.693 290.766 C 123.072 291.207,124.920 291.838,125.800 292.167 C 127.670 292.866,135.153 293.010,138.954 292.420 C 144.265 291.596,149.066 291.175,160.000 290.574 C 166.924 290.194,173.127 289.635,175.800 289.151 C 185.131 287.461,196.471 287.189,199.719 288.578 C 200.555 288.935,202.445 289.391,203.919 289.592 C 207.863 290.130,213.671 291.394,214.676 291.933 C 215.158 292.191,217.175 292.837,219.158 293.368 C 221.431 293.976,223.323 294.765,224.281 295.503 C 225.722 296.613,230.244 298.800,231.099 298.800 C 231.879 298.800,235.103 300.401,235.647 301.059 C 236.343 301.900,239.119 303.180,240.273 303.191 C 240.770 303.196,241.497 303.693,241.961 304.346 C 242.410 304.976,243.655 305.869,244.727 306.330 C 246.039 306.895,247.418 308.003,248.944 309.720 C 250.191 311.123,251.686 312.525,252.266 312.835 C 252.847 313.146,254.564 314.606,256.082 316.080 C 257.601 317.554,259.184 318.868,259.601 319.000 C 260.018 319.133,260.484 319.637,260.636 320.120 C 261.077 321.523,263.772 325.280,265.383 326.737 C 266.195 327.473,267.193 328.851,267.600 329.800 C 268.007 330.750,268.579 331.678,268.870 331.863 C 269.162 332.049,269.841 333.100,270.379 334.200 C 270.917 335.300,271.672 336.663,272.056 337.229 C 272.439 337.795,273.217 339.491,273.785 340.998 C 274.352 342.504,274.988 343.945,275.199 344.198 C 275.409 344.452,275.848 345.906,276.173 347.430 C 276.498 348.953,277.217 351.699,277.771 353.532 C 279.908 360.608,279.930 374.893,277.813 381.400 C 277.241 383.160,276.522 385.680,276.216 387.000 C 275.425 390.416,272.748 397.082,271.317 399.200 C 268.769 402.971,267.271 405.452,266.667 406.900 C 266.322 407.725,265.863 408.400,265.645 408.400 C 265.428 408.400,264.760 409.300,264.161 410.400 C 263.563 411.500,262.928 412.400,262.751 412.400 C 262.574 412.400,261.498 413.525,260.361 414.900 C 257.182 418.743,252.508 423.452,248.152 427.200 C 245.978 429.070,243.588 431.195,242.839 431.922 C 242.090 432.648,240.920 433.524,240.238 433.867 C 239.557 434.210,238.550 434.899,238.000 435.397 C 237.450 435.896,236.280 436.527,235.400 436.799 C 234.520 437.072,233.260 437.794,232.600 438.404 C 231.940 439.014,229.690 440.459,227.600 441.615 C 225.510 442.771,223.416 444.062,222.946 444.485 C 220.963 446.269,217.095 444.179,213.600 439.434 C 212.830 438.388,211.639 436.873,210.953 436.066 C 210.267 435.260,209.335 433.868,208.882 432.973 C 208.429 432.079,207.746 431.089,207.364 430.773 C 206.983 430.458,206.362 429.694,205.984 429.075 C 205.607 428.456,204.241 426.817,202.949 425.433 C 201.657 424.049,199.610 421.610,198.400 420.014 C 195.784 416.563,192.827 413.143,192.021 412.636 C 191.702 412.435,191.115 411.895,190.717 411.436 C 188.215 408.549,180.572 401.082,179.041 400.028 C 178.035 399.336,177.030 398.430,176.808 398.015 C 176.586 397.601,175.369 396.757,174.102 396.142 C 172.836 395.526,171.466 394.605,171.058 394.095 C 170.265 393.103,169.835 392.848,163.946 389.878 C 155.982 385.862,143.480 385.633,136.065 389.367 C 132.552 391.137,126.413 396.964,125.219 399.663 C 124.785 400.646,124.069 401.776,123.629 402.174 C 123.189 402.572,122.521 403.731,122.145 404.749 C 121.769 405.767,121.043 407.336,120.531 408.235 C 119.929 409.292,119.380 411.340,118.977 414.035 C 118.634 416.326,118.049 419.100,117.677 420.200 C 116.720 423.027,116.750 435.123,117.721 438.600 C 118.090 439.920,118.662 442.890,118.992 445.200 C 119.661 449.889,120.112 451.695,120.923 452.949 C 121.226 453.417,121.795 455.118,122.187 456.729 C 122.580 458.340,123.288 460.140,123.761 460.729 C 124.234 461.318,124.863 462.520,125.159 463.400 C 125.454 464.280,126.099 465.540,126.590 466.200 C 127.082 466.860,127.885 468.210,128.374 469.200 C 129.327 471.128,129.608 471.442,137.579 479.458 C 140.884 482.781,143.461 485.023,144.586 485.551 C 145.565 486.011,146.563 486.757,146.805 487.209 C 147.046 487.660,148.179 488.462,149.322 488.991 C 150.465 489.520,152.426 490.922,153.680 492.107 C 155.146 493.493,156.573 494.439,157.680 494.759 C 158.626 495.033,160.120 495.751,161.000 496.355 C 161.880 496.958,163.410 497.679,164.400 497.956 C 165.390 498.233,167.098 498.920,168.196 499.484 C 169.294 500.047,171.274 500.920,172.596 501.423 C 173.918 501.927,175.573 502.630,176.273 502.985 C 176.973 503.341,179.223 503.883,181.273 504.191 C 183.323 504.499,186.350 505.027,188.000 505.364 C 189.650 505.701,192.338 506.181,193.973 506.430 C 197.538 506.975,198.713 507.747,200.924 511.000 C 201.822 512.320,202.795 513.642,203.087 513.938 C 203.380 514.234,203.866 514.954,204.168 515.539 C 204.471 516.124,205.103 516.950,205.574 517.376 C 206.044 517.802,206.754 518.881,207.150 519.775 C 207.547 520.669,208.530 522.057,209.336 522.860 C 210.141 523.663,210.800 524.574,210.800 524.885 C 210.800 525.196,211.340 525.968,212.000 526.600 C 212.660 527.232,213.200 527.959,213.200 528.216 C 213.200 528.940,217.826 536.028,220.847 539.931 C 221.642 540.959,222.675 542.553,223.141 543.473 C 223.607 544.393,224.175 545.261,224.402 545.401 C 224.629 545.542,225.248 546.510,225.776 547.553 C 226.304 548.595,227.381 550.220,228.168 551.162 C 228.956 552.105,229.600 553.056,229.600 553.276 C 229.600 553.931,233.992 560.400,234.436 560.400 C 234.661 560.400,235.217 561.255,235.672 562.300 C 236.127 563.345,236.729 564.470,237.011 564.800 C 237.293 565.130,238.099 566.538,238.802 567.928 C 239.505 569.318,240.315 570.546,240.604 570.657 C 240.892 570.767,241.226 571.250,241.347 571.729 C 241.467 572.208,242.363 573.789,243.337 575.242 C 244.312 576.695,245.230 578.265,245.378 578.731 C 245.526 579.198,246.062 579.906,246.570 580.305 C 247.077 580.704,247.605 581.384,247.743 581.815 C 248.082 582.874,251.719 589.133,252.778 590.479 C 253.245 591.073,253.970 592.333,254.389 593.279 C 254.808 594.226,255.508 595.383,255.945 595.850 C 256.381 596.318,257.277 597.768,257.936 599.074 C 258.595 600.380,259.408 601.675,259.742 601.952 C 260.075 602.229,260.455 602.941,260.586 603.535 C 260.826 604.629,263.403 608.941,265.471 611.711 C 267.435 614.341,270.940 618.400,271.247 618.400 C 271.410 618.400,272.199 619.019,273.001 619.775 C 278.175 624.655,287.426 625.444,295.600 621.703 C 299.321 620.000,305.093 614.227,306.138 611.164 C 306.544 609.974,307.534 607.666,308.338 606.036 L 309.800 603.073 309.770 597.036 C 309.736 590.429,309.195 586.661,307.924 584.200 C 307.469 583.320,306.777 581.675,306.385 580.543 C 305.994 579.412,305.027 577.547,304.236 576.398 C 303.446 575.250,302.800 574.122,302.800 573.893 C 302.800 573.663,302.376 572.919,301.857 572.238 C 301.338 571.557,300.431 570.047,299.840 568.881 C 299.250 567.716,298.507 566.662,298.188 566.540 C 297.869 566.418,297.412 565.571,297.173 564.659 C 296.779 563.160,295.384 560.683,292.911 557.092 C 292.422 556.381,291.483 554.747,290.825 553.460 C 290.168 552.172,289.173 550.696,288.615 550.179 C 288.057 549.661,287.600 548.895,287.600 548.477 C 287.600 548.058,286.997 546.924,286.261 545.958 C 285.524 544.991,284.564 543.390,284.126 542.400 C 283.688 541.410,283.040 540.360,282.685 540.068 C 282.330 539.775,281.644 538.695,281.161 537.668 C 280.677 536.640,279.887 535.350,279.406 534.800 C 278.925 534.250,278.062 532.976,277.489 531.968 C 276.915 530.961,276.175 529.911,275.844 529.636 C 275.512 529.361,275.030 528.475,274.772 527.668 C 274.514 526.861,273.905 525.750,273.417 525.200 C 272.930 524.650,272.051 523.358,271.465 522.328 C 270.879 521.299,270.150 520.208,269.846 519.903 C 269.542 519.599,268.925 518.629,268.476 517.748 C 268.026 516.867,267.361 515.899,266.997 515.597 C 266.633 515.295,265.811 514.011,265.171 512.743 C 264.531 511.476,263.669 510.115,263.254 509.719 C 262.839 509.324,262.377 508.601,262.227 508.112 C 261.685 506.348,258.414 501.361,257.221 500.479 C 256.549 499.982,256.000 499.303,256.000 498.968 C 256.000 498.634,255.384 497.726,254.630 496.950 C 251.716 493.950,252.349 490.902,256.279 489.000 C 257.643 488.340,259.135 487.395,259.595 486.900 C 260.055 486.405,260.580 486.000,260.761 486.000 C 261.404 486.000,269.415 480.062,271.419 478.100 C 272.149 477.385,272.949 476.800,273.197 476.800 C 273.444 476.800,274.384 475.990,275.285 475.000 C 276.186 474.010,277.092 473.200,277.298 473.200 C 277.505 473.200,278.152 472.835,278.737 472.388 C 282.811 469.278,283.434 468.687,287.537 464.034 C 288.782 462.623,291.286 459.959,293.102 458.115 C 294.917 456.271,296.755 454.073,297.184 453.230 C 297.614 452.388,298.235 451.595,298.565 451.469 C 298.894 451.342,299.531 450.520,299.979 449.641 C 300.428 448.762,301.050 447.898,301.363 447.721 C 301.919 447.407,303.584 445.193,305.968 441.600 C 306.625 440.610,307.534 439.260,307.989 438.600 C 310.520 434.924,312.067 432.310,312.592 430.823 C 312.917 429.902,313.539 428.695,313.975 428.141 C 314.411 427.587,315.122 426.185,315.556 425.025 C 315.990 423.865,316.783 422.271,317.318 421.483 C 317.853 420.695,318.586 418.874,318.947 417.436 C 319.308 415.999,320.117 414.013,320.744 413.023 C 321.372 412.033,322.108 410.093,322.380 408.712 C 322.652 407.330,323.211 405.374,323.621 404.364 C 324.031 403.354,324.723 400.564,325.157 398.164 C 325.592 395.764,326.210 393.170,326.531 392.400 C 329.231 385.923,329.406 351.481,326.779 343.569 C 326.372 342.342,325.692 339.341,325.269 336.899 C 324.846 334.458,324.142 331.682,323.704 330.730 C 323.267 329.779,322.524 327.380,322.055 325.400 C 321.586 323.420,320.881 321.350,320.488 320.800 C 320.095 320.250,319.457 318.770,319.070 317.510 C 318.682 316.251,317.948 314.721,317.437 314.110 C 316.926 313.500,316.092 311.830,315.584 310.400 C 315.075 308.970,314.358 307.350,313.989 306.800 C 313.621 306.250,312.994 304.936,312.597 303.879 C 312.200 302.822,311.570 301.742,311.198 301.479 C 310.825 301.216,310.133 300.122,309.660 299.048 C 308.772 297.036,307.278 295.038,304.742 292.474 C 303.941 291.663,303.157 290.550,303.002 290.000 C 302.846 289.450,302.226 288.370,301.624 287.600 C 301.022 286.830,300.300 285.768,300.019 285.240 C 299.738 284.712,298.853 283.595,298.054 282.758 C 295.388 279.968,294.602 279.148,294.329 278.873 C 294.179 278.723,293.279 277.711,292.329 276.625 C 291.378 275.539,289.520 273.594,288.200 272.304 C 286.880 271.014,285.170 269.336,284.400 268.576 C 283.630 267.816,282.768 267.196,282.484 267.197 C 282.200 267.199,281.273 266.525,280.424 265.700 C 276.448 261.838,270.941 257.376,267.103 254.906 C 265.635 253.962,265.594 254.058,268.900 250.663 C 270.495 249.024,272.430 246.944,273.200 246.040 C 273.970 245.136,275.122 243.850,275.760 243.182 C 276.399 242.513,277.430 241.209,278.053 240.283 C 278.675 239.357,280.093 237.520,281.203 236.200 C 282.313 234.880,283.823 232.537,284.558 230.992 C 285.294 229.448,286.188 227.942,286.545 227.646 C 286.902 227.349,287.393 226.368,287.637 225.464 C 287.880 224.561,288.495 223.327,289.003 222.723 C 289.512 222.119,290.242 220.674,290.627 219.512 C 291.012 218.351,291.735 216.770,292.235 216.000 C 292.734 215.230,293.438 213.520,293.799 212.200 C 294.159 210.880,294.871 208.990,295.379 208.000 C 295.888 207.010,296.611 204.760,296.986 203.000 C 297.361 201.240,298.119 198.540,298.669 197.000 C 299.283 195.282,299.821 192.577,300.061 190.000 C 300.277 187.690,300.811 184.183,301.248 182.206 C 303.369 172.626,303.335 148.011,301.189 139.070 C 300.757 137.272,300.216 133.827,299.986 131.416 C 299.695 128.355,299.274 126.362,298.593 124.816 C 298.056 123.597,297.162 121.136,296.606 119.347 C 296.050 117.558,295.326 115.871,294.997 115.598 C 294.669 115.325,294.398 114.809,294.396 114.451 C 294.390 113.474,292.558 109.731,291.895 109.341 C 291.576 109.153,291.003 108.049,290.621 106.888 C 290.240 105.726,289.514 104.284,289.009 103.684 C 288.505 103.084,287.807 101.912,287.459 101.080 C 286.853 99.630,285.099 97.290,282.657 94.676 C 282.028 94.002,281.068 92.779,280.523 91.956 C 279.979 91.133,279.278 90.362,278.967 90.243 C 278.655 90.123,278.400 89.769,278.400 89.456 C 278.400 88.729,274.660 84.955,273.182 84.191 C 272.563 83.871,271.940 83.242,271.798 82.794 C 271.656 82.345,271.058 81.670,270.470 81.293 C 269.881 80.916,268.353 79.796,267.073 78.804 C 265.794 77.812,264.264 76.642,263.673 76.205 C 263.083 75.767,261.839 74.814,260.910 74.086 C 259.980 73.358,258.313 72.493,257.204 72.164 C 256.096 71.835,254.597 71.046,253.874 70.412 C 253.151 69.777,251.759 68.944,250.780 68.560 C 249.801 68.177,248.280 67.386,247.400 66.803 C 244.972 65.195,240.900 63.367,238.000 62.583 C 236.570 62.197,234.500 61.468,233.400 60.963 C 232.300 60.458,229.600 59.755,227.400 59.401 C 225.200 59.046,221.986 58.215,220.257 57.553 C 218.310 56.808,215.495 56.144,212.857 55.808 C 210.516 55.509,208.060 55.081,207.400 54.855 C 201.738 52.921,176.327 51.374,158.200 51.859 M188.400 54.603 C 190.930 54.915,195.880 55.457,199.400 55.807 C 205.764 56.439,207.022 56.649,216.200 58.602 C 218.840 59.164,222.350 59.898,224.000 60.233 C 230.593 61.571,236.509 63.600,242.620 66.618 C 245.051 67.818,247.211 68.803,247.420 68.807 C 247.629 68.810,249.147 69.623,250.793 70.614 C 252.440 71.604,254.352 72.570,255.043 72.761 C 256.598 73.190,261.524 76.486,264.200 78.888 C 265.300 79.876,266.764 80.973,267.453 81.328 C 268.142 81.682,269.222 82.526,269.853 83.204 C 270.484 83.882,271.588 84.805,272.307 85.255 C 273.026 85.706,274.811 87.633,276.273 89.537 C 277.736 91.442,279.960 94.080,281.215 95.400 C 283.586 97.892,286.956 102.601,287.424 104.075 C 287.572 104.541,288.871 107.100,290.310 109.761 C 298.110 124.180,300.785 137.014,300.825 160.200 C 300.848 173.267,299.686 186.510,298.001 192.400 C 297.592 193.830,296.957 196.530,296.591 198.400 C 296.225 200.270,295.490 202.899,294.958 204.243 C 294.426 205.586,293.709 207.656,293.364 208.843 C 293.020 210.029,292.139 212.260,291.408 213.800 C 288.015 220.939,286.862 223.471,286.597 224.355 C 286.440 224.880,285.701 226.108,284.956 227.085 C 284.210 228.062,283.600 229.034,283.600 229.246 C 283.600 230.422,275.886 240.612,271.220 245.600 C 262.704 254.704,263.496 253.398,265.270 255.419 C 265.969 256.215,267.544 257.551,268.770 258.389 C 269.997 259.227,272.024 260.787,273.276 261.856 C 277.867 265.777,279.039 266.686,280.907 267.774 C 281.955 268.384,283.074 269.256,283.393 269.712 C 283.712 270.167,286.634 273.260,289.886 276.585 C 296.652 283.502,298.166 285.274,301.338 290.000 C 302.594 291.870,304.603 294.660,305.802 296.200 C 307.002 297.740,308.286 299.630,308.656 300.400 C 309.026 301.170,309.932 302.679,310.670 303.753 C 311.408 304.828,312.127 306.169,312.269 306.733 C 312.643 308.221,315.507 314.227,316.637 315.893 C 317.169 316.677,317.948 318.416,318.369 319.759 C 318.789 321.102,319.512 323.045,319.976 324.078 C 320.439 325.111,321.255 327.631,321.789 329.678 C 322.324 331.725,323.220 334.905,323.780 336.745 C 324.341 338.585,324.800 340.680,324.800 341.401 C 324.800 342.122,325.169 344.487,325.620 346.656 C 327.686 356.596,328.065 373.056,326.437 382.200 C 326.006 384.620,325.377 388.779,325.039 391.442 C 324.701 394.105,323.979 397.525,323.434 399.042 C 322.889 400.559,322.090 403.420,321.658 405.400 C 321.227 407.380,320.422 409.900,319.871 411.000 C 319.319 412.100,318.497 414.105,318.044 415.456 C 317.248 417.831,315.979 420.545,311.711 429.000 C 309.175 434.023,301.271 445.950,297.614 450.271 C 296.836 451.190,295.605 452.720,294.877 453.671 C 291.156 458.534,275.867 473.071,271.355 476.036 C 270.153 476.826,268.591 478.016,267.885 478.680 C 266.504 479.977,262.817 482.798,260.454 484.364 C 259.654 484.894,258.280 485.815,257.400 486.411 C 256.520 487.007,254.863 487.967,253.719 488.545 C 250.753 490.041,250.360 494.608,252.967 497.281 C 253.927 498.265,256.995 502.774,259.066 506.243 C 259.762 507.409,260.797 508.974,261.366 509.720 C 261.935 510.465,262.400 511.201,262.400 511.354 C 262.400 511.507,262.740 512.120,263.156 512.716 C 263.572 513.312,265.051 515.600,266.443 517.800 C 267.835 520.000,269.088 521.890,269.228 522.000 C 269.612 522.303,273.793 528.818,274.553 530.300 C 274.921 531.015,276.476 533.485,278.010 535.788 C 279.545 538.091,280.800 540.073,280.800 540.194 C 280.800 540.401,281.518 541.554,285.412 547.600 C 286.333 549.030,287.337 550.671,287.643 551.246 C 287.949 551.822,288.713 553.262,289.340 554.446 C 289.967 555.631,291.069 557.500,291.789 558.600 C 293.496 561.208,294.530 562.948,295.832 565.400 C 296.416 566.500,297.513 568.269,298.269 569.331 C 299.025 570.393,299.818 571.722,300.032 572.284 C 300.245 572.845,301.475 575.036,302.764 577.152 C 316.097 599.043,303.090 625.987,281.407 621.394 C 274.209 619.870,265.533 611.465,261.594 602.200 C 260.758 600.234,259.416 598.017,256.353 593.541 C 255.502 592.298,254.685 590.964,254.536 590.577 C 254.387 590.189,253.125 588.010,251.733 585.735 C 250.340 583.460,249.200 581.492,249.200 581.363 C 249.200 581.233,248.504 580.109,247.653 578.864 C 245.464 575.661,239.152 565.455,237.595 562.600 C 236.875 561.280,235.575 559.210,234.707 558.000 C 233.302 556.044,227.657 547.458,223.497 540.952 C 222.670 539.658,221.160 537.430,220.143 536.000 C 219.125 534.570,217.478 532.050,216.483 530.400 C 215.488 528.750,214.072 526.724,213.337 525.899 C 212.602 525.073,212.000 524.235,212.000 524.037 C 212.000 523.838,211.356 522.905,210.568 521.962 C 209.781 521.020,208.719 519.428,208.208 518.424 C 207.321 516.684,205.077 513.465,201.572 508.906 C 198.834 505.344,197.921 504.859,192.302 503.985 C 189.570 503.560,186.596 502.951,185.693 502.633 C 184.790 502.314,182.734 501.928,181.125 501.775 C 178.452 501.520,173.683 500.092,172.632 499.231 C 172.394 499.037,170.850 498.472,169.200 497.975 C 165.434 496.843,156.721 492.303,154.600 490.368 C 153.720 489.566,152.168 488.545,151.152 488.100 C 150.135 487.655,149.178 487.088,149.025 486.841 C 148.872 486.593,147.814 485.779,146.674 485.031 C 141.410 481.581,131.394 471.226,128.838 466.593 C 124.706 459.101,124.010 457.610,122.986 454.037 C 122.392 451.968,121.674 449.718,121.390 449.037 C 119.189 443.771,118.128 427.228,119.429 418.470 C 120.901 408.553,129.224 394.174,134.400 392.605 C 134.950 392.438,136.390 391.704,137.600 390.973 C 143.205 387.587,154.276 387.584,161.400 390.968 C 162.940 391.699,164.883 392.517,165.718 392.786 C 166.552 393.054,168.082 393.922,169.118 394.714 C 170.153 395.506,171.663 396.532,172.473 396.994 C 175.598 398.775,191.629 414.181,194.737 418.389 C 195.310 419.165,196.761 420.880,197.961 422.200 C 200.928 425.462,205.921 431.611,207.472 433.913 C 208.172 434.951,209.271 436.430,209.915 437.200 C 210.558 437.970,211.591 439.410,212.211 440.400 C 215.698 445.977,220.197 448.086,224.064 445.958 C 227.035 444.323,229.529 442.832,231.690 441.400 C 233.018 440.520,235.325 438.990,236.817 438.000 C 244.708 432.763,243.579 433.641,250.199 427.600 C 252.007 425.950,254.786 423.430,256.374 422.000 C 260.113 418.633,266.283 410.448,272.040 401.219 C 273.908 398.224,275.740 393.797,278.190 386.356 C 282.541 373.144,281.198 351.583,275.353 340.800 C 275.055 340.250,274.436 338.817,273.978 337.616 C 272.844 334.640,268.503 327.939,263.550 321.517 C 262.313 319.913,259.343 316.804,256.950 314.609 C 254.558 312.415,251.529 309.580,250.221 308.309 C 248.912 307.039,247.621 306.000,247.351 306.000 C 247.082 306.000,246.010 305.350,244.969 304.556 C 243.928 303.761,241.919 302.592,240.503 301.956 C 239.087 301.321,237.210 300.186,236.331 299.434 C 235.452 298.681,233.713 297.662,232.466 297.170 C 231.220 296.677,229.089 295.664,227.731 294.920 C 224.597 293.201,216.901 290.575,212.085 289.579 C 210.041 289.157,208.021 288.625,207.595 288.397 C 202.524 285.683,184.346 285.265,172.370 287.587 C 170.173 288.013,165.727 288.554,162.488 288.790 C 159.250 289.026,152.820 289.514,148.200 289.875 C 128.177 291.440,123.405 290.888,117.903 286.372 C 107.725 278.018,104.344 264.070,109.573 252.012 C 111.036 248.641,114.276 243.200,114.821 243.200 C 114.960 243.200,115.931 242.389,116.980 241.398 C 118.446 240.014,119.549 239.397,121.744 238.736 C 123.315 238.263,124.696 237.731,124.814 237.553 C 125.493 236.531,129.330 235.522,136.047 234.600 C 140.091 234.044,146.280 233.148,149.800 232.608 C 159.891 231.060,162.882 230.827,178.200 230.389 C 192.777 229.972,196.533 229.579,199.221 228.189 C 199.930 227.822,202.239 227.174,204.352 226.749 C 206.662 226.285,209.230 225.445,210.796 224.642 C 212.228 223.907,214.120 223.083,215.000 222.810 C 229.152 218.414,245.170 203.023,250.038 189.141 C 254.222 177.211,256.292 155.698,254.035 147.600 C 250.936 136.479,248.000 131.375,241.564 125.922 C 236.026 121.229,225.474 115.668,219.055 114.059 C 217.105 113.570,214.855 112.838,214.055 112.431 C 212.473 111.628,209.566 110.988,205.800 110.613 C 200.811 110.116,187.985 108.597,183.200 107.936 C 179.554 107.432,154.418 107.791,151.200 108.393 C 149.990 108.619,146.210 108.978,142.800 109.191 C 128.741 110.068,118.026 111.231,114.400 112.274 C 98.228 116.924,87.207 114.012,80.820 103.400 C 73.312 90.923,75.157 77.464,85.774 67.271 L 89.055 64.121 94.228 62.470 C 100.691 60.408,101.907 60.147,107.600 59.600 C 110.130 59.357,113.010 58.910,114.000 58.606 C 114.990 58.303,116.790 57.943,118.000 57.806 C 119.210 57.669,122.090 57.302,124.400 56.990 C 126.710 56.678,130.940 56.239,133.800 56.015 C 136.660 55.791,141.070 55.405,143.600 55.158 C 152.600 54.279,156.368 54.125,170.000 54.080 C 179.748 54.048,185.151 54.201,188.400 54.603 " stroke="none" fill="#9c9c9c" fill-rule="evenodd"></path><path id="path3" d="M152.200 54.417 C 150.000 54.577,146.130 54.911,143.600 55.158 C 141.070 55.405,136.660 55.791,133.800 56.015 C 130.940 56.239,126.710 56.678,124.400 56.990 C 122.090 57.302,119.210 57.669,118.000 57.806 C 116.790 57.943,114.990 58.303,114.000 58.606 C 113.010 58.910,110.130 59.357,107.600 59.600 C 101.907 60.147,100.691 60.408,94.228 62.470 L 89.055 64.121 85.774 67.271 C 75.157 77.464,73.312 90.923,80.820 103.400 C 87.207 114.012,98.228 116.924,114.400 112.274 C 117.012 111.522,124.367 110.579,132.400 109.965 C 135.590 109.722,138.290 109.425,138.400 109.306 C 139.017 108.641,114.671 111.148,112.800 111.942 C 112.250 112.176,110.360 112.634,108.600 112.961 C 93.384 115.782,84.734 111.605,79.015 98.672 C 72.942 84.940,80.836 66.473,94.164 63.234 C 95.244 62.971,97.140 62.330,98.376 61.810 C 99.969 61.140,102.079 60.730,105.612 60.404 C 108.355 60.152,111.770 59.695,113.200 59.390 C 117.265 58.523,129.988 56.893,136.600 56.392 C 139.900 56.142,144.400 55.758,146.600 55.540 C 155.809 54.624,181.939 54.658,190.800 55.598 C 195.310 56.076,200.800 56.619,203.000 56.805 C 205.200 56.990,207.630 57.337,208.400 57.575 C 209.170 57.812,213.572 58.739,218.182 59.633 C 223.266 60.618,228.696 61.968,231.982 63.063 C 238.271 65.157,247.810 69.367,251.800 71.808 C 252.680 72.346,253.670 72.788,254.000 72.789 C 254.674 72.791,250.759 70.426,248.000 69.165 C 247.010 68.712,244.400 67.461,242.200 66.385 C 236.463 63.578,230.426 61.538,224.000 60.233 C 222.350 59.898,218.840 59.164,216.200 58.602 C 207.022 56.649,205.764 56.439,199.400 55.807 C 195.880 55.457,190.930 54.915,188.400 54.603 C 183.439 53.990,159.725 53.868,152.200 54.417 M257.819 74.870 C 259.568 76.008,261.990 77.782,263.200 78.811 C 264.410 79.840,266.210 81.188,267.200 81.805 C 269.997 83.549,273.927 87.319,276.409 90.638 C 277.247 91.758,278.952 93.738,280.197 95.038 C 283.219 98.192,285.586 101.625,287.825 106.101 C 288.843 108.135,290.448 111.240,291.393 113.000 C 292.338 114.760,293.333 116.920,293.605 117.800 C 293.877 118.680,294.534 120.367,295.066 121.548 C 296.454 124.631,298.239 132.270,299.565 140.800 C 299.837 142.551,299.916 142.712,299.953 141.590 C 300.185 134.613,295.641 119.617,290.310 109.761 C 288.871 107.100,287.572 104.541,287.424 104.075 C 286.956 102.601,283.586 97.892,281.215 95.400 C 279.960 94.080,277.736 91.442,276.273 89.537 C 274.811 87.633,273.026 85.706,272.307 85.255 C 271.588 84.805,270.484 83.882,269.853 83.204 C 269.222 82.526,268.142 81.682,267.453 81.328 C 266.764 80.973,265.300 79.875,264.200 78.886 C 261.749 76.682,256.021 72.800,255.222 72.800 C 254.900 72.800,256.069 73.731,257.819 74.870 M149.600 107.845 C 147.290 108.151,143.870 108.556,142.000 108.746 L 138.600 109.092 141.880 109.146 C 143.683 109.176,147.283 108.898,149.880 108.528 C 155.933 107.667,182.916 107.497,186.314 108.299 C 187.476 108.573,189.996 108.886,191.914 108.994 L 195.400 109.191 192.600 108.643 C 186.117 107.372,183.088 107.196,168.600 107.242 C 158.515 107.275,152.462 107.467,149.600 107.845 M197.600 109.600 C 198.810 109.799,201.690 110.160,204.000 110.401 C 209.545 110.980,212.286 111.533,214.055 112.431 C 214.855 112.838,217.105 113.570,219.055 114.059 C 225.474 115.668,236.026 121.229,241.564 125.922 C 248.000 131.375,250.936 136.479,254.035 147.600 C 256.292 155.698,254.222 177.211,250.038 189.141 C 245.170 203.023,229.152 218.414,215.000 222.810 C 214.120 223.083,212.228 223.907,210.796 224.642 C 209.230 225.445,206.662 226.285,204.352 226.749 C 202.239 227.174,199.991 227.791,199.355 228.119 C 197.389 229.135,194.769 229.691,190.400 230.021 L 186.200 230.337 191.200 230.230 C 195.574 230.136,196.526 229.987,198.800 229.045 C 200.230 228.452,203.020 227.613,205.000 227.181 C 206.980 226.749,209.935 225.746,211.566 224.953 C 213.198 224.160,215.538 223.166,216.766 222.745 C 224.663 220.036,237.980 210.032,242.944 203.080 C 248.105 195.851,248.475 195.179,250.541 189.275 C 251.810 185.651,253.252 180.154,254.444 174.400 C 256.542 164.277,255.340 148.136,251.788 138.736 C 248.001 128.712,233.696 117.293,220.803 114.001 C 219.068 113.558,216.333 112.669,214.725 112.025 C 211.860 110.878,205.248 109.838,198.000 109.396 L 195.400 109.237 197.600 109.600 M300.200 160.400 C 300.200 169.978,300.327 176.090,300.491 174.400 C 300.856 170.636,300.845 149.957,300.475 146.200 C 300.324 144.660,300.200 151.050,300.200 160.400 M298.691 184.800 C 297.208 194.157,295.763 200.832,294.628 203.558 C 294.115 204.791,293.390 206.880,293.016 208.200 C 292.642 209.520,291.651 212.040,290.812 213.800 C 287.830 220.060,286.498 223.013,286.210 224.000 C 286.050 224.550,285.411 225.647,284.791 226.437 C 284.171 227.228,283.382 228.488,283.039 229.237 C 282.452 230.520,280.756 232.940,276.292 238.866 C 275.242 240.260,272.597 243.290,270.414 245.600 C 265.640 250.653,264.088 252.393,263.605 253.235 C 263.004 254.283,264.675 256.213,268.800 259.238 C 272.375 261.858,274.591 263.560,277.400 265.843 C 278.060 266.379,279.349 267.311,280.264 267.915 C 281.179 268.518,283.258 270.449,284.883 272.206 C 286.509 273.963,289.158 276.660,290.770 278.200 C 294.111 281.391,297.296 285.179,300.206 289.423 C 301.310 291.033,302.596 292.766,303.063 293.275 C 304.869 295.239,312.000 306.498,312.000 307.385 C 312.000 307.994,314.922 314.226,316.227 316.400 C 316.954 317.610,317.756 319.410,318.010 320.400 C 318.264 321.390,318.995 323.397,319.633 324.861 C 320.272 326.324,321.063 328.799,321.392 330.360 C 321.720 331.921,322.279 333.874,322.633 334.699 C 322.988 335.525,323.607 337.730,324.011 339.600 C 324.533 342.022,324.752 342.581,324.772 341.545 C 324.787 340.745,324.341 338.585,323.780 336.745 C 323.220 334.905,322.324 331.725,321.789 329.678 C 321.255 327.631,320.439 325.111,319.976 324.078 C 319.512 323.045,318.789 321.102,318.369 319.759 C 317.948 318.416,317.169 316.677,316.637 315.893 C 315.507 314.227,312.643 308.221,312.269 306.733 C 312.127 306.169,311.408 304.828,310.670 303.753 C 309.932 302.679,309.026 301.170,308.656 300.400 C 308.286 299.630,307.002 297.740,305.802 296.200 C 304.603 294.660,302.594 291.870,301.338 290.000 C 298.166 285.274,296.652 283.502,289.886 276.585 C 286.634 273.260,283.712 270.167,283.393 269.712 C 283.074 269.256,281.955 268.384,280.907 267.774 C 279.039 266.686,277.867 265.777,273.276 261.856 C 272.024 260.787,269.997 259.227,268.770 258.389 C 266.621 256.921,264.000 254.317,264.000 253.650 C 264.000 253.472,264.825 252.444,265.833 251.364 C 266.841 250.284,269.265 247.690,271.220 245.600 C 275.886 240.612,283.600 230.422,283.600 229.246 C 283.600 229.034,284.210 228.062,284.956 227.085 C 285.701 226.108,286.439 224.880,286.594 224.355 C 286.749 223.830,287.472 222.140,288.199 220.600 C 288.927 219.060,290.246 216.270,291.130 214.400 C 292.013 212.530,293.039 209.948,293.408 208.661 C 293.777 207.375,294.436 205.517,294.871 204.532 C 295.307 203.548,296.090 200.730,296.612 198.271 C 297.134 195.812,297.840 193.012,298.180 192.050 C 298.521 191.087,298.800 189.759,298.800 189.099 C 298.800 188.439,299.083 186.237,299.430 184.206 C 299.776 182.175,300.001 179.902,299.930 179.156 C 299.855 178.380,299.325 180.795,298.691 184.800 M166.000 230.817 C 162.590 230.973,158.990 231.225,158.000 231.376 C 148.551 232.823,142.264 233.746,136.047 234.600 C 129.330 235.522,125.493 236.531,124.814 237.553 C 124.696 237.731,123.315 238.263,121.744 238.736 C 119.549 239.397,118.446 240.014,116.980 241.398 C 115.931 242.389,114.960 243.200,114.821 243.200 C 114.276 243.200,111.036 248.641,109.573 252.012 C 104.344 264.070,107.725 278.018,117.903 286.372 C 123.405 290.888,128.177 291.440,148.200 289.875 C 152.820 289.514,159.250 289.026,162.488 288.790 C 165.727 288.554,170.173 288.013,172.370 287.587 C 184.346 285.265,202.524 285.683,207.595 288.397 C 208.021 288.625,210.041 289.157,212.085 289.579 C 216.901 290.575,224.597 293.201,227.731 294.920 C 229.089 295.664,231.220 296.677,232.466 297.170 C 233.713 297.662,235.452 298.681,236.331 299.434 C 237.210 300.186,239.087 301.321,240.503 301.956 C 241.919 302.592,243.928 303.761,244.969 304.556 C 246.010 305.350,247.082 306.000,247.351 306.000 C 247.621 306.000,248.912 307.039,250.221 308.309 C 251.529 309.580,254.558 312.415,256.950 314.609 C 259.343 316.804,262.313 319.913,263.550 321.517 C 268.503 327.939,272.844 334.640,273.978 337.616 C 274.436 338.817,275.055 340.250,275.353 340.800 C 283.663 356.129,282.072 385.135,272.040 401.219 C 266.283 410.448,260.113 418.633,256.374 422.000 C 254.786 423.430,252.007 425.950,250.199 427.600 C 243.579 433.641,244.708 432.763,236.817 438.000 C 235.325 438.990,233.018 440.520,231.690 441.400 C 229.529 442.832,227.035 444.323,224.064 445.958 C 220.197 448.086,215.698 445.977,212.211 440.400 C 211.591 439.410,210.558 437.970,209.915 437.200 C 209.271 436.430,208.172 434.951,207.472 433.913 C 205.921 431.611,200.928 425.462,197.961 422.200 C 196.761 420.880,195.310 419.165,194.737 418.389 C 191.629 414.181,175.598 398.775,172.473 396.994 C 171.663 396.532,170.153 395.506,169.118 394.714 C 168.082 393.922,166.552 393.054,165.718 392.786 C 164.883 392.517,162.940 391.699,161.400 390.968 C 154.276 387.584,143.205 387.587,137.600 390.973 C 136.390 391.704,134.950 392.438,134.400 392.605 C 129.224 394.174,120.901 408.553,119.429 418.470 C 118.128 427.228,119.189 443.771,121.390 449.037 C 121.674 449.718,122.392 451.968,122.986 454.037 C 124.010 457.610,124.706 459.101,128.838 466.593 C 131.394 471.226,141.410 481.581,146.674 485.031 C 147.814 485.779,148.872 486.593,149.025 486.841 C 149.178 487.088,150.135 487.655,151.152 488.100 C 152.168 488.545,153.720 489.566,154.600 490.368 C 156.302 491.921,165.619 497.017,167.487 497.417 C 168.198 497.569,167.805 497.234,166.400 496.489 C 158.871 492.500,155.780 490.733,154.926 489.930 C 154.393 489.430,152.990 488.476,151.807 487.810 C 143.711 483.253,132.229 471.711,127.921 463.800 C 118.265 446.063,116.426 423.927,123.254 407.600 C 124.487 404.653,128.438 398.697,130.654 396.445 C 137.796 389.186,152.053 386.912,161.163 391.578 C 162.133 392.074,163.790 392.737,164.846 393.051 C 165.902 393.364,167.620 394.273,168.665 395.070 C 169.709 395.867,171.320 396.987,172.245 397.560 C 175.893 399.817,188.568 412.081,194.315 418.915 C 195.132 419.886,197.060 422.118,198.600 423.874 C 203.176 429.093,206.119 432.744,207.493 434.907 C 208.205 436.026,209.209 437.405,209.725 437.971 C 210.240 438.537,211.482 440.170,212.484 441.600 C 214.195 444.043,216.373 446.134,218.200 447.088 C 219.701 447.872,224.105 446.941,226.200 445.398 C 226.860 444.911,228.390 444.015,229.600 443.405 C 230.810 442.795,233.088 441.374,234.662 440.248 C 236.235 439.122,239.025 437.155,240.862 435.877 C 245.361 432.746,248.683 429.937,255.800 423.241 C 256.680 422.413,257.888 421.419,258.485 421.032 C 259.082 420.644,260.238 419.309,261.054 418.064 C 261.870 416.819,263.189 414.990,263.985 414.000 C 264.781 413.010,265.695 411.819,266.016 411.352 C 266.337 410.886,267.391 409.356,268.359 407.952 C 270.959 404.179,274.389 398.344,274.679 397.200 C 274.818 396.650,275.533 394.945,276.266 393.411 C 277.000 391.877,277.600 390.428,277.600 390.190 C 277.600 389.952,278.212 387.877,278.961 385.579 C 283.171 372.655,281.504 351.049,275.418 339.637 C 275.114 339.067,274.564 337.790,274.196 336.800 C 273.586 335.157,270.408 329.977,267.400 325.722 C 264.211 321.211,260.922 317.449,256.979 313.800 C 254.601 311.600,251.891 309.045,250.956 308.123 C 250.021 307.200,248.479 306.050,247.528 305.568 C 246.578 305.085,245.260 304.238,244.600 303.685 C 243.940 303.132,242.320 302.189,241.000 301.589 C 239.680 300.990,238.060 300.017,237.400 299.427 C 234.266 296.626,220.100 290.704,212.844 289.162 C 210.779 288.722,208.529 288.072,207.844 287.716 C 202.790 285.088,186.788 284.571,173.657 286.612 C 165.520 287.876,161.083 288.358,151.800 288.985 C 146.520 289.342,139.848 289.815,136.972 290.037 C 122.150 291.181,113.900 286.054,109.291 272.833 C 105.981 263.335,108.691 249.693,115.028 243.954 C 115.608 243.429,116.804 242.326,117.687 241.502 C 118.721 240.537,120.167 239.730,121.746 239.237 C 123.096 238.816,125.390 237.909,126.845 237.223 C 129.482 235.980,132.017 235.518,142.324 234.404 C 145.857 234.022,155.803 232.647,159.800 231.988 C 161.120 231.770,166.520 231.414,171.800 231.196 C 177.080 230.978,182.300 230.742,183.400 230.672 C 187.455 230.413,171.991 230.542,166.000 230.817 M324.841 344.536 C 324.818 345.160,325.193 347.860,325.674 350.536 C 326.885 357.277,327.014 376.758,325.881 381.800 C 325.485 383.560,325.087 386.530,324.996 388.400 C 324.832 391.749,324.836 391.764,325.223 389.400 C 325.440 388.080,325.982 384.878,326.429 382.284 C 327.606 375.452,327.815 366.924,327.029 357.800 C 326.432 350.868,324.938 341.812,324.841 344.536 M324.467 393.153 C 324.430 393.896,323.869 396.056,323.221 397.953 C 322.572 399.849,321.674 403.094,321.225 405.165 C 320.775 407.235,320.159 409.308,319.856 409.770 C 319.553 410.233,318.831 411.927,318.251 413.535 C 317.671 415.143,316.673 417.570,316.033 418.929 C 315.394 420.288,314.500 422.210,314.049 423.200 C 310.963 429.960,302.371 443.730,297.901 449.082 C 296.965 450.202,295.361 452.171,294.334 453.459 C 290.080 458.798,275.398 472.712,270.339 476.200 C 269.062 477.080,266.259 479.164,264.109 480.832 C 259.576 484.348,255.382 487.149,252.745 488.421 C 249.850 489.817,249.874 494.468,252.793 497.916 C 253.484 498.732,255.163 501.148,256.525 503.283 C 257.886 505.419,259.396 507.759,259.879 508.483 C 260.363 509.208,261.782 511.488,263.032 513.551 C 264.283 515.614,266.879 519.574,268.802 522.351 C 270.724 525.128,272.896 528.480,273.628 529.800 C 274.361 531.120,276.156 534.000,277.617 536.200 C 279.078 538.400,281.236 541.820,282.412 543.800 C 283.588 545.780,284.940 547.940,285.415 548.600 C 285.890 549.260,287.138 551.420,288.189 553.400 C 289.240 555.380,290.684 557.900,291.399 559.000 C 293.095 561.612,294.130 563.351,295.442 565.800 C 296.032 566.900,297.298 568.946,298.257 570.347 C 299.216 571.747,300.000 573.068,300.000 573.283 C 300.000 573.497,301.059 575.411,302.354 577.536 C 306.435 584.233,308.486 592.335,307.667 598.517 C 305.394 615.665,293.028 624.698,278.515 619.810 C 273.052 617.970,264.874 608.985,261.800 601.447 C 261.040 599.582,260.193 598.195,256.524 592.800 C 255.850 591.810,254.273 589.200,253.019 587.000 C 249.634 581.064,245.701 574.652,240.996 567.400 C 240.283 566.300,239.016 564.140,238.180 562.600 C 237.345 561.060,235.963 558.810,235.110 557.600 C 233.707 555.612,227.746 546.546,223.896 540.545 C 223.068 539.255,221.496 536.940,220.401 535.400 C 219.306 533.860,217.733 531.450,216.905 530.044 C 216.077 528.637,214.725 526.720,213.900 525.782 C 213.075 524.844,212.400 523.901,212.400 523.686 C 212.400 523.470,211.504 522.148,210.408 520.747 C 209.312 519.346,208.412 517.985,208.408 517.721 C 208.404 517.458,207.545 516.105,206.500 514.714 C 205.455 513.323,204.087 511.400,203.459 510.439 C 200.229 505.496,198.472 504.316,192.983 503.402 C 190.792 503.037,188.010 502.497,186.800 502.203 C 185.590 501.908,183.004 501.462,181.054 501.212 C 178.470 500.881,176.556 500.329,174.001 499.179 C 172.072 498.311,170.068 497.613,169.547 497.628 C 168.809 497.650,168.944 497.783,170.164 498.229 C 171.024 498.545,172.644 499.229,173.764 499.751 C 176.597 501.070,178.171 501.496,181.357 501.807 C 182.874 501.955,184.839 502.332,185.725 502.644 C 186.610 502.957,189.570 503.560,192.302 503.985 C 197.921 504.859,198.834 505.344,201.572 508.906 C 205.077 513.465,207.321 516.684,208.208 518.424 C 208.719 519.428,209.781 521.020,210.568 521.962 C 211.356 522.905,212.000 523.838,212.000 524.037 C 212.000 524.235,212.602 525.073,213.337 525.899 C 214.072 526.724,215.488 528.750,216.483 530.400 C 217.478 532.050,219.125 534.570,220.143 536.000 C 221.160 537.430,222.670 539.658,223.497 540.952 C 227.657 547.458,233.302 556.044,234.707 558.000 C 235.575 559.210,236.875 561.280,237.595 562.600 C 239.152 565.455,245.464 575.661,247.653 578.864 C 248.504 580.109,249.200 581.233,249.200 581.363 C 249.200 581.492,250.340 583.460,251.733 585.735 C 253.125 588.010,254.387 590.189,254.536 590.577 C 254.685 590.964,255.502 592.298,256.353 593.541 C 259.416 598.017,260.758 600.234,261.594 602.200 C 265.533 611.465,274.209 619.870,281.407 621.394 C 303.090 625.987,316.097 599.043,302.764 577.152 C 301.475 575.036,300.245 572.845,300.032 572.284 C 299.818 571.722,299.025 570.393,298.269 569.331 C 297.513 568.269,296.416 566.500,295.832 565.400 C 294.530 562.948,293.496 561.208,291.789 558.600 C 291.069 557.500,289.967 555.631,289.340 554.446 C 288.713 553.262,287.949 551.822,287.643 551.246 C 287.337 550.671,286.333 549.030,285.412 547.600 C 281.518 541.554,280.800 540.401,280.800 540.194 C 280.800 540.073,279.545 538.091,278.010 535.788 C 276.476 533.485,274.921 531.015,274.553 530.300 C 273.793 528.818,269.612 522.303,269.228 522.000 C 269.088 521.890,267.835 520.000,266.443 517.800 C 265.051 515.600,263.572 513.312,263.156 512.716 C 262.740 512.120,262.400 511.507,262.400 511.354 C 262.400 511.201,261.935 510.465,261.366 509.720 C 260.797 508.974,259.762 507.409,259.066 506.243 C 256.995 502.774,253.927 498.265,252.967 497.281 C 250.360 494.608,250.753 490.041,253.719 488.545 C 254.863 487.967,256.520 487.007,257.400 486.411 C 258.280 485.815,259.654 484.894,260.454 484.364 C 262.817 482.798,266.504 479.977,267.885 478.680 C 268.591 478.016,270.153 476.826,271.355 476.036 C 275.867 473.071,291.156 458.534,294.877 453.671 C 295.605 452.720,296.836 451.190,297.614 450.271 C 301.271 445.950,309.175 434.023,311.711 429.000 C 315.979 420.545,317.248 417.831,318.044 415.456 C 318.497 414.105,319.319 412.100,319.871 411.000 C 320.422 409.900,321.215 407.441,321.633 405.536 C 322.050 403.630,322.943 400.424,323.618 398.409 C 324.400 396.077,324.789 394.212,324.690 393.274 L 324.534 391.800 324.467 393.153 " stroke="none" fill="#7c7c7c" fill-rule="evenodd"></path><path id="path4" d="M154.600 55.057 C 153.720 55.124,150.300 55.373,147.000 55.610 C 130.472 56.796,120.444 57.916,113.400 59.363 C 111.860 59.680,108.355 60.147,105.612 60.401 C 102.086 60.728,99.965 61.141,98.376 61.810 C 97.140 62.330,95.244 62.971,94.164 63.234 C 80.836 66.473,72.942 84.940,79.015 98.672 C 84.735 111.607,93.500 115.834,108.600 112.941 C 110.360 112.604,112.610 112.083,113.600 111.784 C 115.565 111.190,127.216 109.858,136.400 109.178 C 139.590 108.942,145.070 108.400,148.577 107.974 C 153.788 107.342,157.577 107.200,169.300 107.200 C 182.670 107.200,185.443 107.355,191.773 108.456 C 193.078 108.683,195.508 109.017,197.173 109.198 C 210.238 110.617,211.863 110.879,214.725 112.025 C 216.333 112.669,219.068 113.558,220.803 114.001 C 233.696 117.293,248.001 128.712,251.788 138.736 C 255.340 148.136,256.542 164.277,254.444 174.400 C 253.252 180.154,251.810 185.651,250.541 189.275 C 248.475 195.179,248.105 195.851,242.944 203.080 C 237.980 210.032,224.663 220.036,216.766 222.745 C 215.538 223.166,213.198 224.160,211.566 224.953 C 209.935 225.746,206.980 226.749,205.000 227.181 C 203.020 227.613,200.244 228.444,198.830 229.028 C 196.043 230.178,196.270 230.160,171.952 231.169 C 166.756 231.385,161.356 231.746,159.952 231.972 C 155.475 232.692,145.760 234.032,142.324 234.404 C 132.017 235.518,129.482 235.980,126.845 237.223 C 125.390 237.909,123.096 238.816,121.746 239.237 C 120.167 239.730,118.721 240.537,117.687 241.502 C 116.804 242.326,115.608 243.429,115.028 243.954 C 108.691 249.693,105.981 263.335,109.291 272.833 C 113.900 286.054,122.150 291.181,136.972 290.037 C 139.848 289.815,146.520 289.342,151.800 288.985 C 161.083 288.358,165.520 287.876,173.657 286.612 C 186.788 284.571,202.790 285.088,207.844 287.716 C 208.529 288.072,210.779 288.722,212.844 289.162 C 220.100 290.704,234.266 296.626,237.400 299.427 C 238.060 300.017,239.680 300.990,241.000 301.589 C 242.320 302.189,243.940 303.132,244.600 303.685 C 245.260 304.238,246.578 305.085,247.528 305.568 C 248.479 306.050,250.021 307.200,250.956 308.123 C 251.891 309.045,254.601 311.600,256.979 313.800 C 260.922 317.449,264.211 321.211,267.400 325.722 C 270.408 329.977,273.586 335.157,274.196 336.800 C 274.564 337.790,275.114 339.067,275.418 339.637 C 281.504 351.049,283.171 372.655,278.961 385.579 C 278.212 387.877,277.600 389.952,277.600 390.190 C 277.600 390.428,277.000 391.877,276.266 393.411 C 275.533 394.945,274.818 396.650,274.679 397.200 C 274.389 398.344,270.959 404.179,268.359 407.952 C 267.391 409.356,266.337 410.886,266.016 411.352 C 265.695 411.819,264.781 413.010,263.985 414.000 C 263.189 414.990,261.870 416.819,261.054 418.064 C 260.238 419.309,259.082 420.644,258.485 421.032 C 257.888 421.419,256.680 422.413,255.800 423.241 C 248.683 429.937,245.361 432.746,240.862 435.877 C 239.025 437.155,236.235 439.122,234.662 440.248 C 233.088 441.374,230.810 442.795,229.600 443.405 C 228.390 444.015,226.860 444.911,226.200 445.398 C 224.105 446.941,219.701 447.872,218.200 447.088 C 216.373 446.134,214.195 444.043,212.484 441.600 C 211.482 440.170,210.240 438.537,209.725 437.971 C 209.209 437.405,208.205 436.026,207.493 434.907 C 206.119 432.744,203.176 429.093,198.600 423.874 C 197.060 422.118,195.132 419.886,194.315 418.915 C 188.568 412.081,175.893 399.817,172.245 397.560 C 171.320 396.987,169.709 395.867,168.665 395.070 C 167.620 394.273,165.902 393.364,164.846 393.051 C 163.790 392.737,162.133 392.074,161.163 391.578 C 154.618 388.225,143.924 388.460,136.684 392.114 C 117.634 401.730,113.324 436.989,127.921 463.800 C 132.229 471.711,143.711 483.253,151.807 487.810 C 152.990 488.476,154.393 489.430,154.926 489.930 C 155.800 490.752,160.516 493.432,166.400 496.453 C 167.610 497.074,169.026 497.586,169.547 497.591 C 170.068 497.596,172.072 498.311,174.001 499.179 C 176.556 500.329,178.470 500.881,181.054 501.212 C 183.004 501.462,185.590 501.908,186.800 502.203 C 188.010 502.497,190.792 503.037,192.983 503.402 C 198.472 504.316,200.229 505.496,203.459 510.439 C 204.087 511.400,205.455 513.323,206.500 514.714 C 207.545 516.105,208.404 517.458,208.408 517.721 C 208.412 517.985,209.312 519.346,210.408 520.747 C 211.504 522.148,212.400 523.470,212.400 523.686 C 212.400 523.901,213.075 524.844,213.900 525.782 C 214.725 526.720,216.077 528.637,216.905 530.044 C 217.733 531.450,219.306 533.860,220.401 535.400 C 221.496 536.940,223.068 539.255,223.896 540.545 C 227.746 546.546,233.707 555.612,235.110 557.600 C 235.963 558.810,237.345 561.060,238.180 562.600 C 239.016 564.140,240.283 566.300,240.996 567.400 C 245.701 574.652,249.634 581.064,253.019 587.000 C 254.273 589.200,255.850 591.810,256.524 592.800 C 260.193 598.195,261.040 599.582,261.800 601.447 C 264.874 608.985,273.052 617.970,278.515 619.810 C 301.089 627.413,316.305 600.431,302.354 577.536 C 301.059 575.411,300.000 573.497,300.000 573.283 C 300.000 573.068,299.216 571.747,298.257 570.347 C 297.298 568.946,296.032 566.900,295.442 565.800 C 294.130 563.351,293.095 561.612,291.399 559.000 C 290.684 557.900,289.240 555.380,288.189 553.400 C 287.138 551.420,285.890 549.260,285.415 548.600 C 284.940 547.940,283.588 545.780,282.412 543.800 C 281.236 541.820,279.078 538.400,277.617 536.200 C 276.156 534.000,274.361 531.120,273.628 529.800 C 272.896 528.480,270.724 525.128,268.802 522.351 C 266.879 519.574,264.283 515.614,263.032 513.551 C 261.782 511.488,260.363 509.208,259.879 508.483 C 259.396 507.759,257.886 505.419,256.525 503.283 C 255.163 501.148,253.484 498.732,252.793 497.916 C 249.874 494.468,249.850 489.817,252.745 488.421 C 255.382 487.149,259.576 484.348,264.109 480.832 C 266.259 479.164,269.062 477.080,270.339 476.200 C 275.398 472.712,290.080 458.798,294.334 453.459 C 295.361 452.171,296.965 450.202,297.901 449.082 C 302.371 443.730,310.963 429.960,314.049 423.200 C 314.500 422.210,315.394 420.288,316.033 418.929 C 316.673 417.570,317.671 415.143,318.251 413.535 C 318.831 411.927,319.553 410.233,319.856 409.770 C 320.159 409.308,320.775 407.235,321.225 405.165 C 321.674 403.094,322.563 399.870,323.200 398.000 C 324.020 395.592,324.479 393.191,324.773 389.771 C 325.002 387.115,325.506 383.515,325.894 381.771 C 326.989 376.852,326.872 357.346,325.706 350.400 C 325.244 347.650,324.658 343.870,324.404 342.000 C 324.149 340.130,323.427 337.070,322.799 335.200 C 322.171 333.330,321.462 330.834,321.223 329.654 C 320.984 328.474,320.268 326.314,319.631 324.854 C 318.994 323.394,318.264 321.390,318.010 320.400 C 317.756 319.410,316.954 317.610,316.227 316.400 C 314.922 314.226,312.000 307.994,312.000 307.385 C 312.000 306.498,304.869 295.239,303.063 293.275 C 302.596 292.766,301.310 291.033,300.206 289.423 C 297.296 285.179,294.111 281.391,290.770 278.200 C 289.158 276.660,286.509 273.963,284.883 272.206 C 283.258 270.449,281.179 268.518,280.264 267.915 C 279.349 267.311,278.060 266.379,277.400 265.843 C 274.591 263.560,272.375 261.858,268.800 259.238 C 264.675 256.213,263.004 254.283,263.605 253.235 C 264.088 252.393,265.640 250.653,270.414 245.600 C 272.597 243.290,275.242 240.260,276.292 238.866 C 280.756 232.940,282.452 230.520,283.039 229.237 C 283.382 228.488,284.171 227.228,284.791 226.437 C 285.411 225.647,286.050 224.550,286.210 224.000 C 286.498 223.013,287.830 220.060,290.812 213.800 C 291.651 212.040,292.642 209.520,293.016 208.200 C 293.390 206.880,294.113 204.797,294.623 203.570 C 295.697 200.990,297.138 194.424,298.874 184.200 C 300.284 175.904,300.790 148.516,299.666 141.400 C 298.188 132.044,296.488 124.708,295.066 121.548 C 294.534 120.367,293.877 118.680,293.605 117.800 C 293.333 116.920,292.338 114.760,291.393 113.000 C 290.448 111.240,288.843 108.135,287.825 106.101 C 285.586 101.625,283.219 98.192,280.197 95.038 C 278.952 93.738,277.247 91.758,276.409 90.638 C 273.927 87.319,269.997 83.549,267.200 81.805 C 266.210 81.188,264.410 79.842,263.200 78.816 C 260.228 76.294,255.483 73.214,253.896 72.775 C 253.183 72.579,251.615 71.783,250.412 71.008 C 249.209 70.232,247.859 69.492,247.412 69.363 C 246.965 69.233,244.530 68.169,242.000 66.997 C 234.936 63.726,227.606 61.460,218.182 59.633 C 213.572 58.739,209.170 57.813,208.400 57.576 C 207.630 57.338,205.110 56.983,202.800 56.786 C 200.490 56.589,195.101 56.062,190.825 55.614 C 183.664 54.864,161.559 54.524,154.600 55.057 M187.200 56.775 C 199.572 57.611,206.533 58.519,207.956 59.482 C 208.999 60.188,209.875 60.402,211.756 60.407 C 217.105 60.422,221.501 61.138,223.700 62.353 C 224.855 62.991,226.790 63.730,228.000 63.996 C 231.818 64.833,238.123 66.853,240.200 67.904 C 241.300 68.460,243.430 69.334,244.933 69.845 C 246.436 70.356,248.266 71.302,249.000 71.947 C 249.779 72.630,251.035 73.237,252.014 73.402 C 253.050 73.577,254.250 74.180,255.146 74.974 C 255.946 75.683,257.590 76.823,258.800 77.507 C 260.010 78.191,261.960 79.572,263.133 80.575 C 264.306 81.579,265.530 82.400,265.852 82.400 C 266.175 82.400,267.106 83.050,267.920 83.844 C 268.734 84.638,269.760 85.587,270.200 85.952 C 271.194 86.777,273.806 89.723,275.400 91.817 C 276.060 92.685,277.050 93.811,277.600 94.320 C 278.150 94.829,278.870 95.539,279.200 95.898 C 279.530 96.256,280.387 97.191,281.104 97.975 C 282.696 99.715,284.825 103.051,286.225 106.000 C 286.800 107.210,287.494 108.470,287.768 108.800 C 288.042 109.130,288.675 110.390,289.175 111.600 C 289.676 112.810,290.397 114.160,290.778 114.600 C 291.562 115.505,292.057 116.747,293.009 120.200 C 293.374 121.520,293.902 122.870,294.184 123.200 C 295.026 124.184,295.946 127.601,296.231 130.800 C 296.378 132.450,296.827 134.790,297.228 136.000 C 298.706 140.451,298.878 142.520,299.055 158.000 C 299.240 174.279,299.154 175.482,297.044 186.000 C 296.713 187.650,296.054 191.496,295.580 194.546 C 295.076 197.790,294.414 200.612,293.985 201.346 C 293.581 202.036,292.947 203.860,292.575 205.400 C 292.204 206.940,291.302 209.460,290.570 211.000 C 289.253 213.773,285.261 222.472,284.420 224.400 C 284.180 224.950,283.493 226.137,282.892 227.038 C 282.291 227.939,281.094 229.739,280.231 231.038 C 279.368 232.337,277.813 234.390,276.776 235.600 C 275.738 236.810,274.423 238.732,273.853 239.870 C 273.283 241.009,272.457 242.055,272.017 242.194 C 270.618 242.639,261.600 252.615,261.600 253.718 C 261.600 255.584,267.182 261.200,269.036 261.200 C 269.208 261.200,270.170 261.891,271.174 262.735 C 272.178 263.580,273.774 264.757,274.719 265.352 C 275.665 265.947,276.542 266.704,276.668 267.034 C 276.795 267.364,277.551 267.976,278.349 268.394 C 279.939 269.226,280.369 269.627,287.431 276.855 C 292.920 282.474,297.254 287.382,299.004 289.962 C 299.662 290.931,300.967 292.821,301.904 294.162 C 302.842 295.503,303.909 297.050,304.276 297.600 C 304.644 298.150,305.422 299.140,306.006 299.800 C 307.258 301.214,308.800 303.834,308.800 304.547 C 308.800 304.823,309.173 305.449,309.629 305.939 C 310.084 306.428,310.871 308.037,311.378 309.514 C 312.328 312.287,315.244 318.118,316.237 319.231 C 316.547 319.579,316.800 320.145,316.800 320.489 C 316.800 321.696,318.405 326.299,319.162 327.261 C 319.582 327.795,320.047 329.125,320.195 330.216 C 320.554 332.852,321.876 337.800,322.592 339.185 C 323.294 340.541,324.811 354.612,325.450 365.683 C 325.705 370.090,325.346 375.328,324.389 381.200 C 324.192 382.410,323.832 386.010,323.590 389.200 C 323.323 392.710,322.934 395.332,322.604 395.841 C 321.892 396.939,320.526 401.663,320.189 404.188 C 320.044 405.281,319.513 406.991,319.011 407.988 C 318.508 408.984,317.771 410.880,317.372 412.200 C 316.974 413.520,316.444 414.870,316.195 415.200 C 315.946 415.530,315.247 416.970,314.642 418.400 C 312.092 424.421,307.278 433.231,303.604 438.600 C 302.701 439.920,301.129 442.260,300.110 443.800 C 295.857 450.232,287.944 458.931,280.825 465.000 C 276.859 468.382,276.375 468.840,273.714 471.737 C 272.566 472.986,270.766 474.466,269.714 475.025 C 268.661 475.585,267.350 476.449,266.800 476.947 C 266.250 477.444,265.418 478.109,264.951 478.425 C 262.327 480.200,259.215 482.440,258.743 482.891 C 258.444 483.177,257.660 483.746,257.000 484.157 C 256.340 484.568,255.350 485.303,254.800 485.792 C 254.250 486.280,252.990 486.992,252.000 487.374 C 247.365 489.159,247.678 494.282,252.784 500.182 C 253.673 501.209,254.400 502.283,254.400 502.569 C 254.400 502.856,254.958 503.790,255.640 504.645 C 256.323 505.500,257.299 507.021,257.809 508.025 C 258.320 509.029,259.017 510.082,259.358 510.365 C 259.699 510.648,261.078 512.797,262.422 515.140 C 264.741 519.180,266.169 521.288,268.657 524.341 C 269.258 525.078,270.130 526.428,270.595 527.341 C 271.969 530.040,273.674 532.903,274.800 534.400 C 275.379 535.170,276.344 536.655,276.943 537.700 C 277.543 538.745,278.191 539.600,278.384 539.600 C 278.576 539.600,279.057 540.447,279.452 541.481 C 279.847 542.516,280.762 544.137,281.485 545.085 C 282.208 546.032,282.800 546.916,282.800 547.050 C 282.800 547.183,283.410 548.127,284.155 549.146 C 284.901 550.166,285.958 551.900,286.504 553.000 C 288.305 556.624,290.123 559.782,291.069 560.931 C 291.581 561.553,292.000 562.304,292.000 562.600 C 292.000 562.896,292.592 563.918,293.315 564.869 C 294.038 565.821,294.884 567.220,295.196 567.978 C 295.507 568.736,296.261 569.925,296.872 570.621 C 297.482 571.316,298.530 573.036,299.200 574.442 C 299.871 575.849,301.137 578.260,302.014 579.800 C 304.460 584.093,304.744 584.863,305.411 589.008 C 308.926 610.850,295.583 624.554,277.440 617.737 C 275.030 616.831,270.118 612.370,268.581 609.691 C 267.984 608.651,267.150 607.440,266.728 607.000 C 265.626 605.852,262.415 600.319,262.407 599.556 C 262.403 599.202,261.919 598.212,261.332 597.356 C 260.744 596.500,259.717 594.990,259.049 594.000 C 258.382 593.010,257.513 591.965,257.118 591.677 C 256.723 591.390,256.205 590.379,255.966 589.431 C 255.571 587.862,254.434 585.901,251.310 581.402 C 250.699 580.523,249.773 578.993,249.251 578.002 C 248.729 577.011,248.075 575.930,247.798 575.600 C 247.520 575.270,246.925 574.268,246.476 573.373 C 246.026 572.479,245.361 571.499,244.997 571.197 C 244.633 570.895,243.813 569.615,243.176 568.353 C 242.539 567.091,241.829 565.942,241.599 565.799 C 241.369 565.657,240.553 564.339,239.787 562.870 C 238.261 559.945,238.074 559.628,235.953 556.381 C 235.156 555.160,234.185 553.540,233.796 552.781 C 233.406 552.021,232.650 550.860,232.116 550.200 C 230.814 548.594,229.569 546.746,227.601 543.500 C 226.701 542.015,225.810 540.800,225.621 540.800 C 225.433 540.800,225.100 540.288,224.882 539.662 C 224.664 539.037,223.971 537.912,223.343 537.162 C 222.714 536.413,221.862 535.170,221.449 534.400 C 221.036 533.630,220.206 532.366,219.604 531.592 C 219.002 530.817,218.128 529.435,217.661 528.519 C 217.194 527.603,216.614 526.732,216.373 526.583 C 215.897 526.289,213.340 522.553,212.450 520.851 C 212.148 520.273,211.402 519.260,210.792 518.600 C 210.183 517.940,209.226 516.483,208.667 515.362 C 208.107 514.242,207.188 513.022,206.625 512.653 C 206.061 512.284,205.600 511.758,205.600 511.485 C 205.600 510.781,202.954 506.870,201.309 505.143 C 199.122 502.846,193.211 501.060,186.200 500.576 C 181.354 500.242,177.474 499.422,176.118 498.445 C 175.503 498.002,173.481 497.258,171.625 496.792 C 169.567 496.275,167.787 495.556,167.065 494.948 C 165.657 493.763,161.886 491.831,160.200 491.430 C 159.540 491.273,158.004 490.366,156.787 489.414 C 155.569 488.462,153.898 487.401,153.073 487.056 C 152.247 486.711,151.295 486.152,150.956 485.813 C 150.617 485.474,149.589 484.679,148.670 484.045 C 147.752 483.411,146.290 482.220,145.422 481.399 C 144.554 480.578,142.426 478.657,140.693 477.130 C 134.675 471.827,132.314 468.970,129.746 463.886 C 129.166 462.739,128.365 461.381,127.964 460.869 C 126.909 459.520,124.188 452.294,123.419 448.800 C 123.056 447.150,122.485 444.810,122.150 443.600 C 120.674 438.260,120.429 436.106,120.415 428.320 C 120.399 420.136,120.740 417.175,121.971 414.800 C 122.370 414.030,123.096 412.050,123.584 410.400 C 124.072 408.750,124.790 407.040,125.180 406.600 C 125.570 406.160,126.541 404.671,127.337 403.291 C 129.024 400.369,129.322 399.965,131.216 398.040 C 131.995 397.248,132.918 396.145,133.267 395.588 C 133.697 394.905,134.664 394.341,136.251 393.851 C 137.543 393.451,138.960 392.900,139.400 392.626 C 142.397 390.759,151.652 390.402,156.800 391.954 C 158.230 392.386,160.903 393.186,162.739 393.732 C 164.705 394.317,166.514 395.137,167.139 395.727 C 167.723 396.278,168.937 397.108,169.839 397.573 C 170.740 398.037,172.739 399.628,174.281 401.109 C 175.823 402.589,177.836 404.430,178.755 405.200 C 180.861 406.965,186.879 413.012,190.800 417.305 C 192.450 419.111,194.524 421.314,195.410 422.201 C 196.295 423.088,197.434 424.485,197.941 425.304 C 198.448 426.124,199.083 426.931,199.352 427.098 C 199.622 427.264,200.883 428.794,202.154 430.497 C 203.426 432.201,204.943 433.969,205.525 434.427 C 206.106 434.884,207.036 436.032,207.591 436.977 C 210.643 442.176,215.614 447.865,217.565 448.391 C 220.004 449.047,226.020 447.655,227.789 446.025 C 228.235 445.613,229.750 444.797,231.156 444.210 C 232.561 443.623,234.702 442.391,235.912 441.472 C 237.122 440.552,238.582 439.455,239.156 439.033 C 239.730 438.611,240.830 437.688,241.600 436.981 C 242.370 436.273,243.450 435.468,244.000 435.191 C 245.310 434.531,247.841 432.416,251.170 429.200 C 252.650 427.770,254.367 426.332,254.984 426.004 C 255.602 425.675,256.381 424.990,256.715 424.481 C 257.049 423.971,258.100 423.019,259.051 422.365 C 260.003 421.710,261.269 420.325,261.865 419.287 C 262.461 418.249,263.500 416.729,264.174 415.909 C 266.846 412.659,267.600 411.681,267.600 411.465 C 267.600 411.112,269.999 407.648,270.427 407.383 C 270.638 407.253,271.190 406.404,271.652 405.498 C 272.114 404.592,272.746 403.597,273.056 403.287 C 273.796 402.547,274.619 400.887,274.970 399.424 C 275.126 398.778,275.575 397.788,275.969 397.224 C 276.363 396.661,277.167 394.940,277.755 393.400 C 278.343 391.860,279.176 389.836,279.606 388.901 C 281.602 384.566,283.714 366.291,282.853 360.800 C 281.958 355.088,280.297 348.171,279.392 346.385 C 278.867 345.347,278.223 343.621,277.962 342.549 C 277.701 341.477,276.904 339.520,276.191 338.200 C 275.478 336.880,274.771 335.268,274.619 334.617 C 274.467 333.966,273.546 332.374,272.572 331.077 C 271.597 329.781,270.800 328.571,270.800 328.389 C 270.800 326.612,258.478 312.240,254.420 309.284 C 253.639 308.715,252.280 307.572,251.400 306.744 C 250.520 305.916,249.170 304.975,248.400 304.654 C 247.630 304.333,246.550 303.586,246.000 302.995 C 245.450 302.404,244.109 301.467,243.020 300.913 C 240.797 299.782,238.201 298.174,237.000 297.185 C 236.560 296.823,235.160 296.115,233.889 295.612 C 232.619 295.110,231.174 294.380,230.679 293.991 C 229.191 292.820,221.634 289.981,214.200 287.799 C 212.220 287.218,209.520 286.321,208.200 285.805 C 202.578 283.610,186.135 282.909,175.800 284.424 C 173.132 284.815,166.511 285.552,157.800 286.426 C 155.600 286.647,151.370 287.202,148.400 287.660 C 144.318 288.290,140.901 288.506,134.400 288.547 L 125.800 288.600 123.600 287.448 C 122.390 286.815,120.734 285.698,119.919 284.967 C 119.105 284.235,117.716 283.158,116.832 282.574 C 113.097 280.102,109.320 271.134,108.902 263.742 C 108.650 259.308,112.268 248.915,114.973 246.301 C 115.259 246.026,116.371 244.964,117.446 243.943 C 118.521 242.922,119.692 241.732,120.049 241.298 C 120.447 240.815,121.795 240.262,123.534 239.869 C 125.093 239.517,127.242 238.787,128.310 238.246 C 130.721 237.024,133.634 236.504,139.800 236.196 C 142.440 236.064,147.300 235.607,150.600 235.180 C 153.900 234.753,158.040 234.223,159.800 234.003 C 161.560 233.782,166.330 233.424,170.400 233.206 C 189.583 232.181,199.532 231.016,203.152 229.373 C 204.335 228.836,206.855 228.023,208.752 227.566 C 210.648 227.109,212.740 226.327,213.400 225.829 C 214.060 225.331,215.860 224.511,217.400 224.006 C 220.602 222.956,224.446 221.126,226.200 219.815 C 226.860 219.322,228.030 218.596,228.800 218.201 C 231.762 216.682,242.828 206.272,243.674 204.209 C 243.947 203.544,244.536 202.707,244.985 202.349 C 246.287 201.310,248.891 197.293,249.579 195.264 C 249.926 194.239,250.593 192.770,251.060 192.000 C 251.528 191.230,252.209 189.100,252.574 187.267 C 252.939 185.434,253.569 183.094,253.973 182.067 C 255.869 177.252,256.187 174.144,256.192 160.400 C 256.197 146.815,256.091 145.774,254.330 142.200 C 253.897 141.320,253.191 139.483,252.761 138.118 C 252.331 136.753,251.579 135.133,251.090 134.518 C 250.600 133.903,249.759 132.554,249.219 131.520 C 247.776 128.753,243.226 124.274,239.000 121.461 C 238.120 120.875,236.320 119.586,235.000 118.597 C 231.594 116.046,228.104 114.501,222.725 113.164 C 220.153 112.525,217.453 111.656,216.725 111.233 C 214.704 110.060,212.545 109.620,206.934 109.237 C 202.665 108.945,201.411 108.705,199.493 107.810 C 193.310 104.928,143.833 104.947,133.600 107.835 C 129.351 109.034,128.541 109.150,121.400 109.585 C 114.633 109.998,109.567 110.762,107.985 111.608 C 104.124 113.674,96.352 112.759,88.912 109.362 C 86.500 108.261,82.602 103.151,80.092 97.800 C 74.798 86.515,81.823 68.915,93.000 65.458 C 94.980 64.846,98.670 63.647,101.200 62.795 C 105.569 61.322,106.243 61.213,114.600 60.631 C 121.045 60.181,124.363 59.761,127.000 59.062 C 132.602 57.575,148.814 56.637,171.200 56.503 C 177.250 56.467,184.450 56.590,187.200 56.775 " stroke="none" fill="#6c6c6c" fill-rule="evenodd"></path></g></svg>